<?xml version="1.0" encoding="utf-8"?>
<!-- Generator: Adobe Illustrator 21.0.0, SVG Export Plug-In . SVG Version: 6.00 Build 0)  -->
<svg version="1.1" id="Layer_1" xmlns="http://www.w3.org/2000/svg" xmlns:xlink="http://www.w3.org/1999/xlink" x="0px" y="0px"
	 viewBox="0 0 1644 1506" style="enable-background:new 0 0 1644 1506;" xml:space="preserve">
<style type="text/css">
	.st0{display:none;}
	.st1{display:inline;}
	.st2{fill:none;stroke:#000000;stroke-width:7;stroke-miterlimit:10;}
	.st3{fill:none;stroke:#000000;stroke-width:7;stroke-miterlimit:10;stroke-dasharray:11.9387,11.9387;}
	.st4{fill:#D6D7D8;}
	.st5{fill:#336699;}
	.st6{fill:#666666;}
	.st7{fill:#999999;}
	.st8{fill:none;stroke:#336699;stroke-width:7;stroke-miterlimit:10;}
	.st9{fill:none;stroke:#000000;stroke-width:7;stroke-miterlimit:10;stroke-dasharray:12;}
	.st10{fill:none;stroke:#D6D7D8;stroke-miterlimit:10;}
	.st11{fill:#FFFFFF;}
	.st12{fill:#FE8081;stroke:#000000;stroke-width:2;stroke-miterlimit:10;}
	.st13{fill:none;stroke:#000000;stroke-width:3;stroke-miterlimit:10;}
	.st14{fill:#FF0080;stroke:#000000;stroke-miterlimit:10;}
	.st15{opacity:0.22;}
	.st16{fill:none;stroke:#000000;stroke-width:5;stroke-miterlimit:10;}
	.st17{fill:#8C8C8C;stroke:#000000;stroke-width:1.5;stroke-miterlimit:10;}
	.st18{fill:none;stroke:#51B6F1;stroke-width:5;stroke-miterlimit:10;}
	.st19{fill:#51B6F1;}
	.st20{fill:none;stroke:#C9322A;stroke-width:5;stroke-miterlimit:10;}
	.st21{fill:#C9322A;}
	.st22{fill:none;stroke:#030303;stroke-width:3;stroke-miterlimit:10;}
	.st23{fill:none;stroke:#56B971;stroke-width:5;stroke-miterlimit:10;}
	.st24{fill:#56B971;}
	.st25{fill:none;stroke:#000000;stroke-width:0.75;stroke-miterlimit:10;}
	.st26{fill:#041C93;}
	.st27{fill:#4395E6;}
	.st28{fill:#C25829;}
	.st29{fill:#D64370;}
	.st30{fill:#C10E0E;}
	.st31{fill:#FDFDFF;}
	.st32{fill:none;stroke:#000000;stroke-width:1.5;stroke-miterlimit:10;}
	.st33{fill:#EFA973;}
	.st34{fill:#0C0D0E;}
	.st35{fill:url(#SVGID_1_);}
	.st36{fill:#020202;}
	.st37{fill:#052C50;}
	.st38{fill:url(#SVGID_2_);}
	.st39{fill:url(#SVGID_3_);}
	.st40{fill:url(#SVGID_4_);}
	.st41{fill:url(#SVGID_5_);}
	.st42{fill:url(#SVGID_6_);}
	.st43{fill:url(#SVGID_7_);}
	.st44{fill:#9AFFFF;}
	.st45{fill:#CCFFFF;}
	.st46{fill:#A4D7FF;}
	.st47{fill:#67CDCD;}
	.st48{fill:#9ACDFF;}
	.st49{fill:#C80000;}
	.st50{fill:none;stroke:#000000;stroke-width:2;stroke-miterlimit:10;}
	.st51{fill:none;}
	.st52{opacity:0.5;fill:url(#SVGID_8_);}
	.st53{opacity:0.37;fill:url(#SVGID_9_);}
	.st54{opacity:0.7;fill:url(#SVGID_10_);}
	.st55{opacity:0.7;fill:url(#SVGID_11_);}
	.st56{fill:#AAD5FF;}
	.st57{opacity:0.25;fill:#AAC0D5;}
	.st58{opacity:0.7;fill:url(#SVGID_12_);}
	.st59{fill:#231F20;}
	.st60{opacity:0.94;}
	.st61{clip-path:url(#SVGID_14_);}
	.st62{fill:#EC1C24;}
	.st63{opacity:0.9;}
	.st64{fill:url(#SVGID_15_);}
	.st65{clip-path:url(#SVGID_17_);}
	.st66{clip-path:url(#SVGID_19_);}
	.st67{clip-path:url(#SVGID_23_);}
	.st68{fill:url(#SVGID_24_);}
	.st69{fill:url(#SVGID_25_);}
	.st70{fill:url(#SVGID_26_);}
	.st71{fill:url(#SVGID_27_);}
	.st72{fill:url(#SVGID_28_);}
	.st73{fill:url(#SVGID_29_);}
	.st74{fill:url(#SVGID_30_);}
	.st75{fill:url(#SVGID_31_);}
	.st76{fill:url(#SVGID_32_);}
	.st77{fill:url(#SVGID_33_);}
	.st78{fill:url(#SVGID_34_);}
	.st79{fill:url(#SVGID_35_);}
	.st80{fill:url(#SVGID_36_);}
	.st81{fill:url(#SVGID_37_);}
	.st82{fill:url(#SVGID_38_);}
	.st83{fill:url(#SVGID_39_);}
	.st84{fill:url(#SVGID_40_);}
	.st85{fill:url(#SVGID_41_);}
	.st86{fill:url(#SVGID_42_);}
	.st87{fill:url(#SVGID_43_);}
	.st88{fill:url(#SVGID_44_);}
	.st89{fill:url(#SVGID_45_);}
	.st90{fill:url(#SVGID_46_);}
	.st91{fill:url(#SVGID_47_);}
</style>
<rect y="99" width="1644" height="126"/>
<g>
	<g>
		<path class="st11" d="M65.3,181.9l-0.8,6.1H35.8l0.8-6.1h10.8l4.5-35.9c0.1-0.6,0.2-1.2,0.3-1.8c0.1-0.6,0.2-1.2,0.3-1.8l-9.1,7.7
			c-0.4,0.3-0.8,0.5-1.2,0.6c-0.4,0.1-0.8,0.1-1.1,0c-0.3-0.1-0.6-0.2-0.9-0.4c-0.3-0.2-0.4-0.4-0.5-0.6l-2.1-3.5l17.6-14.5h6.7
			l-6.2,50.1H65.3z"/>
		<path class="st11" d="M81.8,183.2c0-0.8,0.1-1.5,0.4-2.1c0.3-0.7,0.7-1.2,1.2-1.7c0.5-0.5,1.1-0.9,1.7-1.2s1.4-0.4,2.2-0.4
			c0.8,0,1.5,0.1,2.1,0.4s1.2,0.7,1.7,1.2c0.5,0.5,0.9,1.1,1.2,1.7c0.3,0.7,0.4,1.4,0.4,2.1c0,0.8-0.1,1.5-0.4,2.1
			c-0.3,0.7-0.7,1.2-1.2,1.7c-0.5,0.5-1.1,0.9-1.7,1.2c-0.7,0.3-1.4,0.4-2.1,0.4c-0.8,0-1.5-0.1-2.2-0.4c-0.7-0.3-1.2-0.7-1.7-1.2
			c-0.5-0.5-0.9-1.1-1.2-1.7C82,184.7,81.8,184,81.8,183.2z"/>
		<path class="st11" d="M146.8,167.4l-0.6,4.7c-0.1,0.4-0.3,0.8-0.6,1.2c-0.3,0.3-0.8,0.5-1.3,0.5H139l-1.8,14.3h-7.1l1.8-14.3
			h-22.5c-0.6,0-1-0.2-1.4-0.5c-0.4-0.4-0.6-0.8-0.7-1.3l-0.3-4.1l29.4-35.9h7.7l-4.4,35.5H146.8z M132.7,167.4l2.6-21
			c0.2-1.3,0.4-2.8,0.8-4.5l-20.4,25.5H132.7z"/>
		<path class="st11" d="M158.9,183.2c0-0.8,0.1-1.5,0.4-2.1c0.3-0.7,0.7-1.2,1.2-1.7c0.5-0.5,1.1-0.9,1.7-1.2s1.4-0.4,2.2-0.4
			c0.8,0,1.5,0.1,2.1,0.4s1.2,0.7,1.7,1.2c0.5,0.5,0.9,1.1,1.2,1.7c0.3,0.7,0.4,1.4,0.4,2.1c0,0.8-0.1,1.5-0.4,2.1
			c-0.3,0.7-0.7,1.2-1.2,1.7c-0.5,0.5-1.1,0.9-1.7,1.2c-0.7,0.3-1.4,0.4-2.1,0.4c-0.8,0-1.5-0.1-2.2-0.4c-0.7-0.3-1.2-0.7-1.7-1.2
			c-0.5-0.5-0.9-1.1-1.2-1.7C159,184.7,158.9,184,158.9,183.2z"/>
		<path class="st11" d="M263.1,156.1c0,3.1-0.3,6.1-1,8.9c-0.7,2.8-1.7,5.5-2.9,7.9c-1.3,2.4-2.8,4.6-4.6,6.5
			c-1.8,1.9-3.8,3.6-6.1,5c-2.2,1.4-4.7,2.4-7.3,3.2s-5.3,1.1-8.2,1.1c-3.5,0-6.7-0.6-9.6-1.9c-2.9-1.2-5.3-3-7.3-5.2
			c-2-2.2-3.5-4.8-4.6-7.8c-1.1-3-1.6-6.3-1.6-9.9c0-3.1,0.3-6.1,1-9c0.7-2.8,1.7-5.5,2.9-7.9s2.8-4.6,4.6-6.6c1.8-2,3.8-3.6,6.1-5
			c2.2-1.4,4.6-2.4,7.3-3.2c2.6-0.7,5.3-1.1,8.2-1.1c3.5,0,6.7,0.6,9.6,1.9c2.8,1.2,5.3,3,7.3,5.2c2,2.2,3.5,4.9,4.6,7.9
			C262.6,149.2,263.1,152.5,263.1,156.1z M254,156.3c0-2.7-0.3-5.1-1-7.3c-0.7-2.2-1.7-4-3-5.6c-1.3-1.5-2.9-2.7-4.7-3.6
			c-1.9-0.8-3.9-1.2-6.2-1.2c-3,0-5.7,0.6-8.1,1.8c-2.5,1.2-4.6,2.9-6.3,5.1s-3.1,4.8-4.1,7.9c-1,3.1-1.5,6.5-1.5,10.3
			c0,2.7,0.3,5.1,1,7.3c0.7,2.2,1.7,4,2.9,5.6c1.3,1.5,2.8,2.7,4.7,3.6c1.8,0.8,3.9,1.2,6.3,1.2c3,0,5.7-0.6,8.2-1.8
			c2.5-1.2,4.6-2.9,6.3-5c1.8-2.2,3.1-4.8,4.1-7.9S254,160.1,254,156.3z"/>
		<path class="st11" d="M284.8,157.8c1-1.6,2-3,3.2-4.2c1.1-1.2,2.3-2.3,3.6-3.2c1.2-0.9,2.5-1.6,3.9-2.1c1.4-0.5,2.7-0.7,4.2-0.7
			c1.7,0,3.2,0.3,4.6,0.9c1.4,0.6,2.5,1.5,3.4,2.8c0.9,1.2,1.7,2.8,2.2,4.6c0.5,1.8,0.8,4,0.8,6.4c0,2.2-0.2,4.4-0.7,6.6
			c-0.5,2.2-1.1,4.2-2,6.1c-0.8,1.9-1.9,3.7-3.1,5.4c-1.2,1.7-2.5,3.1-4,4.3c-1.4,1.2-3,2.2-4.7,2.8c-1.7,0.7-3.4,1-5.2,1
			c-1.9,0-3.6-0.4-5.1-1.1s-2.9-1.7-4-2.9l-2,16.6h-8.2l6.5-53.1h4.3c0.9,0,1.6,0.2,2.1,0.7c0.5,0.5,0.7,1.2,0.7,2.1L284.8,157.8z
			 M282.5,179c0.9,1.2,2.1,2,3.3,2.5c1.3,0.5,2.5,0.7,3.8,0.7c1.3,0,2.4-0.3,3.5-0.8c1.1-0.5,2.1-1.2,3-2.1c0.9-0.9,1.7-2,2.5-3.2
			c0.7-1.2,1.4-2.6,1.9-4s0.9-2.9,1.1-4.4c0.3-1.5,0.4-3,0.4-4.5c0-2.9-0.5-5.1-1.5-6.6c-1-1.5-2.5-2.2-4.3-2.2
			c-1.2,0-2.3,0.4-3.5,1.1c-1.2,0.7-2.3,1.8-3.4,3.1c-1.1,1.3-2.1,2.9-3.1,4.7c-1,1.8-1.8,3.7-2.5,5.9L282.5,179z"/>
		<path class="st11" d="M361.6,154.7l-4.1,33.3h-8.2l4.1-33.3h-17.7l-2.3,18.4c-0.1,1.1-0.2,1.9-0.3,2.6c-0.1,0.6-0.1,1.1-0.2,1.5
			c0,0.4-0.1,0.6-0.1,0.8c0,0.1,0,0.3,0,0.3c0,1.1,0.3,2,0.8,2.6c0.6,0.6,1.3,0.9,2.3,0.9c0.6,0,1.1-0.1,1.6-0.3
			c0.5-0.2,0.9-0.4,1.2-0.5c0.3-0.2,0.6-0.4,0.9-0.5c0.2-0.2,0.5-0.3,0.7-0.3c0.3,0,0.5,0.1,0.6,0.2c0.1,0.1,0.3,0.3,0.4,0.6
			l1.8,4.1c-1.4,1.1-2.9,2-4.6,2.6c-1.7,0.6-3.4,0.9-5.1,0.9c-2.7,0-4.9-0.7-6.4-2.2c-1.6-1.5-2.4-3.6-2.5-6.3c0-0.2,0-0.4,0-0.6
			c0-0.2,0-0.6,0.1-1.1c0-0.5,0.1-1.1,0.2-1.9c0.1-0.8,0.2-1.8,0.4-3l2.4-18.9h-4c-0.4,0-0.8-0.1-1.1-0.4c-0.3-0.3-0.4-0.7-0.3-1.3
			l0.4-3.2l6.1-0.9l3.1-11.6c0.2-0.4,0.4-0.8,0.7-1.1c0.3-0.3,0.7-0.4,1.2-0.4h4.5l-1.7,13.1h25.8L361.6,154.7z M365.7,136.2
			c0,0.8-0.2,1.5-0.5,2.1c-0.3,0.7-0.7,1.3-1.3,1.8c-0.5,0.5-1.1,0.9-1.8,1.2c-0.7,0.3-1.3,0.4-2,0.4c-0.7,0-1.4-0.1-2-0.4
			c-0.6-0.3-1.2-0.7-1.7-1.2s-0.9-1.1-1.2-1.8c-0.3-0.7-0.5-1.4-0.5-2.1c0-0.8,0.2-1.5,0.5-2.2c0.3-0.7,0.7-1.3,1.2-1.8
			c0.5-0.5,1.1-0.9,1.7-1.2c0.7-0.3,1.3-0.4,2-0.4c0.7,0,1.4,0.2,2.1,0.4s1.3,0.7,1.8,1.2c0.5,0.5,0.9,1.1,1.2,1.8
			C365.6,134.7,365.7,135.4,365.7,136.2z"/>
		<path class="st11" d="M404.6,180.9c-1.3,1.5-2.6,2.7-3.9,3.7c-1.2,1-2.5,1.8-3.7,2.4c-1.2,0.6-2.5,1-3.9,1.3
			c-1.4,0.2-2.8,0.4-4.4,0.4c-2.3,0-4.4-0.4-6.2-1.2c-1.8-0.8-3.3-1.9-4.6-3.4c-1.2-1.4-2.2-3.2-2.8-5.2c-0.7-2-1-4.3-1-6.7
			c0-2.1,0.2-4.2,0.7-6.3c0.5-2.1,1.1-4,2-5.8c0.9-1.8,1.9-3.5,3.2-5c1.2-1.5,2.6-2.8,4.2-3.9c1.5-1.1,3.2-1.9,5-2.6
			c1.8-0.6,3.7-0.9,5.8-0.9c2.7,0,4.9,0.5,6.8,1.4s3.4,2.3,4.8,4.1l-2.7,3.2c-0.2,0.2-0.4,0.4-0.7,0.6s-0.6,0.3-0.9,0.3
			c-0.4,0-0.8-0.1-1.1-0.4s-0.8-0.6-1.3-1c-0.5-0.4-1.2-0.7-2-1s-1.8-0.4-3-0.4c-1.7,0-3.2,0.4-4.7,1.3c-1.5,0.9-2.8,2.1-3.9,3.7
			c-1.1,1.6-2,3.5-2.7,5.6c-0.7,2.2-1,4.6-1,7.1c0,3.1,0.7,5.5,2.1,7.2c1.4,1.7,3.3,2.6,5.9,2.6c1.6,0,3-0.2,4.1-0.7
			c1.1-0.5,2-1,2.7-1.5c0.7-0.5,1.4-1.1,2-1.5c0.6-0.5,1.1-0.7,1.7-0.7c0.6,0,1.1,0.3,1.5,0.8L404.6,180.9z"/>
		<path class="st11" d="M439.9,178.7c-0.9,1.5-1.9,2.9-2.9,4.1c-1,1.2-2.1,2.2-3.3,3.1s-2.4,1.5-3.7,2c-1.3,0.5-2.6,0.7-4,0.7
			c-1.5,0-3-0.3-4.3-0.9c-1.3-0.6-2.4-1.5-3.4-2.7c-0.9-1.2-1.7-2.7-2.2-4.4c-0.5-1.8-0.8-3.8-0.8-6.1c0-2.4,0.3-4.7,0.9-6.9
			c0.6-2.2,1.5-4.4,2.6-6.4c1.1-2,2.4-3.8,4-5.5c1.5-1.7,3.3-3.1,5.2-4.3c1.9-1.2,4-2.1,6.2-2.8s4.6-1,7-1c1.8,0,3.5,0.1,5.2,0.4
			c1.7,0.3,3.4,0.7,5.1,1.4l-4.8,38.5h-4.5c-1.1,0-1.8-0.3-2.2-0.8c-0.4-0.5-0.6-1.2-0.6-2L439.9,178.7z M442.6,153.9
			c-0.4-0.1-0.9-0.1-1.3-0.1c-0.4,0-0.9,0-1.3,0c-2.3,0-4.4,0.5-6.4,1.6c-2,1-3.7,2.4-5.2,4.2s-2.6,3.8-3.4,6.1
			c-0.8,2.3-1.3,4.8-1.3,7.4c0,3,0.5,5.2,1.4,6.6c1,1.4,2.3,2.1,4.1,2.1c1.2,0,2.3-0.4,3.5-1.2c1.1-0.8,2.2-1.8,3.2-3.2
			c1-1.3,2-2.9,2.8-4.7c0.9-1.8,1.6-3.8,2.2-5.9L442.6,153.9z"/>
		<path class="st11" d="M462.8,188l7.1-57.7h8.4l-7.1,57.7H462.8z"/>
		<path class="st11" d="M511.6,188l4.8-39.9h4.3c0.9,0,1.6,0.2,2.1,0.7c0.5,0.5,0.7,1.2,0.7,2.1l-0.4,5.6c1.9-3,3.9-5.2,6.2-6.7
			c2.2-1.5,4.6-2.2,7-2.2c2.6,0,4.5,0.9,5.9,2.6c1.4,1.7,2.1,4.2,2.2,7.5c1.9-3.5,4.1-6,6.5-7.6c2.4-1.6,5-2.4,7.7-2.4
			c3.4,0,5.9,1.3,7.4,3.9c1.5,2.6,2,6.3,1.5,11.2l-3,25.3h-8.3l3-25.3c0.2-1.4,0.3-2.6,0.2-3.6s-0.2-1.9-0.5-2.5
			c-0.3-0.7-0.7-1.2-1.2-1.5c-0.5-0.3-1.2-0.5-2.1-0.5c-1.1,0-2.1,0.3-3.1,0.8c-1,0.5-2,1.3-3,2.4c-0.9,1-1.8,2.3-2.6,3.8
			c-0.8,1.5-1.5,3.2-2.2,5.1l-2.5,21.3h-8.3l3-25.3c0.2-1.4,0.3-2.6,0.2-3.6c0-1-0.2-1.9-0.4-2.5c-0.3-0.7-0.7-1.2-1.2-1.5
			c-0.5-0.3-1.2-0.5-2.1-0.5c-1.2,0-2.3,0.3-3.3,0.9s-2,1.4-3,2.5c-0.9,1.1-1.8,2.4-2.6,4c-0.8,1.6-1.5,3.3-2.2,5.3l-2.5,20.7H511.6
			z"/>
		<path class="st11" d="M595.6,188.6c-2.2,0-4.2-0.4-6.1-1.1c-1.9-0.7-3.5-1.8-4.8-3.2c-1.4-1.4-2.4-3.2-3.2-5.2s-1.1-4.4-1.1-7
			c0-3.4,0.5-6.6,1.6-9.6c1.1-3,2.6-5.5,4.5-7.7c1.9-2.2,4.1-3.9,6.6-5.2s5.2-1.9,8.1-1.9c2.2,0,4.2,0.4,6.1,1.1s3.5,1.8,4.8,3.2
			c1.3,1.4,2.4,3.2,3.2,5.2c0.8,2.1,1.1,4.4,1.1,7c0,2.2-0.3,4.4-0.7,6.5s-1.2,4-2.1,5.8s-2,3.5-3.3,4.9s-2.7,2.8-4.2,3.8
			c-1.5,1.1-3.2,1.9-5,2.5C599.4,188.3,597.5,188.6,595.6,188.6z M596.3,182.1c1.8,0,3.4-0.5,4.8-1.5c1.4-1,2.7-2.3,3.7-3.9
			c1-1.6,1.8-3.5,2.3-5.7c0.6-2.1,0.8-4.4,0.8-6.7c0-3.4-0.6-6-1.9-7.6c-1.3-1.7-3.2-2.5-5.7-2.5c-1.8,0-3.4,0.5-4.8,1.4
			s-2.6,2.3-3.6,3.9c-1,1.6-1.8,3.5-2.3,5.7c-0.6,2.2-0.8,4.4-0.8,6.8C588.8,178.7,591.3,182.1,596.3,182.1z"/>
		<path class="st11" d="M667.3,130.3l-7.2,57.7h-4.5c-1.1,0-1.8-0.3-2.2-0.8s-0.6-1.2-0.6-2l0.5-6.8c-1,1.6-2.1,3-3.2,4.2
			s-2.3,2.3-3.6,3.2c-1.2,0.9-2.5,1.6-3.9,2.1c-1.3,0.5-2.7,0.7-4.1,0.7c-3.4,0-6.1-1.2-8-3.7s-2.9-6.1-2.9-11
			c0-2.2,0.2-4.4,0.7-6.6c0.5-2.2,1.1-4.2,2-6.2c0.8-2,1.9-3.8,3.1-5.4c1.2-1.7,2.5-3.1,4-4.3c1.4-1.2,3-2.2,4.7-2.8
			c1.7-0.7,3.4-1,5.2-1c1.9,0,3.6,0.4,5.2,1.1c1.5,0.7,2.9,1.7,4,3l2.7-21.3H667.3z M655.6,157.2c-0.9-1.1-2.1-1.9-3.3-2.4
			s-2.5-0.7-3.8-0.7c-1.9,0-3.6,0.6-5.1,1.7c-1.5,1.1-2.9,2.6-3.9,4.4c-1.1,1.8-1.9,3.8-2.5,6.1c-0.6,2.2-0.9,4.5-0.9,6.7
			c0,2.9,0.5,5.1,1.5,6.6s2.5,2.2,4.3,2.2c1.2,0,2.3-0.4,3.5-1.1c1.2-0.8,2.4-1.8,3.5-3.1c1.1-1.3,2.1-2.9,3.1-4.7s1.8-3.8,2.5-5.9
			L655.6,157.2z"/>
		<path class="st11" d="M708.7,180.7c-1.4,1.4-2.7,2.6-4,3.6c-1.3,1-2.7,1.8-4,2.5c-1.4,0.7-2.8,1.1-4.3,1.4
			c-1.5,0.3-3.1,0.5-4.9,0.5c-2.3,0-4.4-0.4-6.3-1.2s-3.5-1.9-4.8-3.3c-1.3-1.4-2.3-3.1-3.1-5.1s-1.1-4.3-1.1-6.8
			c0-2.1,0.2-4.1,0.7-6.1c0.4-2,1.1-3.9,2-5.8c0.9-1.8,1.9-3.5,3.1-5.1c1.2-1.5,2.6-2.9,4.2-4c1.6-1.1,3.3-2,5.2-2.6s3.9-1,6-1
			c2.1,0,3.9,0.3,5.4,0.9c1.5,0.6,2.8,1.3,3.8,2.3c1,0.9,1.8,1.9,2.3,3.1s0.7,2.2,0.7,3.3c0,1.7-0.4,3.3-1.1,4.8
			c-0.7,1.5-2,2.8-3.9,3.9c-1.9,1.2-4.4,2.2-7.7,3c-3.2,0.9-7.4,1.5-12.5,2.1c0,0.2,0,0.3,0,0.5s0,0.3,0,0.5c0,3.3,0.7,5.8,2.2,7.5
			c1.4,1.7,3.6,2.5,6.5,2.5c1.8,0,3.3-0.2,4.5-0.7c1.2-0.5,2.2-1,3.1-1.6c0.9-0.6,1.6-1.1,2.2-1.6c0.6-0.5,1.3-0.7,2-0.7
			c0.6,0,1.1,0.3,1.5,0.8L708.7,180.7z M696.9,153.6c-1.5,0-2.8,0.3-4.1,0.9c-1.2,0.6-2.4,1.4-3.3,2.5c-1,1.1-1.8,2.3-2.6,3.8
			c-0.7,1.5-1.3,3-1.7,4.8c3.6-0.5,6.5-1,8.7-1.6s3.9-1.2,5.1-1.9c1.2-0.7,2-1.4,2.4-2.2c0.4-0.8,0.6-1.6,0.6-2.4
			c0-0.4-0.1-0.9-0.3-1.3c-0.2-0.5-0.5-0.9-0.9-1.2c-0.4-0.4-0.9-0.7-1.6-0.9S697.8,153.6,696.9,153.6z"/>
		<path class="st11" d="M747,155.2c-0.2,0.4-0.5,0.6-0.7,0.8s-0.6,0.2-0.9,0.2c-0.4,0-0.9-0.1-1.3-0.4c-0.4-0.3-1-0.6-1.6-0.9
			s-1.3-0.6-2.2-0.9c-0.8-0.3-1.9-0.4-3-0.4c-1.1,0-2.1,0.1-3,0.4c-0.9,0.3-1.6,0.7-2.3,1.2c-0.6,0.5-1.1,1.1-1.4,1.8
			c-0.3,0.7-0.5,1.4-0.5,2.1c0,0.9,0.2,1.6,0.7,2.2c0.5,0.6,1.1,1.1,1.8,1.5c0.8,0.4,1.6,0.8,2.6,1.2s2,0.7,3,1.1c1,0.4,2,0.8,3,1.3
			c1,0.5,1.8,1.1,2.6,1.8c0.8,0.7,1.4,1.6,1.8,2.6c0.5,1,0.7,2.2,0.7,3.6c0,1.9-0.4,3.7-1.1,5.4c-0.7,1.7-1.8,3.2-3.2,4.5
			c-1.4,1.3-3.1,2.3-5.1,3.1c-2,0.8-4.2,1.2-6.6,1.2c-2.5,0-4.9-0.5-6.9-1.4c-2.1-0.9-3.7-2.1-4.9-3.5l2.1-3.2
			c0.3-0.4,0.6-0.7,0.9-0.9c0.3-0.2,0.8-0.3,1.3-0.3c0.5,0,0.9,0.2,1.4,0.5c0.4,0.4,1,0.7,1.6,1.2c0.6,0.4,1.4,0.8,2.3,1.2
			c0.9,0.4,2,0.5,3.5,0.5c1.2,0,2.2-0.2,3.2-0.5c0.9-0.3,1.7-0.8,2.3-1.3c0.6-0.6,1.1-1.2,1.5-2c0.3-0.8,0.5-1.5,0.5-2.4
			c0-0.9-0.2-1.7-0.7-2.3c-0.5-0.6-1.1-1.2-1.8-1.6c-0.8-0.5-1.6-0.9-2.6-1.2s-1.9-0.7-3-1.1c-1-0.4-2-0.8-3-1.2s-1.8-1.1-2.6-1.8
			s-1.4-1.6-1.8-2.6c-0.5-1-0.7-2.2-0.7-3.7c0-1.7,0.3-3.4,1-5c0.7-1.6,1.7-3.1,3-4.3c1.3-1.2,2.9-2.3,4.7-3c1.9-0.8,4-1.1,6.4-1.1
			c2.5,0,4.7,0.4,6.6,1.2c1.9,0.8,3.5,1.9,4.9,3.3L747,155.2z"/>
		<path class="st11" d="M796.6,148.2l-4.8,39.8h-8.3l4.8-39.8H796.6z M799.1,136.2c0,0.8-0.2,1.5-0.5,2.1c-0.3,0.7-0.7,1.3-1.3,1.8
			s-1.1,0.9-1.8,1.2c-0.7,0.3-1.3,0.4-2,0.4c-0.7,0-1.4-0.1-2-0.4c-0.6-0.3-1.2-0.7-1.7-1.2c-0.5-0.5-0.9-1.1-1.2-1.8
			c-0.3-0.7-0.5-1.4-0.5-2.1c0-0.8,0.2-1.5,0.5-2.2c0.3-0.7,0.7-1.3,1.2-1.8c0.5-0.5,1.1-0.9,1.7-1.2c0.7-0.3,1.3-0.4,2-0.4
			c0.7,0,1.4,0.2,2.1,0.4s1.3,0.7,1.8,1.2c0.5,0.5,0.9,1.1,1.2,1.8C798.9,134.7,799.1,135.4,799.1,136.2z"/>
		<path class="st11" d="M819.7,157.3c2.1-3.2,4.4-5.6,7-7.2c2.6-1.6,5.2-2.4,8-2.4c1.7,0,3.2,0.3,4.5,1s2.4,1.6,3.2,2.9
			s1.4,2.9,1.7,4.7c0.3,1.9,0.3,4,0,6.4l-3,25.3h-8.4l3-25.3c0.4-2.8,0.2-4.9-0.5-6.2c-0.7-1.3-2-1.9-3.8-1.9c-1.2,0-2.3,0.3-3.6,1
			c-1.2,0.7-2.4,1.6-3.5,2.8c-1.1,1.2-2.2,2.6-3.1,4.3c-1,1.7-1.8,3.5-2.4,5.6l-2.2,19.8h-8.4l4.8-39.9h4.3c0.9,0,1.6,0.2,2.1,0.7
			c0.5,0.5,0.7,1.2,0.7,2.1L819.7,157.3z"/>
		<path class="st11" d="M883.1,155.2c-0.2,0.4-0.5,0.6-0.7,0.8s-0.6,0.2-0.9,0.2c-0.4,0-0.9-0.1-1.3-0.4c-0.4-0.3-1-0.6-1.6-0.9
			s-1.3-0.6-2.2-0.9c-0.8-0.3-1.9-0.4-3-0.4c-1.1,0-2.1,0.1-3,0.4c-0.9,0.3-1.6,0.7-2.3,1.2c-0.6,0.5-1.1,1.1-1.4,1.8
			c-0.3,0.7-0.5,1.4-0.5,2.1c0,0.9,0.2,1.6,0.7,2.2c0.5,0.6,1.1,1.1,1.8,1.5c0.8,0.4,1.6,0.8,2.6,1.2s2,0.7,3,1.1c1,0.4,2,0.8,3,1.3
			c1,0.5,1.8,1.1,2.6,1.8c0.8,0.7,1.4,1.6,1.8,2.6c0.5,1,0.7,2.2,0.7,3.6c0,1.9-0.4,3.7-1.1,5.4c-0.7,1.7-1.8,3.2-3.2,4.5
			c-1.4,1.3-3.1,2.3-5.1,3.1c-2,0.8-4.2,1.2-6.6,1.2c-2.5,0-4.9-0.5-6.9-1.4c-2.1-0.9-3.7-2.1-4.9-3.5l2.1-3.2
			c0.3-0.4,0.6-0.7,0.9-0.9c0.3-0.2,0.8-0.3,1.3-0.3c0.5,0,0.9,0.2,1.4,0.5c0.4,0.4,1,0.7,1.6,1.2c0.6,0.4,1.4,0.8,2.3,1.2
			c0.9,0.4,2,0.5,3.5,0.5c1.2,0,2.2-0.2,3.2-0.5c0.9-0.3,1.7-0.8,2.3-1.3c0.6-0.6,1.1-1.2,1.5-2c0.3-0.8,0.5-1.5,0.5-2.4
			c0-0.9-0.2-1.7-0.7-2.3c-0.5-0.6-1.1-1.2-1.8-1.6c-0.8-0.5-1.6-0.9-2.6-1.2s-1.9-0.7-3-1.1c-1-0.4-2-0.8-3-1.2s-1.8-1.1-2.6-1.8
			s-1.4-1.6-1.8-2.6c-0.5-1-0.7-2.2-0.7-3.7c0-1.7,0.3-3.4,1-5c0.7-1.6,1.7-3.1,3-4.3c1.3-1.2,2.9-2.3,4.7-3c1.9-0.8,4-1.1,6.4-1.1
			c2.5,0,4.7,0.4,6.6,1.2c1.9,0.8,3.5,1.9,4.9,3.3L883.1,155.2z"/>
		<path class="st11" d="M908.5,148.2l-4.8,39.8h-8.3l4.8-39.8H908.5z M911,136.2c0,0.8-0.2,1.5-0.5,2.1c-0.3,0.7-0.7,1.3-1.3,1.8
			s-1.1,0.9-1.8,1.2c-0.7,0.3-1.3,0.4-2,0.4c-0.7,0-1.4-0.1-2-0.4c-0.6-0.3-1.2-0.7-1.7-1.2c-0.5-0.5-0.9-1.1-1.2-1.8
			c-0.3-0.7-0.5-1.4-0.5-2.1c0-0.8,0.2-1.5,0.5-2.2c0.3-0.7,0.7-1.3,1.2-1.8c0.5-0.5,1.1-0.9,1.7-1.2c0.7-0.3,1.3-0.4,2-0.4
			c0.7,0,1.4,0.2,2.1,0.4s1.3,0.7,1.8,1.2c0.5,0.5,0.9,1.1,1.2,1.8C910.8,134.7,911,135.4,911,136.2z"/>
		<path class="st11" d="M959.7,130.3l-7.2,57.7H948c-1.1,0-1.8-0.3-2.2-0.8s-0.6-1.2-0.6-2l0.5-6.8c-1,1.6-2.1,3-3.2,4.2
			s-2.3,2.3-3.6,3.2c-1.2,0.9-2.5,1.6-3.9,2.1c-1.3,0.5-2.7,0.7-4.1,0.7c-3.4,0-6.1-1.2-8-3.7s-2.9-6.1-2.9-11
			c0-2.2,0.2-4.4,0.7-6.6c0.5-2.2,1.1-4.2,2-6.2c0.8-2,1.9-3.8,3.1-5.4c1.2-1.7,2.5-3.1,4-4.3c1.4-1.2,3-2.2,4.7-2.8
			c1.7-0.7,3.4-1,5.2-1c1.9,0,3.6,0.4,5.2,1.1c1.5,0.7,2.9,1.7,4,3l2.7-21.3H959.7z M948,157.2c-0.9-1.1-2.1-1.9-3.3-2.4
			s-2.5-0.7-3.8-0.7c-1.9,0-3.6,0.6-5.1,1.7c-1.5,1.1-2.9,2.6-3.9,4.4c-1.1,1.8-1.9,3.8-2.5,6.1c-0.6,2.2-0.9,4.5-0.9,6.7
			c0,2.9,0.5,5.1,1.5,6.6s2.5,2.2,4.3,2.2c1.2,0,2.3-0.4,3.5-1.1c1.2-0.8,2.4-1.8,3.5-3.1c1.1-1.3,2.1-2.9,3.1-4.7s1.8-3.8,2.5-5.9
			L948,157.2z"/>
		<path class="st11" d="M1001,180.7c-1.4,1.4-2.7,2.6-4,3.6c-1.3,1-2.7,1.8-4,2.5c-1.4,0.7-2.8,1.1-4.3,1.4
			c-1.5,0.3-3.1,0.5-4.9,0.5c-2.3,0-4.4-0.4-6.3-1.2s-3.5-1.9-4.8-3.3c-1.3-1.4-2.3-3.1-3.1-5.1s-1.1-4.3-1.1-6.8
			c0-2.1,0.2-4.1,0.7-6.1c0.4-2,1.1-3.9,2-5.8c0.9-1.8,1.9-3.5,3.1-5.1c1.2-1.5,2.6-2.9,4.2-4c1.6-1.1,3.3-2,5.2-2.6s3.9-1,6-1
			c2.1,0,3.9,0.3,5.4,0.9c1.5,0.6,2.8,1.3,3.8,2.3c1,0.9,1.8,1.9,2.3,3.1s0.7,2.2,0.7,3.3c0,1.7-0.4,3.3-1.1,4.8
			c-0.7,1.5-2,2.8-3.9,3.9c-1.9,1.2-4.4,2.2-7.7,3c-3.2,0.9-7.4,1.5-12.5,2.1c0,0.2,0,0.3,0,0.5s0,0.3,0,0.5c0,3.3,0.7,5.8,2.2,7.5
			c1.4,1.7,3.6,2.5,6.5,2.5c1.8,0,3.3-0.2,4.5-0.7c1.2-0.5,2.2-1,3.1-1.6c0.9-0.6,1.6-1.1,2.2-1.6c0.6-0.5,1.3-0.7,2-0.7
			c0.6,0,1.1,0.3,1.5,0.8L1001,180.7z M989.3,153.6c-1.5,0-2.8,0.3-4.1,0.9c-1.2,0.6-2.4,1.4-3.3,2.5c-1,1.1-1.8,2.3-2.6,3.8
			c-0.7,1.5-1.3,3-1.7,4.8c3.6-0.5,6.5-1,8.7-1.6s3.9-1.2,5.1-1.9c1.2-0.7,2-1.4,2.4-2.2c0.4-0.8,0.6-1.6,0.6-2.4
			c0-0.4-0.1-0.9-0.3-1.3c-0.2-0.5-0.5-0.9-0.9-1.2c-0.4-0.4-0.9-0.7-1.6-0.9S990.2,153.6,989.3,153.6z"/>
		<path class="st11" d="M1061.6,178.7c-0.9,1.5-1.9,2.9-2.9,4.1c-1,1.2-2.1,2.2-3.3,3.1s-2.4,1.5-3.7,2c-1.3,0.5-2.6,0.7-4,0.7
			c-1.6,0-3-0.3-4.3-0.9c-1.3-0.6-2.4-1.5-3.4-2.7c-0.9-1.2-1.7-2.7-2.2-4.4c-0.5-1.8-0.8-3.8-0.8-6.1c0-2.4,0.3-4.7,0.9-6.9
			c0.6-2.2,1.5-4.4,2.6-6.4c1.1-2,2.4-3.8,4-5.5c1.5-1.7,3.3-3.1,5.2-4.3c1.9-1.2,4-2.1,6.2-2.8s4.6-1,7-1c1.8,0,3.5,0.1,5.2,0.4
			c1.7,0.3,3.4,0.7,5.1,1.4l-4.8,38.5h-4.5c-1.1,0-1.8-0.3-2.2-0.8c-0.4-0.5-0.6-1.2-0.6-2L1061.6,178.7z M1064.2,153.9
			c-0.4-0.1-0.9-0.1-1.3-0.1c-0.4,0-0.9,0-1.3,0c-2.3,0-4.4,0.5-6.4,1.6c-2,1-3.7,2.4-5.2,4.2s-2.6,3.8-3.4,6.1
			c-0.8,2.3-1.3,4.8-1.3,7.4c0,3,0.5,5.2,1.4,6.6c1,1.4,2.3,2.1,4.1,2.1c1.2,0,2.3-0.4,3.5-1.2c1.1-0.8,2.2-1.8,3.2-3.2
			c1-1.3,2-2.9,2.8-4.7c0.9-1.8,1.6-3.8,2.2-5.9L1064.2,153.9z"/>
		<path class="st11" d="M1095.8,157.3c2.1-3.2,4.4-5.6,7-7.2c2.6-1.6,5.2-2.4,8-2.4c1.7,0,3.2,0.3,4.5,1s2.4,1.6,3.2,2.9
			s1.4,2.9,1.7,4.7c0.3,1.9,0.3,4,0,6.4l-3,25.3h-8.4l3-25.3c0.4-2.8,0.2-4.9-0.5-6.2c-0.7-1.3-2-1.9-3.8-1.9c-1.2,0-2.3,0.3-3.6,1
			c-1.2,0.7-2.4,1.6-3.5,2.8c-1.1,1.2-2.2,2.6-3.1,4.3c-1,1.7-1.8,3.5-2.4,5.6l-2.2,19.8h-8.4l4.8-39.9h4.3c0.9,0,1.6,0.2,2.1,0.7
			c0.5,0.5,0.7,1.2,0.7,2.1L1095.8,157.3z"/>
		<path class="st11" d="M1172.5,188.6c-2.2,0-4.2-0.4-6.1-1.1c-1.9-0.7-3.5-1.8-4.8-3.2c-1.4-1.4-2.4-3.2-3.2-5.2s-1.1-4.4-1.1-7
			c0-3.4,0.5-6.6,1.6-9.6c1.1-3,2.6-5.5,4.5-7.7c1.9-2.2,4.1-3.9,6.6-5.2s5.2-1.9,8.1-1.9c2.2,0,4.2,0.4,6.1,1.1s3.5,1.8,4.8,3.2
			c1.3,1.4,2.4,3.2,3.2,5.2c0.8,2.1,1.1,4.4,1.1,7c0,2.2-0.3,4.4-0.7,6.5s-1.2,4-2.1,5.8s-2,3.5-3.3,4.9s-2.7,2.8-4.2,3.8
			c-1.5,1.1-3.2,1.9-5,2.5C1176.2,188.3,1174.4,188.6,1172.5,188.6z M1173.2,182.1c1.8,0,3.4-0.5,4.8-1.5c1.4-1,2.7-2.3,3.7-3.9
			c1-1.6,1.8-3.5,2.3-5.7c0.6-2.1,0.8-4.4,0.8-6.7c0-3.4-0.6-6-1.9-7.6c-1.3-1.7-3.2-2.5-5.7-2.5c-1.8,0-3.4,0.5-4.8,1.4
			s-2.6,2.3-3.6,3.9c-1,1.6-1.8,3.5-2.3,5.7c-0.6,2.2-0.8,4.4-0.8,6.8C1165.7,178.7,1168.2,182.1,1173.2,182.1z"/>
		<path class="st11" d="M1216.1,157.8c1-1.6,2-3,3.2-4.2c1.1-1.2,2.3-2.3,3.6-3.2c1.2-0.9,2.5-1.6,3.9-2.1c1.4-0.5,2.7-0.7,4.2-0.7
			c1.7,0,3.2,0.3,4.6,0.9c1.4,0.6,2.5,1.5,3.4,2.8c0.9,1.2,1.7,2.8,2.2,4.6c0.5,1.8,0.8,4,0.8,6.4c0,2.2-0.2,4.4-0.7,6.6
			c-0.5,2.2-1.1,4.2-2,6.1s-1.9,3.7-3.1,5.4c-1.2,1.7-2.5,3.1-4,4.3c-1.4,1.2-3,2.2-4.7,2.8c-1.7,0.7-3.4,1-5.2,1
			c-1.9,0-3.6-0.4-5.1-1.1s-2.9-1.7-4-2.9l-2,16.6h-8.2l6.5-53.1h4.3c0.9,0,1.6,0.2,2.1,0.7c0.5,0.5,0.7,1.2,0.7,2.1L1216.1,157.8z
			 M1213.9,179c0.9,1.2,2.1,2,3.3,2.5c1.3,0.5,2.5,0.7,3.8,0.7c1.3,0,2.4-0.3,3.5-0.8s2.1-1.2,3-2.1s1.7-2,2.5-3.2
			c0.7-1.2,1.4-2.6,1.9-4s0.9-2.9,1.1-4.4s0.4-3,0.4-4.5c0-2.9-0.5-5.1-1.5-6.6c-1-1.5-2.5-2.2-4.3-2.2c-1.2,0-2.3,0.4-3.5,1.1
			c-1.2,0.7-2.3,1.8-3.4,3.1c-1.1,1.3-2.1,2.9-3.1,4.7c-1,1.8-1.8,3.7-2.5,5.9L1213.9,179z"/>
		<path class="st11" d="M1293,154.7l-4.1,33.3h-8.2l4.1-33.3h-17.7l-2.3,18.4c-0.1,1.1-0.2,1.9-0.3,2.6c-0.1,0.6-0.1,1.1-0.2,1.5
			c0,0.4-0.1,0.6-0.1,0.8c0,0.1,0,0.3,0,0.3c0,1.1,0.3,2,0.8,2.6c0.6,0.6,1.3,0.9,2.3,0.9c0.6,0,1.1-0.1,1.6-0.3
			c0.5-0.2,0.9-0.4,1.2-0.5s0.6-0.4,0.9-0.5c0.2-0.2,0.5-0.3,0.7-0.3c0.3,0,0.5,0.1,0.6,0.2s0.3,0.3,0.4,0.6l1.8,4.1
			c-1.4,1.1-2.9,2-4.6,2.6c-1.7,0.6-3.4,0.9-5.1,0.9c-2.7,0-4.9-0.7-6.4-2.2c-1.6-1.5-2.4-3.6-2.5-6.3c0-0.2,0-0.4,0-0.6
			c0-0.2,0-0.6,0.1-1.1c0-0.5,0.1-1.1,0.2-1.9c0.1-0.8,0.2-1.8,0.4-3l2.4-18.9h-4c-0.4,0-0.8-0.1-1.1-0.4c-0.3-0.3-0.4-0.7-0.3-1.3
			l0.4-3.2l6.1-0.9l3.1-11.6c0.2-0.4,0.4-0.8,0.7-1.1c0.3-0.3,0.7-0.4,1.2-0.4h4.5l-1.7,13.1h25.8L1293,154.7z M1297.1,136.2
			c0,0.8-0.2,1.5-0.5,2.1c-0.3,0.7-0.7,1.3-1.3,1.8s-1.1,0.9-1.8,1.2c-0.7,0.3-1.3,0.4-2,0.4s-1.4-0.1-2-0.4
			c-0.6-0.3-1.2-0.7-1.7-1.2c-0.5-0.5-0.9-1.1-1.2-1.8c-0.3-0.7-0.5-1.4-0.5-2.1c0-0.8,0.2-1.5,0.5-2.2c0.3-0.7,0.7-1.3,1.2-1.8
			c0.5-0.5,1.1-0.9,1.7-1.2s1.3-0.4,2-0.4c0.7,0,1.4,0.2,2.1,0.4s1.3,0.7,1.8,1.2c0.5,0.5,0.9,1.1,1.2,1.8
			C1296.9,134.7,1297.1,135.4,1297.1,136.2z"/>
		<path class="st11" d="M1336,180.9c-1.3,1.5-2.6,2.7-3.9,3.7c-1.2,1-2.5,1.8-3.7,2.4c-1.2,0.6-2.5,1-3.9,1.3
			c-1.4,0.2-2.8,0.4-4.4,0.4c-2.3,0-4.4-0.4-6.2-1.2c-1.8-0.8-3.3-1.9-4.6-3.4c-1.2-1.4-2.2-3.2-2.8-5.2c-0.7-2-1-4.3-1-6.7
			c0-2.1,0.2-4.2,0.7-6.3c0.5-2.1,1.1-4,2-5.8s1.9-3.5,3.2-5s2.6-2.8,4.2-3.9c1.5-1.1,3.2-1.9,5-2.6s3.7-0.9,5.8-0.9
			c2.7,0,4.9,0.5,6.8,1.4c1.8,0.9,3.4,2.3,4.8,4.1l-2.7,3.2c-0.2,0.2-0.4,0.4-0.7,0.6c-0.3,0.2-0.6,0.3-0.9,0.3
			c-0.4,0-0.8-0.1-1.1-0.4c-0.4-0.3-0.8-0.6-1.3-1c-0.5-0.4-1.2-0.7-2-1s-1.8-0.4-3-0.4c-1.7,0-3.2,0.4-4.7,1.3
			c-1.5,0.9-2.8,2.1-3.9,3.7c-1.1,1.6-2,3.5-2.7,5.6c-0.7,2.2-1,4.6-1,7.1c0,3.1,0.7,5.5,2.1,7.2c1.4,1.7,3.3,2.6,5.9,2.6
			c1.6,0,3-0.2,4.1-0.7c1.1-0.5,2-1,2.7-1.5s1.4-1.1,2-1.5c0.6-0.5,1.1-0.7,1.7-0.7c0.6,0,1.1,0.3,1.5,0.8L1336,180.9z"/>
		<path class="st11" d="M1371.3,178.7c-0.9,1.5-1.9,2.9-2.9,4.1c-1,1.2-2.1,2.2-3.3,3.1s-2.4,1.5-3.7,2c-1.3,0.5-2.6,0.7-4,0.7
			c-1.6,0-3-0.3-4.3-0.9c-1.3-0.6-2.4-1.5-3.4-2.7c-0.9-1.2-1.7-2.7-2.2-4.4c-0.5-1.8-0.8-3.8-0.8-6.1c0-2.4,0.3-4.7,0.9-6.9
			c0.6-2.2,1.5-4.4,2.6-6.4c1.1-2,2.4-3.8,4-5.5c1.5-1.7,3.3-3.1,5.2-4.3c1.9-1.2,4-2.1,6.2-2.8s4.6-1,7-1c1.8,0,3.5,0.1,5.2,0.4
			c1.7,0.3,3.4,0.7,5.1,1.4L1378,188h-4.5c-1.1,0-1.8-0.3-2.2-0.8c-0.4-0.5-0.6-1.2-0.6-2L1371.3,178.7z M1374,153.9
			c-0.4-0.1-0.9-0.1-1.3-0.1c-0.4,0-0.9,0-1.3,0c-2.3,0-4.4,0.5-6.4,1.6c-2,1-3.7,2.4-5.2,4.2s-2.6,3.8-3.4,6.1
			c-0.8,2.3-1.3,4.8-1.3,7.4c0,3,0.5,5.2,1.4,6.6c1,1.4,2.3,2.1,4.1,2.1c1.2,0,2.3-0.4,3.5-1.2c1.1-0.8,2.2-1.8,3.2-3.2
			c1-1.3,2-2.9,2.8-4.7c0.9-1.8,1.6-3.8,2.2-5.9L1374,153.9z"/>
		<path class="st11" d="M1394.2,188l7.1-57.7h8.4l-7.1,57.7H1394.2z"/>
		<path class="st11" d="M1458.1,148.8h22.8l-4.8,39.2h-8.3l4.1-33.2h-14.3l-3.9,31.8l-1.9,7.7c-0.4,1.1-0.9,2-1.6,2.6
			s-1.6,0.9-2.8,0.9h-3.3l5.3-42.8l-3.4-0.5c-0.6-0.1-1.1-0.4-1.4-0.7c-0.3-0.3-0.5-0.8-0.4-1.4l0.4-3.5h5.7l0.2-1.7
			c0.3-2.4,0.9-4.7,1.9-6.7s2.3-3.8,4-5.3c1.7-1.5,3.7-2.6,6-3.5c2.4-0.8,5-1.2,8.1-1.2c0.5,0,1,0,1.5,0.1c0.5,0,1.1,0.1,1.6,0.2
			c0.5,0.1,1,0.1,1.5,0.2c0.5,0.1,0.9,0.2,1.3,0.3l-0.8,4.2c-0.1,0.6-0.5,0.9-1.1,0.9s-1.4,0.1-2.3,0.1c-2.3,0-4.2,0.2-5.9,0.7
			c-1.6,0.4-3,1.1-4.1,2c-1.1,0.9-1.9,2-2.5,3.4c-0.6,1.4-1,3-1.3,4.8L1458.1,148.8z"/>
		<path class="st11" d="M1504.6,157.1c1-1.4,2-2.7,3.1-3.9c1.1-1.2,2.3-2.2,3.5-3c1.2-0.8,2.5-1.5,3.8-1.9c1.3-0.4,2.6-0.7,4-0.7
			c1.7,0,3.2,0.3,4.6,0.9c1.4,0.6,2.5,1.5,3.4,2.8c0.9,1.2,1.7,2.8,2.2,4.6c0.5,1.8,0.8,4,0.8,6.4c0,2.2-0.2,4.4-0.7,6.6
			c-0.5,2.2-1.1,4.2-2,6.1s-1.9,3.7-3.1,5.4c-1.2,1.7-2.5,3.1-4,4.3c-1.4,1.2-3,2.2-4.7,2.8c-1.7,0.7-3.4,1-5.2,1
			c-2.1,0-3.9-0.4-5.6-1.3c-1.7-0.9-3.1-2-4.2-3.5l-0.4,1.8c-0.3,0.8-0.6,1.4-1,1.8c-0.4,0.4-1.1,0.6-2,0.6h-4.5l7.1-57.7h8.3
			L1504.6,157.1z M1501.9,178.9c0.9,1.2,2.1,2,3.3,2.5s2.5,0.7,3.8,0.7s2.4-0.3,3.5-0.8s2.1-1.2,3.1-2.1s1.8-2,2.5-3.2
			s1.3-2.6,1.9-4c0.5-1.4,0.9-2.9,1.2-4.4s0.4-3,0.4-4.5c0-2.9-0.5-5.1-1.5-6.6c-1-1.5-2.5-2.2-4.3-2.2c-1.2,0-2.3,0.4-3.5,1.1
			c-1.2,0.8-2.4,1.8-3.5,3.1c-1.1,1.3-2.1,2.9-3.1,4.7c-1,1.8-1.8,3.8-2.5,5.9L1501.9,178.9z"/>
		<path class="st11" d="M1573.5,180.7c-1.4,1.4-2.7,2.6-4,3.6c-1.3,1-2.7,1.8-4,2.5c-1.4,0.7-2.8,1.1-4.3,1.4
			c-1.5,0.3-3.1,0.5-4.9,0.5c-2.3,0-4.4-0.4-6.3-1.2s-3.5-1.9-4.8-3.3c-1.3-1.4-2.3-3.1-3.1-5.1s-1.1-4.3-1.1-6.8
			c0-2.1,0.2-4.1,0.7-6.1c0.4-2,1.1-3.9,2-5.8c0.9-1.8,1.9-3.5,3.1-5.1c1.2-1.5,2.6-2.9,4.2-4c1.6-1.1,3.3-2,5.2-2.6s3.9-1,6-1
			c2.1,0,3.9,0.3,5.4,0.9c1.5,0.6,2.8,1.3,3.8,2.3c1,0.9,1.8,1.9,2.3,3.1s0.7,2.2,0.7,3.3c0,1.7-0.4,3.3-1.1,4.8
			c-0.7,1.5-2,2.8-3.9,3.9c-1.9,1.2-4.4,2.2-7.7,3c-3.2,0.9-7.4,1.5-12.5,2.1c0,0.2,0,0.3,0,0.5s0,0.3,0,0.5c0,3.3,0.7,5.8,2.2,7.5
			c1.4,1.7,3.6,2.5,6.5,2.5c1.8,0,3.3-0.2,4.5-0.7c1.2-0.5,2.2-1,3.1-1.6c0.9-0.6,1.6-1.1,2.2-1.6c0.6-0.5,1.3-0.7,2-0.7
			c0.6,0,1.1,0.3,1.5,0.8L1573.5,180.7z M1561.7,153.6c-1.5,0-2.8,0.3-4.1,0.9c-1.2,0.6-2.4,1.4-3.3,2.5c-1,1.1-1.8,2.3-2.6,3.8
			c-0.7,1.5-1.3,3-1.7,4.8c3.6-0.5,6.5-1,8.7-1.6s3.9-1.2,5.1-1.9c1.2-0.7,2-1.4,2.4-2.2c0.4-0.8,0.6-1.6,0.6-2.4
			c0-0.4-0.1-0.9-0.3-1.3c-0.2-0.5-0.5-0.9-0.9-1.2c-0.4-0.4-0.9-0.7-1.6-0.9S1562.6,153.6,1561.7,153.6z"/>
		<path class="st11" d="M1597,158.5c1-2.1,2.1-3.9,3.3-5.4c1.2-1.5,2.4-2.7,3.7-3.5c1.3-0.9,2.6-1.4,4-1.5c1.4-0.2,2.8,0.1,4.2,0.7
			l-1.5,8c-3.3-1.3-6.3-0.9-8.8,1.3c-2.5,2.2-4.5,6.3-6,12.3l-2.1,17.8h-8.3l4.8-39.9h4.3c0.9,0,1.6,0.2,2.1,0.7
			c0.5,0.5,0.7,1.2,0.7,2.1L1597,158.5z"/>
	</g>
</g>
<g>
	<g>
		<path class="st44" d="M581,1352.7v-344.5c0,0,20.4-105.2,242.1-101.5v445.9H581z"/>
		<path class="st44" d="M1065.1,1352.7v-344.5c0,0-20.4-105.2-242.1-101.5v445.9H1065.1z"/>
	</g>
	<rect x="590.6" y="1007.8" class="st45" width="464.9" height="344.9"/>
	<g>
		<rect x="708.4" y="1009" class="st46" width="229.2" height="343.8"/>
		<path class="st47" d="M823,946.7c-58.8,0-107.4,27.2-114.6,62.3h229.2C930.4,973.9,881.9,946.7,823,946.7z"/>
		<path class="st48" d="M823,1315.9c-55.1,0-100.5,16.1-107.3,36.9h214.6C923.6,1332,878.1,1315.9,823,1315.9z"/>
	</g>
	<g>
		<path d="M1005.5,1056.9c-0.3-0.3-0.6-0.5-0.8-0.8s-0.3-0.6-0.3-1.1c0-0.4,0.1-0.9,0.4-1.3s0.6-0.9,0.9-1.5
			c0.3-0.6,0.6-1.3,0.9-2.1c0.3-0.8,0.4-1.8,0.4-3c0-1.5-0.3-2.9-0.8-4c-0.5-1.1-1.3-2.1-2.3-2.9s-2.3-1.3-3.7-1.7
			c-1.5-0.4-3.1-0.6-4.9-0.6c-1.9,0-3.6,0.2-5.1,0.6c-1.5,0.4-2.7,1-3.7,1.8s-1.8,1.7-2.3,2.8c-0.5,1.1-0.8,2.3-0.8,3.7
			s0.2,2.5,0.5,3.4s0.7,1.6,1.1,2.2c0.4,0.6,0.8,1.1,1.1,1.5c0.3,0.4,0.5,0.9,0.5,1.5c0,0.7-0.3,1.2-0.8,1.6l-3.1,2.5
			c-1.1-1-2-2-2.8-3.1s-1.4-2.3-1.8-3.5c-0.5-1.2-0.8-2.4-1-3.7c-0.2-1.3-0.3-2.5-0.3-3.8c0-2.2,0.4-4.3,1.2-6.3
			c0.8-2,2-3.7,3.6-5.2c1.6-1.5,3.5-2.6,5.8-3.5s4.9-1.3,7.8-1.3c2.6,0,5.1,0.4,7.3,1.1c2.2,0.8,4.2,1.9,5.8,3.4
			c1.6,1.5,2.9,3.3,3.8,5.5c0.9,2.2,1.4,4.7,1.4,7.5c0,2.7-0.4,5.1-1.3,7.1c-0.9,2-2.1,3.8-3.7,5.5L1005.5,1056.9z"/>
		<path d="M1029.1,1079.4h-51.7v-8.7h51.7V1079.4z"/>
		<path d="M1008.1,1093c3.8,4.1,5.6,9.1,5.6,15c0,2.1-0.3,4-1,5.7c-0.7,1.7-1.6,3.1-2.9,4.2c-1.2,1.1-2.7,2-4.4,2.6
			c-1.7,0.6-3.5,0.9-5.6,0.9h-22.5v-3.9c0-0.8,0.1-1.5,0.4-1.9c0.2-0.4,0.7-0.8,1.5-1.1l2.6-0.8c-0.8-0.9-1.5-1.8-2.1-2.7
			c-0.6-0.9-1.1-1.8-1.5-2.7c-0.4-0.9-0.7-1.9-1-3c-0.2-1.1-0.3-2.2-0.3-3.5c0-1.5,0.2-2.9,0.6-4.2c0.4-1.3,1-2.4,1.8-3.3
			c0.8-0.9,1.8-1.7,3-2.2c1.2-0.5,2.6-0.8,4.2-0.8c0.9,0,1.8,0.2,2.7,0.5c0.9,0.3,1.7,0.8,2.6,1.5c0.8,0.7,1.6,1.6,2.3,2.7
			c0.7,1.1,1.3,2.5,1.9,4.1c0.5,1.6,1,3.5,1.3,5.6c0.3,2.1,0.5,4.6,0.6,7.3h2.1c2.4,0,4.2-0.5,5.3-1.5c1.1-1,1.7-2.5,1.7-4.5
			c0-1.4-0.2-2.6-0.5-3.5s-0.7-1.7-1.1-2.4c-0.4-0.7-0.8-1.3-1.1-1.9c-0.3-0.6-0.5-1.2-0.5-1.9c0-0.6,0.2-1.1,0.5-1.5
			c0.3-0.4,0.7-0.8,1.1-1L1008.1,1093z M992.6,1112.8c-0.1-2.5-0.3-4.6-0.6-6.3c-0.3-1.7-0.7-3.1-1.2-4.1s-1.1-1.8-1.7-2.2
			c-0.7-0.4-1.4-0.7-2.1-0.7c-1.5,0-2.6,0.5-3.2,1.4c-0.6,0.9-1,2.1-1,3.5c0,1.8,0.3,3.3,1,4.6c0.6,1.3,1.6,2.6,2.9,3.8H992.6z"/>
		<path d="M1029.1,1166.5h-51.7v-5.3c0-1.1,0.5-1.9,1.6-2.2l3.4-0.7c-1.6-1.5-3-3.1-4-5c-1-1.9-1.5-4.1-1.5-6.6c0-2,0.4-3.8,1.2-5.4
			c0.8-1.6,2-3.1,3.5-4.2c1.5-1.2,3.5-2.1,5.7-2.7s4.9-1,7.8-1c2.6,0,5.1,0.4,7.4,1.1s4.2,1.8,5.9,3.1c1.7,1.4,3,3,3.9,4.9
			c0.9,1.9,1.4,4,1.4,6.4c0,2-0.3,3.7-0.9,5.2c-0.6,1.4-1.5,2.7-2.5,3.8h18.8V1166.5z M1003.9,1157.8c1.2-1,2-2.1,2.5-3.2
			c0.5-1.2,0.7-2.4,0.7-3.7c0-1.3-0.2-2.5-0.7-3.5s-1.2-2-2.2-2.7c-1-0.8-2.2-1.3-3.8-1.7c-1.5-0.4-3.3-0.6-5.4-0.6
			c-2.1,0-3.9,0.2-5.3,0.5c-1.5,0.3-2.6,0.8-3.5,1.5c-0.9,0.6-1.6,1.4-2,2.3s-0.6,1.9-0.6,3.1c0,1.8,0.4,3.3,1.1,4.6
			c0.7,1.3,1.8,2.5,3.2,3.6H1003.9z"/>
		<path d="M1029.1,1212.1h-51.7v-5.3c0-1.1,0.5-1.9,1.6-2.2l3.4-0.7c-1.6-1.5-3-3.1-4-5c-1-1.9-1.5-4.1-1.5-6.6c0-2,0.4-3.8,1.2-5.4
			c0.8-1.6,2-3.1,3.5-4.2c1.5-1.2,3.5-2.1,5.7-2.7s4.9-1,7.8-1c2.6,0,5.1,0.4,7.4,1.1s4.2,1.8,5.9,3.1c1.7,1.4,3,3,3.9,4.9
			c0.9,1.9,1.4,4,1.4,6.4c0,2-0.3,3.7-0.9,5.2c-0.6,1.4-1.5,2.7-2.5,3.8h18.8V1212.1z M1003.9,1203.4c1.2-1,2-2.1,2.5-3.2
			c0.5-1.2,0.7-2.4,0.7-3.7c0-1.3-0.2-2.5-0.7-3.5s-1.2-2-2.2-2.7c-1-0.8-2.2-1.3-3.8-1.7c-1.5-0.4-3.3-0.6-5.4-0.6
			c-2.1,0-3.9,0.2-5.3,0.5c-1.5,0.3-2.6,0.8-3.5,1.5c-0.9,0.6-1.6,1.4-2,2.3s-0.6,1.9-0.6,3.1c0,1.8,0.4,3.3,1.1,4.6
			c0.7,1.3,1.8,2.5,3.2,3.6H1003.9z"/>
		<path d="M1013,1235.3h-35.7v-8.7h35.7V1235.3z M1023.5,1236.5c-0.7,0-1.4-0.2-2.1-0.5s-1.2-0.7-1.7-1.2s-0.9-1.1-1.2-1.8
			s-0.4-1.4-0.4-2.2c0-0.8,0.1-1.5,0.4-2.1s0.7-1.2,1.2-1.7s1.1-0.9,1.7-1.2s1.3-0.4,2.1-0.4c0.8,0,1.5,0.1,2.2,0.4s1.3,0.7,1.7,1.2
			s0.9,1.1,1.2,1.7c0.3,0.7,0.4,1.4,0.4,2.1c0,0.8-0.1,1.5-0.4,2.2c-0.3,0.7-0.7,1.3-1.2,1.8s-1.1,0.9-1.7,1.2
			S1024.2,1236.5,1023.5,1236.5z"/>
		<path d="M1008.7,1258c0.7,0.7,1.4,1.5,2,2.3c0.6,0.8,1.1,1.7,1.6,2.6c0.4,0.9,0.8,1.9,1,2.9c0.2,1,0.4,2.2,0.4,3.4
			c0,2-0.3,3.7-1,5.2s-1.6,2.8-2.8,3.8c-1.2,1-2.6,1.8-4.3,2.3c-1.7,0.5-3.5,0.8-5.5,0.8h-22.7v-8.7h22.7c2.2,0,3.9-0.5,5.1-1.5
			c1.2-1,1.8-2.5,1.8-4.6c0-1.5-0.3-2.9-1-4.2c-0.7-1.3-1.6-2.6-2.7-3.7h-25.8v-8.7h35.7v5.3c0,1.1-0.5,1.9-1.6,2.2L1008.7,1258z"/>
		<path d="M1011.8,1326.9h-3.2c-1,0-1.6-0.6-1.9-1.9l-0.6-3.2c-1.2,0.5-2.6,0.7-4,0.7c-1.8,0-3.4-0.4-4.8-1.1s-2.6-1.7-3.6-3
			c-1-1.3-1.8-2.8-2.3-4.5c-0.5-1.7-0.8-3.6-0.8-5.6c0-0.7,0-1.4,0.1-2c0.1-0.7,0.2-1.3,0.3-1.9c-0.7-1.1-1.4-1.7-2.3-1.7
			c-0.7,0-1.2,0.3-1.6,1c-0.3,0.7-0.6,1.6-0.7,2.7c-0.1,1.1-0.2,2.4-0.3,3.8c0,1.4-0.1,2.8-0.2,4.3c-0.1,1.5-0.3,2.9-0.6,4.3
			c-0.3,1.4-0.7,2.7-1.4,3.8c-0.6,1.1-1.5,2-2.6,2.7c-1.1,0.7-2.5,1-4.2,1c-1.6,0-3.1-0.4-4.6-1.2s-2.8-1.9-4-3.4s-2.1-3.3-2.8-5.5
			c-0.7-2.2-1.1-4.6-1.1-7.4c0-2.7,0.3-5.1,0.8-7.1c0.5-2,1.2-3.7,2.1-5s1.9-2.3,3-3c1.1-0.7,2.3-1,3.5-1c1.7,0,3.1,0.5,4.2,1.5
			c1.1,1,2,2.4,2.7,4.2c0.5-1,1.1-1.7,1.9-2.3c0.8-0.6,1.9-0.8,3.2-0.8c0.5,0,1.1,0.1,1.7,0.3c0.6,0.2,1.1,0.5,1.7,0.9
			s1.1,0.9,1.6,1.5c0.5,0.6,0.9,1.3,1.3,2.1c1-1.8,2.3-3.3,3.9-4.3c1.6-1,3.5-1.6,5.7-1.6c1.8,0,3.4,0.4,4.8,1.1s2.6,1.7,3.7,3
			c1,1.3,1.8,2.8,2.3,4.5c0.5,1.7,0.8,3.6,0.8,5.7c0,1.5-0.2,3-0.5,4.4c-0.3,1.4-0.8,2.6-1.4,3.7V1326.9z M975.7,1318.2
			c0.7,0,1.3-0.2,1.7-0.6s0.8-1,1-1.7c0.2-0.7,0.4-1.6,0.5-2.5c0.1-1,0.2-2,0.3-3.1c0.1-1.1,0.1-2.2,0.2-3.4c0-1.2,0.1-2.3,0.3-3.4
			c-0.5-1-1.2-1.7-1.9-2.3s-1.6-0.9-2.5-0.9c-0.6,0-1.2,0.2-1.8,0.5s-1,0.8-1.4,1.5c-0.4,0.7-0.7,1.6-0.9,2.7
			c-0.2,1.1-0.3,2.4-0.3,4c0,1.6,0.1,3,0.4,4.2c0.2,1.2,0.6,2.1,1,2.9c0.4,0.8,0.9,1.3,1.5,1.7S975,1318.2,975.7,1318.2z
			 M996.1,1308.4c0,1.1,0.1,2,0.4,2.8s0.7,1.5,1.2,2c0.5,0.5,1.1,0.9,1.8,1.2c0.7,0.3,1.5,0.4,2.4,0.4c1.8,0,3.2-0.5,4.2-1.6
			c1-1.1,1.5-2.7,1.5-4.8c0-2.1-0.5-3.7-1.5-4.8c-1-1.1-2.4-1.6-4.2-1.6c-0.8,0-1.6,0.1-2.3,0.4c-0.7,0.3-1.3,0.7-1.9,1.2
			c-0.5,0.5-0.9,1.2-1.2,2S996.1,1307.4,996.1,1308.4z"/>
	</g>
	<g>
		<path d="M641.4,1303.6c0.3,0.3,0.6,0.5,0.8,0.8c0.2,0.2,0.3,0.6,0.3,1.1c0,0.4-0.1,0.9-0.4,1.3c-0.3,0.4-0.6,0.9-0.9,1.5
			c-0.3,0.6-0.6,1.3-0.9,2.1c-0.3,0.8-0.4,1.8-0.4,3c0,1.5,0.3,2.9,0.8,4c0.5,1.1,1.3,2.1,2.3,2.9c1,0.8,2.3,1.3,3.7,1.7
			c1.4,0.4,3.1,0.6,4.9,0.6c1.9,0,3.6-0.2,5.1-0.6c1.5-0.4,2.7-1,3.7-1.8s1.8-1.7,2.3-2.8c0.5-1.1,0.8-2.3,0.8-3.7s-0.2-2.5-0.5-3.4
			s-0.7-1.6-1.1-2.2c-0.4-0.6-0.8-1.1-1.1-1.5c-0.3-0.4-0.5-0.9-0.5-1.5c0-0.7,0.3-1.2,0.8-1.6l3.1-2.5c1.1,1,2,2,2.8,3.1
			c0.8,1.1,1.4,2.3,1.8,3.5c0.5,1.2,0.8,2.4,1,3.7c0.2,1.3,0.3,2.5,0.3,3.8c0,2.2-0.4,4.3-1.2,6.3c-0.8,2-2,3.7-3.6,5.2
			c-1.6,1.5-3.5,2.6-5.8,3.5c-2.3,0.9-4.9,1.3-7.8,1.3c-2.6,0-5.1-0.4-7.3-1.1c-2.2-0.8-4.2-1.9-5.8-3.4c-1.6-1.5-2.9-3.3-3.8-5.5
			c-0.9-2.2-1.4-4.7-1.4-7.5c0-2.7,0.4-5.1,1.3-7.1c0.9-2,2.1-3.8,3.7-5.5L641.4,1303.6z"/>
		<path d="M617.8,1281.1h51.7v8.7h-51.7V1281.1z"/>
		<path d="M638.8,1267.6c-3.8-4.1-5.6-9.1-5.6-15c0-2.1,0.3-4,1-5.7c0.7-1.7,1.6-3.1,2.9-4.2c1.2-1.1,2.7-2,4.4-2.6s3.5-0.9,5.6-0.9
			h22.5v3.9c0,0.8-0.1,1.5-0.4,1.9c-0.2,0.4-0.7,0.8-1.5,1.1l-2.6,0.8c0.8,0.9,1.5,1.8,2.1,2.7c0.6,0.9,1.1,1.8,1.5,2.7
			c0.4,0.9,0.7,1.9,1,3c0.2,1.1,0.3,2.2,0.3,3.5c0,1.5-0.2,2.9-0.6,4.2s-1,2.4-1.8,3.3s-1.8,1.7-3,2.2c-1.2,0.5-2.6,0.8-4.2,0.8
			c-0.9,0-1.8-0.2-2.7-0.5c-0.9-0.3-1.7-0.8-2.6-1.5c-0.8-0.7-1.6-1.6-2.3-2.7c-0.7-1.1-1.3-2.5-1.9-4.1c-0.5-1.6-1-3.5-1.3-5.6
			c-0.3-2.1-0.5-4.6-0.6-7.3H647c-2.4,0-4.2,0.5-5.3,1.5c-1.1,1-1.7,2.5-1.7,4.5c0,1.4,0.2,2.6,0.5,3.5c0.3,0.9,0.7,1.7,1.1,2.4
			c0.4,0.7,0.8,1.3,1.1,1.9c0.3,0.6,0.5,1.2,0.5,1.9c0,0.6-0.2,1.1-0.5,1.5c-0.3,0.4-0.7,0.8-1.1,1L638.8,1267.6z M654.3,1247.7
			c0.1,2.5,0.3,4.6,0.6,6.3c0.3,1.7,0.7,3.1,1.2,4.1c0.5,1,1.1,1.8,1.7,2.2c0.6,0.4,1.4,0.7,2.1,0.7c1.5,0,2.6-0.5,3.2-1.4
			c0.6-0.9,1-2.1,1-3.5c0-1.8-0.3-3.3-1-4.6c-0.6-1.3-1.6-2.6-2.9-3.8H654.3z"/>
		<path d="M617.8,1194h51.7v5.3c0,1.1-0.5,1.9-1.6,2.2l-3.4,0.7c1.6,1.5,3,3.1,4,5c1,1.9,1.5,4.1,1.5,6.6c0,2-0.4,3.8-1.2,5.4
			c-0.8,1.6-2,3.1-3.5,4.2c-1.5,1.2-3.5,2.1-5.7,2.7c-2.3,0.6-4.9,1-7.8,1c-2.6,0-5.1-0.4-7.4-1.1s-4.2-1.8-5.9-3.1
			c-1.7-1.4-3-3-3.9-4.9c-0.9-1.9-1.4-4-1.4-6.4c0-2,0.3-3.7,0.9-5.2c0.6-1.4,1.5-2.7,2.5-3.8h-18.8V1194z M642.9,1202.7
			c-1.2,1-2,2.1-2.5,3.2c-0.5,1.2-0.7,2.4-0.7,3.7c0,1.3,0.2,2.5,0.7,3.5c0.5,1.1,1.2,2,2.2,2.7c1,0.8,2.2,1.3,3.8,1.7
			c1.5,0.4,3.3,0.6,5.4,0.6c2.1,0,3.9-0.2,5.3-0.5c1.5-0.3,2.6-0.8,3.5-1.5c0.9-0.6,1.6-1.4,2-2.3s0.6-1.9,0.6-3.1
			c0-1.8-0.4-3.3-1.1-4.6c-0.7-1.3-1.8-2.5-3.2-3.6H642.9z"/>
		<path d="M617.8,1148.5h51.7v5.3c0,1.1-0.5,1.9-1.6,2.2l-3.4,0.7c1.6,1.5,3,3.1,4,5c1,1.9,1.5,4.1,1.5,6.6c0,2-0.4,3.8-1.2,5.4
			c-0.8,1.6-2,3.1-3.5,4.2c-1.5,1.2-3.5,2.1-5.7,2.7c-2.3,0.6-4.9,1-7.8,1c-2.6,0-5.1-0.4-7.4-1.1s-4.2-1.8-5.9-3.1
			c-1.7-1.4-3-3-3.9-4.9c-0.9-1.9-1.4-4-1.4-6.4c0-2,0.3-3.7,0.9-5.2c0.6-1.4,1.5-2.7,2.5-3.8h-18.8V1148.5z M642.9,1157.1
			c-1.2,1-2,2.1-2.5,3.2c-0.5,1.2-0.7,2.4-0.7,3.7c0,1.3,0.2,2.5,0.7,3.5c0.5,1.1,1.2,2,2.2,2.7c1,0.8,2.2,1.3,3.8,1.7
			c1.5,0.4,3.3,0.6,5.4,0.6c2.1,0,3.9-0.2,5.3-0.5c1.5-0.3,2.6-0.8,3.5-1.5c0.9-0.6,1.6-1.4,2-2.3s0.6-1.9,0.6-3.1
			c0-1.8-0.4-3.3-1.1-4.6c-0.7-1.3-1.8-2.5-3.2-3.6H642.9z"/>
		<path d="M623.4,1124c0.7,0,1.4,0.2,2.1,0.5c0.6,0.3,1.2,0.7,1.7,1.2s0.9,1.1,1.2,1.8c0.3,0.7,0.4,1.4,0.4,2.2
			c0,0.8-0.1,1.5-0.4,2.1c-0.3,0.7-0.7,1.2-1.2,1.7s-1.1,0.9-1.7,1.2c-0.6,0.3-1.3,0.4-2.1,0.4c-0.8,0-1.5-0.1-2.2-0.4
			s-1.3-0.7-1.7-1.2s-0.9-1.1-1.2-1.7s-0.4-1.4-0.4-2.1c0-0.8,0.1-1.5,0.4-2.2s0.7-1.3,1.2-1.8s1.1-0.9,1.7-1.2
			S622.6,1124,623.4,1124z M633.8,1125.2h35.7v8.7h-35.7V1125.2z"/>
		<path d="M638.2,1102.5c-0.7-0.7-1.4-1.5-2-2.3c-0.6-0.8-1.1-1.7-1.6-2.6c-0.4-0.9-0.8-1.9-1-2.9s-0.4-2.2-0.4-3.4
			c0-2,0.3-3.7,1-5.2c0.7-1.5,1.6-2.8,2.8-3.8c1.2-1,2.6-1.8,4.3-2.3s3.5-0.8,5.5-0.8h22.7v8.7h-22.7c-2.2,0-3.9,0.5-5.1,1.5
			c-1.2,1-1.8,2.5-1.8,4.6c0,1.5,0.3,2.9,1,4.2c0.7,1.3,1.6,2.6,2.7,3.7h25.8v8.7h-35.7v-5.3c0-1.1,0.5-1.9,1.6-2.2L638.2,1102.5z"
			/>
		<path d="M635,1033.7h3.2c1,0,1.6,0.6,1.9,1.9l0.6,3.2c1.2-0.5,2.6-0.7,4-0.7c1.8,0,3.4,0.4,4.8,1.1c1.4,0.7,2.6,1.7,3.6,3
			c1,1.3,1.8,2.8,2.3,4.5c0.5,1.7,0.8,3.6,0.8,5.6c0,0.7,0,1.4-0.1,2c-0.1,0.7-0.2,1.3-0.3,1.9c0.7,1.1,1.4,1.7,2.3,1.7
			c0.7,0,1.2-0.3,1.6-1c0.3-0.7,0.6-1.6,0.7-2.7s0.2-2.4,0.3-3.8c0-1.4,0.1-2.8,0.2-4.3c0.1-1.5,0.3-2.9,0.6-4.3
			c0.3-1.4,0.7-2.7,1.4-3.8c0.6-1.1,1.5-2,2.6-2.7c1.1-0.7,2.5-1,4.2-1c1.6,0,3.1,0.4,4.6,1.2c1.5,0.8,2.8,1.9,4,3.4
			c1.2,1.5,2.1,3.3,2.8,5.5c0.7,2.2,1.1,4.6,1.1,7.4c0,2.7-0.3,5.1-0.8,7.1c-0.5,2-1.2,3.7-2.1,5c-0.9,1.3-1.9,2.3-3,3
			c-1.1,0.7-2.3,1-3.5,1c-1.7,0-3.1-0.5-4.2-1.5c-1.1-1-2-2.4-2.7-4.2c-0.5,1-1.1,1.7-1.9,2.3c-0.8,0.6-1.9,0.8-3.2,0.8
			c-0.5,0-1.1-0.1-1.7-0.3s-1.1-0.5-1.7-0.9s-1.1-0.9-1.6-1.5c-0.5-0.6-0.9-1.3-1.3-2.1c-1,1.8-2.3,3.3-3.9,4.3
			c-1.6,1-3.5,1.6-5.7,1.6c-1.8,0-3.4-0.4-4.8-1.1s-2.6-1.7-3.7-3c-1-1.3-1.8-2.8-2.3-4.5c-0.5-1.7-0.8-3.6-0.8-5.7
			c0-1.5,0.2-3,0.5-4.4c0.3-1.4,0.8-2.6,1.4-3.7V1033.7z M650.8,1052.1c0-1.1-0.1-2-0.4-2.8s-0.7-1.5-1.2-2
			c-0.5-0.5-1.1-0.9-1.8-1.2c-0.7-0.3-1.5-0.4-2.4-0.4c-1.8,0-3.2,0.5-4.2,1.6c-1,1.1-1.5,2.7-1.5,4.8c0,2.1,0.5,3.7,1.5,4.8
			c1,1.1,2.4,1.6,4.2,1.6c0.8,0,1.6-0.1,2.3-0.4c0.7-0.3,1.3-0.7,1.9-1.2c0.5-0.5,0.9-1.2,1.2-2S650.8,1053.2,650.8,1052.1z
			 M671.1,1042.3c-0.7,0-1.3,0.2-1.7,0.6s-0.8,1-1,1.7s-0.4,1.6-0.5,2.5c-0.1,1-0.2,2-0.3,3.1c-0.1,1.1-0.1,2.2-0.2,3.4
			c0,1.2-0.1,2.3-0.3,3.4c0.5,1,1.2,1.7,1.9,2.3s1.6,0.9,2.5,0.9c0.6,0,1.2-0.2,1.8-0.5s1-0.8,1.4-1.5c0.4-0.7,0.7-1.6,0.9-2.7
			c0.2-1.1,0.3-2.4,0.3-4c0-1.6-0.1-3-0.4-4.2c-0.2-1.2-0.6-2.1-1-2.9s-0.9-1.3-1.5-1.7C672.4,1042.5,671.8,1042.3,671.1,1042.3z"/>
	</g>
	<g>
		<path d="M773.6,1148.7c-0.3,0.3-0.5,0.6-0.8,0.8c-0.2,0.2-0.6,0.3-1.1,0.3c-0.4,0-0.9-0.1-1.3-0.4c-0.4-0.3-0.9-0.6-1.5-0.9
			c-0.6-0.3-1.3-0.6-2.1-0.9s-1.8-0.4-3-0.4c-1.5,0-2.9,0.3-4,0.8c-1.1,0.5-2.1,1.3-2.9,2.3c-0.8,1-1.3,2.3-1.7,3.7
			c-0.4,1.5-0.6,3.1-0.6,4.9c0,1.9,0.2,3.6,0.6,5.1c0.4,1.5,1,2.7,1.8,3.7c0.8,1,1.7,1.8,2.8,2.3c1.1,0.5,2.3,0.8,3.7,0.8
			c1.4,0,2.5-0.2,3.4-0.5c0.9-0.3,1.6-0.7,2.2-1.1c0.6-0.4,1.1-0.8,1.5-1.1c0.4-0.3,0.9-0.5,1.5-0.5c0.7,0,1.2,0.3,1.6,0.8l2.5,3.1
			c-1,1.1-2,2-3.1,2.8c-1.1,0.8-2.3,1.4-3.5,1.8c-1.2,0.5-2.4,0.8-3.7,1c-1.3,0.2-2.5,0.3-3.8,0.3c-2.2,0-4.3-0.4-6.3-1.2
			c-2-0.8-3.7-2-5.2-3.6c-1.5-1.6-2.6-3.5-3.5-5.8c-0.9-2.3-1.3-4.9-1.3-7.8c0-2.6,0.4-5.1,1.1-7.3c0.8-2.2,1.9-4.2,3.4-5.8
			c1.5-1.6,3.3-2.9,5.5-3.8s4.7-1.4,7.5-1.4c2.7,0,5.1,0.4,7.1,1.3s3.8,2.1,5.5,3.7L773.6,1148.7z"/>
		<path d="M802.6,1140.5c2.7,0,5.1,0.4,7.3,1.3c2.2,0.9,4.1,2.1,5.6,3.7c1.6,1.6,2.8,3.5,3.6,5.8c0.8,2.3,1.3,4.8,1.3,7.6
			c0,2.8-0.4,5.4-1.3,7.7c-0.8,2.3-2,4.2-3.6,5.8c-1.6,1.6-3.4,2.8-5.6,3.7c-2.2,0.9-4.6,1.3-7.3,1.3c-2.7,0-5.1-0.4-7.3-1.3
			c-2.2-0.9-4.1-2.1-5.6-3.7c-1.6-1.6-2.8-3.5-3.6-5.8c-0.9-2.3-1.3-4.8-1.3-7.7c0-2.8,0.4-5.3,1.3-7.6c0.9-2.3,2.1-4.2,3.6-5.8
			c1.6-1.6,3.4-2.8,5.6-3.7C797.5,1141,799.9,1140.5,802.6,1140.5z M802.6,1170.7c3,0,5.2-1,6.7-3c1.4-2,2.2-4.9,2.2-8.8
			c0-3.9-0.7-6.8-2.2-8.8c-1.4-2-3.7-3-6.7-3c-3,0-5.3,1-6.8,3c-1.5,2-2.2,5-2.2,8.8c0,3.8,0.7,6.7,2.2,8.8
			C797.3,1169.7,799.6,1170.7,802.6,1170.7z"/>
		<path d="M841,1147.3c1.1-2.1,2.5-3.8,4-5c1.5-1.2,3.4-1.8,5.5-1.8c1.7,0,3,0.4,4,1.1l-0.6,6.4c-0.1,0.4-0.3,0.7-0.5,0.9
			s-0.5,0.3-0.9,0.3c-0.4,0-0.9-0.1-1.6-0.2s-1.4-0.2-2-0.2c-1,0-1.8,0.1-2.6,0.4s-1.4,0.7-2,1.2c-0.6,0.5-1.1,1.2-1.6,1.9
			s-0.9,1.6-1.3,2.5v22h-8.7v-35.7h5.1c0.9,0,1.5,0.2,1.9,0.5c0.4,0.3,0.6,0.9,0.7,1.7L841,1147.3z"/>
		<path d="M870.3,1160c0.1,1.8,0.5,3.4,1,4.8c0.5,1.3,1.2,2.4,2,3.3s1.8,1.5,3,1.9c1.2,0.4,2.4,0.6,3.8,0.6s2.6-0.2,3.6-0.5
			s1.9-0.7,2.7-1.1c0.8-0.4,1.4-0.8,2-1.1c0.6-0.3,1.1-0.5,1.7-0.5c0.7,0,1.3,0.3,1.6,0.8l2.5,3.1c-1,1.1-2,2-3.2,2.8
			s-2.4,1.4-3.7,1.8c-1.3,0.5-2.6,0.8-4,1s-2.7,0.3-3.9,0.3c-2.5,0-4.8-0.4-7-1.2c-2.2-0.8-4-2-5.6-3.7c-1.6-1.6-2.8-3.6-3.8-6
			s-1.4-5.1-1.4-8.3c0-2.4,0.4-4.7,1.2-6.9s1.9-4,3.4-5.6c1.5-1.6,3.3-2.8,5.4-3.8c2.1-0.9,4.6-1.4,7.3-1.4c2.3,0,4.4,0.4,6.3,1.1
			c1.9,0.7,3.6,1.8,5,3.1s2.5,3.1,3.3,5.1c0.8,2,1.2,4.3,1.2,6.9c0,1.3-0.1,2.2-0.4,2.6s-0.8,0.7-1.6,0.7H870.3z M886.9,1154.8
			c0-1.1-0.2-2.2-0.5-3.1s-0.8-1.8-1.4-2.6c-0.6-0.7-1.4-1.3-2.4-1.8c-1-0.4-2.1-0.6-3.4-0.6c-2.5,0-4.5,0.7-5.9,2.1
			c-1.4,1.4-2.4,3.4-2.8,6H886.9z"/>
	</g>
	<g>
		<g>
			<path d="M1101.8,1229.3c2.7,0,5.1,0.4,7.3,1.3c2.2,0.9,4.1,2.1,5.6,3.7c1.6,1.6,2.8,3.5,3.6,5.8c0.8,2.3,1.3,4.8,1.3,7.6
				c0,2.8-0.4,5.4-1.3,7.7c-0.8,2.3-2,4.2-3.6,5.8c-1.6,1.6-3.4,2.8-5.6,3.7c-2.2,0.9-4.6,1.3-7.3,1.3c-2.7,0-5.1-0.4-7.3-1.3
				c-2.2-0.9-4.1-2.1-5.6-3.7c-1.6-1.6-2.8-3.5-3.6-5.8c-0.9-2.3-1.3-4.8-1.3-7.7c0-2.8,0.4-5.3,1.3-7.6c0.9-2.3,2.1-4.2,3.6-5.8
				c1.6-1.6,3.4-2.8,5.6-3.7C1096.6,1229.7,1099.1,1229.3,1101.8,1229.3z M1101.8,1259.5c3,0,5.2-1,6.7-3c1.4-2,2.2-4.9,2.2-8.8
				c0-3.9-0.7-6.8-2.2-8.8c-1.4-2-3.7-3-6.7-3c-3,0-5.3,1-6.8,3s-2.2,5-2.2,8.8c0,3.8,0.7,6.7,2.2,8.8S1098.7,1259.5,1101.8,1259.5z
				"/>
			<path d="M1162.9,1229.9v35.7h-5.3c-1.1,0-1.9-0.5-2.2-1.6l-0.6-2.9c-1.5,1.5-3.1,2.7-4.9,3.6c-1.8,0.9-3.9,1.4-6.3,1.4
				c-2,0-3.7-0.3-5.2-1s-2.8-1.6-3.8-2.8c-1-1.2-1.8-2.6-2.3-4.3c-0.5-1.7-0.8-3.5-0.8-5.5v-22.7h8.7v22.7c0,2.2,0.5,3.9,1.5,5.1
				c1,1.2,2.5,1.8,4.6,1.8c1.5,0,2.9-0.3,4.2-1c1.3-0.7,2.6-1.6,3.7-2.7v-25.8H1162.9z"/>
			<path d="M1189.2,1266.1c-3.1,0-5.5-0.9-7.2-2.6s-2.5-4.2-2.5-7.3v-19.9h-3.7c-0.5,0-0.9-0.2-1.2-0.5c-0.3-0.3-0.5-0.8-0.5-1.4
				v-3.4l5.8-0.9l1.8-9.7c0.1-0.5,0.3-0.8,0.7-1.1c0.3-0.3,0.8-0.4,1.3-0.4h4.5v11.2h9.6v6.1h-9.6v19.3c0,1.1,0.3,2,0.8,2.6
				c0.5,0.6,1.3,0.9,2.3,0.9c0.5,0,1-0.1,1.4-0.2c0.4-0.1,0.7-0.3,0.9-0.4c0.3-0.1,0.5-0.3,0.7-0.4c0.2-0.1,0.4-0.2,0.6-0.2
				c0.3,0,0.5,0.1,0.6,0.2c0.2,0.1,0.3,0.3,0.5,0.6l2.6,4.2c-1.3,1-2.7,1.8-4.4,2.4C1192.7,1265.8,1191,1266.1,1189.2,1266.1z"/>
			<path d="M1231.1,1236.8c-0.2,0.4-0.5,0.6-0.7,0.8s-0.6,0.2-1,0.2c-0.4,0-0.9-0.1-1.4-0.3c-0.5-0.2-1-0.5-1.7-0.8
				c-0.6-0.3-1.4-0.6-2.2-0.8c-0.8-0.2-1.8-0.3-2.9-0.3c-1.7,0-3.1,0.4-4,1.1c-1,0.7-1.5,1.7-1.5,2.8c0,0.8,0.3,1.4,0.8,1.9
				c0.5,0.5,1.2,1,2,1.4c0.8,0.4,1.8,0.7,2.8,1.1s2.1,0.7,3.2,1c1.1,0.4,2.2,0.8,3.2,1.3c1.1,0.5,2,1.1,2.8,1.8
				c0.8,0.7,1.5,1.6,2,2.6c0.5,1,0.8,2.3,0.8,3.7c0,1.7-0.3,3.3-0.9,4.8c-0.6,1.5-1.5,2.7-2.8,3.8s-2.7,1.9-4.5,2.5
				c-1.8,0.6-3.9,0.9-6.2,0.9c-1.2,0-2.5-0.1-3.6-0.3c-1.2-0.2-2.3-0.5-3.4-0.9c-1.1-0.4-2.1-0.9-3-1.4c-0.9-0.5-1.7-1.1-2.4-1.7
				l2-3.3c0.3-0.4,0.6-0.7,0.9-0.9c0.4-0.2,0.8-0.3,1.3-0.3s1,0.2,1.5,0.5c0.5,0.3,1,0.6,1.7,1c0.6,0.3,1.4,0.7,2.2,1
				c0.9,0.3,1.9,0.5,3.3,0.5c1,0,1.9-0.1,2.7-0.4c0.7-0.2,1.3-0.6,1.8-1s0.8-0.9,1.1-1.4c0.2-0.5,0.3-1.1,0.3-1.6
				c0-0.8-0.3-1.5-0.8-2.1s-1.2-1-2-1.4c-0.8-0.4-1.8-0.7-2.8-1.1c-1.1-0.3-2.2-0.7-3.3-1c-1.1-0.4-2.2-0.8-3.3-1.3
				c-1.1-0.5-2-1.1-2.8-1.9c-0.8-0.8-1.5-1.7-2-2.8s-0.8-2.5-0.8-4c0-1.5,0.3-2.9,0.9-4.2s1.4-2.5,2.6-3.5c1.1-1,2.6-1.8,4.3-2.4
				c1.7-0.6,3.7-0.9,5.9-0.9c2.5,0,4.7,0.4,6.8,1.2c2,0.8,3.7,1.9,5.1,3.2L1231.1,1236.8z"/>
			<path d="M1255.8,1219.5c0,0.7-0.2,1.4-0.5,2.1s-0.7,1.2-1.2,1.7s-1.1,0.9-1.8,1.2s-1.4,0.4-2.2,0.4c-0.8,0-1.5-0.1-2.1-0.4
				s-1.2-0.7-1.7-1.2s-0.9-1.1-1.2-1.7s-0.4-1.3-0.4-2.1c0-0.8,0.1-1.5,0.4-2.2s0.7-1.3,1.2-1.7s1.1-0.9,1.7-1.2
				c0.7-0.3,1.4-0.4,2.1-0.4c0.8,0,1.5,0.1,2.2,0.4c0.7,0.3,1.3,0.7,1.8,1.2s0.9,1.1,1.2,1.7S1255.8,1218.7,1255.8,1219.5z
				 M1254.7,1229.9v35.7h-8.7v-35.7H1254.7z"/>
			<path d="M1300.5,1213.8v51.7h-5.3c-1.1,0-1.9-0.5-2.2-1.6l-0.7-3.4c-1.5,1.6-3.1,3-5,4c-1.9,1-4.1,1.5-6.6,1.5
				c-2,0-3.8-0.4-5.4-1.2c-1.6-0.8-3.1-2-4.2-3.5c-1.2-1.5-2.1-3.5-2.7-5.7s-1-4.9-1-7.8c0-2.6,0.4-5.1,1.1-7.4s1.8-4.2,3.1-5.9
				c1.4-1.7,3-3,4.9-3.9c1.9-0.9,4-1.4,6.4-1.4c2,0,3.7,0.3,5.2,0.9c1.4,0.6,2.7,1.5,3.8,2.5v-18.8H1300.5z M1291.8,1239
				c-1-1.2-2.1-2-3.2-2.5c-1.2-0.5-2.4-0.7-3.7-0.7c-1.3,0-2.5,0.2-3.5,0.7s-2,1.2-2.7,2.2c-0.8,1-1.3,2.2-1.7,3.8
				c-0.4,1.5-0.6,3.3-0.6,5.4c0,2.1,0.2,3.9,0.5,5.3c0.3,1.5,0.8,2.6,1.5,3.5c0.6,0.9,1.4,1.6,2.3,2s1.9,0.6,3.1,0.6
				c1.8,0,3.3-0.4,4.6-1.1c1.3-0.7,2.5-1.8,3.6-3.2V1239z"/>
			<path d="M1321.5,1248.8c0.1,1.8,0.5,3.4,1,4.8c0.5,1.3,1.2,2.4,2,3.3s1.8,1.5,3,1.9c1.2,0.4,2.4,0.6,3.8,0.6s2.6-0.2,3.6-0.5
				s1.9-0.7,2.7-1.1c0.8-0.4,1.4-0.8,2-1.1c0.6-0.3,1.1-0.5,1.7-0.5c0.7,0,1.3,0.3,1.6,0.8l2.5,3.1c-1,1.1-2,2-3.2,2.8
				s-2.4,1.4-3.7,1.8c-1.3,0.5-2.6,0.8-4,1s-2.7,0.3-3.9,0.3c-2.5,0-4.8-0.4-7-1.2c-2.2-0.8-4-2-5.6-3.7c-1.6-1.6-2.8-3.6-3.8-6
				s-1.4-5.1-1.4-8.3c0-2.4,0.4-4.7,1.2-6.9s1.9-4,3.4-5.6c1.5-1.6,3.3-2.8,5.4-3.8c2.1-0.9,4.6-1.4,7.3-1.4c2.3,0,4.4,0.4,6.3,1.1
				c1.9,0.7,3.6,1.8,5,3.1s2.5,3.1,3.3,5.1c0.8,2,1.2,4.3,1.2,6.9c0,1.3-0.1,2.2-0.4,2.6s-0.8,0.7-1.6,0.7H1321.5z M1338,1243.6
				c0-1.1-0.2-2.2-0.5-3.1s-0.8-1.8-1.4-2.6c-0.6-0.7-1.4-1.3-2.4-1.8c-1-0.4-2.1-0.6-3.4-0.6c-2.5,0-4.5,0.7-5.9,2.1
				c-1.4,1.4-2.4,3.4-2.8,6H1338z"/>
			<path d="M1386.6,1243.7c0,4.8,0.6,9.5,1.8,14.1c1.2,4.6,2.8,9,5,13c0.2,0.5,0.4,0.9,0.4,1.2s0,0.7-0.1,0.9
				c-0.1,0.3-0.2,0.5-0.4,0.7c-0.2,0.2-0.4,0.4-0.7,0.5l-3.9,2.3c-1.7-2.6-3.2-5.3-4.4-8c-1.2-2.7-2.2-5.4-3-8.1
				c-0.8-2.7-1.3-5.5-1.7-8.2s-0.5-5.6-0.5-8.5c0-2.9,0.2-5.7,0.5-8.5c0.4-2.8,0.9-5.5,1.7-8.3c0.8-2.7,1.8-5.4,3-8.1
				c1.2-2.7,2.7-5.3,4.4-8l3.9,2.3c0.2,0.1,0.5,0.3,0.7,0.5c0.2,0.2,0.3,0.4,0.4,0.7c0.1,0.3,0.1,0.6,0.1,0.9c0,0.4-0.2,0.8-0.4,1.3
				c-2.2,4-3.9,8.4-5,13C1387.2,1234.3,1386.6,1239,1386.6,1243.7z"/>
			<path d="M1403.6,1234.8c4.1-3.8,9.1-5.6,15-5.6c2.1,0,4,0.3,5.7,1c1.7,0.7,3.1,1.6,4.2,2.9c1.1,1.2,2,2.7,2.6,4.4
				c0.6,1.7,0.9,3.5,0.9,5.6v22.5h-3.9c-0.8,0-1.5-0.1-1.9-0.4c-0.4-0.2-0.8-0.7-1.1-1.5l-0.8-2.6c-0.9,0.8-1.8,1.5-2.7,2.1
				c-0.9,0.6-1.8,1.1-2.7,1.5c-0.9,0.4-1.9,0.7-3,1c-1.1,0.2-2.2,0.3-3.5,0.3c-1.5,0-2.9-0.2-4.2-0.6c-1.3-0.4-2.4-1-3.3-1.8
				c-0.9-0.8-1.7-1.8-2.2-3c-0.5-1.2-0.8-2.6-0.8-4.2c0-0.9,0.2-1.8,0.5-2.7c0.3-0.9,0.8-1.7,1.5-2.6c0.7-0.8,1.6-1.6,2.7-2.3
				c1.1-0.7,2.5-1.3,4.1-1.9c1.6-0.5,3.5-1,5.6-1.3c2.1-0.3,4.6-0.5,7.3-0.6v-2.1c0-2.4-0.5-4.2-1.5-5.3c-1-1.1-2.5-1.7-4.5-1.7
				c-1.4,0-2.6,0.2-3.5,0.5s-1.7,0.7-2.4,1.1c-0.7,0.4-1.3,0.8-1.9,1.1c-0.6,0.3-1.2,0.5-1.9,0.5c-0.6,0-1.1-0.2-1.5-0.5
				c-0.4-0.3-0.8-0.7-1-1.1L1403.6,1234.8z M1423.5,1250.3c-2.5,0.1-4.6,0.3-6.3,0.6c-1.7,0.3-3.1,0.7-4.1,1.2s-1.8,1.1-2.2,1.7
				c-0.4,0.7-0.7,1.4-0.7,2.1c0,1.5,0.5,2.6,1.4,3.2c0.9,0.6,2.1,1,3.5,1c1.8,0,3.3-0.3,4.6-1c1.3-0.6,2.6-1.6,3.8-2.9V1250.3z"/>
			<path d="M1456.1,1219.5c0,0.7-0.2,1.4-0.5,2.1s-0.7,1.2-1.2,1.7s-1.1,0.9-1.8,1.2s-1.4,0.4-2.2,0.4c-0.8,0-1.5-0.1-2.1-0.4
				s-1.2-0.7-1.7-1.2s-0.9-1.1-1.2-1.7s-0.4-1.3-0.4-2.1c0-0.8,0.1-1.5,0.4-2.2s0.7-1.3,1.2-1.7s1.1-0.9,1.7-1.2
				c0.7-0.3,1.4-0.4,2.1-0.4c0.8,0,1.5,0.1,2.2,0.4c0.7,0.3,1.3,0.7,1.8,1.2s0.9,1.1,1.2,1.7S1456.1,1218.7,1456.1,1219.5z
				 M1454.9,1229.9v35.7h-8.7v-35.7H1454.9z"/>
			<path d="M1477.6,1236.1c1.1-2.1,2.5-3.8,4-5c1.5-1.2,3.4-1.8,5.5-1.8c1.7,0,3,0.4,4,1.1l-0.6,6.4c-0.1,0.4-0.3,0.7-0.5,0.9
				s-0.5,0.3-0.9,0.3c-0.4,0-0.9-0.1-1.6-0.2c-0.7-0.1-1.4-0.2-2-0.2c-1,0-1.8,0.1-2.6,0.4c-0.8,0.3-1.4,0.7-2,1.2
				c-0.6,0.5-1.1,1.2-1.6,1.9s-0.9,1.6-1.3,2.5v22h-8.7v-35.7h5.1c0.9,0,1.5,0.2,1.9,0.5c0.4,0.3,0.6,0.9,0.7,1.7L1477.6,1236.1z"/>
			<path d="M1504.8,1243.7c0-4.8-0.6-9.5-1.7-14.1c-1.2-4.6-2.8-9-5-13c-0.3-0.5-0.4-0.9-0.4-1.3c0-0.4,0-0.7,0.1-0.9
				c0.1-0.3,0.2-0.5,0.4-0.7c0.2-0.2,0.4-0.4,0.7-0.5l3.9-2.3c1.7,2.6,3.2,5.3,4.4,8c1.2,2.7,2.2,5.3,3,8.1c0.8,2.7,1.3,5.5,1.7,8.3
				c0.4,2.8,0.5,5.6,0.5,8.5c0,2.9-0.2,5.7-0.5,8.5s-0.9,5.5-1.7,8.2c-0.8,2.7-1.8,5.4-3,8.1c-1.2,2.7-2.7,5.3-4.4,8l-3.9-2.3
				c-0.3-0.1-0.5-0.3-0.7-0.5c-0.2-0.2-0.3-0.4-0.4-0.7c-0.1-0.3-0.1-0.6-0.1-0.9s0.2-0.8,0.4-1.2c2.2-4.1,3.8-8.4,5-13
				C1504.2,1253.2,1504.8,1248.5,1504.8,1243.7z"/>
		</g>
	</g>
	<g>
		<g>
			<path d="M143.6,1229.3c2.7,0,5.1,0.4,7.3,1.3c2.2,0.9,4.1,2.1,5.6,3.7c1.6,1.6,2.8,3.5,3.6,5.8c0.8,2.3,1.3,4.8,1.3,7.6
				c0,2.8-0.4,5.4-1.3,7.7c-0.8,2.3-2,4.2-3.6,5.8c-1.6,1.6-3.4,2.8-5.6,3.7c-2.2,0.9-4.6,1.3-7.3,1.3c-2.7,0-5.1-0.4-7.3-1.3
				c-2.2-0.9-4.1-2.1-5.6-3.7c-1.6-1.6-2.8-3.5-3.6-5.8c-0.9-2.3-1.3-4.8-1.3-7.7c0-2.8,0.4-5.3,1.3-7.6c0.9-2.3,2.1-4.2,3.6-5.8
				c1.6-1.6,3.4-2.8,5.6-3.7C138.5,1229.7,140.9,1229.3,143.6,1229.3z M143.6,1259.5c3,0,5.2-1,6.7-3c1.4-2,2.2-4.9,2.2-8.8
				c0-3.9-0.7-6.8-2.2-8.8c-1.4-2-3.7-3-6.7-3c-3,0-5.3,1-6.8,3c-1.5,2-2.2,5-2.2,8.8c0,3.8,0.7,6.7,2.2,8.8
				C138.3,1258.5,140.6,1259.5,143.6,1259.5z"/>
			<path d="M204.8,1229.9v35.7h-5.3c-1.1,0-1.9-0.5-2.2-1.6l-0.6-2.9c-1.5,1.5-3.1,2.7-4.9,3.6c-1.8,0.9-3.9,1.4-6.3,1.4
				c-2,0-3.7-0.3-5.2-1c-1.5-0.7-2.8-1.6-3.8-2.8c-1-1.2-1.8-2.6-2.3-4.3c-0.5-1.7-0.8-3.5-0.8-5.5v-22.7h8.7v22.7
				c0,2.2,0.5,3.9,1.5,5.1c1,1.2,2.5,1.8,4.6,1.8c1.5,0,2.9-0.3,4.2-1c1.3-0.7,2.6-1.6,3.7-2.7v-25.8H204.8z"/>
			<path d="M231.1,1266.1c-3.1,0-5.5-0.9-7.2-2.6s-2.5-4.2-2.5-7.3v-19.9h-3.7c-0.5,0-0.9-0.2-1.2-0.5c-0.3-0.3-0.5-0.8-0.5-1.4
				v-3.4l5.8-0.9l1.8-9.7c0.1-0.5,0.3-0.8,0.7-1.1c0.3-0.3,0.8-0.4,1.3-0.4h4.5v11.2h9.6v6.1h-9.6v19.3c0,1.1,0.3,2,0.8,2.6
				c0.6,0.6,1.3,0.9,2.3,0.9c0.5,0,1-0.1,1.4-0.2c0.4-0.1,0.7-0.3,0.9-0.4c0.3-0.1,0.5-0.3,0.7-0.4c0.2-0.1,0.4-0.2,0.6-0.2
				c0.3,0,0.5,0.1,0.6,0.2c0.2,0.1,0.3,0.3,0.5,0.6l2.6,4.2c-1.3,1-2.7,1.8-4.4,2.4C234.6,1265.8,232.9,1266.1,231.1,1266.1z"/>
			<path d="M272.9,1236.8c-0.2,0.4-0.5,0.6-0.7,0.8c-0.3,0.2-0.6,0.2-1,0.2c-0.4,0-0.9-0.1-1.4-0.3c-0.5-0.2-1-0.5-1.7-0.8
				c-0.6-0.3-1.4-0.6-2.2-0.8c-0.8-0.2-1.8-0.3-2.9-0.3c-1.7,0-3.1,0.4-4,1.1c-1,0.7-1.5,1.7-1.5,2.8c0,0.8,0.3,1.4,0.8,1.9
				c0.5,0.5,1.2,1,2,1.4c0.8,0.4,1.8,0.7,2.8,1.1c1.1,0.3,2.1,0.7,3.2,1c1.1,0.4,2.2,0.8,3.2,1.3s2,1.1,2.8,1.8
				c0.8,0.7,1.5,1.6,2,2.6c0.5,1,0.8,2.3,0.8,3.7c0,1.7-0.3,3.3-0.9,4.8c-0.6,1.5-1.5,2.7-2.8,3.8c-1.2,1.1-2.7,1.9-4.5,2.5
				c-1.8,0.6-3.9,0.9-6.2,0.9c-1.2,0-2.5-0.1-3.6-0.3c-1.2-0.2-2.3-0.5-3.4-0.9c-1.1-0.4-2.1-0.9-3-1.4c-0.9-0.5-1.7-1.1-2.4-1.7
				l2-3.3c0.3-0.4,0.6-0.7,0.9-0.9c0.4-0.2,0.8-0.3,1.3-0.3c0.5,0,1,0.2,1.5,0.5c0.5,0.3,1,0.6,1.7,1c0.6,0.3,1.4,0.7,2.2,1
				c0.9,0.3,1.9,0.5,3.3,0.5c1,0,1.9-0.1,2.7-0.4c0.7-0.2,1.3-0.6,1.8-1c0.5-0.4,0.8-0.9,1.1-1.4c0.2-0.5,0.3-1.1,0.3-1.6
				c0-0.8-0.3-1.5-0.8-2.1s-1.2-1-2-1.4c-0.8-0.4-1.8-0.7-2.8-1.1c-1.1-0.3-2.2-0.7-3.3-1c-1.1-0.4-2.2-0.8-3.3-1.3
				c-1.1-0.5-2-1.1-2.8-1.9c-0.8-0.8-1.5-1.7-2-2.8c-0.5-1.1-0.8-2.5-0.8-4c0-1.5,0.3-2.9,0.9-4.2c0.6-1.3,1.4-2.5,2.6-3.5
				c1.1-1,2.6-1.8,4.3-2.4c1.7-0.6,3.7-0.9,5.9-0.9c2.5,0,4.7,0.4,6.8,1.2c2,0.8,3.7,1.9,5.1,3.2L272.9,1236.8z"/>
			<path d="M297.7,1219.5c0,0.7-0.2,1.4-0.5,2.1c-0.3,0.6-0.7,1.2-1.2,1.7c-0.5,0.5-1.1,0.9-1.8,1.2c-0.7,0.3-1.4,0.4-2.2,0.4
				c-0.8,0-1.5-0.1-2.1-0.4c-0.7-0.3-1.2-0.7-1.7-1.2s-0.9-1.1-1.2-1.7c-0.3-0.6-0.4-1.3-0.4-2.1c0-0.8,0.1-1.5,0.4-2.2
				c0.3-0.7,0.7-1.3,1.2-1.7s1.1-0.9,1.7-1.2c0.7-0.3,1.4-0.4,2.1-0.4c0.8,0,1.5,0.1,2.2,0.4c0.7,0.3,1.3,0.7,1.8,1.2
				c0.5,0.5,0.9,1.1,1.2,1.7C297.6,1218,297.7,1218.7,297.7,1219.5z M296.5,1229.9v35.7h-8.7v-35.7H296.5z"/>
			<path d="M342.4,1213.8v51.7h-5.3c-1.1,0-1.9-0.5-2.2-1.6l-0.7-3.4c-1.5,1.6-3.1,3-5,4s-4.1,1.5-6.6,1.5c-2,0-3.8-0.4-5.4-1.2
				c-1.6-0.8-3.1-2-4.2-3.5c-1.2-1.5-2.1-3.5-2.7-5.7c-0.6-2.3-1-4.9-1-7.8c0-2.6,0.4-5.1,1.1-7.4c0.7-2.3,1.8-4.2,3.1-5.9
				c1.4-1.7,3-3,4.9-3.9c1.9-0.9,4-1.4,6.4-1.4c2,0,3.7,0.3,5.2,0.9c1.4,0.6,2.7,1.5,3.8,2.5v-18.8H342.4z M333.7,1239
				c-1-1.2-2.1-2-3.2-2.5c-1.2-0.5-2.4-0.7-3.7-0.7c-1.3,0-2.5,0.2-3.5,0.7c-1.1,0.5-2,1.2-2.7,2.2c-0.8,1-1.3,2.2-1.7,3.8
				s-0.6,3.3-0.6,5.4c0,2.1,0.2,3.9,0.5,5.3c0.3,1.5,0.8,2.6,1.5,3.5s1.4,1.6,2.3,2s1.9,0.6,3.1,0.6c1.8,0,3.3-0.4,4.6-1.1
				c1.3-0.7,2.5-1.8,3.6-3.2V1239z"/>
			<path d="M363.3,1248.8c0.1,1.8,0.5,3.4,1,4.8c0.5,1.3,1.2,2.4,2,3.3c0.8,0.9,1.8,1.5,3,1.9c1.2,0.4,2.4,0.6,3.8,0.6
				c1.4,0,2.6-0.2,3.6-0.5c1-0.3,1.9-0.7,2.7-1.1c0.8-0.4,1.4-0.8,2-1.1c0.6-0.3,1.1-0.5,1.7-0.5c0.7,0,1.3,0.3,1.6,0.8l2.5,3.1
				c-1,1.1-2,2-3.2,2.8c-1.2,0.8-2.4,1.4-3.7,1.8c-1.3,0.5-2.6,0.8-4,1c-1.3,0.2-2.7,0.3-3.9,0.3c-2.5,0-4.8-0.4-7-1.2
				c-2.2-0.8-4-2-5.6-3.7c-1.6-1.6-2.8-3.6-3.8-6c-0.9-2.4-1.4-5.1-1.4-8.3c0-2.4,0.4-4.7,1.2-6.9c0.8-2.1,1.9-4,3.4-5.6
				c1.5-1.6,3.3-2.8,5.4-3.8s4.6-1.4,7.3-1.4c2.3,0,4.4,0.4,6.3,1.1c1.9,0.7,3.6,1.8,5,3.1c1.4,1.4,2.5,3.1,3.3,5.1
				c0.8,2,1.2,4.3,1.2,6.9c0,1.3-0.1,2.2-0.4,2.6s-0.8,0.7-1.6,0.7H363.3z M379.9,1243.6c0-1.1-0.2-2.2-0.5-3.1
				c-0.3-1-0.8-1.8-1.4-2.6c-0.6-0.7-1.4-1.3-2.4-1.8c-1-0.4-2.1-0.6-3.4-0.6c-2.5,0-4.5,0.7-5.9,2.1c-1.4,1.4-2.4,3.4-2.8,6H379.9z
				"/>
			<path d="M428.5,1243.7c0,4.8,0.6,9.5,1.8,14.1c1.2,4.6,2.8,9,5,13c0.2,0.5,0.4,0.9,0.4,1.2s0,0.7-0.1,0.9
				c-0.1,0.3-0.2,0.5-0.4,0.7s-0.4,0.4-0.6,0.5l-3.9,2.3c-1.7-2.6-3.2-5.3-4.4-8c-1.2-2.7-2.2-5.4-3-8.1c-0.8-2.7-1.3-5.5-1.7-8.2
				c-0.4-2.8-0.5-5.6-0.5-8.5c0-2.9,0.2-5.7,0.5-8.5c0.4-2.8,0.9-5.5,1.7-8.3c0.8-2.7,1.8-5.4,3-8.1c1.2-2.7,2.7-5.3,4.4-8l3.9,2.3
				c0.2,0.1,0.5,0.3,0.6,0.5c0.2,0.2,0.3,0.4,0.4,0.7c0.1,0.3,0.1,0.6,0.1,0.9c0,0.4-0.2,0.8-0.4,1.3c-2.2,4-3.9,8.4-5,13
				S428.5,1239,428.5,1243.7z"/>
			<path d="M445.5,1234.8c4.1-3.8,9.1-5.6,15-5.6c2.1,0,4,0.3,5.7,1c1.7,0.7,3.1,1.6,4.2,2.9c1.1,1.2,2,2.7,2.6,4.4
				c0.6,1.7,0.9,3.5,0.9,5.6v22.5h-3.9c-0.8,0-1.5-0.1-1.9-0.4c-0.4-0.2-0.8-0.7-1.1-1.5l-0.8-2.6c-0.9,0.8-1.8,1.5-2.7,2.1
				c-0.9,0.6-1.8,1.1-2.7,1.5c-0.9,0.4-1.9,0.7-3,1c-1.1,0.2-2.2,0.3-3.5,0.3c-1.5,0-2.9-0.2-4.2-0.6c-1.3-0.4-2.4-1-3.3-1.8
				c-0.9-0.8-1.7-1.8-2.2-3c-0.5-1.2-0.8-2.6-0.8-4.2c0-0.9,0.2-1.8,0.5-2.7c0.3-0.9,0.8-1.7,1.5-2.6c0.7-0.8,1.6-1.6,2.7-2.3
				c1.1-0.7,2.5-1.3,4.1-1.9c1.6-0.5,3.5-1,5.6-1.3c2.1-0.3,4.6-0.5,7.3-0.6v-2.1c0-2.4-0.5-4.2-1.5-5.3s-2.5-1.7-4.5-1.7
				c-1.4,0-2.6,0.2-3.5,0.5c-0.9,0.3-1.7,0.7-2.4,1.1c-0.7,0.4-1.3,0.8-1.9,1.1c-0.6,0.3-1.2,0.5-1.9,0.5c-0.6,0-1.1-0.2-1.5-0.5
				c-0.4-0.3-0.8-0.7-1-1.1L445.5,1234.8z M465.4,1250.3c-2.5,0.1-4.6,0.3-6.3,0.6s-3.1,0.7-4.1,1.2c-1,0.5-1.8,1.1-2.2,1.7
				c-0.4,0.7-0.7,1.4-0.7,2.1c0,1.5,0.5,2.6,1.4,3.2c0.9,0.6,2.1,1,3.5,1c1.8,0,3.3-0.3,4.6-1c1.3-0.6,2.6-1.6,3.8-2.9V1250.3z"/>
			<path d="M497.9,1219.5c0,0.7-0.2,1.4-0.5,2.1c-0.3,0.6-0.7,1.2-1.2,1.7c-0.5,0.5-1.1,0.9-1.8,1.2c-0.7,0.3-1.4,0.4-2.2,0.4
				c-0.8,0-1.5-0.1-2.1-0.4c-0.7-0.3-1.2-0.7-1.7-1.2s-0.9-1.1-1.2-1.7c-0.3-0.6-0.4-1.3-0.4-2.1c0-0.8,0.1-1.5,0.4-2.2
				c0.3-0.7,0.7-1.3,1.2-1.7s1.1-0.9,1.7-1.2c0.7-0.3,1.4-0.4,2.1-0.4c0.8,0,1.5,0.1,2.2,0.4c0.7,0.3,1.3,0.7,1.8,1.2
				c0.5,0.5,0.9,1.1,1.2,1.7C497.8,1218,497.9,1218.7,497.9,1219.5z M496.7,1229.9v35.7H488v-35.7H496.7z"/>
			<path d="M519.5,1236.1c1.1-2.1,2.5-3.8,4-5c1.5-1.2,3.4-1.8,5.5-1.8c1.7,0,3,0.4,4,1.1l-0.6,6.4c-0.1,0.4-0.3,0.7-0.5,0.9
				s-0.5,0.3-0.9,0.3c-0.4,0-0.9-0.1-1.6-0.2c-0.7-0.1-1.4-0.2-2-0.2c-1,0-1.8,0.1-2.6,0.4c-0.8,0.3-1.4,0.7-2,1.2
				c-0.6,0.5-1.1,1.2-1.6,1.9c-0.5,0.7-0.9,1.6-1.3,2.5v22h-8.7v-35.7h5.1c0.9,0,1.5,0.2,1.9,0.5c0.4,0.3,0.6,0.9,0.7,1.7
				L519.5,1236.1z"/>
			<path d="M546.7,1243.7c0-4.8-0.6-9.5-1.7-14.1c-1.2-4.6-2.8-9-5-13c-0.3-0.5-0.4-0.9-0.4-1.3c0-0.4,0-0.7,0.1-0.9
				c0.1-0.3,0.2-0.5,0.4-0.7c0.2-0.2,0.4-0.4,0.7-0.5l3.9-2.3c1.7,2.6,3.2,5.3,4.4,8c1.2,2.7,2.2,5.3,3,8.1c0.8,2.7,1.3,5.5,1.7,8.3
				c0.4,2.8,0.5,5.6,0.5,8.5c0,2.9-0.2,5.7-0.5,8.5s-0.9,5.5-1.7,8.2c-0.8,2.7-1.8,5.4-3,8.1c-1.2,2.7-2.7,5.3-4.4,8l-3.9-2.3
				c-0.3-0.1-0.5-0.3-0.7-0.5c-0.2-0.2-0.3-0.4-0.4-0.7c-0.1-0.3-0.1-0.6-0.1-0.9s0.2-0.8,0.4-1.2c2.2-4.1,3.8-8.4,5-13
				C546.1,1253.2,546.7,1248.5,546.7,1243.7z"/>
		</g>
	</g>
	<path d="M1411.3,890.1H231.7c-1.2,0-2.1-0.9-2.1-2.1v-9.8c0-1.2,0.9-2.1,2.1-2.1h1179.6c1.2,0,2.1,0.9,2.1,2.1v9.8
		C1413.4,889.1,1412.4,890.1,1411.3,890.1z"/>
	<path d="M814.4,890.1V484.5c0-1.7,1.4-3.1,3.1-3.1h7.8c1.7,0,3.1,1.4,3.1,3.1v405.6H814.4z"/>
	<path d="M582.9,934.3v-93.2c0-1.5,1.2-2.7,2.7-2.7h5.9c1.5,0,2.7,1.2,2.7,2.7v93.2c0,1.5-1.2,2.7-2.7,2.7h-5.9
		C584.1,936.9,582.9,935.7,582.9,934.3z"/>
	<path d="M708.8,934.3v-93.2c0-1.5,1.2-2.7,2.7-2.7h5.9c1.5,0,2.7,1.2,2.7,2.7v93.2c0,1.5-1.2,2.7-2.7,2.7h-5.9
		C710,936.9,708.8,935.7,708.8,934.3z"/>
	<path d="M774.9,736h93.2c1.5,0,2.7,1.2,2.7,2.7v5.9c0,1.5-1.2,2.7-2.7,2.7h-93.2c-1.5,0-2.7-1.2-2.7-2.7v-5.9
		C772.2,737.2,773.4,736,774.9,736z"/>
	<path d="M924.6,934.3v-93.2c0-1.5,1.2-2.7,2.7-2.7h5.9c1.5,0,2.7,1.2,2.7,2.7v93.2c0,1.5-1.2,2.7-2.7,2.7h-5.9
		C925.8,936.9,924.6,935.7,924.6,934.3z"/>
	<path d="M1051.8,934.3v-93.2c0-1.5,1.2-2.7,2.7-2.7h5.9c1.5,0,2.7,1.2,2.7,2.7v93.2c0,1.5-1.2,2.7-2.7,2.7h-5.9
		C1053,936.9,1051.8,935.7,1051.8,934.3z"/>
	<g>
		<path d="M762.3,775.8v7.4h-32.5v-7.4h11.9v-33.9c0-1.3,0-2.7,0.1-4.1l-8.5,7c-0.5,0.4-1,0.6-1.4,0.7c-0.5,0.1-0.9,0.1-1.3,0
			c-0.4-0.1-0.8-0.2-1.1-0.4c-0.3-0.2-0.6-0.4-0.7-0.7l-3.2-4.3l17.9-15.1h8.3v50.8H762.3z"/>
	</g>
	<g>
		<path d="M864.1,457.7c2.2-3.2,4.6-5.6,7.3-7.2c2.7-1.6,5.4-2.4,8.3-2.4c1.8,0,3.4,0.4,4.9,1.1c1.4,0.7,2.6,1.8,3.5,3.2
			s1.6,3.1,2,5.1c0.4,2,0.4,4.3,0.1,6.9l-3.2,27.3h-10.4l3.2-27.3c0.4-2.8,0.2-4.8-0.4-6c-0.6-1.2-1.8-1.8-3.5-1.8
			c-1.2,0-2.3,0.3-3.5,1c-1.2,0.7-2.4,1.6-3.5,2.8c-1.1,1.2-2.2,2.7-3.1,4.3c-0.9,1.7-1.7,3.6-2.3,5.7l-2.4,21.3h-10.4l5.2-42.9h5.3
			c1.1,0,1.9,0.3,2.6,0.8c0.6,0.5,0.9,1.4,0.9,2.5L864.1,457.7z"/>
	</g>
	<g>
		<path d="M1456.9,847.8c1.1-2.1,2.3-3.9,3.5-5.4c1.3-1.5,2.6-2.7,3.9-3.5c1.3-0.8,2.7-1.4,4.2-1.5c1.4-0.2,2.9,0.1,4.3,0.7
			l-1.9,9.9c-3.4-1.4-6.4-1.1-9,1c-2.6,2.1-4.6,6.3-6.2,12.5l-2.3,19h-10.2l5.2-42.9h5.3c1.1,0,1.9,0.3,2.6,0.8
			c0.6,0.5,0.9,1.4,0.9,2.5L1456.9,847.8z"/>
	</g>
	<polygon class="st49" points="577.8,689.5 577.8,659.7 698.2,659.7 698.2,624.6 939.3,624.6 939.3,655.6 1065.2,655.6 
		1065.2,689.5 911.9,689.5 911.9,652.9 726.8,652.9 726.8,689.5 	"/>
	<path class="st49" d="M587.6,752.1h-18.9v-9.8h9.1v-5h9.8V752.1z M544.8,752.1h-23.9v-9.8h23.9V752.1z M497,752.1h-23.9v-9.8H497
		V752.1z M449.2,752.1h-23.9v-9.8h23.9V752.1z M401.4,752.1h-23.9v-9.8h23.9V752.1z M353.6,752.1h-23.9v-9.8h23.9V752.1z
		 M305.8,752.1H298v-9.8h7.9V752.1z M587.6,713.4h-9.8v-23.9h9.8V713.4z"/>
	<path class="st49" d="M1345,752.1h-7.9v-9.8h7.9V752.1z M1313.2,752.1h-23.9v-9.8h23.9V752.1z M1265.4,752.1h-23.9v-9.8h23.9V752.1
		z M1217.6,752.1h-23.9v-9.8h23.9V752.1z M1169.8,752.1h-23.9v-9.8h23.9V752.1z M1122,752.1h-23.9v-9.8h23.9V752.1z M1074.2,752.1
		h-18.9v-14.8h9.8v5h9.1V752.1z M1065.2,713.4h-9.8v-23.9h9.8V713.4z"/>
</g>
</svg>
