<?xml version="1.0" encoding="utf-8"?>
<!-- Generator: Adobe Illustrator 21.0.0, SVG Export Plug-In . SVG Version: 6.00 Build 0)  -->
<svg version="1.1" id="Layer_1" xmlns="http://www.w3.org/2000/svg" xmlns:xlink="http://www.w3.org/1999/xlink" x="0px" y="0px"
	 viewBox="0 0 1644 1506" style="enable-background:new 0 0 1644 1506;" xml:space="preserve">
<style type="text/css">
	.st0{display:none;}
	.st1{display:inline;}
	.st2{fill:none;stroke:#000000;stroke-width:7;stroke-miterlimit:10;}
	.st3{fill:none;stroke:#000000;stroke-width:7;stroke-miterlimit:10;stroke-dasharray:11.9387,11.9387;}
	.st4{fill:#D6D7D8;}
	.st5{fill:#336699;}
	.st6{fill:#666666;}
	.st7{fill:#999999;}
	.st8{fill:none;stroke:#336699;stroke-width:7;stroke-miterlimit:10;}
	.st9{fill:none;stroke:#000000;stroke-width:7;stroke-miterlimit:10;stroke-dasharray:12;}
	.st10{fill:none;stroke:#D6D7D8;stroke-miterlimit:10;}
	.st11{fill:#FFFFFF;}
	.st12{fill:#FE8081;stroke:#000000;stroke-width:2;stroke-miterlimit:10;}
	.st13{fill:none;stroke:#000000;stroke-width:3;stroke-miterlimit:10;}
	.st14{fill:#FF0080;stroke:#000000;stroke-miterlimit:10;}
	.st15{opacity:0.22;}
	.st16{fill:none;stroke:#000000;stroke-width:5;stroke-miterlimit:10;}
	.st17{fill:#8C8C8C;stroke:#000000;stroke-width:1.5;stroke-miterlimit:10;}
	.st18{fill:none;stroke:#51B6F1;stroke-width:5;stroke-miterlimit:10;}
	.st19{fill:#51B6F1;}
	.st20{fill:none;stroke:#C9322A;stroke-width:5;stroke-miterlimit:10;}
	.st21{fill:#C9322A;}
	.st22{fill:none;stroke:#030303;stroke-width:3;stroke-miterlimit:10;}
	.st23{fill:none;stroke:#56B971;stroke-width:5;stroke-miterlimit:10;}
	.st24{fill:#56B971;}
	.st25{fill:none;stroke:#000000;stroke-width:0.75;stroke-miterlimit:10;}
	.st26{fill:#041C93;}
	.st27{fill:#4395E6;}
	.st28{fill:#C25829;}
	.st29{fill:#D64370;}
	.st30{fill:#C10E0E;}
	.st31{fill:#FDFDFF;}
	.st32{fill:none;stroke:#000000;stroke-width:1.5;stroke-miterlimit:10;}
	.st33{fill:#EFA973;}
	.st34{fill:#0C0D0E;}
	.st35{fill:url(#SVGID_1_);}
	.st36{fill:#020202;}
	.st37{fill:#052C50;}
	.st38{fill:url(#SVGID_2_);}
	.st39{fill:url(#SVGID_3_);}
	.st40{fill:url(#SVGID_4_);}
	.st41{fill:url(#SVGID_5_);}
	.st42{fill:url(#SVGID_6_);}
	.st43{fill:url(#SVGID_7_);}
	.st44{fill:#9AFFFF;}
	.st45{fill:#CCFFFF;}
	.st46{fill:#A4D7FF;}
	.st47{fill:#67CDCD;}
	.st48{fill:#9ACDFF;}
	.st49{fill:#C80000;}
	.st50{fill:none;stroke:#000000;stroke-width:2;stroke-miterlimit:10;}
	.st51{fill:none;}
	.st52{opacity:0.5;fill:url(#SVGID_8_);}
	.st53{opacity:0.37;fill:url(#SVGID_9_);}
	.st54{opacity:0.7;fill:url(#SVGID_10_);}
	.st55{opacity:0.7;fill:url(#SVGID_11_);}
	.st56{fill:#AAD5FF;}
	.st57{opacity:0.25;fill:#AAC0D5;}
	.st58{opacity:0.7;fill:url(#SVGID_12_);}
	.st59{fill:#231F20;}
	.st60{opacity:0.94;}
	.st61{clip-path:url(#SVGID_14_);}
	.st62{fill:#EC1C24;}
	.st63{opacity:0.9;}
	.st64{fill:url(#SVGID_15_);}
	.st65{clip-path:url(#SVGID_17_);}
	.st66{clip-path:url(#SVGID_19_);}
	.st67{clip-path:url(#SVGID_23_);}
	.st68{fill:url(#SVGID_24_);}
	.st69{fill:url(#SVGID_25_);}
	.st70{fill:url(#SVGID_26_);}
	.st71{fill:url(#SVGID_27_);}
	.st72{fill:url(#SVGID_28_);}
	.st73{fill:url(#SVGID_29_);}
	.st74{fill:url(#SVGID_30_);}
	.st75{fill:url(#SVGID_31_);}
	.st76{fill:url(#SVGID_32_);}
	.st77{fill:url(#SVGID_33_);}
	.st78{fill:url(#SVGID_34_);}
	.st79{fill:url(#SVGID_35_);}
	.st80{fill:url(#SVGID_36_);}
	.st81{fill:url(#SVGID_37_);}
	.st82{fill:url(#SVGID_38_);}
	.st83{fill:url(#SVGID_39_);}
	.st84{fill:url(#SVGID_40_);}
	.st85{fill:url(#SVGID_41_);}
	.st86{fill:url(#SVGID_42_);}
	.st87{fill:url(#SVGID_43_);}
	.st88{fill:url(#SVGID_44_);}
	.st89{fill:url(#SVGID_45_);}
	.st90{fill:url(#SVGID_46_);}
	.st91{fill:url(#SVGID_47_);}
</style>
<rect y="99" width="1644" height="126"/>
<g>
	<g>
		<path class="st11" d="M641.9,139l-2.3,18.4h20.2l-0.9,7.1h-20.1l-3,23.6h-8.9l7-56.2h32.7l-0.9,7.1H641.9z"/>
		<path class="st11" d="M686.6,148.2l-4.8,39.8h-8.3l4.8-39.8H686.6z M689.1,136.2c0,0.8-0.2,1.5-0.5,2.1c-0.3,0.7-0.7,1.3-1.3,1.8
			s-1.1,0.9-1.8,1.2c-0.7,0.3-1.3,0.4-2,0.4s-1.4-0.1-2-0.4c-0.6-0.3-1.2-0.7-1.7-1.2c-0.5-0.5-0.9-1.1-1.2-1.8
			c-0.3-0.7-0.5-1.4-0.5-2.1c0-0.8,0.2-1.5,0.5-2.2c0.3-0.7,0.7-1.3,1.2-1.8c0.5-0.5,1.1-0.9,1.7-1.2c0.7-0.3,1.3-0.4,2-0.4
			c0.7,0,1.4,0.2,2.1,0.4s1.3,0.7,1.8,1.2c0.5,0.5,0.9,1.1,1.2,1.8C689,134.7,689.1,135.4,689.1,136.2z"/>
		<path class="st11" d="M735.7,149.6l-0.4,2.8c-0.2,1.1-0.7,1.9-1.8,2.2l-4.5,1c0.2,0.6,0.3,1.2,0.4,1.9c0.1,0.6,0.1,1.3,0.1,2
			c0,1.2-0.1,2.4-0.4,3.4c-0.3,1-0.6,1.9-1.1,2.8c-0.4,0.8-0.9,1.6-1.4,2.4c-0.5,0.8-0.9,1.5-1.3,2.3c-0.4,0.8-0.7,1.5-1,2.4
			c-0.3,0.8-0.4,1.7-0.4,2.7c0,1.1,0.2,2,0.7,2.9c0.5,0.9,1,1.8,1.6,2.8c0.6,1,1.1,2,1.6,3.1c0.5,1.1,0.7,2.4,0.7,3.8
			c0,1.9-0.5,3.7-1.4,5.5c-0.9,1.7-2.1,3.2-3.8,4.5c-1.6,1.3-3.6,2.3-6,3.1c-2.4,0.8-5,1.2-8,1.2c-2.4,0-4.6-0.2-6.5-0.7
			s-3.6-1.2-5-2.1c-1.4-0.9-2.4-1.9-3.2-3.2c-0.7-1.2-1.1-2.6-1.1-4.1c0-1.7,0.4-3.3,1.1-4.6c0.7-1.3,1.8-2.4,3-3.4
			c1.3-0.9,2.7-1.7,4.4-2.2c1.7-0.6,3.4-1,5.2-1.2s3.7-0.4,5.5-0.3c1.9,0,3.6,0.2,5.3,0.4c-0.2-0.4-0.3-0.9-0.4-1.4
			c-0.1-0.5-0.2-1-0.2-1.5c0-0.8,0.1-1.6,0.3-2.4c0.2-0.8,0.6-1.8,1.1-2.8c-1,0.7-2.1,1.2-3.4,1.6c-1.2,0.4-2.7,0.5-4.4,0.5
			c-1.5,0-3-0.2-4.3-0.7c-1.4-0.5-2.6-1.2-3.6-2.2c-1-1-1.8-2.2-2.4-3.7c-0.6-1.5-0.9-3.2-0.9-5.2c0-1.9,0.4-3.8,1.1-5.6
			c0.7-1.8,1.8-3.5,3.2-4.9s3.1-2.6,5.2-3.5c2.1-0.9,4.4-1.3,7.1-1.3c1.5,0,2.9,0.2,4.2,0.5c1.3,0.3,2.5,0.8,3.6,1.5H735.7z
			 M721,188.5c0-1-0.1-1.9-0.4-2.7c-3.3-0.5-6.1-0.8-8.5-0.7c-2.4,0.1-4.3,0.4-5.8,1c-1.5,0.5-2.6,1.3-3.3,2.1s-1.1,1.8-1.1,2.8
			c0,1.7,0.7,3,2.1,3.9c1.4,0.9,3.5,1.3,6.3,1.3c1.6,0,3.1-0.2,4.4-0.6c1.3-0.4,2.4-1,3.4-1.7c0.9-0.7,1.7-1.5,2.2-2.5
			C720.7,190.6,721,189.6,721,188.5z M713.9,169.7c1.3,0,2.4-0.3,3.4-0.9c1-0.6,1.8-1.3,2.5-2.3s1.2-2,1.5-3.2
			c0.4-1.2,0.5-2.4,0.6-3.6c0-2.1-0.5-3.7-1.6-4.8c-1.1-1.1-2.5-1.6-4.4-1.6c-1.3,0-2.4,0.3-3.4,0.8c-1,0.5-1.8,1.2-2.5,2.1
			c-0.7,0.9-1.2,1.9-1.5,3.1c-0.3,1.2-0.5,2.4-0.5,3.6c0,2.1,0.5,3.8,1.5,4.9C710.6,169.1,712.1,169.7,713.9,169.7z"/>
		<path class="st11" d="M780.8,148.2L776,188h-4.2c-2,0-3.1-1-3.1-3l0.4-5.7c-2,3.1-4.3,5.4-6.9,7c-2.5,1.5-5.1,2.3-7.8,2.3
			c-1.7,0-3.2-0.3-4.5-1c-1.3-0.7-2.4-1.6-3.2-2.9c-0.8-1.3-1.4-2.9-1.7-4.7c-0.3-1.9-0.3-4,0-6.4l3-25.3h8.4l-3,25.3
			c-0.4,2.8-0.2,4.9,0.5,6.2c0.7,1.3,2,2,3.8,2c1.1,0,2.2-0.3,3.4-0.9c1.2-0.6,2.3-1.5,3.4-2.6s2.1-2.5,3.1-4.1
			c0.9-1.6,1.7-3.4,2.4-5.3l2.5-20.6H780.8z"/>
		<path class="st11" d="M803.6,158.5c1-2.1,2.1-3.9,3.3-5.4c1.2-1.5,2.4-2.7,3.7-3.5c1.3-0.9,2.6-1.4,4-1.5c1.4-0.2,2.8,0.1,4.2,0.7
			l-1.5,8c-3.3-1.3-6.3-0.9-8.8,1.3c-2.5,2.2-4.5,6.3-6,12.3l-2.1,17.8h-8.3l4.8-39.9h4.3c0.9,0,1.6,0.2,2.1,0.7
			c0.5,0.5,0.7,1.2,0.7,2.1L803.6,158.5z"/>
		<path class="st11" d="M857.2,180.7c-1.4,1.4-2.7,2.6-4,3.6c-1.3,1-2.7,1.8-4,2.5c-1.4,0.7-2.8,1.1-4.3,1.4
			c-1.5,0.3-3.1,0.5-4.9,0.5c-2.3,0-4.4-0.4-6.3-1.2s-3.5-1.9-4.8-3.3c-1.3-1.4-2.3-3.1-3.1-5.1c-0.7-2-1.1-4.3-1.1-6.8
			c0-2.1,0.2-4.1,0.7-6.1c0.4-2,1.1-3.9,2-5.8c0.9-1.8,1.9-3.5,3.1-5.1c1.2-1.5,2.6-2.9,4.2-4c1.6-1.1,3.3-2,5.2-2.6
			c1.9-0.6,3.9-1,6-1c2.1,0,3.9,0.3,5.4,0.9c1.5,0.6,2.8,1.3,3.8,2.3c1,0.9,1.8,1.9,2.3,3.1s0.7,2.2,0.7,3.3c0,1.7-0.4,3.3-1.1,4.8
			c-0.7,1.5-2,2.8-3.9,3.9c-1.9,1.2-4.4,2.2-7.7,3c-3.2,0.9-7.4,1.5-12.5,2.1c0,0.2,0,0.3,0,0.5s0,0.3,0,0.5c0,3.3,0.7,5.8,2.2,7.5
			c1.4,1.7,3.6,2.5,6.5,2.5c1.8,0,3.3-0.2,4.5-0.7c1.2-0.5,2.2-1,3.1-1.6c0.9-0.6,1.6-1.1,2.2-1.6c0.6-0.5,1.3-0.7,2-0.7
			c0.6,0,1.1,0.3,1.5,0.8L857.2,180.7z M845.4,153.6c-1.5,0-2.8,0.3-4.1,0.9c-1.2,0.6-2.4,1.4-3.3,2.5c-1,1.1-1.8,2.3-2.6,3.8
			c-0.7,1.5-1.3,3-1.7,4.8c3.6-0.5,6.5-1,8.7-1.6c2.2-0.6,3.9-1.2,5.1-1.9c1.2-0.7,2-1.4,2.4-2.2c0.4-0.8,0.6-1.6,0.6-2.4
			c0-0.4-0.1-0.9-0.3-1.3c-0.2-0.5-0.5-0.9-0.9-1.2c-0.4-0.4-0.9-0.7-1.6-0.9C847.1,153.7,846.3,153.6,845.4,153.6z"/>
		<path class="st11" d="M928.6,181.9l-0.8,6.1h-28.6l0.8-6.1h10.8l4.5-35.9c0.1-0.6,0.2-1.2,0.3-1.8c0.1-0.6,0.2-1.2,0.3-1.8
			l-9.1,7.7c-0.4,0.3-0.8,0.5-1.2,0.6c-0.4,0.1-0.8,0.1-1.1,0c-0.3-0.1-0.6-0.2-0.9-0.4c-0.3-0.2-0.4-0.4-0.5-0.6l-2.1-3.5
			l17.6-14.5h6.7l-6.2,50.1H928.6z"/>
		<path class="st11" d="M945.1,183.2c0-0.8,0.1-1.5,0.4-2.1c0.3-0.7,0.7-1.2,1.2-1.7c0.5-0.5,1.1-0.9,1.7-1.2
			c0.7-0.3,1.4-0.4,2.2-0.4c0.8,0,1.5,0.1,2.1,0.4s1.2,0.7,1.7,1.2c0.5,0.5,0.9,1.1,1.2,1.7s0.4,1.4,0.4,2.1c0,0.8-0.1,1.5-0.4,2.1
			s-0.7,1.2-1.2,1.7c-0.5,0.5-1.1,0.9-1.7,1.2c-0.7,0.3-1.4,0.4-2.1,0.4c-0.8,0-1.5-0.1-2.2-0.4c-0.7-0.3-1.2-0.7-1.7-1.2
			c-0.5-0.5-0.9-1.1-1.2-1.7C945.2,184.7,945.1,184,945.1,183.2z"/>
		<path class="st11" d="M994.4,165.9c0.5-0.6,1-1.2,1.5-1.8c0.5-0.6,0.9-1.1,1.3-1.7c-1.3,0.9-2.8,1.6-4.4,2.1
			c-1.6,0.5-3.2,0.7-4.9,0.7c-1.7,0-3.3-0.3-4.8-0.9c-1.5-0.6-2.9-1.5-4-2.7c-1.2-1.2-2.1-2.6-2.8-4.3c-0.7-1.7-1-3.7-1-5.9
			c0-2.8,0.5-5.4,1.5-7.9c1-2.5,2.4-4.6,4.2-6.4s3.9-3.3,6.4-4.3c2.5-1.1,5.1-1.6,7.9-1.6c2.4,0,4.5,0.4,6.3,1.2
			c1.9,0.8,3.4,1.9,4.7,3.3s2.3,3.1,3,5c0.7,1.9,1,4.1,1,6.3c0,2-0.2,3.8-0.6,5.5c-0.4,1.7-0.9,3.3-1.6,4.9
			c-0.7,1.6-1.6,3.2-2.6,4.7c-1,1.6-2.2,3.2-3.5,4.9l-14.6,19.2c-0.4,0.5-1.1,1-1.9,1.3c-0.8,0.4-1.6,0.5-2.6,0.5h-7.5L994.4,165.9z
			 M983.5,150.4c0,2.7,0.7,4.9,2.1,6.4c1.4,1.5,3.4,2.3,5.9,2.3c1.7,0,3.2-0.3,4.6-1c1.4-0.6,2.5-1.5,3.5-2.6c1-1.1,1.7-2.4,2.2-3.8
			c0.5-1.5,0.8-3,0.8-4.6c0-1.4-0.2-2.6-0.6-3.7c-0.4-1.1-0.9-2.1-1.7-2.8c-0.7-0.8-1.6-1.4-2.6-1.8c-1-0.4-2.1-0.6-3.4-0.6
			c-1.6,0-3,0.3-4.4,0.9s-2.5,1.5-3.4,2.6c-1,1.1-1.7,2.4-2.2,3.9C983.8,146.9,983.5,148.6,983.5,150.4z"/>
	</g>
</g>
<g>
	<path class="st11" d="M1392.7,635.5H426.4c-33.4,0-60.5,90.8-60.5,202.7s27.1,202.7,60.5,202.7h966.3c33.4,0,60.5-90.8,60.5-202.7
		S1426.1,635.5,1392.7,635.5z"/>
	<linearGradient id="SVGID_1_" gradientUnits="userSpaceOnUse" x1="939.7953" y1="1041" x2="939.7953" y2="635.5016">
		<stop  offset="0.1846" style="stop-color:#FFF6ED"/>
		<stop  offset="0.1887" style="stop-color:#FFF4E9"/>
		<stop  offset="0.2148" style="stop-color:#FEE8D3"/>
		<stop  offset="0.2454" style="stop-color:#FEDFC2"/>
		<stop  offset="0.2836" style="stop-color:#FDD9B7"/>
		<stop  offset="0.3371" style="stop-color:#FDD5B0"/>
		<stop  offset="0.4856" style="stop-color:#FDD4AE"/>
	</linearGradient>
	<path style="opacity:0.5;fill:url(#SVGID_1_);" d="M1453.2,838.3c0,112-27.1,202.7-60.5,202.7H426.4c33.4,0,60.5-90.8,60.5-202.7
		s-27.1-202.7-60.5-202.7h966.3C1426.1,635.5,1453.2,726.3,1453.2,838.3z"/>
	<linearGradient id="SVGID_2_" gradientUnits="userSpaceOnUse" x1="1288.915" y1="957.5914" x2="1496.3973" y2="718.9102">
		<stop  offset="0" style="stop-color:#FCEEF4"/>
		<stop  offset="2.405715e-03" style="stop-color:#FCEDF1"/>
		<stop  offset="2.264020e-02" style="stop-color:#FBE6DB"/>
		<stop  offset="4.634248e-02" style="stop-color:#FAE0CA"/>
		<stop  offset="7.586481e-02" style="stop-color:#F9DCBF"/>
		<stop  offset="0.1173" style="stop-color:#F9DAB8"/>
		<stop  offset="0.2323" style="stop-color:#F9D9B6"/>
		<stop  offset="0.2949" style="stop-color:#F9D9B6"/>
	</linearGradient>
	<ellipse style="opacity:0.37;fill:url(#SVGID_2_);" cx="1392.7" cy="838.3" rx="60.5" ry="202.7"/>
	<linearGradient id="SVGID_3_" gradientUnits="userSpaceOnUse" x1="917.5471" y1="952.698" x2="917.5471" y2="723.8036">
		<stop  offset="0.4769" style="stop-color:#79C1EB"/>
		<stop  offset="0.6971" style="stop-color:#79C0E9"/>
		<stop  offset="0.7764" style="stop-color:#77BBE2"/>
		<stop  offset="0.833" style="stop-color:#75B3D6"/>
		<stop  offset="0.8787" style="stop-color:#72A7C6"/>
		<stop  offset="0.9179" style="stop-color:#6E98B0"/>
		<stop  offset="0.9525" style="stop-color:#698594"/>
		<stop  offset="0.9831" style="stop-color:#646F75"/>
		<stop  offset="1" style="stop-color:#606060"/>
	</linearGradient>
	<path style="opacity:0.7;fill:url(#SVGID_3_);" d="M1408.7,838.3c0,63.2-13.5,114.4-30.2,114.4H426.4c16.7,0,30.2-51.2,30.2-114.4
		s-13.5-114.4-30.2-114.4h952.1C1395.2,723.8,1408.7,775,1408.7,838.3z"/>
	<linearGradient id="SVGID_4_" gradientUnits="userSpaceOnUse" x1="322.6448" y1="957.5914" x2="530.1271" y2="718.9102">
		<stop  offset="0" style="stop-color:#FCEEF4"/>
		<stop  offset="2.405715e-03" style="stop-color:#FCEDF1"/>
		<stop  offset="2.264020e-02" style="stop-color:#FBE6DB"/>
		<stop  offset="4.634248e-02" style="stop-color:#FAE0CA"/>
		<stop  offset="7.586481e-02" style="stop-color:#F9DCBF"/>
		<stop  offset="0.1173" style="stop-color:#F9DAB8"/>
		<stop  offset="0.2323" style="stop-color:#F9D9B6"/>
		<stop  offset="0.2949" style="stop-color:#F9D9B6"/>
	</linearGradient>
	<ellipse style="opacity:0.7;fill:url(#SVGID_4_);" cx="426.4" cy="838.3" rx="60.5" ry="202.7"/>
	<ellipse class="st56" cx="426.4" cy="838.3" rx="30.2" ry="114.4"/>
	<ellipse class="st57" cx="1378.5" cy="838.3" rx="30.2" ry="114.4"/>
	<path class="st11" d="M430.6,839c0,10.8-1.8,19.9-4.2,22.2c-0.4,0.4-0.8,0.6-1.2,0.6c-3,0-5.4-10.2-5.4-22.7
		c0-12.6,2.4-22.7,5.4-22.7c0.4,0,0.8,0.2,1.2,0.6C428.8,819.1,430.6,828.2,430.6,839z"/>
	<linearGradient id="SVGID_5_" gradientUnits="userSpaceOnUse" x1="1342.2334" y1="839.001" x2="433.9707" y2="839.001">
		<stop  offset="0.9451" style="stop-color:#F9D9B6;stop-opacity:0.9"/>
		<stop  offset="1" style="stop-color:#FCEEF4;stop-opacity:0.9"/>
	</linearGradient>
	<path style="opacity:0.7;fill:url(#SVGID_5_);" d="M1382.7,839c0,12.5-2.4,22.7-5.4,22.7H426.4v-0.6c2.4-2.3,4.2-11.3,4.2-22.2
		c0-10.8-1.8-19.9-4.2-22.2v-0.6h950.9C1380.3,816.3,1382.7,826.5,1382.7,839z"/>
	<path class="st59" d="M131.8,979.3l-1-1.9c12-6.1,294-148.4,298.9-149.7c4.9-1.3,60.7-11.5,63.1-11.9l0.3-0.1l0.3,0.1l119.5,44.8
		l136.8-44.9l126.6,44.7l-0.7,2L749.7,818l-136.8,44.9l-0.4-0.1l-119.6-44.8c-4.5,0.8-58,10.6-62.6,11.8
		C425.7,831.2,233,928.2,131.8,979.3z"/>
	<g>
		
			<rect x="875.7" y="859.3" transform="matrix(0.9502 -0.3115 0.3115 0.9502 -224.2953 316.6493)" class="st59" width="6.5" height="2.2"/>
		<path class="st59" d="M894.5,856.4l-0.7-2.1l12.2-4l0.7,2.1L894.5,856.4z M918.9,848.4l-0.7-2.1l12.2-4l0.7,2.1L918.9,848.4z
			 M1074.8,841.4l-11.9-4.7l0.8-2l11.9,4.7L1074.8,841.4z M943.2,840.5l-0.7-2.1l12.2-4l0.7,2.1L943.2,840.5z M967.5,832.5l-0.7-2.1
			l12.2-4l0.7,2.1L967.5,832.5z M1051,832l-11.9-4.7l0.8-2l11.9,4.7L1051,832z M991.8,824.5l-0.7-2.1l12.2-4l0.7,2.1L991.8,824.5z
			 M1027.2,822.5l-11.9-4.7l0.8-2l11.9,4.7L1027.2,822.5z"/>
		
			<rect x="1089" y="843.1" transform="matrix(0.3689 -0.9294 0.9294 0.3689 -98.6966 1547.2543)" class="st59" width="2.2" height="6.5"/>
	</g>
	<polygon class="st59" points="262.6,924 252.6,904.3 287.7,899.5 	"/>
	<g>
		<path d="M1132.1,670.3v31.9c0,1.2-0.2,2.3-0.5,3.3s-0.8,1.9-1.5,2.7c-0.7,0.8-1.6,1.4-2.6,1.8c-1.1,0.4-2.3,0.7-3.8,0.7
			c-0.6,0-1.2,0-1.7-0.1c-0.5-0.1-1.1-0.2-1.6-0.4l0.2-2.8c0-0.2,0.1-0.3,0.2-0.4s0.2-0.1,0.4-0.2c0.2,0,0.4,0,0.6,0
			c0.2,0,0.6,0,0.9,0c1.5,0,2.6-0.4,3.3-1.1s1-1.9,1-3.4v-31.9H1132.1z M1133.2,661c0,0.5-0.1,1-0.3,1.4c-0.2,0.4-0.5,0.8-0.8,1.2
			c-0.3,0.3-0.7,0.6-1.2,0.8c-0.5,0.2-0.9,0.3-1.4,0.3c-0.5,0-1-0.1-1.4-0.3c-0.4-0.2-0.8-0.5-1.2-0.8c-0.3-0.3-0.6-0.7-0.8-1.2
			c-0.2-0.4-0.3-0.9-0.3-1.4c0-0.5,0.1-1,0.3-1.5c0.2-0.5,0.5-0.9,0.8-1.2c0.3-0.3,0.7-0.6,1.2-0.8c0.4-0.2,0.9-0.3,1.4-0.3
			c0.5,0,1,0.1,1.4,0.3c0.4,0.2,0.8,0.5,1.2,0.8c0.3,0.3,0.6,0.7,0.8,1.2C1133.1,660,1133.2,660.5,1133.2,661z"/>
		<path d="M1139.9,674.5c1.6-1.6,3.4-2.8,5.3-3.5s4-1.2,6.3-1.2c1.7,0,3.1,0.3,4.4,0.8c1.3,0.5,2.4,1.3,3.3,2.3c0.9,1,1.5,2.2,2,3.5
			c0.4,1.4,0.7,2.9,0.7,4.6v19h-2.3c-0.5,0-0.9-0.1-1.2-0.2c-0.3-0.2-0.5-0.5-0.6-1l-0.6-2.8c-0.8,0.7-1.5,1.4-2.3,1.9
			c-0.7,0.6-1.5,1-2.3,1.4c-0.8,0.4-1.7,0.7-2.6,0.9s-2,0.3-3.1,0.3c-1.2,0-2.2-0.2-3.3-0.5s-1.9-0.8-2.7-1.5
			c-0.8-0.6-1.3-1.5-1.8-2.4c-0.4-1-0.7-2.2-0.7-3.5c0-1.2,0.3-2.3,1-3.4c0.6-1.1,1.7-2,3.1-2.9c1.4-0.8,3.3-1.5,5.7-2.1
			c2.3-0.5,5.2-0.8,8.6-0.9V681c0-2.3-0.5-4.1-1.5-5.2c-1-1.2-2.5-1.8-4.4-1.8c-1.3,0-2.4,0.2-3.2,0.5c-0.9,0.3-1.6,0.7-2.3,1.1
			c-0.6,0.4-1.2,0.8-1.6,1.1c-0.5,0.3-0.9,0.5-1.4,0.5c-0.4,0-0.7-0.1-0.9-0.3c-0.3-0.2-0.5-0.4-0.6-0.7L1139.9,674.5z
			 M1156.8,686.7c-2.4,0.1-4.5,0.3-6.1,0.6c-1.7,0.3-3.1,0.7-4.1,1.2s-1.8,1.1-2.3,1.7c-0.5,0.7-0.7,1.4-0.7,2.2
			c0,0.8,0.1,1.5,0.4,2s0.6,1,1,1.4c0.4,0.4,1,0.6,1.6,0.8s1.2,0.2,1.9,0.2c0.9,0,1.8-0.1,2.5-0.3c0.8-0.2,1.5-0.5,2.2-0.8
			c0.7-0.4,1.3-0.8,1.9-1.3c0.6-0.5,1.2-1,1.8-1.7V686.7z"/>
		<path d="M1190.5,675.6c-0.2,0.2-0.3,0.4-0.5,0.5c-0.2,0.1-0.4,0.2-0.6,0.2c-0.3,0-0.6-0.1-1-0.4c-0.4-0.2-0.8-0.5-1.3-0.8
			c-0.5-0.3-1.2-0.6-1.9-0.8s-1.7-0.4-2.8-0.4c-1.5,0-2.8,0.3-3.9,0.8c-1.1,0.5-2,1.3-2.8,2.2s-1.3,2.2-1.7,3.5
			c-0.4,1.4-0.6,2.9-0.6,4.7c0,1.8,0.2,3.4,0.6,4.8c0.4,1.4,1,2.6,1.7,3.5c0.8,0.9,1.7,1.7,2.7,2.2c1.1,0.5,2.3,0.7,3.6,0.7
			c1.3,0,2.3-0.2,3.1-0.5c0.8-0.3,1.5-0.6,2-1c0.5-0.4,1-0.7,1.3-1c0.4-0.3,0.7-0.5,1.1-0.5c0.4,0,0.8,0.2,1,0.5l1.5,1.9
			c-0.6,0.8-1.4,1.5-2.2,2.1s-1.7,1-2.7,1.4c-0.9,0.4-1.9,0.7-3,0.8s-2.1,0.3-3.2,0.3c-1.9,0-3.6-0.3-5.2-1c-1.6-0.7-3-1.7-4.2-3
			c-1.2-1.3-2.1-2.9-2.8-4.8c-0.7-1.9-1-4.1-1-6.5c0-2.2,0.3-4.3,0.9-6.1s1.5-3.5,2.7-4.9c1.2-1.4,2.6-2.4,4.4-3.2s3.7-1.1,6-1.1
			c2.1,0,3.9,0.3,5.5,1s3,1.6,4.2,2.9L1190.5,675.6z"/>
		<path d="M1203.1,656.9v25.4h1.3c0.4,0,0.7-0.1,1-0.2c0.3-0.1,0.5-0.3,0.8-0.7l9.4-10.1c0.3-0.3,0.6-0.6,0.9-0.8
			c0.3-0.2,0.7-0.3,1.2-0.3h4.7l-10.9,11.6c-0.5,0.7-1.1,1.2-1.7,1.6c0.4,0.2,0.7,0.5,1,0.8c0.3,0.3,0.6,0.7,0.8,1l11.6,14.7h-4.7
			c-0.5,0-0.8-0.1-1.2-0.2s-0.6-0.4-0.8-0.8l-9.8-12.2c-0.3-0.4-0.6-0.7-0.9-0.8c-0.3-0.1-0.7-0.2-1.3-0.2h-1.5v14.2h-5.3v-43.2
			H1203.1z"/>
		<path d="M1250.1,695.9c-0.6,0.8-1.4,1.5-2.3,2c-0.9,0.6-1.9,1.1-2.9,1.4c-1,0.4-2.1,0.7-3.2,0.8c-1.1,0.2-2.2,0.3-3.3,0.3
			c-2.1,0-3.9-0.3-5.7-1c-1.7-0.7-3.2-1.7-4.5-3c-1.3-1.3-2.2-3-2.9-5c-0.7-2-1.1-4.2-1.1-6.8c0-2.1,0.3-4,1-5.8
			c0.6-1.8,1.5-3.4,2.7-4.7c1.2-1.3,2.6-2.4,4.4-3.1s3.7-1.1,5.8-1.1c1.8,0,3.4,0.3,4.9,0.9s2.8,1.5,3.9,2.6c1.1,1.1,2,2.5,2.6,4.2
			c0.6,1.7,0.9,3.5,0.9,5.6c0,0.8-0.1,1.4-0.3,1.6c-0.2,0.3-0.5,0.4-1,0.4h-19.9c0.1,1.9,0.3,3.5,0.8,4.9c0.5,1.4,1.1,2.5,1.9,3.5
			s1.8,1.6,2.9,2.1c1.1,0.5,2.4,0.7,3.8,0.7c1.3,0,2.4-0.2,3.4-0.5c0.9-0.3,1.8-0.6,2.4-1c0.7-0.4,1.3-0.7,1.7-1
			c0.5-0.3,0.9-0.5,1.2-0.5c0.4,0,0.8,0.2,1,0.5L1250.1,695.9z M1245.8,682c0-1.2-0.2-2.3-0.5-3.3c-0.3-1-0.8-1.9-1.5-2.6
			c-0.7-0.7-1.5-1.3-2.4-1.7s-2-0.6-3.2-0.6c-2.5,0-4.5,0.7-5.9,2.2c-1.5,1.5-2.4,3.5-2.7,6.1H1245.8z"/>
		<path d="M1265.8,700.5c-2.3,0-4.2-0.7-5.4-2c-1.3-1.3-1.9-3.2-1.9-5.7v-18.2h-3.6c-0.3,0-0.6-0.1-0.8-0.3
			c-0.2-0.2-0.3-0.5-0.3-0.9v-2.1l4.9-0.6l1.2-9.2c0.1-0.3,0.2-0.5,0.4-0.7c0.2-0.2,0.5-0.3,0.8-0.3h2.6v10.2h8.6v3.8h-8.6v17.8
			c0,1.3,0.3,2.2,0.9,2.8c0.6,0.6,1.4,0.9,2.3,0.9c0.5,0,1-0.1,1.4-0.2c0.4-0.1,0.7-0.3,1-0.5c0.3-0.2,0.5-0.3,0.7-0.5
			s0.4-0.2,0.5-0.2c0.3,0,0.5,0.2,0.7,0.5l1.5,2.5c-0.9,0.8-2,1.5-3.3,2C1268.5,700.3,1267.2,700.5,1265.8,700.5z"/>
		<path d="M1115.8,768.9c-0.2,0.2-0.3,0.4-0.5,0.5c-0.2,0.1-0.4,0.2-0.6,0.2c-0.3,0-0.6-0.1-1-0.4c-0.4-0.2-0.8-0.5-1.3-0.8
			c-0.5-0.3-1.2-0.6-1.9-0.8s-1.7-0.4-2.8-0.4c-1.5,0-2.8,0.3-3.9,0.8c-1.1,0.5-2,1.3-2.8,2.2s-1.3,2.2-1.7,3.5
			c-0.4,1.4-0.6,2.9-0.6,4.7c0,1.8,0.2,3.4,0.6,4.8c0.4,1.4,1,2.6,1.7,3.5c0.8,0.9,1.7,1.7,2.7,2.2c1.1,0.5,2.3,0.7,3.6,0.7
			c1.3,0,2.3-0.2,3.1-0.5c0.8-0.3,1.5-0.6,2-1c0.5-0.4,1-0.7,1.3-1c0.4-0.3,0.7-0.5,1.1-0.5c0.4,0,0.8,0.2,1,0.5l1.5,1.9
			c-0.6,0.8-1.4,1.5-2.2,2.1s-1.7,1-2.7,1.4c-0.9,0.4-1.9,0.7-3,0.8s-2.1,0.3-3.2,0.3c-1.9,0-3.6-0.3-5.2-1c-1.6-0.7-3-1.7-4.2-3
			c-1.2-1.3-2.1-2.9-2.8-4.8c-0.7-1.9-1-4.1-1-6.5c0-2.2,0.3-4.3,0.9-6.1s1.5-3.5,2.7-4.9c1.2-1.4,2.6-2.4,4.4-3.2s3.7-1.1,6-1.1
			c2.1,0,3.9,0.3,5.5,1s3,1.6,4.2,2.9L1115.8,768.9z"/>
		<path d="M1128.6,750.1v43.2h-5.2v-43.2H1128.6z"/>
		<path d="M1136.3,767.8c1.6-1.6,3.4-2.8,5.3-3.5s4-1.2,6.3-1.2c1.7,0,3.1,0.3,4.4,0.8c1.3,0.5,2.4,1.3,3.3,2.3c0.9,1,1.5,2.2,2,3.5
			c0.4,1.4,0.7,2.9,0.7,4.6v19h-2.3c-0.5,0-0.9-0.1-1.2-0.2c-0.3-0.2-0.5-0.5-0.6-1l-0.6-2.8c-0.8,0.7-1.5,1.4-2.3,1.9
			c-0.7,0.6-1.5,1-2.3,1.4c-0.8,0.4-1.7,0.7-2.6,0.9s-2,0.3-3.1,0.3c-1.2,0-2.2-0.2-3.3-0.5s-1.9-0.8-2.7-1.5
			c-0.8-0.6-1.3-1.5-1.8-2.4c-0.4-1-0.7-2.2-0.7-3.5c0-1.2,0.3-2.3,1-3.4c0.6-1.1,1.7-2,3.1-2.9c1.4-0.8,3.3-1.5,5.7-2.1
			c2.3-0.5,5.2-0.8,8.6-0.9v-2.3c0-2.3-0.5-4.1-1.5-5.2c-1-1.2-2.5-1.8-4.4-1.8c-1.3,0-2.4,0.2-3.2,0.5c-0.9,0.3-1.6,0.7-2.3,1.1
			c-0.6,0.4-1.2,0.8-1.6,1.1c-0.5,0.3-0.9,0.5-1.4,0.5c-0.4,0-0.7-0.1-0.9-0.3c-0.3-0.2-0.5-0.4-0.6-0.7L1136.3,767.8z
			 M1153.1,779.9c-2.4,0.1-4.5,0.3-6.1,0.6c-1.7,0.3-3.1,0.7-4.1,1.2s-1.8,1.1-2.3,1.7c-0.5,0.7-0.7,1.4-0.7,2.2
			c0,0.8,0.1,1.5,0.4,2s0.6,1,1,1.4c0.4,0.4,1,0.6,1.6,0.8s1.2,0.2,1.9,0.2c0.9,0,1.8-0.1,2.5-0.3c0.8-0.2,1.5-0.5,2.2-0.8
			c0.7-0.4,1.3-0.8,1.9-1.3c0.6-0.5,1.2-1,1.8-1.7V779.9z"/>
		<path d="M1190.7,750.1v43.2h-3.1c-0.7,0-1.2-0.4-1.4-1.1l-0.5-3.6c-1.3,1.5-2.7,2.8-4.3,3.7s-3.5,1.4-5.6,1.4
			c-1.7,0-3.2-0.3-4.6-1c-1.4-0.7-2.6-1.6-3.5-2.9c-1-1.3-1.7-2.9-2.3-4.8c-0.5-1.9-0.8-4.1-0.8-6.5c0-2.2,0.3-4.2,0.9-6.1
			c0.6-1.9,1.4-3.5,2.5-4.9c1.1-1.4,2.4-2.5,4-3.3s3.4-1.2,5.4-1.2c1.8,0,3.4,0.3,4.7,0.9c1.3,0.6,2.5,1.5,3.5,2.6v-16.5H1190.7z
			 M1185.5,770.6c-1-1.3-2-2.2-3.2-2.7c-1.1-0.5-2.4-0.8-3.8-0.8c-2.8,0-4.9,1-6.4,3c-1.5,2-2.2,4.8-2.2,8.4c0,1.9,0.2,3.6,0.5,5
			c0.3,1.4,0.8,2.5,1.5,3.4c0.6,0.9,1.4,1.5,2.4,2c0.9,0.4,2,0.6,3.2,0.6c1.7,0,3.2-0.4,4.5-1.2c1.3-0.8,2.5-1.9,3.5-3.3V770.6z"/>
		<path d="M1223.6,750.1v43.2h-3.1c-0.7,0-1.2-0.4-1.4-1.1l-0.5-3.6c-1.3,1.5-2.7,2.8-4.3,3.7s-3.5,1.4-5.6,1.4
			c-1.7,0-3.2-0.3-4.6-1c-1.4-0.7-2.6-1.6-3.5-2.9c-1-1.3-1.7-2.9-2.3-4.8c-0.5-1.9-0.8-4.1-0.8-6.5c0-2.2,0.3-4.2,0.9-6.1
			c0.6-1.9,1.4-3.5,2.5-4.9c1.1-1.4,2.4-2.5,4-3.3s3.4-1.2,5.4-1.2c1.8,0,3.4,0.3,4.7,0.9c1.3,0.6,2.5,1.5,3.5,2.6v-16.5H1223.6z
			 M1218.4,770.6c-1-1.3-2-2.2-3.2-2.7c-1.1-0.5-2.4-0.8-3.8-0.8c-2.8,0-4.9,1-6.4,3c-1.5,2-2.2,4.8-2.2,8.4c0,1.9,0.2,3.6,0.5,5
			c0.3,1.4,0.8,2.5,1.5,3.4c0.6,0.9,1.4,1.5,2.4,2c0.9,0.4,2,0.6,3.2,0.6c1.7,0,3.2-0.4,4.5-1.2c1.3-0.8,2.5-1.9,3.5-3.3V770.6z"/>
		<path d="M1238.5,754.2c0,0.5-0.1,1-0.3,1.4c-0.2,0.4-0.5,0.8-0.8,1.2c-0.3,0.3-0.7,0.6-1.2,0.8c-0.5,0.2-0.9,0.3-1.5,0.3
			c-0.5,0-1-0.1-1.4-0.3c-0.4-0.2-0.8-0.5-1.2-0.8c-0.3-0.3-0.6-0.7-0.8-1.2c-0.2-0.4-0.3-0.9-0.3-1.4c0-0.5,0.1-1,0.3-1.5
			c0.2-0.5,0.5-0.9,0.8-1.2c0.3-0.3,0.7-0.6,1.2-0.8c0.4-0.2,0.9-0.3,1.4-0.3c0.5,0,1,0.1,1.5,0.3c0.5,0.2,0.9,0.5,1.2,0.8
			c0.3,0.3,0.6,0.7,0.8,1.2C1238.4,753.3,1238.5,753.7,1238.5,754.2z M1237.4,763.6v29.7h-5.2v-29.7H1237.4z"/>
		<path d="M1250.9,767.9c0.6-0.7,1.3-1.4,2.1-2c0.7-0.6,1.5-1.1,2.3-1.5c0.8-0.4,1.7-0.7,2.6-1s1.9-0.3,2.9-0.3
			c1.6,0,3.1,0.3,4.3,0.8c1.2,0.5,2.3,1.3,3.1,2.3s1.5,2.2,1.9,3.6c0.4,1.4,0.6,2.9,0.6,4.6v18.9h-5.3v-18.9c0-2.2-0.5-4-1.5-5.2
			c-1-1.2-2.6-1.9-4.7-1.9c-1.5,0-3,0.4-4.3,1.1c-1.3,0.7-2.6,1.8-3.7,3v21.9h-5.3v-29.7h3.1c0.7,0,1.2,0.4,1.4,1.1L1250.9,767.9z"
			/>
		<path d="M1303.8,764.7v1.9c0,0.6-0.4,1.1-1.2,1.2l-3.4,0.4c0.7,1.3,1,2.7,1,4.3c0,1.4-0.3,2.8-0.8,3.9c-0.6,1.2-1.3,2.2-2.3,3
			c-1,0.8-2.2,1.5-3.5,1.9c-1.4,0.4-2.9,0.7-4.5,0.7c-1.4,0-2.7-0.2-3.9-0.5c-0.6,0.4-1.1,0.8-1.4,1.2c-0.3,0.4-0.5,0.9-0.5,1.3
			c0,0.7,0.3,1.2,0.9,1.6c0.6,0.4,1.3,0.6,2.3,0.8c0.9,0.2,2,0.3,3.2,0.3s2.4,0.1,3.7,0.2c1.3,0.1,2.5,0.2,3.7,0.5
			c1.2,0.2,2.3,0.6,3.2,1.1s1.7,1.2,2.3,2c0.6,0.9,0.9,2,0.9,3.3c0,1.3-0.3,2.5-1,3.7c-0.6,1.2-1.5,2.3-2.7,3.2
			c-1.2,0.9-2.7,1.7-4.4,2.2c-1.7,0.6-3.7,0.8-5.9,0.8c-2.2,0-4.1-0.2-5.7-0.6c-1.6-0.4-3-1-4-1.7c-1.1-0.7-1.9-1.6-2.4-2.5
			c-0.5-0.9-0.8-1.9-0.8-3c0-1.5,0.5-2.7,1.4-3.7c0.9-1,2.2-1.8,3.8-2.4c-0.9-0.4-1.6-0.9-2.1-1.6c-0.5-0.7-0.8-1.5-0.8-2.7
			c0-0.4,0.1-0.9,0.2-1.3c0.2-0.5,0.4-0.9,0.7-1.4c0.3-0.5,0.7-0.9,1.2-1.3c0.5-0.4,1-0.8,1.6-1.1c-1.5-0.8-2.6-1.9-3.4-3.3
			c-0.8-1.4-1.2-2.9-1.2-4.7c0-1.4,0.3-2.8,0.8-3.9c0.6-1.2,1.3-2.2,2.3-3s2.2-1.5,3.6-1.9c1.4-0.4,2.9-0.7,4.5-0.7
			c1.3,0,2.5,0.1,3.6,0.4c1.1,0.3,2.1,0.7,3,1.2H1303.8z M1298.4,794.9c0-0.7-0.2-1.3-0.6-1.8c-0.4-0.5-1-0.8-1.7-1.1
			c-0.7-0.3-1.5-0.4-2.4-0.5s-1.9-0.2-2.9-0.2c-1-0.1-2.1-0.1-3.1-0.2c-1.1-0.1-2.1-0.2-3-0.3c-1.1,0.5-2,1.1-2.7,1.9
			c-0.7,0.8-1,1.7-1,2.7c0,0.7,0.2,1.3,0.5,1.9c0.3,0.6,0.9,1.1,1.6,1.5c0.7,0.4,1.6,0.8,2.7,1c1.1,0.2,2.3,0.4,3.8,0.4
			c1.4,0,2.7-0.1,3.8-0.4c1.1-0.3,2.1-0.6,2.8-1.1c0.8-0.5,1.4-1,1.8-1.7C1298.2,796.4,1298.4,795.7,1298.4,794.9z M1289,778.8
			c1.1,0,2-0.1,2.8-0.4c0.8-0.3,1.5-0.7,2-1.2c0.5-0.5,1-1.2,1.2-1.9c0.3-0.7,0.4-1.5,0.4-2.4c0-1.8-0.6-3.3-1.7-4.3
			s-2.7-1.6-4.8-1.6c-2.1,0-3.7,0.5-4.8,1.6s-1.7,2.5-1.7,4.3c0,0.9,0.1,1.7,0.4,2.4c0.3,0.7,0.7,1.4,1.2,1.9c0.5,0.5,1.2,0.9,2,1.2
			S1288,778.8,1289,778.8z"/>
		<path d="M1166.9,833.5c-0.2,0.2-0.3,0.4-0.5,0.5c-0.2,0.1-0.4,0.2-0.6,0.2c-0.3,0-0.6-0.1-1-0.4c-0.4-0.2-0.8-0.5-1.3-0.8
			c-0.5-0.3-1.2-0.6-1.9-0.8s-1.7-0.4-2.8-0.4c-1.5,0-2.8,0.3-3.9,0.8c-1.1,0.5-2,1.3-2.8,2.2s-1.3,2.2-1.7,3.5
			c-0.4,1.4-0.6,2.9-0.6,4.7c0,1.8,0.2,3.4,0.6,4.8c0.4,1.4,1,2.6,1.7,3.5c0.8,0.9,1.7,1.7,2.7,2.2c1.1,0.5,2.3,0.7,3.6,0.7
			c1.3,0,2.3-0.2,3.1-0.5c0.8-0.3,1.5-0.6,2-1c0.5-0.4,1-0.7,1.3-1c0.4-0.3,0.7-0.5,1.1-0.5c0.4,0,0.8,0.2,1,0.5l1.5,1.9
			c-0.6,0.8-1.4,1.5-2.2,2.1s-1.7,1-2.7,1.4c-0.9,0.4-1.9,0.7-3,0.8s-2.1,0.3-3.2,0.3c-1.9,0-3.6-0.3-5.2-1c-1.6-0.7-3-1.7-4.2-3
			c-1.2-1.3-2.1-2.9-2.8-4.8c-0.7-1.9-1-4.1-1-6.5c0-2.2,0.3-4.3,0.9-6.1s1.5-3.5,2.7-4.9c1.2-1.4,2.6-2.4,4.4-3.2s3.7-1.1,6-1.1
			c2.1,0,3.9,0.3,5.5,1s3,1.6,4.2,2.9L1166.9,833.5z"/>
		<path d="M1186.2,827.8c2.2,0,4.1,0.4,5.9,1.1c1.7,0.7,3.2,1.8,4.5,3.1c1.2,1.3,2.2,2.9,2.8,4.8s1,4,1,6.3c0,2.3-0.3,4.5-1,6.3
			s-1.6,3.5-2.8,4.8c-1.2,1.3-2.7,2.4-4.5,3.1c-1.7,0.7-3.7,1.1-5.9,1.1c-2.2,0-4.2-0.4-5.9-1.1c-1.8-0.7-3.2-1.7-4.5-3.1
			c-1.2-1.3-2.2-2.9-2.8-4.8s-1-4-1-6.3c0-2.3,0.3-4.4,1-6.3s1.6-3.5,2.8-4.8c1.2-1.3,2.7-2.4,4.5-3.1S1184.1,827.8,1186.2,827.8z
			 M1186.2,854.3c2.9,0,5.1-1,6.6-2.9c1.4-2,2.2-4.7,2.2-8.2c0-3.5-0.7-6.3-2.2-8.3s-3.6-3-6.6-3c-1.5,0-2.8,0.3-3.9,0.8
			c-1.1,0.5-2,1.2-2.8,2.2c-0.7,1-1.3,2.1-1.6,3.5c-0.4,1.4-0.5,3-0.5,4.7c0,3.5,0.7,6.3,2.2,8.2
			C1181.1,853.3,1183.3,854.3,1186.2,854.3z"/>
		<path d="M1211.9,834.2c0.9-2,2.1-3.6,3.5-4.8c1.4-1.1,3-1.7,5-1.7c0.6,0,1.2,0.1,1.8,0.2c0.6,0.1,1.1,0.4,1.5,0.6l-0.4,3.9
			c-0.1,0.5-0.4,0.7-0.9,0.7c-0.3,0-0.7-0.1-1.2-0.2c-0.5-0.1-1.1-0.2-1.8-0.2c-0.9,0-1.8,0.1-2.5,0.4c-0.7,0.3-1.4,0.7-2,1.2
			c-0.6,0.5-1.1,1.2-1.6,2c-0.5,0.8-0.9,1.7-1.2,2.7v18.8h-5.3v-29.7h3c0.6,0,1,0.1,1.2,0.3c0.2,0.2,0.4,0.6,0.4,1.1L1211.9,834.2z"
			/>
		<path d="M1251.2,853.8c-0.6,0.8-1.4,1.5-2.3,2c-0.9,0.6-1.9,1.1-2.9,1.4c-1,0.4-2.1,0.7-3.2,0.8c-1.1,0.2-2.2,0.3-3.3,0.3
			c-2.1,0-3.9-0.3-5.7-1c-1.7-0.7-3.2-1.7-4.5-3c-1.3-1.3-2.2-3-2.9-5c-0.7-2-1.1-4.2-1.1-6.8c0-2.1,0.3-4,1-5.8
			c0.6-1.8,1.5-3.4,2.7-4.7c1.2-1.3,2.6-2.4,4.4-3.1s3.7-1.1,5.8-1.1c1.8,0,3.4,0.3,4.9,0.9s2.8,1.5,3.9,2.6c1.1,1.1,2,2.5,2.6,4.2
			c0.6,1.7,0.9,3.5,0.9,5.6c0,0.8-0.1,1.4-0.3,1.6c-0.2,0.3-0.5,0.4-1,0.4h-19.9c0.1,1.9,0.3,3.5,0.8,4.9c0.5,1.4,1.1,2.5,1.9,3.5
			s1.8,1.6,2.9,2.1c1.1,0.5,2.4,0.7,3.8,0.7c1.3,0,2.4-0.2,3.4-0.5c0.9-0.3,1.8-0.6,2.4-1c0.7-0.4,1.3-0.7,1.7-1
			c0.5-0.3,0.9-0.5,1.2-0.5c0.4,0,0.8,0.2,1,0.5L1251.2,853.8z M1247,839.8c0-1.2-0.2-2.3-0.5-3.3c-0.3-1-0.8-1.9-1.5-2.6
			c-0.7-0.7-1.5-1.3-2.4-1.7s-2-0.6-3.2-0.6c-2.5,0-4.5,0.7-5.9,2.2c-1.5,1.5-2.4,3.5-2.7,6.1H1247z"/>
	</g>
</g>
</svg>
