<?xml version="1.0" encoding="utf-8"?>
<!-- Generator: Adobe Illustrator 21.0.0, SVG Export Plug-In . SVG Version: 6.00 Build 0)  -->
<svg version="1.1" id="Layer_1" xmlns="http://www.w3.org/2000/svg" xmlns:xlink="http://www.w3.org/1999/xlink" x="0px" y="0px"
	 viewBox="0 0 1644 1506" style="enable-background:new 0 0 1644 1506;" xml:space="preserve">
<style type="text/css">
	.st0{display:none;}
	.st1{display:inline;}
	.st2{fill:none;stroke:#000000;stroke-width:7;stroke-miterlimit:10;}
	.st3{fill:none;stroke:#000000;stroke-width:7;stroke-miterlimit:10;stroke-dasharray:11.9387,11.9387;}
	.st4{fill:#D6D7D8;}
	.st5{fill:#336699;}
	.st6{fill:#666666;}
	.st7{fill:#999999;}
	.st8{fill:none;stroke:#336699;stroke-width:7;stroke-miterlimit:10;}
	.st9{fill:none;stroke:#000000;stroke-width:7;stroke-miterlimit:10;stroke-dasharray:12;}
	.st10{fill:none;stroke:#D6D7D8;stroke-miterlimit:10;}
	.st11{fill:#FFFFFF;}
	.st12{fill:#FE8081;stroke:#000000;stroke-width:2;stroke-miterlimit:10;}
	.st13{fill:none;stroke:#000000;stroke-width:3;stroke-miterlimit:10;}
	.st14{fill:#FF0080;stroke:#000000;stroke-miterlimit:10;}
	.st15{opacity:0.22;}
	.st16{fill:none;stroke:#000000;stroke-width:5;stroke-miterlimit:10;}
	.st17{fill:#8C8C8C;stroke:#000000;stroke-width:1.5;stroke-miterlimit:10;}
	.st18{fill:none;stroke:#51B6F1;stroke-width:5;stroke-miterlimit:10;}
	.st19{fill:#51B6F1;}
	.st20{fill:none;stroke:#C9322A;stroke-width:5;stroke-miterlimit:10;}
	.st21{fill:#C9322A;}
	.st22{fill:none;stroke:#030303;stroke-width:3;stroke-miterlimit:10;}
	.st23{fill:none;stroke:#56B971;stroke-width:5;stroke-miterlimit:10;}
	.st24{fill:#56B971;}
	.st25{fill:none;stroke:#000000;stroke-width:0.75;stroke-miterlimit:10;}
	.st26{fill:#041C93;}
	.st27{fill:#4395E6;}
	.st28{fill:#C25829;}
	.st29{fill:#D64370;}
	.st30{fill:#C10E0E;}
	.st31{fill:#FDFDFF;}
	.st32{fill:none;stroke:#000000;stroke-width:1.5;stroke-miterlimit:10;}
	.st33{fill:#EFA973;}
	.st34{fill:#0C0D0E;}
	.st35{fill:url(#SVGID_1_);}
	.st36{fill:#020202;}
	.st37{fill:#052C50;}
	.st38{fill:url(#SVGID_2_);}
	.st39{fill:url(#SVGID_3_);}
	.st40{fill:url(#SVGID_4_);}
	.st41{fill:url(#SVGID_5_);}
	.st42{fill:url(#SVGID_6_);}
	.st43{fill:url(#SVGID_7_);}
	.st44{fill:#9AFFFF;}
	.st45{fill:#CCFFFF;}
	.st46{fill:#A4D7FF;}
	.st47{fill:#67CDCD;}
	.st48{fill:#9ACDFF;}
	.st49{fill:#C80000;}
	.st50{fill:none;stroke:#000000;stroke-width:2;stroke-miterlimit:10;}
	.st51{fill:none;}
	.st52{opacity:0.5;fill:url(#SVGID_8_);}
	.st53{opacity:0.37;fill:url(#SVGID_9_);}
	.st54{opacity:0.7;fill:url(#SVGID_10_);}
	.st55{opacity:0.7;fill:url(#SVGID_11_);}
	.st56{fill:#AAD5FF;}
	.st57{opacity:0.25;fill:#AAC0D5;}
	.st58{opacity:0.7;fill:url(#SVGID_12_);}
	.st59{fill:#231F20;}
	.st60{opacity:0.94;}
	.st61{clip-path:url(#SVGID_14_);}
	.st62{fill:#EC1C24;}
	.st63{opacity:0.9;}
	.st64{fill:url(#SVGID_15_);}
	.st65{clip-path:url(#SVGID_17_);}
	.st66{clip-path:url(#SVGID_19_);}
	.st67{clip-path:url(#SVGID_23_);}
	.st68{fill:url(#SVGID_24_);}
	.st69{fill:url(#SVGID_25_);}
	.st70{fill:url(#SVGID_26_);}
	.st71{fill:url(#SVGID_27_);}
	.st72{fill:url(#SVGID_28_);}
	.st73{fill:url(#SVGID_29_);}
	.st74{fill:url(#SVGID_30_);}
	.st75{fill:url(#SVGID_31_);}
	.st76{fill:url(#SVGID_32_);}
	.st77{fill:url(#SVGID_33_);}
	.st78{fill:url(#SVGID_34_);}
	.st79{fill:url(#SVGID_35_);}
	.st80{fill:url(#SVGID_36_);}
	.st81{fill:url(#SVGID_37_);}
	.st82{fill:url(#SVGID_38_);}
	.st83{fill:url(#SVGID_39_);}
	.st84{fill:url(#SVGID_40_);}
	.st85{fill:url(#SVGID_41_);}
	.st86{fill:url(#SVGID_42_);}
	.st87{fill:url(#SVGID_43_);}
	.st88{fill:url(#SVGID_44_);}
	.st89{fill:url(#SVGID_45_);}
	.st90{fill:url(#SVGID_46_);}
	.st91{fill:url(#SVGID_47_);}
</style>
<rect y="99" width="1644" height="126"/>
<g>
	<g>
		<path class="st11" d="M373.3,180.7l-0.8,6.1h-28.6l0.8-6.1h10.8l4.5-35.9c0.1-0.6,0.2-1.2,0.3-1.8c0.1-0.6,0.2-1.2,0.3-1.8
			l-9.1,7.7c-0.4,0.3-0.8,0.5-1.2,0.6c-0.4,0.1-0.8,0.1-1.1,0c-0.3-0.1-0.6-0.2-0.9-0.4c-0.3-0.2-0.4-0.4-0.5-0.6l-2.1-3.5
			l17.6-14.5h6.7l-6.2,50.1H373.3z"/>
		<path class="st11" d="M389.9,182c0-0.8,0.1-1.5,0.4-2.1c0.3-0.7,0.7-1.2,1.2-1.7c0.5-0.5,1.1-0.9,1.7-1.2c0.7-0.3,1.4-0.4,2.2-0.4
			c0.8,0,1.5,0.1,2.1,0.4s1.2,0.7,1.7,1.2c0.5,0.5,0.9,1.1,1.2,1.7s0.4,1.4,0.4,2.1c0,0.8-0.1,1.5-0.4,2.1s-0.7,1.2-1.2,1.7
			c-0.5,0.5-1.1,0.9-1.7,1.2c-0.7,0.3-1.4,0.4-2.1,0.4c-0.8,0-1.5-0.1-2.2-0.4c-0.7-0.3-1.2-0.7-1.7-1.2c-0.5-0.5-0.9-1.1-1.2-1.7
			C390,183.5,389.9,182.7,389.9,182z"/>
		<path class="st11" d="M454.9,166.1l-0.6,4.7c-0.1,0.4-0.3,0.8-0.6,1.2c-0.3,0.3-0.8,0.5-1.3,0.5h-5.3l-1.8,14.3h-7.1l1.8-14.3
			h-22.5c-0.6,0-1-0.2-1.4-0.5c-0.4-0.4-0.6-0.8-0.7-1.3l-0.3-4.1l29.4-35.9h7.7l-4.4,35.5H454.9z M440.7,166.1l2.6-21
			c0.2-1.3,0.4-2.8,0.8-4.5l-20.4,25.5H440.7z"/>
		<path class="st11" d="M467,182c0-0.8,0.1-1.5,0.4-2.1c0.3-0.7,0.7-1.2,1.2-1.7c0.5-0.5,1.1-0.9,1.7-1.2c0.7-0.3,1.4-0.4,2.2-0.4
			c0.8,0,1.5,0.1,2.1,0.4s1.2,0.7,1.7,1.2c0.5,0.5,0.9,1.1,1.2,1.7s0.4,1.4,0.4,2.1c0,0.8-0.1,1.5-0.4,2.1s-0.7,1.2-1.2,1.7
			c-0.5,0.5-1.1,0.9-1.7,1.2c-0.7,0.3-1.4,0.4-2.1,0.4c-0.8,0-1.5-0.1-2.2-0.4c-0.7-0.3-1.2-0.7-1.7-1.2c-0.5-0.5-0.9-1.1-1.2-1.7
			C467.1,183.5,467,182.7,467,182z"/>
		<path class="st11" d="M527.5,180.7l-0.8,6.1H498l0.8-6.1h10.8l4.5-35.9c0.1-0.6,0.2-1.2,0.3-1.8c0.1-0.6,0.2-1.2,0.3-1.8l-9.1,7.7
			c-0.4,0.3-0.8,0.5-1.2,0.6c-0.4,0.1-0.8,0.1-1.1,0c-0.3-0.1-0.6-0.2-0.9-0.4c-0.3-0.2-0.4-0.4-0.5-0.6l-2.1-3.5l17.6-14.5h6.7
			l-6.2,50.1H527.5z"/>
		<path class="st11" d="M544,182c0-0.8,0.1-1.5,0.4-2.1c0.3-0.7,0.7-1.2,1.2-1.7c0.5-0.5,1.1-0.9,1.7-1.2s1.4-0.4,2.2-0.4
			c0.8,0,1.5,0.1,2.1,0.4s1.2,0.7,1.7,1.2c0.5,0.5,0.9,1.1,1.2,1.7c0.3,0.7,0.4,1.4,0.4,2.1c0,0.8-0.1,1.5-0.4,2.1
			c-0.3,0.7-0.7,1.2-1.2,1.7c-0.5,0.5-1.1,0.9-1.7,1.2c-0.7,0.3-1.4,0.4-2.1,0.4c-0.8,0-1.5-0.1-2.2-0.4c-0.7-0.3-1.2-0.7-1.7-1.2
			c-0.5-0.5-0.9-1.1-1.2-1.7C544.2,183.5,544,182.7,544,182z"/>
		<path class="st11" d="M610,137.8l-2.1,17.3h19l-0.9,6.9H607l-2.2,17.8h23.8l-0.9,7.1H595l7-56.2h32.7l-0.9,7.1H610z"/>
		<path class="st11" d="M706.6,130.6l-7,56.2h-7.8l4.8-38.8c0.1-0.6,0.2-1.3,0.3-2c0.1-0.8,0.3-1.5,0.5-2.3l-20.8,33.6
			c-0.8,1.3-1.9,2-3.4,2h-1.2c-0.7,0-1.3-0.2-1.8-0.5c-0.5-0.3-0.9-0.8-1.1-1.5l-12.6-33.6c0,0.8-0.1,1.5-0.1,2.2s-0.1,1.4-0.1,2
			l-4.8,38.9h-7.8l7-56.2h6.6c0.4,0,0.7,0,1,0.1s0.5,0.1,0.7,0.2c0.2,0.1,0.4,0.2,0.6,0.4c0.2,0.2,0.4,0.4,0.6,0.7l12.7,33.6
			c0.4,1.2,0.7,2.5,1,3.7c0.3-0.6,0.6-1.3,0.9-1.9c0.3-0.6,0.7-1.2,1-1.8l20.9-33.6c0.6-0.6,1-1,1.4-1.2c0.4-0.2,1-0.3,1.8-0.3
			H706.6z"/>
		<path class="st11" d="M720.2,159.9h18.5l-0.9,6.8h-18.5L720.2,159.9z"/>
		<path class="st11" d="M807.8,147l-16.7,39.8h-6.5c-0.7,0-1.2-0.5-1.3-1.5l-4.3-24.8c-0.1-0.5-0.1-0.9-0.2-1.4
			c-0.1-0.5-0.1-0.9-0.2-1.4c-0.2,0.5-0.3,0.9-0.5,1.4c-0.2,0.5-0.3,0.9-0.6,1.4l-10.5,24.7c-0.4,1-1,1.5-1.9,1.5H759l-6.9-39.8h6.4
			c0.6,0,1.1,0.2,1.5,0.4s0.6,0.7,0.7,1.2l3,23.2c0.1,1,0.1,2,0.2,3c0.1,1,0.1,2,0.1,2.9c0.4-1,0.7-2,1.1-2.9c0.4-1,0.8-2,1.2-3
			l9.8-23.3c0.2-0.5,0.5-0.9,0.9-1.2c0.4-0.3,0.9-0.4,1.4-0.4h3.5c0.6,0,1.1,0.2,1.4,0.4c0.4,0.3,0.6,0.7,0.6,1.2l3.9,23.3
			c0.2,1,0.3,2.1,0.4,3c0.1,1,0.2,2,0.3,3c0.3-1,0.6-1.9,0.9-2.9c0.3-1,0.6-2,1-3.1l8.9-23.2c0.2-0.5,0.5-0.9,0.9-1.2
			c0.4-0.3,0.9-0.5,1.4-0.5H807.8z"/>
		<path class="st11" d="M838.7,177.5c-0.9,1.5-1.9,2.9-2.9,4.1c-1,1.2-2.1,2.2-3.3,3.1s-2.4,1.5-3.7,2c-1.3,0.5-2.6,0.7-4,0.7
			c-1.6,0-3-0.3-4.3-0.9c-1.3-0.6-2.4-1.5-3.4-2.7c-0.9-1.2-1.7-2.7-2.2-4.4c-0.5-1.8-0.8-3.8-0.8-6.1c0-2.4,0.3-4.7,0.9-6.9
			c0.6-2.2,1.5-4.4,2.6-6.4c1.1-2,2.4-3.8,4-5.5c1.5-1.7,3.3-3.1,5.2-4.3c1.9-1.2,4-2.1,6.2-2.8s4.6-1,7-1c1.8,0,3.5,0.1,5.2,0.4
			c1.7,0.3,3.4,0.7,5.1,1.4l-4.8,38.5H841c-1.1,0-1.8-0.3-2.2-0.8c-0.4-0.5-0.6-1.2-0.6-2L838.7,177.5z M841.3,152.6
			c-0.4-0.1-0.9-0.1-1.3-0.1c-0.4,0-0.9,0-1.3,0c-2.3,0-4.4,0.5-6.4,1.6c-2,1-3.7,2.4-5.2,4.2s-2.6,3.8-3.4,6.1
			c-0.8,2.3-1.3,4.8-1.3,7.4c0,3,0.5,5.2,1.4,6.6c1,1.4,2.3,2.1,4.1,2.1c1.2,0,2.3-0.4,3.5-1.2c1.1-0.8,2.2-1.8,3.2-3.2
			c1-1.3,2-2.9,2.8-4.7c0.9-1.8,1.6-3.8,2.2-5.9L841.3,152.6z"/>
		<path class="st11" d="M899.2,147l-19.9,39.8h-7.1L862,147h6.9c0.6,0,1.1,0.2,1.5,0.5s0.6,0.7,0.7,1.2l5,23.2
			c0.2,1.2,0.4,2.3,0.5,3.4c0.1,1.1,0.2,2.3,0.3,3.4c0.4-1.1,0.7-2.2,1.1-3.4c0.4-1.1,0.8-2.3,1.3-3.5l10.9-23.2
			c0.2-0.5,0.5-0.9,1-1.2c0.4-0.3,0.9-0.5,1.4-0.5H899.2z"/>
		<path class="st11" d="M937.5,179.4c-1.4,1.4-2.7,2.6-4,3.6c-1.3,1-2.7,1.8-4,2.5c-1.4,0.7-2.8,1.1-4.3,1.4
			c-1.5,0.3-3.1,0.5-4.9,0.5c-2.3,0-4.4-0.4-6.3-1.2s-3.5-1.9-4.8-3.3c-1.3-1.4-2.3-3.1-3.1-5.1s-1.1-4.3-1.1-6.8
			c0-2.1,0.2-4.1,0.7-6.1c0.4-2,1.1-3.9,2-5.8c0.9-1.8,1.9-3.5,3.1-5.1c1.2-1.5,2.6-2.9,4.2-4c1.6-1.1,3.3-2,5.2-2.6s3.9-1,6-1
			c2.1,0,3.9,0.3,5.4,0.9c1.5,0.6,2.8,1.3,3.8,2.3c1,0.9,1.8,1.9,2.3,3.1s0.7,2.2,0.7,3.3c0,1.7-0.4,3.3-1.1,4.8
			c-0.7,1.5-2,2.8-3.9,3.9c-1.9,1.2-4.4,2.2-7.7,3c-3.2,0.9-7.4,1.5-12.5,2.1c0,0.2,0,0.3,0,0.5s0,0.3,0,0.5c0,3.3,0.7,5.8,2.2,7.5
			c1.4,1.7,3.6,2.5,6.5,2.5c1.8,0,3.3-0.2,4.5-0.7c1.2-0.5,2.2-1,3.1-1.6c0.9-0.6,1.6-1.1,2.2-1.6c0.6-0.5,1.3-0.7,2-0.7
			c0.6,0,1.1,0.3,1.5,0.8L937.5,179.4z M925.8,152.4c-1.5,0-2.8,0.3-4.1,0.9c-1.2,0.6-2.4,1.4-3.3,2.5c-1,1.1-1.8,2.3-2.6,3.8
			c-0.7,1.5-1.3,3-1.7,4.8c3.6-0.5,6.5-1,8.7-1.6s3.9-1.2,5.1-1.9c1.2-0.7,2-1.4,2.4-2.2c0.4-0.8,0.6-1.6,0.6-2.4
			c0-0.4-0.1-0.9-0.3-1.3c-0.2-0.5-0.5-0.9-0.9-1.2c-0.4-0.4-0.9-0.7-1.6-0.9S926.7,152.4,925.8,152.4z"/>
		<path class="st11" d="M1006.2,179.4c-1.4,1.4-2.7,2.6-4,3.6c-1.3,1-2.7,1.8-4,2.5c-1.4,0.7-2.8,1.1-4.3,1.4
			c-1.5,0.3-3.1,0.5-4.9,0.5c-2.3,0-4.4-0.4-6.3-1.2s-3.5-1.9-4.8-3.3c-1.3-1.4-2.3-3.1-3.1-5.1s-1.1-4.3-1.1-6.8
			c0-2.1,0.2-4.1,0.7-6.1c0.4-2,1.1-3.9,2-5.8c0.9-1.8,1.9-3.5,3.1-5.1c1.2-1.5,2.6-2.9,4.2-4c1.6-1.1,3.3-2,5.2-2.6s3.9-1,6-1
			c2.1,0,3.9,0.3,5.4,0.9c1.5,0.6,2.8,1.3,3.8,2.3c1,0.9,1.8,1.9,2.3,3.1s0.7,2.2,0.7,3.3c0,1.7-0.4,3.3-1.1,4.8
			c-0.7,1.5-2,2.8-3.9,3.9c-1.9,1.2-4.4,2.2-7.7,3c-3.2,0.9-7.4,1.5-12.5,2.1c0,0.2,0,0.3,0,0.5s0,0.3,0,0.5c0,3.3,0.7,5.8,2.2,7.5
			c1.4,1.7,3.6,2.5,6.5,2.5c1.8,0,3.3-0.2,4.5-0.7c1.2-0.5,2.2-1,3.1-1.6c0.9-0.6,1.6-1.1,2.2-1.6c0.6-0.5,1.3-0.7,2-0.7
			c0.6,0,1.1,0.3,1.5,0.8L1006.2,179.4z M994.4,152.4c-1.5,0-2.8,0.3-4.1,0.9c-1.2,0.6-2.4,1.4-3.3,2.5c-1,1.1-1.8,2.3-2.6,3.8
			c-0.7,1.5-1.3,3-1.7,4.8c3.6-0.5,6.5-1,8.7-1.6s3.9-1.2,5.1-1.9c1.2-0.7,2-1.4,2.4-2.2c0.4-0.8,0.6-1.6,0.6-2.4
			c0-0.4-0.1-0.9-0.3-1.3c-0.2-0.5-0.5-0.9-0.9-1.2c-0.4-0.4-0.9-0.7-1.6-0.9S995.3,152.4,994.4,152.4z"/>
		<path class="st11" d="M1041.9,178.6c-1.8,2.7-3.8,4.9-6,6.5c-2.2,1.6-4.6,2.4-7.3,2.4c-1.6,0-3-0.3-4.3-0.9
			c-1.3-0.6-2.4-1.5-3.4-2.7c-0.9-1.2-1.7-2.7-2.2-4.4c-0.5-1.8-0.8-3.8-0.8-6.1c0-3.6,0.7-7,2-10.2c1.3-3.2,3.2-6.1,5.5-8.6
			c2.3-2.5,5.1-4.4,8.2-5.9c3.1-1.5,6.5-2.2,10.2-2.2c1.8,0,3.5,0.1,5.3,0.4c1.7,0.3,3.4,0.7,5.1,1.4l-6.5,51.8h-5.4
			c-0.6,0-1-0.1-1.4-0.3c-0.4-0.2-0.6-0.5-0.8-0.8s-0.3-0.7-0.4-1.1c-0.1-0.4-0.1-0.8,0-1.2L1041.9,178.6z M1045.2,152.6
			c-0.4-0.1-0.9-0.1-1.3-0.1c-0.4,0-0.9,0-1.3,0c-2.3,0-4.4,0.5-6.4,1.6c-2,1-3.7,2.4-5.1,4.2s-2.6,3.8-3.4,6.1
			c-0.8,2.3-1.3,4.8-1.3,7.4c0,3,0.5,5.2,1.4,6.6c1,1.4,2.3,2.1,4.1,2.1c1.2,0,2.3-0.4,3.4-1.1c1.1-0.8,2.2-1.8,3.2-3.1
			c1-1.3,2-2.9,2.8-4.7c0.9-1.8,1.6-3.8,2.2-5.9L1045.2,152.6z"/>
		<path class="st11" d="M1102.6,147l-4.8,39.8h-4.2c-2,0-3.1-1-3.1-3l0.4-5.7c-2,3.1-4.3,5.4-6.9,7c-2.5,1.5-5.1,2.3-7.8,2.3
			c-1.7,0-3.2-0.3-4.5-1c-1.3-0.7-2.4-1.6-3.2-2.9c-0.8-1.3-1.4-2.9-1.7-4.7c-0.3-1.9-0.3-4,0-6.4l3-25.3h8.4l-3,25.3
			c-0.4,2.8-0.2,4.9,0.5,6.2c0.7,1.3,2,2,3.8,2c1.1,0,2.2-0.3,3.4-0.9s2.3-1.5,3.4-2.6s2.1-2.5,3.1-4.1c0.9-1.6,1.7-3.4,2.4-5.3
			l2.5-20.6H1102.6z"/>
		<path class="st11" d="M1138.2,177.5c-0.9,1.5-1.9,2.9-2.9,4.1c-1,1.2-2.1,2.2-3.3,3.1s-2.4,1.5-3.7,2c-1.3,0.5-2.6,0.7-4,0.7
			c-1.6,0-3-0.3-4.3-0.9c-1.3-0.6-2.4-1.5-3.4-2.7c-0.9-1.2-1.7-2.7-2.2-4.4c-0.5-1.8-0.8-3.8-0.8-6.1c0-2.4,0.3-4.7,0.9-6.9
			c0.6-2.2,1.5-4.4,2.6-6.4c1.1-2,2.4-3.8,4-5.5c1.5-1.7,3.3-3.1,5.2-4.3c1.9-1.2,4-2.1,6.2-2.8s4.6-1,7-1c1.8,0,3.5,0.1,5.2,0.4
			c1.7,0.3,3.4,0.7,5.1,1.4l-4.8,38.5h-4.5c-1.1,0-1.8-0.3-2.2-0.8c-0.4-0.5-0.6-1.2-0.6-2L1138.2,177.5z M1140.9,152.6
			c-0.4-0.1-0.9-0.1-1.3-0.1c-0.4,0-0.9,0-1.3,0c-2.3,0-4.4,0.5-6.4,1.6c-2,1-3.7,2.4-5.2,4.2s-2.6,3.8-3.4,6.1
			c-0.8,2.3-1.3,4.8-1.3,7.4c0,3,0.5,5.2,1.4,6.6c1,1.4,2.3,2.1,4.1,2.1c1.2,0,2.3-0.4,3.5-1.2c1.1-0.8,2.2-1.8,3.2-3.2
			c1-1.3,2-2.9,2.8-4.7c0.9-1.8,1.6-3.8,2.2-5.9L1140.9,152.6z"/>
		<path class="st11" d="M1201.3,153.5l-4.1,33.3h-8.2l4.1-33.3h-17.7l-2.3,18.4c-0.1,1.1-0.2,1.9-0.3,2.6c-0.1,0.6-0.1,1.1-0.2,1.5
			c0,0.4-0.1,0.6-0.1,0.8c0,0.1,0,0.3,0,0.3c0,1.1,0.3,2,0.8,2.6c0.6,0.6,1.3,0.9,2.3,0.9c0.6,0,1.1-0.1,1.6-0.3
			c0.5-0.2,0.9-0.4,1.2-0.5s0.6-0.4,0.9-0.5c0.2-0.2,0.5-0.3,0.7-0.3c0.3,0,0.5,0.1,0.6,0.2s0.3,0.3,0.4,0.6l1.8,4.1
			c-1.4,1.1-2.9,2-4.6,2.6c-1.7,0.6-3.4,0.9-5.1,0.9c-2.7,0-4.9-0.7-6.4-2.2c-1.6-1.5-2.4-3.6-2.5-6.3c0-0.2,0-0.4,0-0.6
			c0-0.2,0-0.6,0.1-1.1c0-0.5,0.1-1.1,0.2-1.9c0.1-0.8,0.2-1.8,0.4-3l2.4-18.9h-4c-0.4,0-0.8-0.1-1.1-0.4c-0.3-0.3-0.4-0.7-0.3-1.3
			l0.4-3.2l6.1-0.9l3.1-11.6c0.2-0.4,0.4-0.8,0.7-1.1c0.3-0.3,0.7-0.4,1.2-0.4h4.5l-1.7,13.1h25.8L1201.3,153.5z M1205.4,135
			c0,0.8-0.2,1.5-0.5,2.1c-0.3,0.7-0.7,1.3-1.3,1.8s-1.1,0.9-1.8,1.2c-0.7,0.3-1.3,0.4-2,0.4s-1.4-0.1-2-0.4
			c-0.6-0.3-1.2-0.7-1.7-1.2c-0.5-0.5-0.9-1.1-1.2-1.8c-0.3-0.7-0.5-1.4-0.5-2.1c0-0.8,0.2-1.5,0.5-2.2c0.3-0.7,0.7-1.3,1.2-1.8
			c0.5-0.5,1.1-0.9,1.7-1.2s1.3-0.4,2-0.4c0.7,0,1.4,0.2,2.1,0.4s1.3,0.7,1.8,1.2c0.5,0.5,0.9,1.1,1.2,1.8
			C1205.3,133.5,1205.4,134.2,1205.4,135z"/>
		<path class="st11" d="M1229,187.4c-2.2,0-4.2-0.4-6.1-1.1c-1.9-0.7-3.5-1.8-4.8-3.2c-1.4-1.4-2.4-3.2-3.2-5.2s-1.1-4.4-1.1-7
			c0-3.4,0.5-6.6,1.6-9.6c1.1-3,2.6-5.5,4.5-7.7c1.9-2.2,4.1-3.9,6.6-5.2s5.2-1.9,8.1-1.9c2.2,0,4.2,0.4,6.1,1.1s3.5,1.8,4.8,3.2
			c1.3,1.4,2.4,3.2,3.2,5.2c0.8,2.1,1.1,4.4,1.1,7c0,2.2-0.3,4.4-0.7,6.5s-1.2,4-2.1,5.8s-2,3.5-3.3,4.9s-2.7,2.8-4.2,3.8
			c-1.5,1.1-3.2,1.9-5,2.5C1232.8,187.1,1230.9,187.4,1229,187.4z M1229.8,180.8c1.8,0,3.4-0.5,4.8-1.5c1.4-1,2.7-2.3,3.7-3.9
			c1-1.6,1.8-3.5,2.3-5.7c0.6-2.1,0.8-4.4,0.8-6.7c0-3.4-0.6-6-1.9-7.6c-1.3-1.7-3.2-2.5-5.7-2.5c-1.8,0-3.4,0.5-4.8,1.4
			s-2.6,2.3-3.6,3.9c-1,1.6-1.8,3.5-2.3,5.7c-0.6,2.2-0.8,4.4-0.8,6.8C1222.2,177.5,1224.8,180.8,1229.8,180.8z"/>
		<path class="st11" d="M1272.7,156c2.1-3.2,4.4-5.6,7-7.2c2.6-1.6,5.2-2.4,8-2.4c1.7,0,3.2,0.3,4.5,1s2.4,1.6,3.2,2.9
			s1.4,2.9,1.7,4.7c0.3,1.9,0.3,4,0,6.4l-3,25.3h-8.4l3-25.3c0.4-2.8,0.2-4.9-0.5-6.2c-0.7-1.3-2-1.9-3.8-1.9c-1.2,0-2.3,0.3-3.6,1
			c-1.2,0.7-2.4,1.6-3.5,2.8c-1.1,1.2-2.2,2.6-3.1,4.3c-1,1.7-1.8,3.5-2.4,5.6l-2.2,19.8h-8.4l4.8-39.9h4.3c0.9,0,1.6,0.2,2.1,0.7
			c0.5,0.5,0.7,1.2,0.7,2.1L1272.7,156z"/>
	</g>
</g>
<g>
	<g>
		<g>
			<path d="M946.1,567h24.4v1.8L950,601h7.8c2.2,0,4.1-0.4,5.5-1.1c1.4-0.7,2.6-1.8,3.5-3.3c0.9-1.4,1.7-3.9,2.4-7.3h1.7l-0.7,13.4
				h-25.9v-1.6l20.7-32.4h-7.4c-2,0-3.6,0.2-4.7,0.7c-1.5,0.6-2.8,1.8-3.7,3.4c-1,1.6-1.6,3.8-2,6.5h-1.7L946.1,567z"/>
		</g>
	</g>
	<polyline class="st50" points="949.5,557.7 957.6,548.3 965.6,557.7 	"/>
	<g>
		<g>
			<g>
				<path d="M1204.2,659c0,3.1-0.3,6-0.9,8.7s-1.5,5-2.7,6.9c-1.2,1.9-2.7,3.5-4.4,4.6s-3.7,1.6-6,1.6c-2.1,0-4.1-0.4-5.8-1.3
					s-3.1-2.2-4.3-3.9c-1.2-1.8-2.1-4-2.7-6.6s-0.9-5.7-0.9-9.3c0-3.1,0.3-6,0.9-8.7s1.5-5,2.7-6.9c1.2-1.9,2.7-3.5,4.4-4.6
					c1.7-1.1,3.7-1.7,6-1.7c2.1,0,4.1,0.4,5.8,1.3c1.7,0.9,3.1,2.2,4.3,4c1.2,1.8,2.1,4,2.7,6.6
					C1203.8,652.4,1204.2,655.5,1204.2,659z M1181.7,660.8c0.1,2.7,0.3,5.1,0.7,7.1c0.4,2,1,3.6,1.7,4.9c0.7,1.3,1.6,2.2,2.7,2.8
					c1,0.6,2.2,0.9,3.5,0.9c1.5,0,2.7-0.4,3.8-1.3c1.1-0.9,1.9-2,2.6-3.4c0.7-1.4,1.2-3.1,1.6-5c0.4-1.9,0.6-3.9,0.7-6H1181.7z
					 M1198.9,656.4c-0.1-2.5-0.4-4.7-0.8-6.5s-1-3.3-1.8-4.4c-0.7-1.2-1.6-2-2.6-2.6c-1-0.5-2.1-0.8-3.4-0.8c-1.4,0-2.5,0.4-3.5,1.1
					c-1,0.8-1.9,1.8-2.5,3.1c-0.7,1.3-1.2,2.8-1.6,4.5s-0.6,3.6-0.8,5.5H1198.9z"/>
			</g>
		</g>
		<polyline class="st50" points="1178.6,634.2 1190.3,620.6 1202,634.2 		"/>
	</g>
	<g>
		<g>
			<path d="M796.4,1159c0,3.1-0.3,6-0.9,8.7s-1.5,5-2.7,6.9c-1.2,1.9-2.7,3.5-4.4,4.6s-3.7,1.6-6,1.6c-2.1,0-4.1-0.4-5.8-1.3
				s-3.1-2.2-4.3-3.9c-1.2-1.8-2.1-4-2.7-6.6s-0.9-5.7-0.9-9.3c0-3.1,0.3-6,0.9-8.7s1.5-5,2.7-6.9c1.2-1.9,2.7-3.5,4.4-4.6
				c1.7-1.1,3.7-1.7,6-1.7c2.1,0,4.1,0.4,5.8,1.3c1.7,0.9,3.1,2.2,4.3,4c1.2,1.8,2.1,4,2.7,6.6
				C796.1,1152.3,796.4,1155.4,796.4,1159z M773.9,1160.7c0.1,2.7,0.3,5.1,0.7,7.1c0.4,2,1,3.6,1.7,4.9c0.7,1.3,1.6,2.2,2.7,2.8
				c1,0.6,2.2,0.9,3.5,0.9c1.5,0,2.7-0.4,3.8-1.3c1.1-0.9,1.9-2,2.6-3.4c0.7-1.4,1.2-3.1,1.6-5c0.4-1.9,0.6-3.9,0.7-6H773.9z
				 M791.1,1156.4c-0.1-2.5-0.4-4.7-0.8-6.5s-1-3.3-1.8-4.4c-0.7-1.2-1.6-2-2.6-2.6c-1-0.5-2.1-0.8-3.4-0.8c-1.4,0-2.5,0.4-3.5,1.1
				c-1,0.8-1.9,1.8-2.5,3.1c-0.7,1.3-1.2,2.8-1.6,4.5s-0.6,3.6-0.8,5.5H791.1z"/>
		</g>
	</g>
	<g>
		<g>
			<g>
				<path d="M1147.4,835.9c0-1.1,0-2.1-0.2-2.9c-0.1-0.8-0.4-1.4-0.7-2c-0.3-0.5-0.7-0.9-1.2-1.1c-0.5-0.2-1-0.4-1.6-0.4
					c-1.1,0-2.2,0.4-3.3,1.3c-1.1,0.9-2.4,2.3-3.8,4.4v19.2h-7.4v-30.3h6.6l0.3,4.4c0.5-0.8,1.1-1.5,1.7-2.1
					c0.6-0.6,1.3-1.1,2.1-1.6c0.8-0.4,1.6-0.8,2.5-1s2-0.4,3.1-0.4c1.5,0,2.9,0.3,4.1,0.8c1.2,0.5,2.2,1.3,3,2.3s1.4,2.3,1.8,3.9
					s0.6,3.4,0.5,5.4H1147.4z"/>
			</g>
		</g>
		<polyline class="st50" points="1128.7,818.1 1140.6,804.3 1152.4,818.1 		"/>
	</g>
	<path d="M781.8,776.6c-87.6,0-170-16.5-232-46.4c-62.6-30.2-97.1-70.6-97.1-113.8c0-43.1,34.5-83.5,97.1-113.8
		c62-29.9,144.4-46.4,232-46.4c87.6,0,170,16.5,232,46.4c62.6,30.2,97.1,70.6,97.1,113.8c0,43.1-34.5,83.5-97.1,113.8
		C951.8,760.2,869.4,776.6,781.8,776.6z M781.8,461.6c-178.6,0-323.9,69.5-323.9,154.9s145.3,154.9,323.9,154.9
		c178.6,0,323.9-69.5,323.9-154.9S960.3,461.6,781.8,461.6z"/>
	<path d="M781.8,1271.1c-6.7,0-13.4-0.1-20-0.3l0.2-5.3c10.4,0.3,21.1,0.4,31.6,0.2l0.1,5.3C789.6,1271.1,785.7,1271.1,781.8,1271.1
		z M825.3,1269.7l-0.3-5.3c10.5-0.7,21.1-1.6,31.4-2.8l0.6,5.2C846.6,1268.1,836,1269,825.3,1269.7z M729.9,1269.1
		c-10.6-0.8-21.3-1.9-31.7-3.2l0.7-5.2c10.3,1.3,20.9,2.4,31.4,3.2L729.9,1269.1z M888.5,1262.5l-0.9-5.2c10.5-1.7,20.9-3.8,31-6
		l1.2,5.2C909.6,1258.7,899.1,1260.8,888.5,1262.5z M666.8,1261.1c-10.6-1.9-21.1-4.1-31.2-6.5l1.2-5.1c10,2.4,20.4,4.6,30.9,6.5
		L666.8,1261.1z M950.7,1248.5l-1.5-5.1c10.3-3,20.4-6.3,29.9-9.8l1.8,5C971.3,1242.2,961.1,1245.5,950.7,1248.5z M604.9,1246.2
		c-10.4-3.2-20.5-6.8-30.1-10.5l1.9-4.9c9.5,3.7,19.5,7.2,29.7,10.4L604.9,1246.2z M1010.4,1226.3l-2.2-4.8
		c9.8-4.6,19.2-9.6,27.7-14.8l2.7,4.5C1029.9,1216.6,1020.4,1221.6,1010.4,1226.3z M545.6,1222.7c-9.9-5-19.3-10.3-27.8-15.8
		l2.9-4.4c8.3,5.4,17.5,10.7,27.3,15.5L545.6,1222.7z M1064.8,1192.9l-3.3-4.1c8.5-7,16-14.3,22.1-21.8l4.1,3.3
		C1081.3,1178.1,1073.7,1185.7,1064.8,1192.9z M492.3,1187.5c-8.5-7.6-15.8-15.6-21.6-23.8l4.3-3.1c5.6,7.9,12.6,15.6,20.8,23
		L492.3,1187.5z M1104.5,1142.7l-4.9-2c4-9.7,6-19.8,6-29.8h5.3C1110.9,1121.6,1108.7,1132.3,1104.5,1142.7z M456.2,1134.8
		c-2.4-7.8-3.6-15.8-3.6-23.8c0-2.8,0.2-5.7,0.5-8.5l5.3,0.6c-0.3,2.6-0.4,5.3-0.4,7.9c0,7.5,1.1,15,3.4,22.3L456.2,1134.8z
		 M1104.2,1096.4c-1.9-9.6-5.7-19.1-11.3-28.4l4.5-2.7c5.9,9.8,9.9,19.9,11.9,30.1L1104.2,1096.4z M467.3,1073.9l-4.7-2.4
		c4.6-9,10.9-17.8,18.7-26.3l3.9,3.6C477.7,1056.9,471.7,1065.4,467.3,1073.9z M1073.6,1043.9c-6.9-6.9-15-13.6-24-19.9l3-4.3
		c9.2,6.5,17.6,13.4,24.7,20.5L1073.6,1043.9z M508.4,1028l-3.2-4.2c8.1-6.1,17.1-11.9,26.8-17.4l2.6,4.6
		C525.2,1016.4,516.3,1022.1,508.4,1028z M1022.8,1007.7c-8.9-4.7-18.4-9.2-28.4-13.4l2-4.9c10.2,4.2,19.9,8.8,28.9,13.6
		L1022.8,1007.7z M562.8,997l-2.1-4.8c9.4-4.1,19.4-8,29.7-11.6l1.7,5C581.9,989,572.1,992.9,562.8,997z M964.8,983.3
		c-9.7-3.2-19.9-6.2-30.2-8.8l1.3-5.1c10.5,2.7,20.8,5.7,30.6,8.9L964.8,983.3z M622.2,976.2l-1.4-5.1c10-2.7,20.4-5.2,31-7.4
		l1.1,5.2C642.5,971,632.1,973.5,622.2,976.2z M903.8,967.5c-10.2-2-20.6-3.7-31.1-5.2l0.7-5.2c10.6,1.5,21.2,3.3,31.4,5.3
		L903.8,967.5z M683.9,963.3l-0.8-5.2c10.3-1.6,21-2.9,31.6-4l0.5,5.3C704.7,960.4,694.2,961.7,683.9,963.3z M841.4,958.7
		c-10.4-0.9-21-1.6-31.5-2.1l0.2-5.3c10.6,0.4,21.3,1.1,31.8,2.1L841.4,958.7z M746.7,957l-0.3-5.3c10.5-0.5,21.2-0.8,31.8-0.9
		l0,5.3C767.8,956.1,757.1,956.4,746.7,957z"/>
	<rect x="452.6" y="616.5" width="5.3" height="490.4"/>
	<rect x="1105.6" y="616.5" width="5.3" height="490.4"/>
	<path class="st51" d="M781.8,957.2c-175.1,0-318,66.8-322.6,149.6h32.1h-32.1c-0.1,1.4-0.1,2.7-0.1,4.1
		c0,84.8,144.8,153.7,322.7,153.7s322.7-69,322.7-153.7c0-1.4,0-2.7-0.1-4.1h-28.2h28.2C1099.8,1024,956.8,957.2,781.8,957.2z"/>
	<path d="M1104.3,1106.9c0.1,1.4,0.1,2.7,0.1,4.1c0,84.8-144.8,153.7-322.7,153.7s-322.7-69-322.7-153.7c0-1.4,0-2.7,0.1-4.1h-7.6
		c-0.1,1.4-0.1,2.7-0.1,4.1c0,43.6,34.7,84.4,97.8,114.8c62.2,30,144.8,46.5,232.5,46.5s170.4-16.5,232.5-46.5
		c63.1-30.4,97.8-71.2,97.8-114.8c0-1.4,0-2.7-0.1-4.1H1104.3z"/>
	<polygon points="1276.9,1113.6 779.1,1113.6 779.1,410.6 784.4,410.6 784.4,1108.3 1276.9,1108.3 	"/>
	<polygon points="480.5,1354.1 477.2,1350 781.7,1107.6 952.9,1235.1 952.9,749.8 958.2,749.8 958.2,1241.9 955.3,1243.4 
		953.9,1242.5 781.8,1114.3 	"/>
	<rect x="1074.4" y="735.2" class="st11" width="186.1" height="51.1"/>
	<g>
		<g>
			<path d="M1094.7,786.1c-9.2-8.5-13.7-17.9-13.7-28.1c0-2.4,0.2-4.8,0.7-7.2c0.5-2.4,1.3-4.8,2.4-7.2c1.1-2.4,2.5-4.8,4.3-7.2
				c1.8-2.4,3.9-4.8,6.5-7.2l3,3.1c-7.7,7.6-11.6,16-11.6,25.3c0,4.6,1,9,2.9,13.3c1.9,4.3,4.8,8.3,8.6,12L1094.7,786.1z"/>
			<path d="M1111.5,743.7h4.7l0.1,5.5c1.8-2.1,3.5-3.7,5.2-4.6c1.7-1,3.5-1.4,5.2-1.4c3.1,0,5.4,1,7,3c1.6,2,2.3,5,2.2,8.9h-5.2
				c0.1-2.6-0.3-4.5-1.1-5.7c-0.8-1.2-2-1.8-3.6-1.8c-0.7,0-1.4,0.1-2.1,0.4c-0.7,0.2-1.4,0.6-2.2,1.2c-0.7,0.5-1.5,1.2-2.4,2.1
				c-0.8,0.9-1.7,1.9-2.7,3.1v19.2h-5.2V743.7z"/>
			<path d="M1146.2,779.7c1,0,2,0,3-0.3c1-0.2,1.8-0.5,2.5-1c0.7-0.4,1.3-1,1.7-1.6c0.4-0.6,0.7-1.4,0.7-2.2c0-0.8-0.1-1.5-0.4-2
				s-0.6-1-1-1.4c-0.4-0.4-0.7-0.9-1-1.4c-0.3-0.5-0.4-1.2-0.4-2c0-0.4,0.1-0.9,0.2-1.3s0.4-0.9,0.7-1.3c0.3-0.4,0.7-0.7,1.3-0.9
				c0.5-0.2,1.1-0.4,1.8-0.4c0.7,0,1.4,0.1,2,0.4s1.2,0.7,1.7,1.3c0.5,0.6,0.9,1.3,1.2,2.2c0.3,0.9,0.4,1.9,0.4,3.2
				c0,1.6-0.3,3.2-0.9,4.8c-0.6,1.5-1.5,2.9-2.7,4c-1.2,1.2-2.7,2.1-4.5,2.8s-3.9,1-6.3,1V779.7z"/>
			<path d="M1203.3,752.4c0,3.1-0.3,6-0.9,8.7s-1.5,5-2.7,6.9c-1.2,1.9-2.7,3.5-4.4,4.6s-3.7,1.6-6,1.6c-2.1,0-4.1-0.4-5.8-1.3
				s-3.1-2.2-4.3-3.9c-1.2-1.8-2.1-4-2.7-6.6s-0.9-5.7-0.9-9.3c0-3.1,0.3-6,0.9-8.7s1.5-5,2.7-6.9c1.2-1.9,2.7-3.5,4.4-4.6
				c1.7-1.1,3.7-1.7,6-1.7c2.1,0,4.1,0.4,5.8,1.3c1.7,0.9,3.1,2.2,4.3,4c1.2,1.8,2.1,4,2.7,6.6
				C1203,745.7,1203.3,748.8,1203.3,752.4z M1180.8,754.1c0.1,2.7,0.3,5.1,0.7,7.1c0.4,2,1,3.6,1.7,4.9c0.7,1.3,1.6,2.2,2.7,2.8
				c1,0.6,2.2,0.9,3.5,0.9c1.5,0,2.7-0.4,3.8-1.3c1.1-0.9,1.9-2,2.6-3.4c0.7-1.4,1.2-3.1,1.6-5c0.4-1.9,0.6-3.9,0.7-6H1180.8z
				 M1198,749.8c-0.1-2.5-0.4-4.7-0.8-6.5s-1-3.3-1.8-4.4c-0.7-1.2-1.6-2-2.6-2.6c-1-0.5-2.1-0.8-3.4-0.8c-1.4,0-2.5,0.4-3.5,1.1
				c-1,0.8-1.9,1.8-2.5,3.1c-0.7,1.3-1.2,2.8-1.6,4.5s-0.6,3.6-0.8,5.5H1198z"/>
			<path d="M1213.3,779.7c1,0,2,0,3-0.3c1-0.2,1.8-0.5,2.5-1c0.7-0.4,1.3-1,1.7-1.6c0.4-0.6,0.7-1.4,0.7-2.2c0-0.8-0.1-1.5-0.4-2
				s-0.6-1-1-1.4c-0.4-0.4-0.7-0.9-1-1.4c-0.3-0.5-0.4-1.2-0.4-2c0-0.4,0.1-0.9,0.2-1.3s0.4-0.9,0.7-1.3c0.3-0.4,0.7-0.7,1.3-0.9
				c0.5-0.2,1.1-0.4,1.8-0.4c0.7,0,1.4,0.1,2,0.4s1.2,0.7,1.7,1.3c0.5,0.6,0.9,1.3,1.2,2.2c0.3,0.9,0.4,1.9,0.4,3.2
				c0,1.6-0.3,3.2-0.9,4.8c-0.6,1.5-1.5,2.9-2.7,4c-1.2,1.2-2.7,2.1-4.5,2.8s-3.9,1-6.3,1V779.7z"/>
			<path d="M1268.8,773.6h-24.1v-3.7l16.9-21.8h-16.5v-4.4h22.7v4.1l-16.6,21.5h17.6V773.6z"/>
			<path d="M1284.2,729.2c9.2,8.5,13.7,17.9,13.7,28.3c0,2.1-0.2,4.4-0.7,6.7c-0.4,2.3-1.2,4.7-2.2,7.1s-2.5,4.9-4.2,7.3
				c-1.8,2.5-4,5-6.7,7.5l-3-3.1c3.9-3.8,6.8-7.8,8.7-12s2.9-8.5,2.9-13.1c0-9.5-3.8-18-11.5-25.5L1284.2,729.2z"/>
		</g>
	</g>
	<g>
		<rect x="1016.7" y="708.7" transform="matrix(0.4315 -0.9021 0.9021 0.4315 -124.2671 1364.9893)" width="8.5" height="144.9"/>
		<g>
			<polygon points="1072.3,819.5 1082.5,810.5 1083.1,797 1104.4,821.1 			"/>
		</g>
	</g>
	<g>
		<rect x="949.5" y="711" transform="matrix(0.9407 -0.3394 0.3394 0.9407 -180.3309 399.2389)" width="203.8" height="8.5"/>
		<g>
			<polygon points="1142.6,695.7 1143.3,682.1 1134.1,672.1 1166.2,673.8 			"/>
		</g>
	</g>
	<g>
		<rect x="951.3" y="645.9" width="8.5" height="103.9"/>
		<g>
			<polygon points="968.1,655.4 955.6,650.1 943,655.4 955.6,625.8 			"/>
		</g>
	</g>
	<path d="M956.8,1243l-13.1-1l0.4-5.3l10.2,0.8l4.8-6.4l4.2,3.2L956.8,1243z M922.6,1240.4l-21.1-1.6l0.4-5.3l21.1,1.6L922.6,1240.4
		z M880.5,1237.1l-21.1-1.6l0.4-5.3l21.1,1.6L880.5,1237.1z M838.4,1233.9l-21.1-1.6l0.4-5.3l21.1,1.6L838.4,1233.9z M796.3,1230.6
		l-21.1-1.6l0.4-5.3l21.1,1.6L796.3,1230.6z M754.1,1227.4l-21.1-1.6l0.4-5.3l21.1,1.6L754.1,1227.4z M712,1224.1l-21.1-1.6l0.4-5.3
		l21.1,1.6L712,1224.1z M669.9,1220.9l-21.1-1.6l0.4-5.3l21.1,1.6L669.9,1220.9z M975.9,1217.4l-4.2-3.2l12.6-16.9l4.2,3.2
		L975.9,1217.4z M1001.1,1183.5l-4.2-3.2l12.6-16.9l4.2,3.2L1001.1,1183.5z M1026.4,1149.6l-4.2-3.2l12.6-16.9l4.2,3.2
		L1026.4,1149.6z M1051.6,1115.7l-4.2-3.2l2.3-3.1l4.2,3.2L1051.6,1115.7z"/>
	<g>
		<g>
			<path d="M777.9,357.6h23.5v2.5l-24.3,38.8h6.8c1.7,0,3.2-0.4,4.6-1.2c1.3-0.8,2.6-2,3.7-3.7c1.1-1.7,2.3-4.3,3.6-8l1.8,1
				l-3.4,14.7h-26.3v-1.3l25.1-39.9h-5.1c-2.5,0-4.6,0.9-6.4,2.7c-1.8,1.8-3.6,5.2-5.5,10.3l-1.9-1L777.9,357.6z"/>
		</g>
	</g>
	<g>
		<g>
			<path d="M455.6,1358.5c1.9-4.2,3.4-6.8,4.6-8.1c1.1-1.2,2.3-1.8,3.5-1.8c1,0,1.8,0.4,2.5,1.2c0.6,0.8,1,1.8,1,3
				c0,1.3-0.3,2.3-0.8,3c-0.6,0.8-1.3,1.1-2.1,1.1c-1.2,0-2-0.8-2.6-2.5c-0.2-0.6-0.4-1-0.6-1c-0.3,0-0.5,0.2-0.8,0.6
				c-0.3,0.4-1.5,2.9-3.7,7.4l2.5,9.9c0.2,0.9,0.5,1.6,0.8,2.1c0.3,0.5,0.6,0.7,0.9,0.7c1.1,0,2.5-1.8,4-5.4l1.5,1.2
				c-1.3,3.1-2.6,5.3-4.1,6.8c-1.5,1.5-2.9,2.2-4.3,2.2c-1.3,0-2.3-0.6-3-1.8c-0.4-0.7-1.2-3.1-2.3-7.2c-1.7,3.6-3,5.9-4.1,7.2
				c-1.1,1.2-2.3,1.8-3.6,1.8c-1.2,0-2.1-0.4-2.8-1.3c-0.7-0.9-1.1-2-1.1-3.3c0-1.2,0.3-2.2,0.8-3c0.6-0.8,1.3-1.2,2.1-1.2
				c0.6,0,1.2,0.2,1.6,0.6s0.8,1.1,1.1,2.2c0.3,0.8,0.5,1.3,0.7,1.3c0.4,0,1-0.6,1.7-1.9c0.7-1.3,1.7-3.2,2.7-5.7l-2.6-10.2
				c-0.5-1.8-1-2.8-1.5-2.8c-0.9,0-1.8,1.7-2.9,5l-1.5-1.3c0.9-3.1,1.9-5.3,3.1-6.8s2.4-2.1,3.7-2.1c0.9,0,1.7,0.3,2.3,0.9
				c0.6,0.6,1.2,1.6,1.6,2.9C454.2,1352.9,454.7,1354.9,455.6,1358.5z"/>
		</g>
	</g>
	<g>
		<g>
			<path d="M689,1127.3c1.9-4.2,3.4-6.8,4.6-8.1c1.1-1.2,2.3-1.8,3.5-1.8c1,0,1.8,0.4,2.5,1.2c0.6,0.8,1,1.8,1,3
				c0,1.3-0.3,2.3-0.8,3c-0.6,0.8-1.3,1.1-2.1,1.1c-1.2,0-2-0.8-2.6-2.5c-0.2-0.6-0.4-1-0.6-1c-0.3,0-0.5,0.2-0.8,0.6
				c-0.3,0.4-1.5,2.9-3.7,7.4l2.5,9.9c0.2,0.9,0.5,1.6,0.8,2.1c0.3,0.5,0.6,0.7,0.9,0.7c1.1,0,2.5-1.8,4-5.4l1.5,1.2
				c-1.3,3.1-2.6,5.3-4.1,6.8c-1.5,1.5-2.9,2.2-4.3,2.2c-1.3,0-2.3-0.6-3-1.8c-0.4-0.7-1.2-3.1-2.3-7.2c-1.7,3.6-3,5.9-4.1,7.2
				c-1.1,1.2-2.3,1.8-3.6,1.8c-1.2,0-2.1-0.4-2.8-1.3c-0.7-0.9-1.1-2-1.1-3.3c0-1.2,0.3-2.2,0.8-3c0.6-0.8,1.3-1.2,2.1-1.2
				c0.6,0,1.2,0.2,1.6,0.6s0.8,1.1,1.1,2.2c0.3,0.8,0.5,1.3,0.7,1.3c0.4,0,1-0.6,1.7-1.9c0.7-1.3,1.7-3.2,2.7-5.7l-2.6-10.2
				c-0.5-1.8-1-2.8-1.5-2.8c-0.9,0-1.8,1.7-2.9,5l-1.5-1.3c0.9-3.1,1.9-5.3,3.1-6.8s2.4-2.1,3.7-2.1c0.9,0,1.7,0.3,2.3,0.9
				c0.6,0.6,1.2,1.6,1.6,2.9C687.6,1121.8,688.1,1123.8,689,1127.3z"/>
		</g>
	</g>
	<g>
		<g>
			<path d="M893.1,1145.1l7.7,4.2l-8.7,9.6c3.8-3.2,6.6-5.2,8.6-6c2.7-1,4.9-1,6.7,0.2c1,0.7,1.6,1.6,1.8,2.8c0.1,1.2-0.2,2.4-1,3.6
				c-0.8,1.2-1.7,2-2.7,2.5c-1,0.5-1.9,0.5-2.6,0c-0.6-0.4-1-1-1-1.8c-0.1-0.8,0.1-1.6,0.6-2.4c0.3-0.4,0.6-0.9,1.1-1.4
				c0.2-0.2,0.3-0.3,0.3-0.4c0.1-0.2,0.2-0.4,0.1-0.6c0-0.2-0.1-0.4-0.3-0.5c-0.5-0.3-1.3-0.4-2.4-0.1c-1.1,0.3-2.9,1.3-5.2,3
				c-3.2,2.4-6.2,5-8.9,7.8l-5.2,5.4l-5.2-2.9l11.1-11.6c2.1-2.1,3.6-3.9,4.5-5.4c0.6-1,0.9-1.8,0.8-2.4c-0.1-0.6-0.7-1.2-1.9-1.9
				L893.1,1145.1z"/>
		</g>
	</g>
	<g>
		<g>
			<path d="M990.8,906.3h23.5v2.5l-24.3,38.8h6.8c1.7,0,3.2-0.4,4.6-1.2c1.3-0.8,2.6-2,3.7-3.7c1.1-1.7,2.3-4.3,3.6-8l1.8,1
				l-3.4,14.7h-26.3V949l25.1-39.9h-5.1c-2.5,0-4.6,0.9-6.4,2.7c-1.8,1.8-3.6,5.2-5.5,10.3l-1.9-1L990.8,906.3z"/>
		</g>
	</g>
	<g>
		<g>
			<path d="M928.1,1079.2c1.3-2.4,2.2-4.8,2.9-7.1c0.7-2.3,1-3.9,1-4.8c0-0.5-0.1-1.1-0.4-2c-0.5-1.6-0.7-2.7-0.7-3.5
				c0-1.1,0.2-2,0.7-2.6c0.5-0.7,1.1-1,1.9-1c0.8,0,1.4,0.3,1.8,1c0.5,0.7,0.7,1.5,0.7,2.6c0,2-0.8,5.3-2.4,9.7
				c-2.2,6-4.7,11.4-7.4,16.2c-2.7,4.7-5.2,8-7.3,9.8c-1.6,1.3-3.1,2-4.6,2c-1.3,0-2.4-0.5-3.2-1.4s-1.2-2-1.2-3.4
				c0-1.2,0.3-2.1,0.9-2.9c0.6-0.8,1.3-1.1,2.2-1.1c0.7,0,1.4,0.3,1.8,1s0.7,1.7,0.7,3c0,0.6,0.1,1,0.2,1.2c0.1,0.2,0.3,0.3,0.5,0.3
				c0.4,0,0.9-0.2,1.6-0.7c0.7-0.5,1.6-1.4,2.6-2.7c1.3-1.7,2.5-3.5,3.4-5.3l-1.1-6.9c-1.1-6.4-1.8-10.3-2.1-11.8
				c-0.6-2.5-1.2-4.2-1.7-4.9c-0.3-0.4-0.6-0.5-0.8-0.5c-0.4,0-0.7,0.3-1.1,0.8c-0.4,0.5-0.8,1.9-1.5,4l-1.7-1c1.8-6,4-8.9,6.6-8.9
				c1.4,0,2.6,1,3.5,2.9C924.9,1063.5,926.4,1069.5,928.1,1079.2z"/>
		</g>
	</g>
	<g>
		<g>
			<path d="M1304.3,1111.5c1.3-2.4,2.2-4.8,2.9-7.1c0.7-2.3,1-3.9,1-4.8c0-0.5-0.1-1.1-0.4-2c-0.5-1.6-0.7-2.7-0.7-3.5
				c0-1.1,0.2-2,0.7-2.6c0.5-0.7,1.1-1,1.9-1c0.8,0,1.4,0.3,1.8,1c0.5,0.7,0.7,1.5,0.7,2.6c0,2-0.8,5.3-2.4,9.7
				c-2.2,6-4.7,11.4-7.4,16.2c-2.7,4.7-5.2,8-7.3,9.8c-1.6,1.3-3.1,2-4.6,2c-1.3,0-2.4-0.5-3.2-1.4s-1.2-2-1.2-3.4
				c0-1.2,0.3-2.1,0.9-2.9c0.6-0.8,1.3-1.1,2.2-1.1c0.7,0,1.4,0.3,1.8,1s0.7,1.7,0.7,3c0,0.6,0.1,1,0.2,1.2c0.1,0.2,0.3,0.3,0.5,0.3
				c0.4,0,0.9-0.2,1.6-0.7c0.7-0.5,1.6-1.4,2.6-2.7c1.3-1.7,2.5-3.5,3.4-5.3l-1.1-6.9c-1.1-6.4-1.8-10.3-2.1-11.8
				c-0.6-2.5-1.2-4.2-1.7-4.9c-0.3-0.4-0.6-0.5-0.8-0.5c-0.4,0-0.7,0.3-1.1,0.8c-0.4,0.5-0.8,1.9-1.5,4l-1.7-1c1.8-6,4-8.9,6.6-8.9
				c1.4,0,2.6,1,3.5,2.9C1301.1,1095.8,1302.6,1101.8,1304.3,1111.5z"/>
		</g>
	</g>
</g>
</svg>
