<?xml version="1.0" encoding="utf-8"?>
<!-- Generator: Adobe Illustrator 21.0.0, SVG Export Plug-In . SVG Version: 6.00 Build 0)  -->
<svg version="1.1" id="Layer_1" xmlns="http://www.w3.org/2000/svg" xmlns:xlink="http://www.w3.org/1999/xlink" x="0px" y="0px"
	 viewBox="0 0 1644 1506" style="enable-background:new 0 0 1644 1506;" xml:space="preserve">
<style type="text/css">
	.st0{display:none;}
	.st1{display:inline;}
	.st2{fill:none;stroke:#000000;stroke-width:7;stroke-miterlimit:10;}
	.st3{fill:none;stroke:#000000;stroke-width:7;stroke-miterlimit:10;stroke-dasharray:11.9387,11.9387;}
	.st4{fill:#D6D7D8;}
	.st5{fill:#336699;}
	.st6{fill:#666666;}
	.st7{fill:#999999;}
	.st8{fill:none;stroke:#336699;stroke-width:7;stroke-miterlimit:10;}
	.st9{fill:none;stroke:#000000;stroke-width:7;stroke-miterlimit:10;stroke-dasharray:12;}
	.st10{fill:none;stroke:#D6D7D8;stroke-miterlimit:10;}
	.st11{fill:#FFFFFF;}
	.st12{fill:#FE8081;stroke:#000000;stroke-width:2;stroke-miterlimit:10;}
	.st13{fill:none;stroke:#000000;stroke-width:3;stroke-miterlimit:10;}
	.st14{fill:#FF0080;stroke:#000000;stroke-miterlimit:10;}
	.st15{opacity:0.22;}
	.st16{fill:none;stroke:#000000;stroke-width:5;stroke-miterlimit:10;}
	.st17{fill:#8C8C8C;stroke:#000000;stroke-width:1.5;stroke-miterlimit:10;}
	.st18{fill:none;stroke:#51B6F1;stroke-width:5;stroke-miterlimit:10;}
	.st19{fill:#51B6F1;}
	.st20{fill:none;stroke:#C9322A;stroke-width:5;stroke-miterlimit:10;}
	.st21{fill:#C9322A;}
	.st22{fill:none;stroke:#030303;stroke-width:3;stroke-miterlimit:10;}
	.st23{fill:none;stroke:#56B971;stroke-width:5;stroke-miterlimit:10;}
	.st24{fill:#56B971;}
	.st25{fill:none;stroke:#000000;stroke-width:0.75;stroke-miterlimit:10;}
	.st26{fill:#041C93;}
	.st27{fill:#4395E6;}
	.st28{fill:#C25829;}
	.st29{fill:#D64370;}
	.st30{fill:#C10E0E;}
	.st31{fill:#FDFDFF;}
	.st32{fill:none;stroke:#000000;stroke-width:1.5;stroke-miterlimit:10;}
	.st33{fill:#EFA973;}
	.st34{fill:#0C0D0E;}
	.st35{fill:url(#SVGID_1_);}
	.st36{fill:#020202;}
	.st37{fill:#052C50;}
	.st38{fill:url(#SVGID_2_);}
	.st39{fill:url(#SVGID_3_);}
	.st40{fill:url(#SVGID_4_);}
	.st41{fill:url(#SVGID_5_);}
	.st42{fill:url(#SVGID_6_);}
	.st43{fill:url(#SVGID_7_);}
	.st44{fill:#9AFFFF;}
	.st45{fill:#CCFFFF;}
	.st46{fill:#A4D7FF;}
	.st47{fill:#67CDCD;}
	.st48{fill:#9ACDFF;}
	.st49{fill:#C80000;}
	.st50{fill:none;stroke:#000000;stroke-width:2;stroke-miterlimit:10;}
	.st51{fill:none;}
	.st52{opacity:0.5;fill:url(#SVGID_8_);}
	.st53{opacity:0.37;fill:url(#SVGID_9_);}
	.st54{opacity:0.7;fill:url(#SVGID_10_);}
	.st55{opacity:0.7;fill:url(#SVGID_11_);}
	.st56{fill:#AAD5FF;}
	.st57{opacity:0.25;fill:#AAC0D5;}
	.st58{opacity:0.7;fill:url(#SVGID_12_);}
	.st59{fill:#231F20;}
	.st60{opacity:0.94;}
	.st61{clip-path:url(#SVGID_14_);}
	.st62{fill:#EC1C24;}
	.st63{opacity:0.9;}
	.st64{fill:url(#SVGID_15_);}
	.st65{clip-path:url(#SVGID_17_);}
	.st66{clip-path:url(#SVGID_19_);}
	.st67{clip-path:url(#SVGID_23_);}
	.st68{fill:url(#SVGID_24_);}
	.st69{fill:url(#SVGID_25_);}
	.st70{fill:url(#SVGID_26_);}
	.st71{fill:url(#SVGID_27_);}
	.st72{fill:url(#SVGID_28_);}
	.st73{fill:url(#SVGID_29_);}
	.st74{fill:url(#SVGID_30_);}
	.st75{fill:url(#SVGID_31_);}
	.st76{fill:url(#SVGID_32_);}
	.st77{fill:url(#SVGID_33_);}
	.st78{fill:url(#SVGID_34_);}
	.st79{fill:url(#SVGID_35_);}
	.st80{fill:url(#SVGID_36_);}
	.st81{fill:url(#SVGID_37_);}
	.st82{fill:url(#SVGID_38_);}
	.st83{fill:url(#SVGID_39_);}
	.st84{fill:url(#SVGID_40_);}
	.st85{fill:url(#SVGID_41_);}
	.st86{fill:url(#SVGID_42_);}
	.st87{fill:url(#SVGID_43_);}
	.st88{fill:url(#SVGID_44_);}
	.st89{fill:url(#SVGID_45_);}
	.st90{fill:url(#SVGID_46_);}
	.st91{fill:url(#SVGID_47_);}
</style>
<g>
	<rect y="99" width="1644" height="126"/>
	<g>
		<g>
			<path class="st11" d="M175.3,145.3H199l-1.6,9.2H196c0.1-0.9,0.1-1.6,0.1-2.1c0-2-0.5-3.4-1.4-4.3c-0.9-0.9-2.4-1.4-4.3-1.4h-4.8
				c-0.5,0-0.9,0.1-1.2,0.3c-0.3,0.2-0.5,0.6-0.6,1.1l-2.7,10.3h2.7c1.7,0,3.1-0.4,4.1-1.2c1-0.8,1.9-2.1,2.5-4.1h1.4l-3.5,13.1H187
				c0.3-1,0.4-1.9,0.4-2.6c0-1.3-0.3-2.2-1-2.9s-1.5-1-2.6-1h-3.1l-2.9,11.3c0,0.1,0,0.2,0,0.3c0,0.3,0.1,0.6,0.3,0.8
				c0.3,0.2,0.8,0.3,1.4,0.3h3.2l-0.4,1.5h-13.3l0.3-1.5h1.8c0.8,0,1.3-0.1,1.7-0.4c0.3-0.3,0.6-0.9,0.9-1.9l5.7-21.5
				c0.1-0.3,0.1-0.6,0.1-0.9c0-0.3-0.1-0.6-0.4-0.8c-0.2-0.2-0.7-0.2-1.5-0.2H175L175.3,145.3z"/>
			<path class="st11" d="M206.2,145.3h13l-0.3,1.5h-2c-0.7,0-1.2,0.1-1.5,0.4c-0.3,0.3-0.6,0.8-0.8,1.4l-5.9,21.8
				c-0.1,0.2-0.1,0.5-0.1,0.8c0,0.4,0.2,0.7,0.5,0.9c0.3,0.2,0.8,0.3,1.6,0.3h2.4l-0.3,1.5h-13.2l0.4-1.5h1.9c1.5,0,2.4-0.5,2.7-1.5
				l6-22.7c0.1-0.2,0.1-0.3,0.1-0.5c0-0.3-0.1-0.6-0.4-0.8c-0.3-0.2-0.7-0.3-1.4-0.3h-2.9L206.2,145.3z"/>
			<path class="st11" d="M246.6,147.7l1.7-2h1.3l-1.7,10.2h-1.3c-0.1-3.2-0.8-5.7-2.2-7.3s-3.2-2.5-5.4-2.5c-2.1,0-4,0.8-5.9,2.5
				c-1.9,1.7-3.4,4.3-4.5,7.9c-1,3-1.5,5.8-1.5,8.4c0,2.7,0.6,4.7,1.9,6.1c1.3,1.4,3,2.1,5.1,2.1c1.2,0,2.3-0.2,3.2-0.6
				s1.7-1,2.5-1.8c0.7-0.8,1.2-1.7,1.4-2.5l1.1-4.1l0.2-0.6l0-0.3c0-0.3-0.1-0.6-0.4-0.8s-0.7-0.3-1.3-0.3h-2l0.3-1.4h10.5l-0.2,1.4
				h-1.1c-1,0-1.7,0.5-2,1.5l-2.8,10.5h-1.3l-0.2-3.3c-1.4,1.4-2.9,2.4-4.4,3s-3,0.9-4.7,0.9c-3.1,0-5.7-1-7.7-3.1
				c-2-2.1-3-4.8-3-8.2c0-3.1,0.8-6.2,2.5-9.1s3.8-5.3,6.3-7c2.6-1.7,5.2-2.5,7.9-2.5c1.4,0,2.6,0.2,3.8,0.7
				C244.2,145.7,245.4,146.6,246.6,147.7z"/>
			<path class="st11" d="M260.8,145.3h12.8l-0.3,1.5h-2.5c-0.5,0-0.9,0.1-1.2,0.4c-0.3,0.3-0.6,0.6-0.7,1.1l-4.2,15.8
				c-0.2,0.9-0.4,1.8-0.4,2.7c0,1.9,0.5,3.4,1.6,4.5c1.1,1.1,2.6,1.7,4.5,1.7c2.3,0,4.1-0.7,5.6-2c1.8-1.7,3.1-4.2,4-7.5l3.2-12
				c0.2-0.6,0.2-1.2,0.2-1.6c0-0.9-0.3-1.7-0.9-2.2c-0.6-0.5-1.3-0.8-2.3-0.8h-0.9l0.3-1.5h10.4l-0.3,1.5c-1.3,0-2.2,0.3-2.8,0.8
				c-0.8,0.7-1.4,1.6-1.7,2.9l-3.6,13.3c-0.7,2.6-1.6,4.6-2.6,6.2c-1.1,1.5-2.3,2.7-3.8,3.4s-3.3,1.2-5.5,1.2c-3.1,0-5.5-0.7-7-2.1
				c-1.5-1.4-2.3-3.3-2.3-5.7c0-1.5,0.2-3.1,0.7-4.8l3.6-13.6c0-0.2,0.1-0.4,0.1-0.7c0-0.3-0.1-0.5-0.3-0.7s-0.6-0.3-1.1-0.3h-2.8
				L260.8,145.3z"/>
			<path class="st11" d="M297,145.3h13.3c3.3,0,5.7,0.6,7.2,1.8c1.5,1.2,2.3,2.8,2.3,4.9c0,1.5-0.4,2.8-1.3,3.9
				c-0.9,1-2.2,1.9-3.9,2.5c-1.2,0.4-3,0.8-5.5,1c1.4,0.4,2.4,0.9,3.1,1.6c0.7,0.6,1.1,1.4,1.4,2.3c0.2,0.7,0.3,2.5,0.3,5.3
				c0,1.6,0.1,2.6,0.3,3c0.2,0.4,0.5,0.6,0.9,0.6c0.9,0,1.9-1.2,2.8-3.5l1,0.3c-1.3,3.5-3.1,5.3-5.6,5.3c-1.2,0-2.1-0.4-2.8-1.2
				c-0.7-0.8-1.1-2-1.1-3.6c0-0.8,0.1-1.8,0.3-2.8c0.2-1.3,0.3-2.3,0.3-2.7c0-1.5-0.4-2.5-1.1-3.2c-0.7-0.7-2-1-3.7-1h-2.8l-3,11.3
				c0,0.1,0,0.2,0,0.3c0,0.3,0.1,0.6,0.4,0.8c0.3,0.2,0.8,0.3,1.5,0.3h2.9L304,174h-13.2l0.3-1.5h2.4c1,0,1.6-0.5,1.9-1.4l6-22.7
				c0-0.2,0.1-0.3,0.1-0.4c0-0.3-0.2-0.6-0.5-0.8s-0.8-0.3-1.5-0.3h-2.8L297,145.3z M302.9,158.5h3.9c2.1,0,3.7-0.3,5-0.9
				c1.2-0.6,2.1-1.3,2.6-2.3c0.7-1.3,1.1-2.7,1.1-4.2c0-1.4-0.5-2.5-1.5-3.2c-1-0.7-2.6-1.1-4.8-1.1c-1.4,0-2.3,0.1-2.8,0.3
				c-0.4,0.2-0.7,0.6-0.9,1.2L302.9,158.5z"/>
			<path class="st11" d="M330.9,145.3h23l-2.2,9.2h-1.4c0.2-1.2,0.3-2.2,0.3-3c0-1.6-0.4-2.8-1.3-3.6c-0.9-0.8-2.3-1.2-4.2-1.2h-4
				c-0.5,0-1,0.1-1.2,0.4c-0.3,0.3-0.6,0.9-0.8,1.8l-2.5,9.5h2c3.1,0,5.1-1.7,6.2-5.1h1.4l-3.5,13h-1.4c0.3-1.2,0.4-2.1,0.4-2.6
				c0-1.3-0.3-2.2-1-2.9c-0.6-0.7-1.6-1-2.7-1h-1.8l-2.8,10.8c-0.1,0.2-0.1,0.4-0.1,0.6c0,0.4,0.1,0.6,0.3,0.8
				c0.3,0.2,0.7,0.4,1.2,0.4h4.6c2.4,0,4.4-0.7,6.2-2c1.7-1.3,3.2-3.5,4.5-6.5h1.4l-3,10h-23.4l0.2-1.5h1.5c1.3,0,2.1-0.5,2.4-1.4
				l6-22.5c0.1-0.2,0.1-0.5,0.1-0.7c0-0.4-0.2-0.6-0.5-0.9c-0.3-0.2-0.9-0.3-1.7-0.3h-2.4L330.9,145.3z"/>
			<path class="st11" d="M389.3,146.6h1.1l-6.3,24.1c0,0.2-0.1,0.3-0.1,0.5c0,0.4,0.2,0.8,0.5,1s0.8,0.4,1.4,0.4h2.6l-0.4,1.5h-12.4
				l0.4-1.5h1.3c2,0,3.1-0.7,3.5-2.1l4.8-18.2c0-0.1,0-0.3,0-0.4c0-0.4-0.2-0.7-0.5-1c-0.4-0.2-0.9-0.4-1.8-0.4h-2.3l0.4-1.4
				c1.7-0.1,3.2-0.4,4.4-0.8C387.1,147.9,388.3,147.3,389.3,146.6z"/>
			<path class="st11" d="M402.4,169.8c0.6,0,1.2,0.2,1.7,0.7c0.5,0.5,0.7,1,0.7,1.7c0,0.7-0.2,1.2-0.7,1.7c-0.5,0.5-1,0.7-1.7,0.7
				c-0.7,0-1.2-0.2-1.7-0.7s-0.7-1-0.7-1.7c0-0.7,0.2-1.2,0.7-1.7S401.7,169.8,402.4,169.8z"/>
			<path class="st11" d="M418.1,171h9c0.8,0,1.5-0.3,2.1-0.8c0.6-0.5,1.3-1.8,2.2-3.8h1.6l-2.6,7.6h-15.8l0.4-1.5
				c1.1-1.6,2.4-3.1,3.9-4.6s3.8-3.4,6.8-5.8c2.1-1.7,3.3-2.7,3.8-3.1c0.9-0.9,1.6-1.9,2.1-2.9c0.5-1,0.7-2.2,0.7-3.4
				c0-1.4-0.4-2.5-1.3-3.3c-0.9-0.8-2.1-1.2-3.6-1.2c-1.5,0-2.8,0.4-3.8,1.2s-1.5,1.7-1.5,2.6c0,0.3,0.1,0.5,0.3,0.7
				c0.2,0.2,0.6,0.4,1.1,0.6c0.8,0.3,1.3,0.6,1.6,1s0.4,0.8,0.4,1.3c0,0.6-0.2,1.1-0.6,1.5c-0.4,0.4-1,0.6-1.6,0.6
				c-0.9,0-1.7-0.4-2.3-1.1c-0.6-0.7-0.9-1.7-0.9-2.9c0-2,0.8-3.7,2.3-5.1c1.5-1.4,3.5-2.1,5.9-2.1c2.5,0,4.4,0.6,5.9,1.9
				c1.5,1.3,2.2,2.9,2.2,4.9c0,1-0.2,2.1-0.7,3.1c-0.5,1-1.2,2-2.3,2.9c-1,1-2.8,2.2-5.3,3.8c-2.7,1.6-4.6,3-5.9,4
				S419.3,169.5,418.1,171z"/>
			<path class="st11" d="M442.3,169.8c0.6,0,1.2,0.2,1.7,0.7s0.7,1,0.7,1.7c0,0.7-0.2,1.2-0.7,1.7s-1,0.7-1.7,0.7
				c-0.7,0-1.2-0.2-1.7-0.7s-0.7-1-0.7-1.7c0-0.7,0.2-1.2,0.7-1.7S441.7,169.8,442.3,169.8z M446.5,155.3c0.7,0,1.2,0.2,1.7,0.7
				c0.5,0.5,0.7,1,0.7,1.7c0,0.7-0.2,1.2-0.7,1.7c-0.5,0.5-1,0.7-1.7,0.7c-0.7,0-1.2-0.2-1.7-0.7c-0.5-0.5-0.7-1-0.7-1.7
				c0-0.7,0.2-1.2,0.7-1.7C445.3,155.5,445.8,155.3,446.5,155.3z"/>
			<path class="st11" d="M475.5,145.3h13.7l-0.3,1.5h-2.4c-0.9,0-1.5,0.1-1.8,0.4s-0.6,0.7-0.8,1.5l-5.8,22
				c-0.1,0.3-0.1,0.5-0.1,0.7c0,0.4,0.1,0.6,0.4,0.8c0.3,0.2,0.7,0.3,1.3,0.3h3.8c2,0,3.9-0.6,5.5-1.9s3.2-3.4,4.7-6.5h1.2L492,174
				h-22.1l0.2-1.5h1.2c1.3,0,2.1-0.5,2.4-1.6l5.9-22.3c0.1-0.2,0.1-0.5,0.1-0.7c0-0.4-0.2-0.6-0.5-0.8c-0.3-0.2-0.8-0.3-1.6-0.3
				h-2.6L475.5,145.3z"/>
			<path class="st11" d="M506.2,145.3h13l-0.3,1.5h-2c-0.7,0-1.2,0.1-1.5,0.4c-0.3,0.3-0.6,0.8-0.8,1.4l-5.9,21.8
				c-0.1,0.2-0.1,0.5-0.1,0.8c0,0.4,0.2,0.7,0.5,0.9c0.3,0.2,0.8,0.3,1.6,0.3h2.4l-0.3,1.5h-13.2l0.4-1.5h1.9c1.5,0,2.4-0.5,2.7-1.5
				l6-22.7c0.1-0.2,0.1-0.3,0.1-0.5c0-0.3-0.1-0.6-0.4-0.8c-0.3-0.2-0.7-0.3-1.4-0.3h-2.9L506.2,145.3z"/>
			<path class="st11" d="M526.3,145.3h8.1l10,22l4.4-16.8c0.1-0.3,0.1-0.6,0.1-1c0-0.9-0.3-1.5-0.8-2c-0.5-0.5-1.3-0.7-2.4-0.7H545
				l0.3-1.5h10l-0.3,1.5c-2.2,0.1-3.6,1.2-4.2,3.4l-6.4,23.8h-1.3l-11.3-24.7l-4.9,18.6c-0.2,0.9-0.3,1.5-0.3,1.9
				c0,0.6,0.1,1.1,0.4,1.5c0.3,0.4,0.6,0.7,1,0.8c0.8,0.3,1.6,0.4,2.4,0.4h0.7l-0.3,1.5h-10.8l0.4-1.5c1.5-0.2,2.5-0.6,3.1-1.1
				c0.6-0.5,1.1-1.7,1.6-3.5l5.2-19.1c0-0.1,0.1-0.2,0.1-0.3c0-0.5-0.2-0.8-0.6-1.1c-0.6-0.4-1.4-0.6-2.4-0.6H526L526.3,145.3z"/>
			<path class="st11" d="M562.6,145.3h23l-2.2,9.2H582c0.2-1.2,0.3-2.2,0.3-3c0-1.6-0.4-2.8-1.3-3.6c-0.9-0.8-2.3-1.2-4.2-1.2h-4
				c-0.5,0-1,0.1-1.2,0.4c-0.3,0.3-0.6,0.9-0.8,1.8l-2.5,9.5h2c3.1,0,5.1-1.7,6.2-5.1h1.4l-3.5,13H573c0.3-1.2,0.4-2.1,0.4-2.6
				c0-1.3-0.3-2.2-1-2.9c-0.6-0.7-1.6-1-2.7-1h-1.8l-2.8,10.8c-0.1,0.2-0.1,0.4-0.1,0.6c0,0.4,0.1,0.6,0.3,0.8
				c0.3,0.2,0.7,0.4,1.2,0.4h4.6c2.4,0,4.4-0.7,6.2-2c1.7-1.3,3.2-3.5,4.5-6.5h1.4l-3,10h-23.4l0.2-1.5h1.5c1.3,0,2.1-0.5,2.4-1.4
				l6-22.5c0.1-0.2,0.1-0.5,0.1-0.7c0-0.4-0.2-0.6-0.5-0.9c-0.3-0.2-0.9-0.3-1.7-0.3h-2.4L562.6,145.3z"/>
			<path class="st11" d="M610.3,145.3h13l-0.3,1.5h-2c-0.7,0-1.2,0.1-1.5,0.4c-0.3,0.3-0.6,0.8-0.8,1.4l-5.9,21.8
				c-0.1,0.2-0.1,0.5-0.1,0.8c0,0.4,0.2,0.7,0.5,0.9c0.3,0.2,0.8,0.3,1.6,0.3h2.4l-0.3,1.5h-13.2l0.4-1.5h1.9c1.5,0,2.4-0.5,2.7-1.5
				l6-22.7c0.1-0.2,0.1-0.3,0.1-0.5c0-0.3-0.1-0.6-0.4-0.8c-0.3-0.2-0.7-0.3-1.4-0.3H610L610.3,145.3z"/>
			<path class="st11" d="M630.5,145.3h8.1l10,22l4.4-16.8c0.1-0.3,0.1-0.6,0.1-1c0-0.9-0.3-1.5-0.8-2c-0.5-0.5-1.3-0.7-2.4-0.7h-0.8
				l0.3-1.5h10l-0.3,1.5c-2.2,0.1-3.6,1.2-4.2,3.4l-6.4,23.8h-1.3L636,149.3l-4.9,18.6c-0.2,0.9-0.3,1.5-0.3,1.9
				c0,0.6,0.1,1.1,0.4,1.5c0.3,0.4,0.6,0.7,1,0.8c0.8,0.3,1.6,0.4,2.4,0.4h0.7l-0.3,1.5H624l0.4-1.5c1.5-0.2,2.5-0.6,3.1-1.1
				c0.6-0.5,1.1-1.7,1.6-3.5l5.2-19.1c0-0.1,0.1-0.2,0.1-0.3c0-0.5-0.2-0.8-0.6-1.1c-0.6-0.4-1.4-0.6-2.4-0.6h-1.1L630.5,145.3z"/>
			<path class="st11" d="M667.4,145.3H691l-2.5,10.5h-1.5c0.4-1.8,0.6-3.2,0.6-4.3c0-1.7-0.4-3-1.1-3.7s-2-1.2-3.6-1.2
				c-0.9,0-1.6,0.1-1.9,0.4c-0.3,0.2-0.6,0.7-0.8,1.4l-6,22.6c0,0.1-0.1,0.3-0.1,0.4c0,0.4,0.1,0.7,0.4,0.9c0.3,0.2,0.8,0.3,1.5,0.3
				h2.9l-0.4,1.5h-14.1l0.4-1.5h2.7c0.8,0,1.4-0.1,1.7-0.4c0.4-0.3,0.6-0.7,0.8-1.2l5.9-22.3c0.1-0.3,0.1-0.5,0.1-0.8
				c0-0.4-0.2-0.7-0.5-0.9c-0.3-0.2-0.8-0.3-1.5-0.3c-1.2,0-2.3,0.3-3.4,0.9c-1.1,0.6-2.1,1.6-3.1,3.1c-0.6,0.8-1.6,2.6-3,5.3h-1.4
				L667.4,145.3z"/>
			<path class="st11" d="M697.9,145.3h23l-2.2,9.2h-1.4c0.2-1.2,0.3-2.2,0.3-3c0-1.6-0.4-2.8-1.3-3.6c-0.9-0.8-2.3-1.2-4.2-1.2h-4
				c-0.5,0-1,0.1-1.2,0.4c-0.3,0.3-0.6,0.9-0.8,1.8l-2.5,9.5h2c3.1,0,5.1-1.7,6.2-5.1h1.4l-3.5,13h-1.4c0.3-1.2,0.4-2.1,0.4-2.6
				c0-1.3-0.3-2.2-1-2.9c-0.6-0.7-1.6-1-2.7-1h-1.8l-2.8,10.8c-0.1,0.2-0.1,0.4-0.1,0.6c0,0.4,0.1,0.6,0.3,0.8
				c0.3,0.2,0.7,0.4,1.2,0.4h4.6c2.4,0,4.4-0.7,6.2-2c1.7-1.3,3.2-3.5,4.5-6.5h1.4l-3,10h-23.4l0.2-1.5h1.5c1.3,0,2.1-0.5,2.4-1.4
				l6-22.5c0.1-0.2,0.1-0.5,0.1-0.7c0-0.4-0.2-0.6-0.5-0.9c-0.3-0.2-0.9-0.3-1.7-0.3h-2.4L697.9,145.3z"/>
			<path class="st11" d="M750.9,147.7l1.7-2h1.3l-1.7,10.2h-1.3c-0.1-3.2-0.8-5.7-2.2-7.3s-3.2-2.5-5.4-2.5c-2.1,0-4,0.8-5.9,2.5
				c-1.9,1.7-3.4,4.3-4.5,7.9c-1,3-1.5,5.8-1.5,8.4c0,2.7,0.6,4.7,1.9,6.1c1.3,1.4,3,2.1,5.1,2.1c1.2,0,2.3-0.2,3.2-0.6
				s1.7-1,2.5-1.8c0.7-0.8,1.2-1.7,1.4-2.5l1.1-4.1l0.2-0.6l0-0.3c0-0.3-0.1-0.6-0.4-0.8s-0.7-0.3-1.3-0.3h-2l0.3-1.4h10.5l-0.2,1.4
				h-1.1c-1,0-1.7,0.5-2,1.5l-2.8,10.5h-1.3l-0.2-3.3c-1.4,1.4-2.9,2.4-4.4,3s-3,0.9-4.7,0.9c-3.1,0-5.7-1-7.7-3.1
				c-2-2.1-3-4.8-3-8.2c0-3.1,0.8-6.2,2.5-9.1s3.8-5.3,6.3-7c2.6-1.7,5.2-2.5,7.9-2.5c1.4,0,2.6,0.2,3.8,0.7
				C748.5,145.7,749.6,146.6,750.9,147.7z"/>
			<path class="st11" d="M764.9,145.3h13.3c3.3,0,5.7,0.6,7.2,1.8c1.5,1.2,2.3,2.8,2.3,4.9c0,1.5-0.4,2.8-1.3,3.9
				c-0.9,1-2.2,1.9-3.9,2.5c-1.2,0.4-3,0.8-5.5,1c1.4,0.4,2.4,0.9,3.1,1.6c0.7,0.6,1.1,1.4,1.4,2.3c0.2,0.7,0.3,2.5,0.3,5.3
				c0,1.6,0.1,2.6,0.3,3c0.2,0.4,0.5,0.6,0.9,0.6c0.9,0,1.9-1.2,2.8-3.5l1,0.3c-1.3,3.5-3.1,5.3-5.6,5.3c-1.2,0-2.1-0.4-2.8-1.2
				c-0.7-0.8-1.1-2-1.1-3.6c0-0.8,0.1-1.8,0.3-2.8c0.2-1.3,0.3-2.3,0.3-2.7c0-1.5-0.4-2.5-1.1-3.2c-0.7-0.7-2-1-3.7-1h-2.8l-3,11.3
				c0,0.1,0,0.2,0,0.3c0,0.3,0.1,0.6,0.4,0.8c0.3,0.2,0.8,0.3,1.5,0.3h2.9l-0.3,1.5h-13.2l0.3-1.5h2.4c1,0,1.6-0.5,1.9-1.4l6-22.7
				c0-0.2,0.1-0.3,0.1-0.4c0-0.3-0.2-0.6-0.5-0.8s-0.8-0.3-1.5-0.3h-2.8L764.9,145.3z M770.9,158.5h3.9c2.1,0,3.7-0.3,5-0.9
				c1.2-0.6,2.1-1.3,2.6-2.3c0.7-1.3,1.1-2.7,1.1-4.2c0-1.4-0.5-2.5-1.5-3.2c-1-0.7-2.6-1.1-4.8-1.1c-1.4,0-2.3,0.1-2.8,0.3
				c-0.4,0.2-0.7,0.6-0.9,1.2L770.9,158.5z"/>
			<path class="st11" d="M810.7,145.3h1.6l3.5,25.3c0.1,0.7,0.4,1.2,0.8,1.5c0.4,0.3,1.1,0.5,2.1,0.5h1l-0.4,1.5h-11.6l0.4-1.5h1
				c1.1,0,1.8-0.1,2.2-0.3c0.3-0.2,0.5-0.6,0.5-1.1c0-0.2,0-0.4-0.1-0.7l-0.8-5.8h-10.4l-2.5,4c-0.5,0.7-0.7,1.4-0.7,2.1
				c0,0.6,0.2,1,0.6,1.3c0.4,0.3,1.1,0.5,2,0.5h1l-0.4,1.5h-10.2l0.4-1.5c1-0.1,1.9-0.4,2.7-0.9c0.8-0.5,1.5-1.4,2.3-2.6
				L810.7,145.3z M809,151.2l-7.4,11.7h9L809,151.2z"/>
			<path class="st11" d="M830.6,145.3h13.7l-0.3,1.5h-2.4c-0.9,0-1.5,0.1-1.8,0.4s-0.6,0.7-0.8,1.5l-5.8,22
				c-0.1,0.3-0.1,0.5-0.1,0.7c0,0.4,0.1,0.6,0.4,0.8c0.3,0.2,0.7,0.3,1.3,0.3h3.8c2,0,3.9-0.6,5.5-1.9s3.2-3.4,4.7-6.5h1.2L847,174
				h-22.1l0.2-1.5h1.2c1.3,0,2.1-0.5,2.4-1.6l5.9-22.3c0.1-0.2,0.1-0.5,0.1-0.7c0-0.4-0.2-0.6-0.5-0.8c-0.3-0.2-0.8-0.3-1.6-0.3
				h-2.6L830.6,145.3z"/>
			<path class="st11" d="M889.6,144.6c3.2,0,5.8,1.1,7.8,3.2c2,2.1,3.1,4.9,3.1,8.3c0,3.3-0.8,6.4-2.4,9.2c-1.6,2.9-3.7,5.1-6.4,6.8
				c-2.7,1.7-5.4,2.5-8.2,2.5c-3.1,0-5.7-1.1-7.7-3.2c-2-2.1-3.1-4.9-3.1-8.2c0-3.3,0.8-6.3,2.4-9.3c1.6-2.9,3.7-5.2,6.3-6.8
				S886.7,144.6,889.6,144.6z M889.7,146c-1.5,0-3,0.4-4.3,1.1c-1.3,0.7-2.6,2-3.9,3.7s-2.3,4-3.1,6.7c-0.8,2.7-1.2,5.4-1.2,8
				c0,2.5,0.6,4.5,1.7,5.8c1.1,1.3,2.7,1.9,4.7,1.9c2.1,0,4-0.7,5.7-2c1.7-1.4,3.2-3.6,4.5-6.8c1.5-3.8,2.3-7.4,2.3-10.9
				c0-2.4-0.6-4.3-1.7-5.6C893.2,146.6,891.6,146,889.7,146z"/>
			<path class="st11" d="M910.7,145.3h23.7l-1.6,9.2h-1.4c0.1-0.9,0.1-1.6,0.1-2.1c0-2-0.5-3.4-1.4-4.3c-0.9-0.9-2.4-1.4-4.3-1.4
				h-4.8c-0.5,0-0.9,0.1-1.2,0.3c-0.3,0.2-0.5,0.6-0.6,1.1l-2.7,10.3h2.7c1.7,0,3.1-0.4,4.1-1.2c1-0.8,1.9-2.1,2.5-4.1h1.4
				l-3.5,13.1h-1.4c0.3-1,0.4-1.9,0.4-2.6c0-1.3-0.3-2.2-1-2.9s-1.5-1-2.6-1H916l-2.9,11.3c0,0.1,0,0.2,0,0.3c0,0.3,0.1,0.6,0.3,0.8
				c0.3,0.2,0.8,0.3,1.4,0.3h3.2l-0.4,1.5h-13.3l0.3-1.5h1.8c0.8,0,1.3-0.1,1.7-0.4c0.3-0.3,0.6-0.9,0.9-1.9l5.7-21.5
				c0.1-0.3,0.1-0.6,0.1-0.9c0-0.3-0.1-0.6-0.4-0.8c-0.2-0.2-0.7-0.2-1.5-0.2h-2.7L910.7,145.3z"/>
			<path class="st11" d="M957.2,145.3h23.7l-2.5,10.5h-1.5c0.4-1.8,0.6-3.2,0.6-4.3c0-1.7-0.4-3-1.1-3.7s-2-1.2-3.6-1.2
				c-0.9,0-1.6,0.1-1.9,0.4c-0.3,0.2-0.6,0.7-0.8,1.4l-6,22.6c0,0.1-0.1,0.3-0.1,0.4c0,0.4,0.1,0.7,0.4,0.9c0.3,0.2,0.8,0.3,1.5,0.3
				h2.9l-0.4,1.5h-14.1l0.4-1.5h2.7c0.8,0,1.4-0.1,1.7-0.4c0.4-0.3,0.6-0.7,0.8-1.2l5.9-22.3c0.1-0.3,0.1-0.5,0.1-0.8
				c0-0.4-0.2-0.7-0.5-0.9c-0.3-0.2-0.8-0.3-1.5-0.3c-1.2,0-2.3,0.3-3.4,0.9c-1.1,0.6-2.1,1.6-3.1,3.1c-0.6,0.8-1.6,2.6-3,5.3h-1.4
				L957.2,145.3z"/>
			<path class="st11" d="M988.2,145.3h12.3l-0.3,1.5h-1.7c-0.8,0-1.4,0.1-1.7,0.4c-0.4,0.3-0.6,0.8-0.8,1.5l-2.5,9.5h12.8l2.6-9.8
				c0.1-0.2,0.1-0.4,0.1-0.6c0-0.3-0.2-0.6-0.5-0.8c-0.3-0.2-1-0.3-1.9-0.3h-1.8l0.4-1.5h12.3l-0.3,1.5h-1.6c-0.8,0-1.3,0.1-1.7,0.4
				c-0.4,0.3-0.7,0.8-0.8,1.4l-5.9,22.1c-0.1,0.2-0.1,0.5-0.1,0.7c0,0.4,0.2,0.6,0.5,0.8c0.3,0.2,0.9,0.3,1.8,0.3h1.4l-0.3,1.5
				h-11.9l0.4-1.5h1.4c0.8,0,1.4-0.1,1.8-0.4c0.4-0.3,0.7-0.8,0.9-1.4l2.8-10.6h-12.8l-2.9,10.8c-0.1,0.2-0.1,0.4-0.1,0.5
				c0,0.3,0.2,0.6,0.5,0.8c0.3,0.2,1,0.3,1.9,0.3h2l-0.3,1.5h-12.1l0.4-1.5h0.9c1.4,0,2.3-0.5,2.5-1.4l5.9-22.3
				c0.1-0.4,0.2-0.7,0.2-0.9c0-0.4-0.2-0.6-0.5-0.8c-0.3-0.2-0.9-0.3-1.7-0.3h-1.7L988.2,145.3z"/>
			<path class="st11" d="M1024.7,145.3h23l-2.2,9.2h-1.4c0.2-1.2,0.3-2.2,0.3-3c0-1.6-0.4-2.8-1.3-3.6c-0.9-0.8-2.3-1.2-4.2-1.2h-4
				c-0.5,0-1,0.1-1.2,0.4c-0.3,0.3-0.6,0.9-0.8,1.8l-2.5,9.5h2c3.1,0,5.1-1.7,6.2-5.1h1.4l-3.5,13h-1.4c0.3-1.2,0.4-2.1,0.4-2.6
				c0-1.3-0.3-2.2-1-2.9c-0.6-0.7-1.6-1-2.7-1h-1.8l-2.8,10.8c-0.1,0.2-0.1,0.4-0.1,0.6c0,0.4,0.1,0.6,0.3,0.8
				c0.3,0.2,0.7,0.4,1.2,0.4h4.6c2.4,0,4.4-0.7,6.2-2c1.7-1.3,3.2-3.5,4.5-6.5h1.4l-3,10h-23.4l0.2-1.5h1.5c1.3,0,2.1-0.5,2.4-1.4
				l6-22.5c0.1-0.2,0.1-0.5,0.1-0.7c0-0.4-0.2-0.6-0.5-0.9c-0.3-0.2-0.9-0.3-1.7-0.3h-2.4L1024.7,145.3z"/>
			<path class="st11" d="M1072.4,145.3h23l-2.2,9.2h-1.4c0.2-1.2,0.3-2.2,0.3-3c0-1.6-0.4-2.8-1.3-3.6c-0.9-0.8-2.3-1.2-4.2-1.2h-4
				c-0.5,0-1,0.1-1.2,0.4c-0.3,0.3-0.6,0.9-0.8,1.8l-2.5,9.5h2c3.1,0,5.1-1.7,6.2-5.1h1.4l-3.5,13h-1.4c0.3-1.2,0.4-2.1,0.4-2.6
				c0-1.3-0.3-2.2-1-2.9c-0.6-0.7-1.6-1-2.7-1h-1.8l-2.8,10.8c-0.1,0.2-0.1,0.4-0.1,0.6c0,0.4,0.1,0.6,0.3,0.8
				c0.3,0.2,0.7,0.4,1.2,0.4h4.6c2.4,0,4.4-0.7,6.2-2c1.7-1.3,3.2-3.5,4.5-6.5h1.4l-3,10h-23.4l0.2-1.5h1.5c1.3,0,2.1-0.5,2.4-1.4
				l6-22.5c0.1-0.2,0.1-0.5,0.1-0.7c0-0.4-0.2-0.6-0.5-0.9c-0.3-0.2-0.9-0.3-1.7-0.3h-2.4L1072.4,145.3z"/>
			<path class="st11" d="M1104.9,145.3h13.7l-0.3,1.5h-2.4c-0.9,0-1.5,0.1-1.8,0.4s-0.6,0.7-0.8,1.5l-5.8,22
				c-0.1,0.3-0.1,0.5-0.1,0.7c0,0.4,0.1,0.6,0.4,0.8c0.3,0.2,0.7,0.3,1.3,0.3h3.8c2,0,3.9-0.6,5.5-1.9s3.2-3.4,4.7-6.5h1.2l-2.8,9.8
				h-22.1l0.2-1.5h1.2c1.3,0,2.1-0.5,2.4-1.6l5.9-22.3c0.1-0.2,0.1-0.5,0.1-0.7c0-0.4-0.2-0.6-0.5-0.8c-0.3-0.2-0.8-0.3-1.6-0.3
				h-2.6L1104.9,145.3z"/>
			<path class="st11" d="M1135.5,145.3h23l-2.2,9.2h-1.4c0.2-1.2,0.3-2.2,0.3-3c0-1.6-0.4-2.8-1.3-3.6c-0.9-0.8-2.3-1.2-4.2-1.2h-4
				c-0.5,0-1,0.1-1.2,0.4c-0.3,0.3-0.6,0.9-0.8,1.8l-2.5,9.5h2c3.1,0,5.1-1.7,6.2-5.1h1.4l-3.5,13h-1.4c0.3-1.2,0.4-2.1,0.4-2.6
				c0-1.3-0.3-2.2-1-2.9c-0.6-0.7-1.6-1-2.7-1h-1.8l-2.8,10.8c-0.1,0.2-0.1,0.4-0.1,0.6c0,0.4,0.1,0.6,0.3,0.8
				c0.3,0.2,0.7,0.4,1.2,0.4h4.6c2.4,0,4.4-0.7,6.2-2c1.7-1.3,3.2-3.5,4.5-6.5h1.4l-3,10h-23.4l0.2-1.5h1.5c1.3,0,2.1-0.5,2.4-1.4
				l6-22.5c0.1-0.2,0.1-0.5,0.1-0.7c0-0.4-0.2-0.6-0.5-0.9c-0.3-0.2-0.9-0.3-1.7-0.3h-2.4L1135.5,145.3z"/>
			<path class="st11" d="M1188,147.9l2-1.9h1.3l-2.1,10.5h-1.2c0-2.2-0.2-3.9-0.6-5.1c-0.5-1.7-1.3-3-2.4-4c-1.1-0.9-2.4-1.4-4-1.4
				c-2,0-3.8,0.8-5.6,2.3c-1.8,1.6-3.2,4-4.4,7.4c-1,2.9-1.5,5.8-1.5,8.6c0,2.8,0.7,4.9,2.1,6.4s3.3,2.3,5.6,2.3
				c2,0,3.9-0.6,5.6-1.9c1.7-1.3,3-3.2,4-5.8l1.2,0.5c-1,2.7-2.4,4.7-4,6.1c-2.1,1.8-4.7,2.7-7.7,2.7c-3.3,0-6.1-1.1-8.3-3.3
				c-2.2-2.2-3.3-5-3.3-8.3c0-3.2,0.8-6.2,2.4-9.2c1.6-3,3.5-5.2,5.9-6.8s4.9-2.3,7.6-2.3c1.3,0,2.5,0.2,3.6,0.7
				C1185.6,145.8,1186.8,146.7,1188,147.9z"/>
			<path class="st11" d="M1201.4,145.3h23.7l-2.5,10.5h-1.5c0.4-1.8,0.6-3.2,0.6-4.3c0-1.7-0.4-3-1.1-3.7s-2-1.2-3.6-1.2
				c-0.9,0-1.6,0.1-1.9,0.4c-0.3,0.2-0.6,0.7-0.8,1.4l-6,22.6c0,0.1-0.1,0.3-0.1,0.4c0,0.4,0.1,0.7,0.4,0.9c0.3,0.2,0.8,0.3,1.5,0.3
				h2.9l-0.4,1.5h-14.1l0.4-1.5h2.7c0.8,0,1.4-0.1,1.7-0.4c0.4-0.3,0.6-0.7,0.8-1.2l5.9-22.3c0.1-0.3,0.1-0.5,0.1-0.8
				c0-0.4-0.2-0.7-0.5-0.9c-0.3-0.2-0.8-0.3-1.5-0.3c-1.2,0-2.3,0.3-3.4,0.9c-1.1,0.6-2.1,1.6-3.1,3.1c-0.6,0.8-1.6,2.6-3,5.3h-1.4
				L1201.4,145.3z"/>
			<path class="st11" d="M1231.5,145.3h13.3c3.3,0,5.7,0.6,7.2,1.8c1.5,1.2,2.3,2.8,2.3,4.9c0,1.5-0.4,2.8-1.3,3.9
				c-0.9,1-2.2,1.9-3.9,2.5c-1.2,0.4-3,0.8-5.5,1c1.4,0.4,2.4,0.9,3.1,1.6c0.7,0.6,1.1,1.4,1.4,2.3c0.2,0.7,0.3,2.5,0.3,5.3
				c0,1.6,0.1,2.6,0.3,3c0.2,0.4,0.5,0.6,0.9,0.6c0.9,0,1.9-1.2,2.8-3.5l1,0.3c-1.3,3.5-3.1,5.3-5.6,5.3c-1.2,0-2.1-0.4-2.8-1.2
				c-0.7-0.8-1.1-2-1.1-3.6c0-0.8,0.1-1.8,0.3-2.8c0.2-1.3,0.3-2.3,0.3-2.7c0-1.5-0.4-2.5-1.1-3.2c-0.7-0.7-2-1-3.7-1h-2.8l-3,11.3
				c0,0.1,0,0.2,0,0.3c0,0.3,0.1,0.6,0.4,0.8c0.3,0.2,0.8,0.3,1.5,0.3h2.9l-0.3,1.5h-13.2l0.3-1.5h2.4c1,0,1.6-0.5,1.9-1.4l6-22.7
				c0-0.2,0.1-0.3,0.1-0.4c0-0.3-0.2-0.6-0.5-0.8s-0.8-0.3-1.5-0.3h-2.8L1231.5,145.3z M1237.4,158.5h3.9c2.1,0,3.7-0.3,5-0.9
				c1.2-0.6,2.1-1.3,2.6-2.3c0.7-1.3,1.1-2.7,1.1-4.2c0-1.4-0.5-2.5-1.5-3.2c-1-0.7-2.6-1.1-4.8-1.1c-1.4,0-2.3,0.1-2.8,0.3
				c-0.4,0.2-0.7,0.6-0.9,1.2L1237.4,158.5z"/>
			<path class="st11" d="M1265.4,145.3h13l-0.3,1.5h-2c-0.7,0-1.2,0.1-1.5,0.4c-0.3,0.3-0.6,0.8-0.8,1.4l-5.9,21.8
				c-0.1,0.2-0.1,0.5-0.1,0.8c0,0.4,0.2,0.7,0.5,0.9c0.3,0.2,0.8,0.3,1.6,0.3h2.4l-0.3,1.5h-13.2l0.4-1.5h1.9c1.5,0,2.4-0.5,2.7-1.5
				l6-22.7c0.1-0.2,0.1-0.3,0.1-0.5c0-0.3-0.1-0.6-0.4-0.8c-0.3-0.2-0.7-0.3-1.4-0.3h-2.9L1265.4,145.3z"/>
			<path class="st11" d="M1305.4,147.9l2-1.9h1.3l-2.1,10.5h-1.2c0-2.2-0.2-3.9-0.6-5.1c-0.5-1.7-1.3-3-2.4-4
				c-1.1-0.9-2.4-1.4-4-1.4c-2,0-3.8,0.8-5.6,2.3c-1.8,1.6-3.2,4-4.4,7.4c-1,2.9-1.5,5.8-1.5,8.6c0,2.8,0.7,4.9,2.1,6.4
				s3.3,2.3,5.6,2.3c2,0,3.9-0.6,5.6-1.9c1.7-1.3,3-3.2,4-5.8l1.2,0.5c-1,2.7-2.4,4.7-4,6.1c-2.1,1.8-4.7,2.7-7.7,2.7
				c-3.3,0-6.1-1.1-8.3-3.3c-2.2-2.2-3.3-5-3.3-8.3c0-3.2,0.8-6.2,2.4-9.2c1.6-3,3.5-5.2,5.9-6.8s4.9-2.3,7.6-2.3
				c1.3,0,2.5,0.2,3.6,0.7C1303,145.8,1304.2,146.7,1305.4,147.9z"/>
			<path class="st11" d="M1332.8,145.3h23.7l-1.6,9.2h-1.4c0.1-0.9,0.1-1.6,0.1-2.1c0-2-0.5-3.4-1.4-4.3c-0.9-0.9-2.4-1.4-4.3-1.4
				h-4.8c-0.5,0-0.9,0.1-1.2,0.3c-0.3,0.2-0.5,0.6-0.6,1.1l-2.7,10.3h2.7c1.7,0,3.1-0.4,4.1-1.2c1-0.8,1.9-2.1,2.5-4.1h1.4
				l-3.5,13.1h-1.4c0.3-1,0.4-1.9,0.4-2.6c0-1.3-0.3-2.2-1-2.9s-1.5-1-2.6-1h-3.1l-2.9,11.3c0,0.1,0,0.2,0,0.3
				c0,0.3,0.1,0.6,0.3,0.8c0.3,0.2,0.8,0.3,1.4,0.3h3.2l-0.4,1.5h-13.3l0.3-1.5h1.8c0.8,0,1.3-0.1,1.7-0.4c0.3-0.3,0.6-0.9,0.9-1.9
				l5.7-21.5c0.1-0.3,0.1-0.6,0.1-0.9c0-0.3-0.1-0.6-0.4-0.8c-0.2-0.2-0.7-0.2-1.5-0.2h-2.7L1332.8,145.3z"/>
			<path class="st11" d="M1363.7,145.3h13l-0.3,1.5h-2c-0.7,0-1.2,0.1-1.5,0.4c-0.3,0.3-0.6,0.8-0.8,1.4l-5.9,21.8
				c-0.1,0.2-0.1,0.5-0.1,0.8c0,0.4,0.2,0.7,0.5,0.9c0.3,0.2,0.8,0.3,1.6,0.3h2.4l-0.3,1.5H1357l0.4-1.5h1.9c1.5,0,2.4-0.5,2.7-1.5
				l6-22.7c0.1-0.2,0.1-0.3,0.1-0.5c0-0.3-0.1-0.6-0.4-0.8c-0.3-0.2-0.7-0.3-1.4-0.3h-2.9L1363.7,145.3z"/>
			<path class="st11" d="M1383.7,145.3h23l-2.2,9.2h-1.4c0.2-1.2,0.3-2.2,0.3-3c0-1.6-0.4-2.8-1.3-3.6c-0.9-0.8-2.3-1.2-4.2-1.2h-4
				c-0.5,0-1,0.1-1.2,0.4c-0.3,0.3-0.6,0.9-0.8,1.8l-2.5,9.5h2c3.1,0,5.1-1.7,6.2-5.1h1.4l-3.5,13h-1.4c0.3-1.2,0.4-2.1,0.4-2.6
				c0-1.3-0.3-2.2-1-2.9c-0.6-0.7-1.6-1-2.7-1h-1.8l-2.8,10.8c-0.1,0.2-0.1,0.4-0.1,0.6c0,0.4,0.1,0.6,0.3,0.8
				c0.3,0.2,0.7,0.4,1.2,0.4h4.6c2.4,0,4.4-0.7,6.2-2c1.7-1.3,3.2-3.5,4.5-6.5h1.4l-3,10h-23.4l0.2-1.5h1.5c1.3,0,2.1-0.5,2.4-1.4
				l6-22.5c0.1-0.2,0.1-0.5,0.1-0.7c0-0.4-0.2-0.6-0.5-0.9c-0.3-0.2-0.9-0.3-1.7-0.3h-2.4L1383.7,145.3z"/>
			<path class="st11" d="M1416.2,145.3h13.7l-0.3,1.5h-2.4c-0.9,0-1.5,0.1-1.8,0.4s-0.6,0.7-0.8,1.5l-5.8,22
				c-0.1,0.3-0.1,0.5-0.1,0.7c0,0.4,0.1,0.6,0.4,0.8c0.3,0.2,0.7,0.3,1.3,0.3h3.8c2,0,3.9-0.6,5.5-1.9s3.2-3.4,4.7-6.5h1.2l-2.8,9.8
				h-22.1l0.2-1.5h1.2c1.3,0,2.1-0.5,2.4-1.6l5.9-22.3c0.1-0.2,0.1-0.5,0.1-0.7c0-0.4-0.2-0.6-0.5-0.8c-0.3-0.2-0.8-0.3-1.6-0.3
				h-2.6L1416.2,145.3z"/>
			<path class="st11" d="M1446.6,145.3h13c3.6,0,6.4,1,8.5,3c2,2,3,4.8,3,8.5c0,2.4-0.4,4.7-1.3,7c-0.9,2.3-2,4.1-3.3,5.5
				c-1.3,1.4-3,2.5-5.2,3.4c-2.2,0.9-4.3,1.3-6.5,1.3h-14.7l0.4-1.5h1.6c0.9,0,1.5-0.1,1.9-0.4c0.4-0.3,0.7-0.8,0.9-1.6l5.9-22.2
				c0-0.1,0-0.3,0-0.4c0-0.3-0.2-0.6-0.5-0.8c-0.3-0.2-0.9-0.3-1.8-0.3h-2.1L1446.6,145.3z M1454,172.6c1.9,0,3.5-0.3,4.9-1
				c1.4-0.7,2.7-1.8,3.8-3.2s2-3.4,2.6-5.7c0.9-3.1,1.3-5.8,1.3-8.1c0-2.9-0.8-5-2.5-6.3c-1.2-0.9-3.1-1.4-5.8-1.4
				c-1.6,0-2.5,0.1-2.8,0.3c-0.3,0.2-0.6,0.7-0.8,1.5l-5.9,22.2c-0.1,0.3-0.1,0.5-0.1,0.7c0,0.3,0.1,0.6,0.4,0.8
				c0.2,0.2,0.6,0.3,1.1,0.3H1454z"/>
		</g>
	</g>
	<g>
		<g>
			<path d="M1075.6,1028.4c3.4,0,6.3,1.3,8.6,4c2.8,3.3,4.3,8.3,4.3,15c0,6.2-1.2,11-3.7,14.2c-2.5,3.3-5.4,4.9-8.9,4.9
				c-3.4,0-6.2-1.4-8.4-4.1c-2.8-3.4-4.2-8.4-4.2-14.9c0-6.2,1.3-11.1,4-14.7C1069.3,1029.9,1072.1,1028.4,1075.6,1028.4z
				 M1075.7,1030.3c-2.3,0-4.1,1.1-5.4,3.3c-1.3,2.2-2,6.8-2,13.9c0,6.9,0.7,11.4,2,13.7s3.2,3.4,5.4,3.4c2.3,0,4.1-1.1,5.3-3.2
				c1.5-2.5,2.2-7.1,2.2-13.8c0-6.9-0.7-11.5-2.1-13.9C1079.8,1031.5,1078,1030.3,1075.7,1030.3z"/>
		</g>
		<g>
			<path d="M585.5,408.6h18.9v2.4h-3.2c-1.4,0-2.4,0.2-2.7,0.6c-0.4,0.4-0.6,1.3-0.6,2.7v36.5c0,1.5,0.2,2.4,0.5,2.7
				c0.4,0.5,1.2,0.7,2.4,0.7h3.6v2.4h-18.9v-2.4h3.6c1.3,0,2.1-0.2,2.4-0.7c0.4-0.4,0.6-1.4,0.6-2.8v-36.5c0-1.4-0.2-2.2-0.5-2.6
				c-0.5-0.5-1.5-0.7-2.9-0.7h-3.2V408.6z"/>
			<path d="M617,445.2V467c0,0.3,0.1,0.6,0.3,0.8c0.3,0.2,0.6,0.4,1.1,0.4h2.9v1.3h-10.8v-1.3h2.5c0.5,0,0.9-0.1,1.2-0.4
				c0.2-0.3,0.4-0.7,0.4-1.1v-16.4c0-0.3-0.1-0.6-0.3-0.9c-0.2-0.2-0.5-0.3-0.9-0.3h-3.3v-1.2c1.6-0.2,2.8-0.5,3.8-0.9
				c1-0.4,1.8-0.9,2.6-1.5H617z"/>
		</g>
		<g>
			<path d="M677.7,376.3h18.9v2.4h-3.2c-1.4,0-2.4,0.2-2.7,0.6c-0.4,0.4-0.6,1.3-0.6,2.7v36.5c0,1.5,0.2,2.4,0.5,2.7
				c0.4,0.5,1.2,0.7,2.4,0.7h3.6v2.4h-18.9V422h3.6c1.3,0,2.1-0.2,2.4-0.7c0.4-0.4,0.6-1.4,0.6-2.8V382c0-1.4-0.2-2.2-0.5-2.6
				c-0.5-0.5-1.5-0.7-2.9-0.7h-3.2V376.3z"/>
			<path d="M703.5,433.3c-0.5,0.7,1.8,1,6.8,1c0.7,0,1.3-0.2,1.6-0.7c0.3-0.5,0.7-1.7,1.1-3.8h1l-0.5,7.2h-13.4v-0.9l4.4-5.8
				c2.4-3.1,3.9-5,4.4-5.8c0.7-1.1,1.2-2.2,1.5-3.3c0.3-1.1,0.5-2,0.5-2.9c0-1.4-0.3-2.6-1-3.4c-0.7-0.8-1.6-1.2-2.8-1.2
				c-1.4,0-2.5,0.4-3.3,1.1s-1.3,1.6-1.3,2.4c0,0.3,0.1,0.5,0.2,0.7c0.1,0.2,0.4,0.3,0.8,0.4c1,0.3,1.5,1,1.5,2.1
				c0,0.6-0.2,1.1-0.5,1.5c-0.3,0.4-0.8,0.6-1.3,0.6c-0.6,0-1.1-0.3-1.6-1c-0.5-0.7-0.7-1.5-0.7-2.6c0-1.2,0.3-2.3,0.8-3.2
				c0.5-1,1.3-1.8,2.4-2.4s2.2-0.9,3.4-0.9c1.2,0,2.3,0.3,3.4,0.9c1,0.6,1.8,1.4,2.3,2.4c0.5,1,0.8,2.1,0.8,3.2
				c0,0.8-0.1,1.6-0.4,2.4c-0.3,0.8-0.6,1.6-1.1,2.3c-0.9,1.2-1.7,2.3-2.6,3.2l-3.9,3.9C704.7,431.8,704,432.6,703.5,433.3z"/>
		</g>
		<g>
			<path d="M804.5,376.3h18.9v2.4h-3.2c-1.4,0-2.4,0.2-2.7,0.6c-0.4,0.4-0.6,1.3-0.6,2.7v36.5c0,1.5,0.2,2.4,0.5,2.7
				c0.4,0.5,1.2,0.7,2.4,0.7h3.6v2.4h-18.9V422h3.6c1.3,0,2.1-0.2,2.4-0.7c0.4-0.4,0.6-1.4,0.6-2.8V382c0-1.4-0.2-2.2-0.5-2.6
				c-0.5-0.5-1.5-0.7-2.9-0.7h-3.2V376.3z"/>
			<path d="M836.3,424.2c1.4,0.4,2.5,1.1,3.3,2c1,1.2,1.5,2.7,1.5,4.4c0,2-0.6,3.6-1.8,4.8c-1.4,1.4-3.2,2.1-5.4,2.1
				c-1.3,0-2.5-0.3-3.5-0.8c-1-0.5-1.7-1.2-2.2-2.1s-0.7-1.9-0.7-2.9c0-0.9,0.2-1.6,0.6-2.1s0.8-0.8,1.4-0.8c0.5,0,0.9,0.2,1.2,0.6
				c0.3,0.4,0.5,0.9,0.5,1.6c0,0.4-0.1,0.8-0.2,1.1c-0.2,0.3-0.4,0.6-0.8,0.8c-0.4,0.3-0.6,0.5-0.6,0.8c0,0.3,0.2,0.7,0.5,1.2
				s0.8,0.8,1.3,1c0.6,0.3,1.3,0.4,2.3,0.4c1.6,0,2.7-0.5,3.5-1.4c0.8-0.9,1.1-2.3,1.1-4.3c0-2.1-0.3-3.6-1-4.4
				c-0.6-0.9-1.6-1.3-2.9-1.3c-0.3,0-0.8,0-1.3,0.1c-0.4,0.1-0.7,0.1-0.9,0.1c-0.3,0-0.5-0.1-0.7-0.2c-0.2-0.1-0.2-0.3-0.2-0.5
				c0-0.2,0.1-0.4,0.2-0.6c0.2-0.1,0.4-0.2,0.8-0.2l0.8,0l0.7,0c1.3,0,2.2-0.4,2.9-1.1c0.6-0.8,1-1.9,1-3.5c0-1.9-0.3-3.3-0.9-4.1
				s-1.5-1.2-2.7-1.2c-1.1,0-2,0.2-2.7,0.7s-1,0.9-1,1.3c0,0.3,0.2,0.6,0.6,1c0.5,0.6,0.8,1.2,0.8,1.8c0,0.5-0.2,0.9-0.5,1.2
				c-0.3,0.3-0.7,0.5-1.2,0.5c-0.5,0-0.9-0.2-1.2-0.7s-0.5-1.1-0.5-1.8c0-1.2,0.4-2.3,1.1-3.3c1.1-1.3,2.6-2,4.6-2
				c1.9,0,3.4,0.6,4.5,1.8s1.7,2.6,1.7,4.4c0,1.2-0.3,2.3-0.9,3.2C838.8,422.7,837.8,423.5,836.3,424.2z"/>
		</g>
		<g>
			<path d="M930.8,376.3h18.9v2.4h-3.2c-1.4,0-2.4,0.2-2.7,0.6c-0.4,0.4-0.6,1.3-0.6,2.7v36.5c0,1.5,0.2,2.4,0.5,2.7
				c0.4,0.5,1.2,0.7,2.4,0.7h3.6v2.4h-18.9V422h3.6c1.3,0,2.1-0.2,2.4-0.7c0.4-0.4,0.6-1.4,0.6-2.8V382c0-1.4-0.2-2.2-0.5-2.6
				c-0.5-0.5-1.5-0.7-2.9-0.7h-3.2V376.3z"/>
			<path d="M963.5,412.9h1v16.5h3.4v1.5h-3.4v3.7c0,0.3,0.1,0.6,0.3,0.8c0.3,0.3,0.7,0.4,1.1,0.4h1.3v1.3h-8.3v-1.3h1.5
				c0.5,0,0.9-0.1,1.1-0.4c0.2-0.3,0.4-0.6,0.4-1.1v-3.4h-8.5v-1.7L963.5,412.9z M961.9,417.6l-7.2,11.8h7.2V417.6z"/>
		</g>
		<g>
			<path d="M1035.1,398.9h18.9v2.4h-3.2c-1.4,0-2.4,0.2-2.7,0.6c-0.4,0.4-0.6,1.3-0.6,2.7v36.5c0,1.5,0.2,2.4,0.5,2.7
				c0.4,0.5,1.2,0.7,2.4,0.7h3.6v2.4h-18.9v-2.4h3.6c1.3,0,2.1-0.2,2.4-0.7c0.4-0.4,0.6-1.4,0.6-2.8v-36.5c0-1.4-0.2-2.2-0.5-2.6
				c-0.5-0.5-1.5-0.7-2.9-0.7h-3.2V398.9z"/>
			<path d="M1060.3,435c2.5,0.7,4.6,1,6.2,1c0.7,0,1.5-0.1,2.1-0.3s1.2-0.4,1.5-0.6c0.2-0.1,0.3-0.2,0.3-0.2c0.1,0,0.2,0.1,0.2,0.3
				c0,0.4-0.2,0.9-0.7,1.6c-0.5,0.7-1.1,1.2-1.8,1.6c-0.8,0.4-1.7,0.6-2.7,0.6c-1.2,0-2.6-0.2-4.2-0.6l-0.5,6.7
				c0.8-0.4,1.5-0.8,2.2-1c0.7-0.2,1.3-0.3,2-0.3c2,0,3.6,0.8,4.9,2.3c1.3,1.5,2,3.4,2,5.6c0,2.5-0.7,4.5-2.1,6.1
				c-1.4,1.6-3.3,2.4-5.5,2.4c-1.7,0-3.1-0.6-4.2-1.7c-1.1-1.1-1.6-2.5-1.6-4.1c0-1,0.2-1.7,0.5-2.2c0.3-0.5,0.8-0.8,1.3-0.8
				c0.5,0,1,0.2,1.3,0.6c0.3,0.4,0.5,1,0.5,1.6c0,0.5-0.1,0.9-0.2,1.2c-0.2,0.3-0.5,0.5-0.9,0.7c-0.4,0.2-0.7,0.4-0.7,0.7
				c0,0.4,0.1,0.8,0.4,1.2s0.8,0.8,1.4,1.1c0.6,0.3,1.3,0.4,2.1,0.4c1.5,0,2.7-0.6,3.5-1.7c0.8-1.1,1.2-2.9,1.2-5.4
				c0-2.3-0.4-3.9-1.3-5c-0.8-1-1.9-1.6-3.3-1.6c-0.6,0-1.2,0.1-1.8,0.4c-0.6,0.3-1.2,0.6-1.8,1.2c-0.1,0.8-0.2,1.4-0.4,1.6
				c-0.2,0.3-0.4,0.4-0.7,0.4c-0.2,0-0.4-0.1-0.5-0.2c-0.1-0.2-0.2-0.4-0.2-0.7c0-0.5,0.2-1,0.6-1.5c0.1-0.2,0.2-0.3,0.3-0.4
				l0.3-5.1C1060.2,438.9,1060.3,437,1060.3,435z"/>
		</g>
		<g>
			<path d="M1199.7,1120h19.6c3,0,5.4,1,7.2,2.9c1.7,1.9,2.6,4.3,2.6,7.2c0,2.5-0.7,4.6-2.1,6.4c-1.4,1.7-3.5,3.1-6.2,4.1
				c3.7,0.8,6.3,2.2,7.8,4s2.3,4.2,2.3,7.1c0,2.5-0.6,4.6-1.7,6.4c-0.8,1.3-2.2,2.4-4.1,3.4s-4.3,1.5-6.9,1.5h-18.5v-2.7h3
				c0.5,0,0.9-0.2,1.2-0.6c0.3-0.6,0.5-1.2,0.5-2v-33.2c0-0.5-0.2-0.9-0.5-1.2s-0.9-0.5-1.6-0.5h-2.5V1120z M1211.3,1139.5h3.6
				c2.5,0,4.3-0.7,5.4-2.1c1.1-1.4,1.6-3.7,1.6-6.9c0-2.8-0.5-4.8-1.5-5.9c-1-1.2-3-1.8-5.9-1.8c-1.4,0-2.3,0.2-2.6,0.5
				s-0.6,0.9-0.6,1.8V1139.5z M1211.3,1142.2v15.6c0,0.8,0.1,1.4,0.4,1.9s0.6,0.6,1.1,0.6h4.2c2.1,0,3.7-0.7,4.8-2.2
				s1.8-3.7,1.8-6.6c0-3-0.6-5.3-1.9-6.9c-1.3-1.6-3.1-2.4-5.5-2.4H1211.3z"/>
		</g>
		<g>
			<g>
				<line class="st32" x1="1200.9" y1="1110.1" x2="1226" y2="1110.1"/>
				<g>
					<path d="M1229.6,1110.1c-1.7,0.6-3.8,1.7-5.1,2.9l1-2.9l-1-2.9C1225.8,1108.4,1227.9,1109.5,1229.6,1110.1z"/>
				</g>
			</g>
		</g>
		<g>
			<path d="M1168.6,1010.8l9-0.5v31.6c0,1.6,0.1,2.7,0.2,3.3s0.4,1,0.7,1.2s1,0.4,1.9,0.4v2.3l-7.5,0.3l-0.5-4.7
				c-1.1,2-2.2,3.3-3.1,4c-0.9,0.7-2.1,1-3.5,1c-2.5,0-4.5-1.1-6.1-3.3c-1.6-2.2-2.4-5.2-2.4-9c0-4.2,0.8-7.5,2.5-10
				c1.7-2.5,3.7-3.7,6.2-3.7c1.3,0,2.5,0.4,3.5,1.2s2,2,2.8,3.7v-11c0-1.3-0.1-2.2-0.3-2.8s-0.4-1-0.7-1.2c-0.3-0.2-0.9-0.3-1.9-0.3
				h-1.1V1010.8z M1167.9,1026.9c-1.5,0-2.6,0.9-3.4,2.6c-0.6,1.4-0.9,3.7-0.9,6.8c0,2.6,0.2,4.5,0.5,5.8c0.3,1.3,0.8,2.2,1.4,2.9
				s1.3,0.9,2.1,0.9c1.3,0,2.4-0.7,3.2-2.2c1.1-2,1.6-4.5,1.6-7.5c0-2.8-0.5-5.1-1.4-6.8C1170.2,1027.7,1169.2,1026.9,1167.9,1026.9
				z"/>
			<path d="M1193.9,1010.9l-8.8,38.2h-3.7l8.8-38.2H1193.9z"/>
		</g>
		<g>
			<g>
				<line class="st32" x1="1158.3" y1="1002" x2="1192.4" y2="1002"/>
				<g>
					<path d="M1196.1,1002c-1.7,0.6-3.8,1.7-5.1,2.9l1-2.9l-1-2.9C1192.2,1000.3,1194.4,1001.4,1196.1,1002z"/>
				</g>
			</g>
		</g>
		<path d="M1034,1054.3l-2.2-6.6c18.7-6.4,14.5-28.2,14.3-29.1l6.8-1.4C1054.9,1027.1,1053.6,1047.7,1034,1054.3z"/>
		<g>
			<polygon points="1170.2,1130.7 950.4,1010.1 954.8,1004 1174.6,1122.8 			"/>
			<g>
				<polygon points="1162.3,1136.6 1189.3,1136.3 1175.6,1113.1 				"/>
			</g>
		</g>
		<g>
			<path d="M1130.8,1033.7l-171.8-20c-2.5-0.3-4.2-2.5-4-5l0,0c0.3-2.5,2.5-4.2,5-4l171.8,20L1130.8,1033.7z"/>
			<g>
				<polygon points="1125.6,1039 1150.3,1028.3 1128.7,1012.2 				"/>
			</g>
		</g>
		<g>
			<g>
				<path d="M569.7,998.9c-1.4,29.4-1.6,59.5-1.9,88.6c-0.4,46.9-0.8,95.4-5.9,142.4c-5.5,50.5-4.4,91.4,3.5,128.6l8.8-1.8
					c-7.7-36.3-8.8-76.3-3.4-125.8c5.2-47.5,5.6-96.2,6-143.3c0.2-29,0.5-59,1.9-88.2c1.2-26.3,2.7-51.9,4.5-77.1h-9
					C572.4,947.2,571,972.8,569.7,998.9z"/>
				<path d="M683.8,1302.2l-8.8-2.2c6.8-27.3,4.2-51.9,1.6-77.9c-1-10.2-2.1-20.7-2.7-31.6c-0.7-13.3-1.5-27-2.3-40.4
					c-4.2-69.3-8.6-141,3.4-208.2l8.9,1.6c-11.8,66.1-7.5,137.2-3.3,206c0.8,13.3,1.7,27.1,2.3,40.5c0.6,10.7,1.6,21.1,2.7,31.2
					C688.3,1248,690.9,1273.3,683.8,1302.2z"/>
				<path d="M821.6,1266c-5.8-58.9-5.2-117.9-4.8-174.9c0.1-16.3,0.3-33.1,0.3-49.8v-77.9h9v77.9c0,16.7-0.1,33.6-0.3,49.9
					c-0.5,59.4-1,115.6,4.7,174L821.6,1266z"/>
				<path d="M927.2,1266c-10.7-129.6-3.7-261.2-3.6-262.5l9,0.5c-0.1,1.3-7.1,132.3,3.6,261.3L927.2,1266z"/>
				<path d="M1011.9,1277.9l-8.9-1.7c18.6-94.4,0.1-270.2-0.1-272l9-1C1012.1,1005,1030.8,1182.1,1011.9,1277.9z"/>
			</g>
			<path d="M1012.5,1017.2c-82.4,0-163.9-35.5-225.1-62.2c-36.4-15.9-89.4-12.7-128-10.4l-3.7,0.2c-3.7,0.3-93.8,7-143.3-36.2
				c-19.1-16.7-29.5-38.6-31-65.2c-0.8-4.4-7.3-47.7,21.9-86.1c24.3-32.1,66.1-50.9,124-56c77.3-10.3,140.3-12.3,197.9-6.3
				c2.4-2.2,7.7-8.8,10.4-12.2c2.9-3.6,4.5-5.5,5.4-6.4c7.3-7.1,14.9-13.3,22.4-18.3c17.3-11.6,34.5-17.6,50.9-17.9
				c23.6-0.4,48.4,12.6,68.1,35.5c9.5,11,15.7,21.2,19,31.2c1.9,5.7,3,12.3,3,18.9c0,1.4-0.5,4.2-1.6,10.9c-0.4,2.3-0.9,5.1-1.2,6.9
				l60.2,57.2c8.8,8.4,18.1,16.5,27.9,25.2c22,19.4,44.8,39.5,62.1,62.1c9.5,12.4,24.5,37,18.9,62.2c-8.6,39-59.5,51.9-76.2,56.2
				c-15.9,4-33,6.9-53.8,9.2C1031.4,1016.7,1021.9,1017.2,1012.5,1017.2z M708.9,933.6c28.6,0,58.3,2.7,82.1,13.1
				c87.2,38.1,166.2,68.8,248.8,60.1c20.4-2.2,37.1-5,52.6-8.9c41.8-10.6,64.6-26.8,69.6-49.4c4.8-21.6-8.8-43.6-17.3-54.8
				c-16.7-22-39.2-41.7-60.9-60.8c-9.4-8.3-19.2-16.9-28.1-25.4l-61.8-58.7c-2-1.9-1.9-2.5,0.1-13.5c0.6-3.3,1.5-8.2,1.5-9.2
				c-0.1-5.7-0.9-11.3-2.6-16.1c-2.9-8.7-8.7-18.2-17.3-28.1c-8.4-9.8-31-32.4-60.3-32.4c-0.3,0-0.6,0-0.9,0
				c-14.7,0.2-30.2,5.7-46.1,16.3c-7.1,4.7-14.2,10.5-21.1,17.3c-0.6,0.5-2.8,3.3-4.7,5.6c-11.4,14.1-13.5,16-16.8,15.6
				c-57.4-6.1-120.1-4.2-197.5,6.2l-0.2,0c-55.3,4.8-94.9,22.5-117.6,52.4c-27.7,36.4-20.3,79-20.2,79.4l0.1,0.6
				c1.3,24.2,10.7,44.1,28,59.2c46.7,40.8,135.9,34.1,136.7,34l3.8-0.2C674,934.6,691.2,933.6,708.9,933.6z"/>
			<path d="M598.4,758.9c11.8-94.9,19.2-194.9-6.1-282.9l-8.7,2.5c24.9,86.4,17.5,185.3,5.8,279.3c-2.6,20.7-4.9,41.5-7.1,62.6
				l9,0.3C593.6,799.9,595.9,779.3,598.4,758.9z"/>
			<g>
				<rect x="682.1" y="443.6" width="9" height="392.1"/>
			</g>
			<path d="M820.7,870.7l-9-0.4c0.9-20.6-2-39.8-5.1-60.1c-1.4-9.1-2.8-18.5-3.8-28.1c-8.8-79.5-7-158.2,5-221.5
				c6.4-34,12.4-74.4,7.9-116.6l9-0.9c4.6,43.4-1.5,84.6-8,119.2c-11.8,62.5-13.5,140.2-4.9,218.9c1,9.3,2.4,18.7,3.8,27.7
				C818.5,828.7,821.6,849.3,820.7,870.7z"/>
			<path d="M940,894.2l-9-0.5c10.7-180.8,3.4-453.3,3.3-456l9-0.2C943.4,440.2,950.8,713,940,894.2z"/>
			<path d="M1003.2,935.7c-2.4-39.6,12.6-167.4,13.3-172.8l0-0.3c24.9-131.6,28.8-294.7,28.8-296.3l9,0.2
				c0,1.6-3.9,165.3-28.9,297.6c-0.6,5.2-15.5,132.8-13.2,171L1003.2,935.7z"/>
			<g>
				<path d="M590.7,830.9l-8.9-1.2c0.4-3,0.7-4.5,0.7-4.5l8.9,1.4C591.4,826.6,591.1,828.1,590.7,830.9z"/>
				<path d="M583.9,903.6l-9-0.5c0.2-3.1,0.4-6.2,0.6-9.2l9,0.6C584.3,897.5,584.1,900.5,583.9,903.6z M585.1,885.4l-9-0.7
					c0.2-3.2,0.5-6.2,0.7-9.2l9,0.7C585.6,879.2,585.3,882.2,585.1,885.4z M586.6,867.2l-9-0.8c0.3-3.2,0.6-6.3,0.9-9.2l9,0.9
					C587.2,861,586.9,864,586.6,867.2z M588.5,849l-9-1c0.4-3.4,0.7-6.5,1.1-9.2l9,1.1C589.2,842.6,588.9,845.7,588.5,849z"/>
				<polygon points="583.2,917.2 574.2,916.8 574.4,912.3 583.4,912.7 				"/>
			</g>
			<g>
				<path d="M681.7,842.5c0-2.8-0.1-4.4-0.1-4.4l9-0.3c0,0,0.1,1.6,0.1,4.6L681.7,842.5z"/>
				<path d="M686.2,926.3l-9-1c0.3-2.8,0.6-5.6,0.8-8.3l9,0.9C686.8,920.7,686.5,923.5,686.2,926.3z M687.8,909.6l-9-0.8
					c0.2-2.8,0.5-5.6,0.7-8.3l9,0.7C688.3,904,688.1,906.7,687.8,909.6z M689.1,892.9l-9-0.6c0.2-2.9,0.4-5.6,0.5-8.3l9,0.5
					C689.5,887.2,689.3,890,689.1,892.9z M690.1,876.1l-9-0.4c0.1-2.9,0.2-5.7,0.3-8.3l9,0.3C690.3,870.3,690.2,873.1,690.1,876.1z
					 M690.6,859.3l-9-0.2c0.1-3.1,0.1-5.8,0.1-8.3l9,0.1C690.7,853.4,690.7,856.2,690.6,859.3z"/>
				<path d="M684.7,939.2l-9-1.1c0.2-1.5,0.4-3,0.5-4.5l9,1.1C685.1,936.2,684.9,937.7,684.7,939.2z"/>
			</g>
			<g>
				<path d="M811.5,877.2c-0.1-2.9-0.1-4.5-0.1-4.5l9-0.2c0,0,0,1.6,0.1,4.5L811.5,877.2z"/>
				<path d="M815.5,948.5c-0.2-3-0.5-6-0.7-8.9l9-0.7c0.2,2.9,0.4,5.8,0.7,8.9L815.5,948.5z M814.2,930.7c-0.2-3.1-0.4-6-0.6-8.9
					l9-0.6c0.2,2.9,0.4,5.8,0.6,8.9L814.2,930.7z M813.1,912.9c-0.2-3.1-0.3-6.1-0.5-8.9l9-0.5c0.1,2.8,0.3,5.8,0.5,8.9L813.1,912.9
					z M812.2,895c-0.1-3.3-0.3-6.3-0.4-8.9l9-0.4c0.1,2.6,0.2,5.6,0.4,8.9L812.2,895z"/>
				<polygon points="816.6,961.9 816.2,957.4 825.2,956.6 825.6,961.1 				"/>
			</g>
			<g>
				<path d="M939.9,901.1l-9-0.4c0.1-2.9,0.2-4.5,0.2-4.5l9,0.3C940,896.5,940,898.1,939.9,901.1z"/>
				<path d="M934.3,987.1l-9-0.8c0.2-2.9,0.5-5.7,0.7-8.6l9,0.7C934.8,981.4,934.6,984.2,934.3,987.1z M935.7,969.9l-9-0.7
					c0.2-2.9,0.4-5.8,0.6-8.6l9,0.6C936.2,964.2,936,967,935.7,969.9z M937,952.7l-9-0.6c0.2-2.9,0.4-5.8,0.6-8.6l9,0.6
					C937.4,946.9,937.2,949.8,937,952.7z M938.1,935.5l-9-0.5c0.2-3,0.3-5.9,0.5-8.6l9,0.5C938.4,929.6,938.3,932.5,938.1,935.5z
					 M939,918.3l-9-0.5c0.2-3.2,0.3-6,0.4-8.6l9,0.4C939.4,912.2,939.2,915.1,939,918.3z"/>
				<polygon points="933.2,1000.2 924.2,999.4 924.6,994.9 933.6,995.7 				"/>
			</g>
			<g>
				<path d="M1011.8,941.9l-9-0.2c0.1-2.9,0.1-4.5,0.1-4.5l9,0.3C1012,937.4,1011.9,939,1011.8,941.9z"/>
				<path d="M1002.6,989.7c0-2.7-0.1-5.4-0.1-8l9-0.1c0,2.6,0.1,5.2,0.1,7.9L1002.6,989.7z M1002.5,973.7l0-3.6l0-4.4l9,0l0,4.4
					l0,3.5L1002.5,973.7z M1011.6,957.8l-9-0.1c0-2.9,0.1-5.6,0.1-8l9,0.2C1011.6,952.2,1011.6,954.9,1011.6,957.8z"/>
				<path d="M1003,1002.2c0-1.5-0.1-3-0.1-4.5l9-0.2c0,1.5,0.1,3,0.1,4.5L1003,1002.2z"/>
			</g>
			<polygon points="601.2,547.1 622.6,571.6 586.8,576.3 			"/>
			<polygon points="571.6,1111.5 589.6,1138.6 553.6,1138.6 			"/>
			<polygon points="673.2,1103.4 693.5,1128.8 657.6,1132 			"/>
			<polygon points="820.7,1125.1 802.4,1098.2 838.5,1097.9 			"/>
			<polygon points="1015.2,1144.2 996.9,1117.3 1033,1117 			"/>
			<polygon points="925.4,1095.7 943.1,1123 907,1122.5 			"/>
			<polygon points="686.6,547 704.6,574.1 668.6,574.1 			"/>
			<polygon points="940.1,533.5 959.1,559.8 923.1,561.2 			"/>
			<polygon points="807.4,590.1 793.9,560.5 829.5,566.3 			"/>
			<polygon points="1043.7,580.6 1027.8,552.3 1063.7,555 			"/>
		</g>
	</g>
</g>
</svg>
