<?xml version="1.0" encoding="utf-8"?>
<!-- Generator: Adobe Illustrator 21.0.0, SVG Export Plug-In . SVG Version: 6.00 Build 0)  -->
<svg version="1.1" id="Layer_1" xmlns="http://www.w3.org/2000/svg" xmlns:xlink="http://www.w3.org/1999/xlink" x="0px" y="0px"
	 viewBox="0 0 1644 1506" style="enable-background:new 0 0 1644 1506;" xml:space="preserve">
<style type="text/css">
	.st0{display:none;}
	.st1{display:inline;}
	.st2{fill:none;stroke:#000000;stroke-width:7;stroke-miterlimit:10;}
	.st3{fill:none;stroke:#000000;stroke-width:7;stroke-miterlimit:10;stroke-dasharray:11.9387,11.9387;}
	.st4{fill:#D6D7D8;}
	.st5{fill:#336699;}
	.st6{fill:#666666;}
	.st7{fill:#999999;}
	.st8{fill:none;stroke:#336699;stroke-width:7;stroke-miterlimit:10;}
	.st9{fill:none;stroke:#000000;stroke-width:7;stroke-miterlimit:10;stroke-dasharray:12;}
	.st10{fill:none;stroke:#D6D7D8;stroke-miterlimit:10;}
	.st11{fill:#FFFFFF;}
	.st12{fill:#FE8081;stroke:#000000;stroke-width:2;stroke-miterlimit:10;}
	.st13{fill:none;stroke:#000000;stroke-width:3;stroke-miterlimit:10;}
	.st14{fill:#FF0080;stroke:#000000;stroke-miterlimit:10;}
	.st15{opacity:0.22;}
	.st16{fill:none;stroke:#000000;stroke-width:5;stroke-miterlimit:10;}
	.st17{fill:#8C8C8C;stroke:#000000;stroke-width:1.5;stroke-miterlimit:10;}
	.st18{fill:none;stroke:#51B6F1;stroke-width:5;stroke-miterlimit:10;}
	.st19{fill:#51B6F1;}
	.st20{fill:none;stroke:#C9322A;stroke-width:5;stroke-miterlimit:10;}
	.st21{fill:#C9322A;}
	.st22{fill:none;stroke:#030303;stroke-width:3;stroke-miterlimit:10;}
	.st23{fill:none;stroke:#56B971;stroke-width:5;stroke-miterlimit:10;}
	.st24{fill:#56B971;}
	.st25{fill:none;stroke:#000000;stroke-width:0.75;stroke-miterlimit:10;}
	.st26{fill:#041C93;}
	.st27{fill:#4395E6;}
	.st28{fill:#C25829;}
	.st29{fill:#D64370;}
	.st30{fill:#C10E0E;}
	.st31{fill:#FDFDFF;}
	.st32{fill:none;stroke:#000000;stroke-width:1.5;stroke-miterlimit:10;}
	.st33{fill:#EFA973;}
	.st34{fill:#0C0D0E;}
	.st35{fill:url(#SVGID_1_);}
	.st36{fill:#020202;}
	.st37{fill:#052C50;}
	.st38{fill:url(#SVGID_2_);}
	.st39{fill:url(#SVGID_3_);}
	.st40{fill:url(#SVGID_4_);}
	.st41{fill:url(#SVGID_5_);}
	.st42{fill:url(#SVGID_6_);}
	.st43{fill:url(#SVGID_7_);}
	.st44{fill:#9AFFFF;}
	.st45{fill:#CCFFFF;}
	.st46{fill:#A4D7FF;}
	.st47{fill:#67CDCD;}
	.st48{fill:#9ACDFF;}
	.st49{fill:#C80000;}
	.st50{fill:none;stroke:#000000;stroke-width:2;stroke-miterlimit:10;}
	.st51{fill:none;}
	.st52{opacity:0.5;fill:url(#SVGID_8_);}
	.st53{opacity:0.37;fill:url(#SVGID_9_);}
	.st54{opacity:0.7;fill:url(#SVGID_10_);}
	.st55{opacity:0.7;fill:url(#SVGID_11_);}
	.st56{fill:#AAD5FF;}
	.st57{opacity:0.25;fill:#AAC0D5;}
	.st58{opacity:0.7;fill:url(#SVGID_12_);}
	.st59{fill:#231F20;}
	.st60{opacity:0.94;}
	.st61{clip-path:url(#SVGID_14_);}
	.st62{fill:#EC1C24;}
	.st63{opacity:0.9;}
	.st64{fill:url(#SVGID_15_);}
	.st65{clip-path:url(#SVGID_17_);}
	.st66{clip-path:url(#SVGID_19_);}
	.st67{clip-path:url(#SVGID_23_);}
	.st68{fill:url(#SVGID_24_);}
	.st69{fill:url(#SVGID_25_);}
	.st70{fill:url(#SVGID_26_);}
	.st71{fill:url(#SVGID_27_);}
	.st72{fill:url(#SVGID_28_);}
	.st73{fill:url(#SVGID_29_);}
	.st74{fill:url(#SVGID_30_);}
	.st75{fill:url(#SVGID_31_);}
	.st76{fill:url(#SVGID_32_);}
	.st77{fill:url(#SVGID_33_);}
	.st78{fill:url(#SVGID_34_);}
	.st79{fill:url(#SVGID_35_);}
	.st80{fill:url(#SVGID_36_);}
	.st81{fill:url(#SVGID_37_);}
	.st82{fill:url(#SVGID_38_);}
	.st83{fill:url(#SVGID_39_);}
	.st84{fill:url(#SVGID_40_);}
	.st85{fill:url(#SVGID_41_);}
	.st86{fill:url(#SVGID_42_);}
	.st87{fill:url(#SVGID_43_);}
	.st88{fill:url(#SVGID_44_);}
	.st89{fill:url(#SVGID_45_);}
	.st90{fill:url(#SVGID_46_);}
	.st91{fill:url(#SVGID_47_);}
</style>
<rect y="99" width="1644" height="126"/>
<g>
	<g>
		<path class="st11" d="M79.2,137.8l-2.3,18.4h20.2l-0.9,7.1H76l-3,23.6h-8.9l7-56.2h32.7l-0.9,7.1H79.2z"/>
		<path class="st11" d="M123.9,147l-4.8,39.8h-8.3l4.8-39.8H123.9z M126.4,135c0,0.8-0.2,1.5-0.5,2.1c-0.3,0.7-0.7,1.3-1.3,1.8
			c-0.5,0.5-1.1,0.9-1.8,1.2s-1.3,0.4-2,0.4s-1.4-0.1-2-0.4c-0.6-0.3-1.2-0.7-1.7-1.2c-0.5-0.5-0.9-1.1-1.2-1.8
			c-0.3-0.7-0.5-1.4-0.5-2.1c0-0.8,0.2-1.5,0.5-2.2c0.3-0.7,0.7-1.3,1.2-1.8c0.5-0.5,1.1-0.9,1.7-1.2c0.7-0.3,1.3-0.4,2-0.4
			c0.7,0,1.4,0.1,2.1,0.4c0.7,0.3,1.3,0.7,1.8,1.2c0.5,0.5,0.9,1.1,1.2,1.8C126.3,133.5,126.4,134.2,126.4,135z"/>
		<path class="st11" d="M173.1,148.4l-0.4,2.8c-0.2,1.1-0.7,1.9-1.8,2.2l-4.5,1c0.2,0.6,0.3,1.2,0.4,1.9c0.1,0.6,0.1,1.3,0.1,2
			c0,1.2-0.1,2.4-0.4,3.4c-0.3,1-0.6,1.9-1.1,2.8c-0.4,0.8-0.9,1.6-1.4,2.4c-0.5,0.8-0.9,1.5-1.3,2.3c-0.4,0.8-0.7,1.5-1,2.4
			c-0.3,0.8-0.4,1.7-0.4,2.7c0,1.1,0.2,2,0.7,2.9c0.5,0.9,1,1.8,1.6,2.8c0.6,1,1.1,2,1.6,3.1c0.5,1.1,0.7,2.4,0.7,3.8
			c0,1.9-0.5,3.7-1.4,5.5c-0.9,1.7-2.1,3.2-3.8,4.5c-1.6,1.3-3.6,2.3-6,3.1c-2.4,0.8-5,1.2-8,1.2c-2.4,0-4.6-0.2-6.5-0.7
			c-1.9-0.5-3.6-1.2-5-2.1c-1.4-0.9-2.4-1.9-3.2-3.2c-0.7-1.2-1.1-2.6-1.1-4.1c0-1.7,0.4-3.3,1.1-4.6c0.7-1.3,1.8-2.4,3-3.4
			c1.3-0.9,2.7-1.7,4.4-2.2c1.7-0.6,3.4-1,5.2-1.2s3.7-0.4,5.5-0.3c1.9,0,3.6,0.2,5.3,0.4c-0.2-0.4-0.3-0.9-0.4-1.4
			c-0.1-0.5-0.2-1-0.2-1.5c0-0.8,0.1-1.6,0.3-2.4s0.6-1.8,1.1-2.8c-1,0.7-2.1,1.2-3.4,1.6c-1.2,0.4-2.7,0.5-4.4,0.5
			c-1.5,0-3-0.2-4.3-0.7c-1.4-0.5-2.6-1.2-3.6-2.2c-1-1-1.8-2.2-2.4-3.7s-0.9-3.2-0.9-5.2c0-1.9,0.4-3.8,1.1-5.6
			c0.7-1.8,1.8-3.5,3.2-4.9c1.4-1.4,3.1-2.6,5.2-3.5c2.1-0.9,4.4-1.3,7.1-1.3c1.5,0,2.9,0.2,4.2,0.5s2.5,0.8,3.6,1.5H173.1z
			 M158.3,187.3c0-1-0.1-1.9-0.4-2.7c-3.3-0.5-6.1-0.8-8.5-0.7c-2.4,0.1-4.3,0.4-5.8,1c-1.5,0.5-2.6,1.3-3.3,2.1
			c-0.7,0.9-1.1,1.8-1.1,2.8c0,1.7,0.7,3,2.1,3.9c1.4,0.9,3.5,1.3,6.3,1.3c1.6,0,3.1-0.2,4.4-0.6c1.3-0.4,2.4-1,3.4-1.7
			c0.9-0.7,1.7-1.5,2.2-2.5C158.1,189.4,158.3,188.4,158.3,187.3z M151.3,168.5c1.3,0,2.4-0.3,3.4-0.9c1-0.6,1.8-1.3,2.5-2.3
			c0.7-0.9,1.2-2,1.5-3.2s0.5-2.4,0.6-3.6c0-2.1-0.5-3.7-1.6-4.8c-1.1-1.1-2.5-1.6-4.4-1.6c-1.3,0-2.4,0.3-3.4,0.8
			c-1,0.5-1.8,1.2-2.5,2.1s-1.2,1.9-1.5,3.1c-0.3,1.2-0.5,2.4-0.5,3.6c0,2.1,0.5,3.8,1.5,4.9C147.9,167.9,149.4,168.5,151.3,168.5z"
			/>
		<path class="st11" d="M218.1,147l-4.8,39.8h-4.2c-2,0-3.1-1-3.1-3l0.4-5.7c-2,3.1-4.3,5.4-6.9,7c-2.5,1.5-5.1,2.3-7.8,2.3
			c-1.7,0-3.2-0.3-4.5-1c-1.3-0.7-2.4-1.6-3.2-2.9c-0.8-1.3-1.4-2.9-1.7-4.7c-0.3-1.9-0.3-4,0-6.4l3-25.3h8.4l-3,25.3
			c-0.4,2.8-0.2,4.9,0.5,6.2c0.7,1.3,2,2,3.8,2c1.1,0,2.2-0.3,3.4-0.9s2.3-1.5,3.4-2.6c1.1-1.1,2.1-2.5,3.1-4.1
			c0.9-1.6,1.7-3.4,2.4-5.3l2.5-20.6H218.1z"/>
		<path class="st11" d="M240.9,157.3c1-2.1,2.1-3.9,3.3-5.4c1.2-1.5,2.4-2.7,3.7-3.5s2.6-1.4,4-1.5s2.8,0.1,4.2,0.7l-1.5,8
			c-3.3-1.3-6.3-0.9-8.8,1.3s-4.5,6.3-6,12.3l-2.1,17.8h-8.3l4.8-39.9h4.3c0.9,0,1.6,0.2,2.1,0.7s0.7,1.2,0.7,2.1L240.9,157.3z"/>
		<path class="st11" d="M294.5,179.4c-1.4,1.4-2.7,2.6-4,3.6c-1.3,1-2.7,1.8-4,2.5c-1.4,0.7-2.8,1.1-4.3,1.4
			c-1.5,0.3-3.1,0.5-4.9,0.5c-2.3,0-4.4-0.4-6.3-1.2s-3.5-1.9-4.8-3.3c-1.3-1.4-2.3-3.1-3.1-5.1c-0.7-2-1.1-4.3-1.1-6.8
			c0-2.1,0.2-4.1,0.7-6.1c0.4-2,1.1-3.9,2-5.8c0.9-1.8,1.9-3.5,3.1-5.1c1.2-1.5,2.6-2.9,4.2-4s3.3-2,5.2-2.6c1.9-0.6,3.9-1,6-1
			c2.1,0,3.9,0.3,5.4,0.9s2.8,1.3,3.8,2.3c1,0.9,1.8,1.9,2.3,3.1c0.5,1.1,0.7,2.2,0.7,3.3c0,1.7-0.4,3.3-1.1,4.8
			c-0.7,1.5-2,2.8-3.9,3.9c-1.9,1.2-4.4,2.2-7.7,3c-3.2,0.9-7.4,1.5-12.5,2.1c0,0.2,0,0.3,0,0.5s0,0.3,0,0.5c0,3.3,0.7,5.8,2.2,7.5
			c1.4,1.7,3.6,2.5,6.5,2.5c1.8,0,3.3-0.2,4.5-0.7c1.2-0.5,2.2-1,3.1-1.6s1.6-1.1,2.2-1.6c0.6-0.5,1.3-0.7,2-0.7
			c0.6,0,1.1,0.3,1.5,0.8L294.5,179.4z M282.7,152.4c-1.5,0-2.8,0.3-4.1,0.9c-1.2,0.6-2.4,1.4-3.3,2.5c-1,1.1-1.8,2.3-2.6,3.8
			c-0.7,1.5-1.3,3-1.7,4.8c3.6-0.5,6.5-1,8.7-1.6s3.9-1.2,5.1-1.9c1.2-0.7,2-1.4,2.4-2.2c0.4-0.8,0.6-1.6,0.6-2.4
			c0-0.4-0.1-0.9-0.3-1.3c-0.2-0.5-0.5-0.9-0.9-1.2c-0.4-0.4-0.9-0.7-1.6-0.9C284.4,152.5,283.6,152.4,282.7,152.4z"/>
		<path class="st11" d="M365.9,180.7l-0.8,6.1h-28.6l0.8-6.1H348l4.5-35.9c0.1-0.6,0.2-1.2,0.3-1.8s0.2-1.2,0.3-1.8l-9.1,7.7
			c-0.4,0.3-0.8,0.5-1.2,0.6c-0.4,0.1-0.8,0.1-1.1,0c-0.3-0.1-0.6-0.2-0.9-0.4c-0.3-0.2-0.4-0.4-0.5-0.6l-2.1-3.5l17.6-14.5h6.7
			l-6.2,50.1H365.9z"/>
		<path class="st11" d="M382.4,182c0-0.8,0.1-1.5,0.4-2.1c0.3-0.7,0.7-1.2,1.2-1.7s1.1-0.9,1.7-1.2c0.7-0.3,1.4-0.4,2.2-0.4
			c0.8,0,1.5,0.1,2.1,0.4c0.7,0.3,1.2,0.7,1.7,1.2s0.9,1.1,1.2,1.7c0.3,0.7,0.4,1.4,0.4,2.1c0,0.8-0.1,1.5-0.4,2.1
			c-0.3,0.7-0.7,1.2-1.2,1.7s-1.1,0.9-1.7,1.2s-1.4,0.4-2.1,0.4c-0.8,0-1.5-0.1-2.2-0.4s-1.2-0.7-1.7-1.2s-0.9-1.1-1.2-1.7
			C382.6,183.5,382.4,182.7,382.4,182z"/>
		<path class="st11" d="M450.9,130.6l-0.4,3.6c-0.1,1-0.4,1.9-0.7,2.6c-0.3,0.7-0.6,1.2-0.9,1.7l-26,45.5c-0.5,0.8-1.1,1.4-1.8,2
			c-0.7,0.5-1.7,0.8-2.9,0.8h-5.9l26.3-44.8c0.5-0.8,1-1.5,1.5-2.1c0.5-0.6,1-1.2,1.6-1.8H416c-0.5,0-0.9-0.2-1.2-0.6
			c-0.3-0.4-0.5-0.8-0.4-1.3l0.7-5.5H450.9z"/>
		<path class="st11" d="M460.2,182c0-0.8,0.1-1.5,0.4-2.1c0.3-0.7,0.7-1.2,1.2-1.7s1.1-0.9,1.7-1.2c0.7-0.3,1.4-0.4,2.2-0.4
			c0.8,0,1.5,0.1,2.1,0.4c0.7,0.3,1.2,0.7,1.7,1.2s0.9,1.1,1.2,1.7c0.3,0.7,0.4,1.4,0.4,2.1c0,0.8-0.1,1.5-0.4,2.1s-0.7,1.2-1.2,1.7
			s-1.1,0.9-1.7,1.2s-1.4,0.4-2.1,0.4c-0.8,0-1.5-0.1-2.2-0.4c-0.7-0.3-1.2-0.7-1.7-1.2s-0.9-1.1-1.2-1.7S460.2,182.7,460.2,182z
			 M463.4,153.5c0-0.8,0.1-1.5,0.4-2.1s0.7-1.2,1.2-1.7c0.5-0.5,1.1-0.9,1.7-1.2c0.7-0.3,1.4-0.4,2.2-0.4c0.8,0,1.5,0.1,2.1,0.4
			s1.2,0.7,1.7,1.2c0.5,0.5,0.9,1.1,1.2,1.7s0.4,1.4,0.4,2.1c0,0.8-0.1,1.5-0.4,2.1c-0.3,0.7-0.7,1.2-1.2,1.7
			c-0.5,0.5-1.1,0.9-1.7,1.2c-0.7,0.3-1.4,0.4-2.1,0.4c-0.8,0-1.5-0.1-2.2-0.4c-0.7-0.3-1.2-0.7-1.7-1.2c-0.5-0.5-0.9-1.1-1.2-1.7
			C463.6,155,463.4,154.3,463.4,153.5z"/>
		<path class="st11" d="M562.4,130.6l-7,56.2h-8.9l3.1-25.1H524l-3.2,25.1h-8.9l7-56.2h8.9l-3.1,24.7h25.7l3.1-24.7H562.4z"/>
		<path class="st11" d="M587.3,187.4c-2.2,0-4.2-0.4-6.1-1.1s-3.5-1.8-4.8-3.2c-1.4-1.4-2.4-3.2-3.2-5.2c-0.8-2.1-1.1-4.4-1.1-7
			c0-3.4,0.5-6.6,1.6-9.6s2.6-5.5,4.5-7.7c1.9-2.2,4.1-3.9,6.6-5.2c2.5-1.3,5.2-1.9,8.1-1.9c2.2,0,4.2,0.4,6.1,1.1
			c1.9,0.7,3.5,1.8,4.8,3.2s2.4,3.2,3.2,5.2c0.8,2.1,1.1,4.4,1.1,7c0,2.2-0.3,4.4-0.7,6.5c-0.5,2.1-1.2,4-2.1,5.8
			c-0.9,1.8-2,3.5-3.3,4.9c-1.3,1.5-2.7,2.8-4.2,3.8c-1.5,1.1-3.2,1.9-5,2.5C591,187.1,589.2,187.4,587.3,187.4z M588,180.8
			c1.8,0,3.4-0.5,4.8-1.5c1.4-1,2.7-2.3,3.7-3.9s1.8-3.5,2.3-5.7c0.6-2.1,0.8-4.4,0.8-6.7c0-3.4-0.6-6-1.9-7.6
			c-1.3-1.7-3.2-2.5-5.7-2.5c-1.8,0-3.4,0.5-4.8,1.4s-2.6,2.3-3.6,3.9c-1,1.6-1.8,3.5-2.3,5.7c-0.6,2.2-0.8,4.4-0.8,6.8
			C580.5,177.5,583,180.8,588,180.8z"/>
		<path class="st11" d="M619.5,186.8l7.1-57.7h8.4l-7.1,57.7H619.5z"/>
		<path class="st11" d="M644.2,186.8l7.1-57.7h8.4l-7.1,57.7H644.2z"/>
		<path class="st11" d="M684.1,187.4c-2.2,0-4.2-0.4-6.1-1.1s-3.5-1.8-4.8-3.2c-1.4-1.4-2.4-3.2-3.2-5.2c-0.8-2.1-1.1-4.4-1.1-7
			c0-3.4,0.5-6.6,1.6-9.6s2.6-5.5,4.5-7.7c1.9-2.2,4.1-3.9,6.6-5.2c2.5-1.3,5.2-1.9,8.1-1.9c2.2,0,4.2,0.4,6.1,1.1
			c1.9,0.7,3.5,1.8,4.8,3.2s2.4,3.2,3.2,5.2c0.8,2.1,1.1,4.4,1.1,7c0,2.2-0.3,4.4-0.7,6.5c-0.5,2.1-1.2,4-2.1,5.8
			c-0.9,1.8-2,3.5-3.3,4.9c-1.3,1.5-2.7,2.8-4.2,3.8c-1.5,1.1-3.2,1.9-5,2.5C687.9,187.1,686,187.4,684.1,187.4z M684.9,180.8
			c1.8,0,3.4-0.5,4.8-1.5c1.4-1,2.7-2.3,3.7-3.9s1.8-3.5,2.3-5.7c0.6-2.1,0.8-4.4,0.8-6.7c0-3.4-0.6-6-1.9-7.6
			c-1.3-1.7-3.2-2.5-5.7-2.5c-1.8,0-3.4,0.5-4.8,1.4s-2.6,2.3-3.6,3.9c-1,1.6-1.8,3.5-2.3,5.7c-0.6,2.2-0.8,4.4-0.8,6.8
			C677.3,177.5,679.8,180.8,684.9,180.8z"/>
		<path class="st11" d="M772.3,147l-16.7,39.8h-6.5c-0.7,0-1.2-0.5-1.3-1.5l-4.3-24.8c-0.1-0.5-0.1-0.9-0.2-1.4s-0.1-0.9-0.2-1.4
			c-0.2,0.5-0.3,0.9-0.5,1.4c-0.2,0.5-0.3,0.9-0.6,1.4l-10.5,24.7c-0.4,1-1,1.5-1.9,1.5h-6.2l-6.9-39.8h6.4c0.6,0,1.1,0.1,1.5,0.4
			c0.4,0.3,0.6,0.7,0.7,1.2l3,23.2c0.1,1,0.1,2,0.2,3s0.1,2,0.1,2.9c0.4-1,0.7-2,1.1-2.9s0.8-2,1.2-3l9.8-23.3
			c0.2-0.5,0.5-0.9,0.9-1.2c0.4-0.3,0.9-0.4,1.4-0.4h3.5c0.6,0,1.1,0.1,1.4,0.4c0.4,0.3,0.6,0.7,0.6,1.2l3.9,23.3
			c0.2,1,0.3,2.1,0.4,3c0.1,1,0.2,2,0.3,3c0.3-1,0.6-1.9,0.9-2.9c0.3-1,0.6-2,1-3.1l8.9-23.2c0.2-0.5,0.5-0.9,0.9-1.2
			s0.9-0.5,1.4-0.5H772.3z"/>
		<path class="st11" d="M802.4,186.8l4.8-39.9h4.3c0.9,0,1.6,0.2,2.1,0.7c0.5,0.5,0.7,1.2,0.7,2.1l-0.4,5.6c1.9-3,3.9-5.2,6.2-6.7
			c2.2-1.5,4.6-2.2,7-2.2c2.6,0,4.5,0.9,5.9,2.6s2.1,4.2,2.2,7.5c1.9-3.5,4.1-6,6.5-7.6c2.4-1.6,5-2.4,7.7-2.4
			c3.4,0,5.9,1.3,7.4,3.9c1.6,2.6,2,6.3,1.5,11.2l-3,25.3h-8.3l3-25.3c0.2-1.4,0.3-2.6,0.2-3.6c0-1-0.2-1.9-0.5-2.5
			c-0.3-0.7-0.7-1.2-1.2-1.5c-0.5-0.3-1.2-0.5-2.1-0.5c-1.1,0-2.1,0.3-3.1,0.8c-1,0.5-2,1.3-3,2.4s-1.8,2.3-2.6,3.8
			c-0.8,1.5-1.5,3.2-2.2,5.1l-2.5,21.3h-8.3l3-25.3c0.2-1.4,0.3-2.6,0.2-3.6c0-1-0.2-1.9-0.4-2.5c-0.3-0.7-0.7-1.2-1.2-1.5
			c-0.5-0.3-1.2-0.5-2.1-0.5c-1.2,0-2.3,0.3-3.3,0.9s-2,1.4-3,2.5c-0.9,1.1-1.8,2.4-2.6,4c-0.8,1.6-1.5,3.3-2.2,5.3l-2.5,20.7H802.4
			z"/>
		<path class="st11" d="M903.6,179.4c-1.4,1.4-2.7,2.6-4,3.6c-1.3,1-2.7,1.8-4,2.5c-1.4,0.7-2.8,1.1-4.3,1.4
			c-1.5,0.3-3.1,0.5-4.9,0.5c-2.3,0-4.4-0.4-6.3-1.2s-3.5-1.9-4.8-3.3c-1.3-1.4-2.3-3.1-3.1-5.1c-0.7-2-1.1-4.3-1.1-6.8
			c0-2.1,0.2-4.1,0.7-6.1c0.4-2,1.1-3.9,1.9-5.8s1.9-3.5,3.1-5.1c1.2-1.5,2.6-2.9,4.2-4c1.6-1.1,3.3-2,5.2-2.6c1.9-0.6,3.9-1,6-1
			c2.1,0,3.9,0.3,5.4,0.9s2.8,1.3,3.8,2.3c1,0.9,1.8,1.9,2.3,3.1c0.5,1.1,0.8,2.2,0.8,3.3c0,1.7-0.4,3.3-1.1,4.8
			c-0.7,1.5-2,2.8-3.9,3.9c-1.9,1.2-4.4,2.2-7.7,3s-7.4,1.5-12.5,2.1c0,0.2,0,0.3,0,0.5s0,0.3,0,0.5c0,3.3,0.7,5.8,2.2,7.5
			c1.4,1.7,3.6,2.5,6.5,2.5c1.8,0,3.3-0.2,4.5-0.7c1.2-0.5,2.2-1,3.1-1.6s1.6-1.1,2.2-1.6c0.6-0.5,1.3-0.7,2-0.7
			c0.6,0,1.1,0.3,1.5,0.8L903.6,179.4z M891.8,152.4c-1.5,0-2.8,0.3-4.1,0.9c-1.2,0.6-2.4,1.4-3.3,2.5c-1,1.1-1.8,2.3-2.6,3.8
			c-0.7,1.5-1.3,3-1.7,4.8c3.6-0.5,6.5-1,8.7-1.6s3.9-1.2,5.1-1.9c1.2-0.7,2-1.4,2.4-2.2c0.4-0.8,0.6-1.6,0.6-2.4
			c0-0.4-0.1-0.9-0.3-1.3c-0.2-0.5-0.5-0.9-0.9-1.2c-0.4-0.4-0.9-0.7-1.6-0.9S892.7,152.4,891.8,152.4z"/>
		<path class="st11" d="M918.5,179c0-0.2,0-0.4,0-0.6c0-0.2,0-0.6,0.1-1.1c0-0.5,0.1-1.1,0.2-1.9c0.1-0.8,0.2-1.8,0.4-3l2.3-18.8
			h-4.1c-0.4,0-0.8-0.1-1.1-0.4c-0.3-0.3-0.4-0.7-0.3-1.3l0.4-3.4l6.1-0.9l3.2-11.5c0.2-0.4,0.4-0.8,0.7-1.1
			c0.3-0.3,0.7-0.4,1.2-0.4h4.5l-1.7,13.1h10.1l-0.7,6h-10.2l-2.2,18.3c-0.1,1.1-0.2,1.9-0.3,2.6c-0.1,0.6-0.1,1.1-0.2,1.5
			c0,0.4-0.1,0.6-0.1,0.8c0,0.1,0,0.3,0,0.3c0,1.1,0.3,2,0.8,2.6c0.6,0.6,1.3,0.9,2.3,0.9c0.6,0,1.2-0.1,1.6-0.3
			c0.4-0.2,0.8-0.4,1.2-0.5c0.3-0.2,0.6-0.4,0.9-0.5c0.2-0.2,0.5-0.3,0.7-0.3c0.3,0,0.5,0.1,0.6,0.2c0.1,0.1,0.3,0.3,0.4,0.6
			l1.8,4.1c-1.4,1.1-2.9,2-4.6,2.6c-1.7,0.6-3.4,0.9-5.1,0.9c-2.7,0-4.8-0.7-6.4-2.2C919.4,183.8,918.6,181.7,918.5,179z"/>
		<path class="st11" d="M973.6,177.5c-0.9,1.5-1.9,2.9-2.9,4.1c-1,1.2-2.1,2.2-3.3,3.1s-2.4,1.5-3.7,2c-1.3,0.5-2.6,0.7-4,0.7
			c-1.6,0-3-0.3-4.3-0.9c-1.3-0.6-2.4-1.5-3.4-2.7c-0.9-1.2-1.7-2.7-2.2-4.4s-0.8-3.8-0.8-6.1c0-2.4,0.3-4.7,0.9-6.9
			c0.6-2.2,1.5-4.4,2.6-6.4c1.1-2,2.4-3.8,4-5.5c1.5-1.7,3.3-3.1,5.2-4.3c1.9-1.2,4-2.1,6.2-2.8c2.2-0.7,4.6-1,7-1
			c1.8,0,3.5,0.1,5.2,0.4c1.7,0.3,3.4,0.7,5.1,1.4l-4.8,38.5h-4.5c-1.1,0-1.8-0.3-2.2-0.8c-0.4-0.5-0.6-1.2-0.6-2L973.6,177.5z
			 M976.3,152.6c-0.4-0.1-0.9-0.1-1.3-0.1c-0.4,0-0.9,0-1.3,0c-2.3,0-4.4,0.5-6.4,1.6c-2,1-3.7,2.4-5.2,4.2
			c-1.5,1.8-2.6,3.8-3.4,6.1c-0.8,2.3-1.3,4.8-1.3,7.4c0,3,0.5,5.2,1.4,6.6c1,1.4,2.3,2.1,4.1,2.1c1.2,0,2.3-0.4,3.5-1.2
			c1.1-0.8,2.2-1.8,3.2-3.2c1-1.3,2-2.9,2.8-4.7c0.9-1.8,1.6-3.8,2.2-5.9L976.3,152.6z"/>
		<path class="st11" d="M996.5,186.8l7.1-57.7h8.4l-7.1,57.7H996.5z"/>
		<path class="st11" d="M1021.2,186.8l7.1-57.7h8.4l-7.1,57.7H1021.2z"/>
		<path class="st11" d="M1059.3,147l-4.8,39.8h-8.3l4.8-39.8H1059.3z M1061.9,135c0,0.8-0.2,1.5-0.5,2.1c-0.3,0.7-0.7,1.3-1.3,1.8
			c-0.5,0.5-1.1,0.9-1.8,1.2c-0.7,0.3-1.3,0.4-2.1,0.4c-0.7,0-1.4-0.1-2-0.4c-0.6-0.3-1.2-0.7-1.7-1.2c-0.5-0.5-0.9-1.1-1.2-1.8
			c-0.3-0.7-0.5-1.4-0.5-2.1c0-0.8,0.2-1.5,0.5-2.2c0.3-0.7,0.7-1.3,1.2-1.8c0.5-0.5,1.1-0.9,1.7-1.2c0.7-0.3,1.3-0.4,2-0.4
			c0.7,0,1.4,0.1,2.1,0.4c0.7,0.3,1.3,0.7,1.8,1.2c0.5,0.5,0.9,1.1,1.2,1.8C1061.7,133.5,1061.9,134.2,1061.9,135z"/>
		<path class="st11" d="M1101.5,179.7c-1.3,1.5-2.6,2.7-3.9,3.7c-1.2,1-2.5,1.8-3.7,2.4s-2.5,1-3.9,1.3c-1.4,0.2-2.8,0.4-4.4,0.4
			c-2.3,0-4.4-0.4-6.2-1.2s-3.3-1.9-4.6-3.4c-1.2-1.4-2.2-3.2-2.8-5.2c-0.7-2-1-4.3-1-6.7c0-2.1,0.2-4.2,0.7-6.3
			c0.5-2.1,1.1-4,2-5.8s1.9-3.5,3.2-5s2.6-2.8,4.2-3.9c1.5-1.1,3.2-1.9,5-2.6c1.8-0.6,3.7-0.9,5.8-0.9c2.7,0,4.9,0.5,6.8,1.4
			c1.8,0.9,3.4,2.3,4.8,4.1l-2.7,3.2c-0.2,0.2-0.4,0.4-0.7,0.6c-0.3,0.2-0.6,0.3-0.9,0.3c-0.4,0-0.8-0.1-1.1-0.4
			c-0.4-0.3-0.8-0.6-1.3-1c-0.5-0.4-1.2-0.7-2-1c-0.8-0.3-1.8-0.4-3-0.4c-1.7,0-3.2,0.4-4.7,1.3s-2.8,2.1-3.9,3.7
			c-1.1,1.6-2,3.5-2.7,5.6c-0.7,2.2-1,4.6-1,7.1c0,3.1,0.7,5.5,2.1,7.2s3.3,2.6,5.9,2.6c1.6,0,3-0.2,4.1-0.7c1.1-0.5,2-1,2.7-1.5
			c0.8-0.5,1.4-1.1,2-1.5c0.6-0.5,1.1-0.7,1.7-0.7c0.6,0,1.1,0.3,1.5,0.8L1101.5,179.7z"/>
		<path class="st11" d="M1193.4,147l-16.7,39.8h-6.5c-0.7,0-1.2-0.5-1.3-1.5l-4.3-24.8c-0.1-0.5-0.1-0.9-0.2-1.4
			c-0.1-0.5-0.1-0.9-0.2-1.4c-0.2,0.5-0.3,0.9-0.5,1.4c-0.2,0.5-0.3,0.9-0.6,1.4l-10.5,24.7c-0.4,1-1,1.5-1.9,1.5h-6.2l-6.9-39.8
			h6.4c0.6,0,1.1,0.1,1.5,0.4c0.4,0.3,0.6,0.7,0.7,1.2l3,23.2c0.1,1,0.1,2,0.2,3c0.1,1,0.1,2,0.1,2.9c0.4-1,0.7-2,1.1-2.9
			s0.8-2,1.2-3l9.8-23.3c0.2-0.5,0.5-0.9,0.9-1.2c0.4-0.3,0.9-0.4,1.4-0.4h3.5c0.6,0,1.1,0.1,1.4,0.4c0.4,0.3,0.6,0.7,0.6,1.2
			l3.9,23.3c0.2,1,0.3,2.1,0.4,3c0.1,1,0.2,2,0.3,3c0.3-1,0.6-1.9,0.9-2.9c0.3-1,0.6-2,1-3.1l8.9-23.2c0.2-0.5,0.5-0.9,0.9-1.2
			s0.9-0.5,1.4-0.5H1193.4z"/>
		<path class="st11" d="M1224.2,177.5c-0.9,1.5-1.9,2.9-2.9,4.1c-1,1.2-2.1,2.2-3.3,3.1s-2.4,1.5-3.7,2c-1.3,0.5-2.6,0.7-4,0.7
			c-1.6,0-3-0.3-4.3-0.9c-1.3-0.6-2.4-1.5-3.4-2.7c-0.9-1.2-1.7-2.7-2.2-4.4c-0.5-1.8-0.8-3.8-0.8-6.1c0-2.4,0.3-4.7,0.9-6.9
			c0.6-2.2,1.5-4.4,2.6-6.4c1.1-2,2.4-3.8,4-5.5c1.6-1.7,3.3-3.1,5.2-4.3c1.9-1.2,4-2.1,6.2-2.8c2.2-0.7,4.6-1,7-1
			c1.8,0,3.5,0.1,5.2,0.4c1.7,0.3,3.4,0.7,5.1,1.4l-4.8,38.5h-4.5c-1.1,0-1.8-0.3-2.2-0.8c-0.4-0.5-0.6-1.2-0.6-2L1224.2,177.5z
			 M1226.9,152.6c-0.4-0.1-0.9-0.1-1.3-0.1c-0.4,0-0.9,0-1.3,0c-2.3,0-4.4,0.5-6.4,1.6c-2,1-3.7,2.4-5.2,4.2
			c-1.5,1.8-2.6,3.8-3.4,6.1c-0.8,2.3-1.3,4.8-1.3,7.4c0,3,0.5,5.2,1.4,6.6c1,1.4,2.3,2.1,4.1,2.1c1.2,0,2.3-0.4,3.5-1.2
			c1.1-0.8,2.2-1.8,3.2-3.2c1-1.3,2-2.9,2.8-4.7c0.9-1.8,1.6-3.8,2.2-5.9L1226.9,152.6z"/>
		<path class="st11" d="M1284.8,147l-19.9,39.8h-7.1l-10.2-39.8h6.9c0.6,0,1.1,0.2,1.5,0.5c0.4,0.3,0.6,0.7,0.7,1.2l5,23.2
			c0.2,1.2,0.4,2.3,0.5,3.4c0.1,1.1,0.2,2.3,0.3,3.4c0.4-1.1,0.7-2.2,1.1-3.4c0.4-1.1,0.8-2.3,1.3-3.5l10.9-23.2
			c0.2-0.5,0.5-0.9,1-1.2s0.9-0.5,1.4-0.5H1284.8z"/>
		<path class="st11" d="M1323.1,179.4c-1.4,1.4-2.7,2.6-4,3.6c-1.3,1-2.7,1.8-4,2.5c-1.4,0.7-2.8,1.1-4.3,1.4
			c-1.5,0.3-3.1,0.5-4.9,0.5c-2.3,0-4.4-0.4-6.3-1.2s-3.5-1.9-4.8-3.3c-1.3-1.4-2.3-3.1-3.1-5.1c-0.7-2-1.1-4.3-1.1-6.8
			c0-2.1,0.2-4.1,0.7-6.1c0.4-2,1.1-3.9,1.9-5.8s1.9-3.5,3.1-5.1c1.2-1.5,2.6-2.9,4.2-4c1.6-1.1,3.3-2,5.2-2.6c1.9-0.6,3.9-1,6-1
			c2.1,0,3.9,0.3,5.4,0.9s2.8,1.3,3.8,2.3c1,0.9,1.8,1.9,2.3,3.1c0.5,1.1,0.8,2.2,0.8,3.3c0,1.7-0.4,3.3-1.1,4.8
			c-0.7,1.5-2,2.8-3.9,3.9c-1.9,1.2-4.4,2.2-7.7,3s-7.4,1.5-12.5,2.1c0,0.2,0,0.3,0,0.5s0,0.3,0,0.5c0,3.3,0.7,5.8,2.2,7.5
			c1.4,1.7,3.6,2.5,6.5,2.5c1.8,0,3.3-0.2,4.5-0.7c1.2-0.5,2.2-1,3.1-1.6s1.6-1.1,2.2-1.6c0.6-0.5,1.3-0.7,2-0.7
			c0.6,0,1.1,0.3,1.5,0.8L1323.1,179.4z M1311.3,152.4c-1.5,0-2.8,0.3-4.1,0.9c-1.2,0.6-2.4,1.4-3.3,2.5c-1,1.1-1.8,2.3-2.6,3.8
			c-0.7,1.5-1.3,3-1.7,4.8c3.6-0.5,6.5-1,8.7-1.6s3.9-1.2,5.1-1.9c1.2-0.7,2-1.4,2.4-2.2c0.4-0.8,0.6-1.6,0.6-2.4
			c0-0.4-0.1-0.9-0.3-1.3c-0.2-0.5-0.5-0.9-0.9-1.2c-0.4-0.4-0.9-0.7-1.6-0.9S1312.2,152.4,1311.3,152.4z"/>
		<path class="st11" d="M1372.6,148.4l-0.4,2.8c-0.2,1.1-0.8,1.9-1.8,2.2l-4.5,1c0.2,0.6,0.3,1.2,0.4,1.9c0.1,0.6,0.1,1.3,0.1,2
			c0,1.2-0.1,2.4-0.4,3.4c-0.3,1-0.6,1.9-1.1,2.8s-0.9,1.6-1.4,2.4c-0.5,0.8-0.9,1.5-1.3,2.3c-0.4,0.8-0.7,1.5-1,2.4
			c-0.3,0.8-0.4,1.7-0.4,2.7c0,1.1,0.2,2,0.7,2.9s1,1.8,1.6,2.8c0.6,1,1.1,2,1.6,3.1c0.5,1.1,0.7,2.4,0.7,3.8c0,1.9-0.5,3.7-1.4,5.5
			c-0.9,1.7-2.1,3.2-3.8,4.5c-1.6,1.3-3.6,2.3-6,3.1c-2.4,0.8-5,1.2-8,1.2c-2.4,0-4.6-0.2-6.5-0.7c-1.9-0.5-3.6-1.2-5-2.1
			c-1.4-0.9-2.4-1.9-3.2-3.2c-0.7-1.2-1.1-2.6-1.1-4.1c0-1.7,0.4-3.3,1.1-4.6c0.8-1.3,1.8-2.4,3-3.4c1.3-0.9,2.7-1.7,4.4-2.2
			c1.7-0.6,3.4-1,5.2-1.2c1.8-0.3,3.7-0.4,5.5-0.3s3.6,0.2,5.3,0.4c-0.2-0.4-0.3-0.9-0.4-1.4c-0.1-0.5-0.2-1-0.2-1.5
			c0-0.8,0.1-1.6,0.3-2.4s0.6-1.8,1.1-2.8c-1,0.7-2.1,1.2-3.4,1.6c-1.2,0.4-2.7,0.5-4.4,0.5c-1.5,0-3-0.2-4.3-0.7
			c-1.4-0.5-2.6-1.2-3.6-2.2c-1-1-1.8-2.2-2.4-3.7s-0.9-3.2-0.9-5.2c0-1.9,0.4-3.8,1.1-5.6s1.8-3.5,3.2-4.9c1.4-1.4,3.1-2.6,5.2-3.5
			s4.4-1.3,7.1-1.3c1.5,0,2.9,0.2,4.2,0.5c1.3,0.3,2.5,0.8,3.6,1.5H1372.6z M1357.9,187.3c0-1-0.1-1.9-0.4-2.7
			c-3.3-0.5-6.1-0.8-8.5-0.7c-2.4,0.1-4.3,0.4-5.8,1c-1.5,0.5-2.6,1.3-3.3,2.1s-1.1,1.8-1.1,2.8c0,1.7,0.7,3,2.1,3.9
			c1.4,0.9,3.5,1.3,6.3,1.3c1.6,0,3.1-0.2,4.4-0.6s2.4-1,3.4-1.7c0.9-0.7,1.7-1.5,2.2-2.5C1357.6,189.4,1357.9,188.4,1357.9,187.3z
			 M1350.8,168.5c1.3,0,2.4-0.3,3.4-0.9c1-0.6,1.8-1.3,2.5-2.3c0.7-0.9,1.2-2,1.5-3.2s0.5-2.4,0.6-3.6c0-2.1-0.5-3.7-1.6-4.8
			c-1.1-1.1-2.5-1.6-4.4-1.6c-1.3,0-2.4,0.3-3.4,0.8c-1,0.5-1.8,1.2-2.5,2.1s-1.2,1.9-1.5,3.1s-0.5,2.4-0.5,3.6
			c0,2.1,0.5,3.8,1.5,4.9S1348.9,168.5,1350.8,168.5z"/>
		<path class="st11" d="M1417.7,147l-4.8,39.8h-4.2c-2,0-3.1-1-3.1-3l0.4-5.7c-2,3.1-4.3,5.4-6.9,7c-2.5,1.5-5.1,2.3-7.8,2.3
			c-1.7,0-3.2-0.3-4.5-1c-1.3-0.7-2.4-1.6-3.2-2.9c-0.8-1.3-1.4-2.9-1.7-4.7c-0.3-1.9-0.3-4,0-6.4l3-25.3h8.4l-3,25.3
			c-0.4,2.8-0.2,4.9,0.5,6.2c0.7,1.3,2,2,3.8,2c1.1,0,2.2-0.3,3.4-0.9c1.2-0.6,2.3-1.5,3.4-2.6c1.1-1.1,2.1-2.5,3.1-4.1
			c0.9-1.6,1.7-3.4,2.4-5.3l2.5-20.6H1417.7z"/>
		<path class="st11" d="M1442.5,147l-4.8,39.8h-8.3l4.8-39.8H1442.5z M1445,135c0,0.8-0.2,1.5-0.5,2.1c-0.3,0.7-0.7,1.3-1.3,1.8
			c-0.5,0.5-1.1,0.9-1.8,1.2s-1.3,0.4-2,0.4s-1.4-0.1-2-0.4c-0.6-0.3-1.2-0.7-1.7-1.2c-0.5-0.5-0.9-1.1-1.2-1.8
			c-0.3-0.7-0.5-1.4-0.5-2.1c0-0.8,0.2-1.5,0.5-2.2c0.3-0.7,0.7-1.3,1.2-1.8c0.5-0.5,1.1-0.9,1.7-1.2c0.7-0.3,1.3-0.4,2-0.4
			c0.7,0,1.4,0.1,2.1,0.4c0.7,0.3,1.3,0.7,1.8,1.2c0.5,0.5,0.9,1.1,1.2,1.8C1444.9,133.5,1445,134.2,1445,135z"/>
		<path class="st11" d="M1493.7,129.1l-7.2,57.7h-4.5c-1.1,0-1.8-0.3-2.2-0.8c-0.4-0.5-0.6-1.2-0.6-2l0.5-6.8c-1,1.6-2.1,3-3.2,4.2
			c-1.1,1.2-2.3,2.3-3.6,3.2c-1.3,0.9-2.5,1.6-3.9,2.1c-1.3,0.5-2.7,0.7-4.1,0.7c-3.4,0-6.1-1.2-8-3.7c-2-2.5-2.9-6.1-2.9-11
			c0-2.2,0.2-4.4,0.7-6.6c0.5-2.2,1.1-4.2,2-6.2c0.8-2,1.9-3.8,3.1-5.4s2.5-3.1,4-4.3c1.4-1.2,3-2.2,4.7-2.8c1.7-0.7,3.4-1,5.2-1
			c1.9,0,3.6,0.4,5.2,1.1s2.9,1.7,4,3l2.7-21.3H1493.7z M1482,156c-0.9-1.1-2.1-1.9-3.3-2.4c-1.3-0.5-2.5-0.7-3.8-0.7
			c-1.9,0-3.6,0.6-5.1,1.7c-1.5,1.1-2.9,2.6-3.9,4.4s-1.9,3.8-2.5,6.1s-0.9,4.5-0.9,6.7c0,2.9,0.5,5.1,1.5,6.6
			c1,1.5,2.5,2.2,4.3,2.2c1.2,0,2.3-0.4,3.5-1.1c1.2-0.8,2.4-1.8,3.5-3.1c1.1-1.3,2.1-2.9,3.1-4.7c1-1.8,1.8-3.8,2.5-5.9L1482,156z"
			/>
		<path class="st11" d="M1535.1,179.4c-1.4,1.4-2.7,2.6-4,3.6c-1.3,1-2.7,1.8-4,2.5c-1.4,0.7-2.8,1.1-4.3,1.4
			c-1.5,0.3-3.1,0.5-4.9,0.5c-2.3,0-4.4-0.4-6.3-1.2s-3.5-1.9-4.8-3.3c-1.3-1.4-2.3-3.1-3.1-5.1c-0.7-2-1.1-4.3-1.1-6.8
			c0-2.1,0.2-4.1,0.7-6.1s1.1-3.9,2-5.8s1.9-3.5,3.1-5.1c1.2-1.5,2.6-2.9,4.2-4s3.3-2,5.2-2.6c1.9-0.6,3.9-1,6-1
			c2.1,0,3.9,0.3,5.4,0.9c1.5,0.6,2.8,1.3,3.8,2.3c1,0.9,1.8,1.9,2.3,3.1c0.5,1.1,0.7,2.2,0.7,3.3c0,1.7-0.4,3.3-1.1,4.8
			c-0.7,1.5-2,2.8-3.9,3.9c-1.9,1.2-4.4,2.2-7.7,3c-3.2,0.9-7.4,1.5-12.5,2.1c0,0.2,0,0.3,0,0.5s0,0.3,0,0.5c0,3.3,0.7,5.8,2.2,7.5
			c1.4,1.7,3.6,2.5,6.5,2.5c1.8,0,3.3-0.2,4.5-0.7c1.2-0.5,2.2-1,3.1-1.6c0.9-0.6,1.6-1.1,2.2-1.6c0.6-0.5,1.3-0.7,2-0.7
			c0.6,0,1.1,0.3,1.5,0.8L1535.1,179.4z M1523.3,152.4c-1.5,0-2.8,0.3-4.1,0.9c-1.2,0.6-2.4,1.4-3.3,2.5c-1,1.1-1.8,2.3-2.6,3.8
			c-0.7,1.5-1.3,3-1.7,4.8c3.6-0.5,6.5-1,8.7-1.6s3.9-1.2,5.1-1.9c1.2-0.7,2-1.4,2.4-2.2c0.4-0.8,0.6-1.6,0.6-2.4
			c0-0.4-0.1-0.9-0.3-1.3c-0.2-0.5-0.5-0.9-0.9-1.2c-0.4-0.4-0.9-0.7-1.6-0.9S1524.2,152.4,1523.3,152.4z"/>
		<path class="st11" d="M1573.4,154c-0.2,0.4-0.5,0.6-0.7,0.8c-0.3,0.2-0.6,0.2-0.9,0.2c-0.4,0-0.9-0.1-1.3-0.4
			c-0.4-0.3-1-0.6-1.6-0.9s-1.3-0.6-2.2-0.9c-0.8-0.3-1.9-0.4-3-0.4c-1.1,0-2.1,0.1-3,0.4c-0.9,0.3-1.6,0.7-2.3,1.2
			c-0.6,0.5-1.1,1.1-1.4,1.8c-0.3,0.7-0.5,1.4-0.5,2.1c0,0.9,0.2,1.6,0.7,2.2c0.5,0.6,1.1,1.1,1.8,1.5c0.8,0.4,1.6,0.8,2.6,1.2
			c1,0.4,2,0.7,3,1.1c1,0.4,2,0.8,3,1.3c1,0.5,1.8,1.1,2.6,1.8c0.8,0.7,1.4,1.6,1.8,2.6c0.5,1,0.7,2.2,0.7,3.6
			c0,1.9-0.4,3.7-1.1,5.4c-0.7,1.7-1.8,3.2-3.2,4.5c-1.4,1.3-3.1,2.3-5.1,3.1s-4.2,1.2-6.6,1.2c-2.5,0-4.9-0.5-6.9-1.4
			c-2.1-0.9-3.7-2.1-4.9-3.5l2.1-3.2c0.3-0.4,0.6-0.7,0.9-0.9c0.3-0.2,0.8-0.3,1.3-0.3c0.5,0,0.9,0.2,1.4,0.5c0.4,0.4,1,0.7,1.6,1.2
			c0.6,0.4,1.4,0.8,2.3,1.2c0.9,0.4,2,0.5,3.5,0.5c1.2,0,2.2-0.2,3.2-0.5c0.9-0.3,1.7-0.8,2.3-1.3s1.1-1.2,1.5-2
			c0.3-0.8,0.5-1.5,0.5-2.4c0-0.9-0.2-1.7-0.7-2.3c-0.5-0.6-1.1-1.2-1.8-1.6s-1.6-0.9-2.6-1.2c-1-0.3-1.9-0.7-3-1.1
			c-1-0.4-2-0.8-3-1.2c-1-0.5-1.8-1.1-2.6-1.8c-0.8-0.7-1.4-1.6-1.8-2.6c-0.5-1-0.7-2.2-0.7-3.7c0-1.7,0.3-3.4,1-5
			c0.7-1.6,1.7-3.1,3-4.3s2.9-2.2,4.7-3c1.9-0.8,4-1.1,6.4-1.1c2.5,0,4.7,0.4,6.6,1.2c1.9,0.8,3.5,1.9,4.9,3.3L1573.4,154z"/>
	</g>
</g>
<g>
	<path class="st12" d="M492.2,796.4c0,0,213.9-205.1,213.9-205.1c1.7-1.6,9.7-0.8,11.8-0.9c13.2-0.3,26.3,0.8,39.4,2.4
		c13.3,1.6,26.6,3.7,39.8,6.2c8.5,1.6,16.9,3.4,25.3,5.2c8.8,2,16.3,3.1,25.3,1.9c6.9-0.9,13.8-1.7,20.7-2.7
		c10.9-1.6,21.8-3.4,32.6-5.7c10.6-2.3,19.4-4.3,30.3-2.5c7.1,1.1,14.2,2,21.3,3.1c11.3,1.7,22.6,3.4,33.9,5.2
		c11.2,1.8,22.3,4.8,33.7,4.5c6.6-0.2,13.2-0.6,19.8-1c8.7-0.6,17.3-1.3,25.9-2.3c4.1-0.5,8.1-1,12.1-1.7c6.1-1.1,10.4-1.8,16.5-0.3
		c1.9,0.4,3.8,0.8,5.7,1.2c4.9,0.9,9.9,1.6,14.9,2.2c16.1,1.8,32.4,2.1,48.7,1.6c25.4-0.8,50.7-3.5,75.8-7.5l-207.3,196.3H492.2z"/>
	<path class="st12" d="M1033.5,1066.3V796.4l205.1-196.3c0,0-26.7,35.9,0,158.3c0,0,26,57.1,6.2,108.4l-210.6,199.9
		C1034,1066.9,1033.5,1066.7,1033.5,1066.3z"/>
	<path class="st11" d="M1029.9,1068H494.1c-2.4,0-4.4-2-4.4-4.4V800.9c0-2.4,2-4.4,4.4-4.4h535.9c2.4,0,4.4,2,4.4,4.4v262.7
		C1034.4,1066,1032.4,1068,1029.9,1068z"/>
	<g>
		<g>
			<line class="st13" x1="492.2" y1="500.4" x2="492.2" y2="1064"/>
			<g>
				<polygon points="482.7,518.1 485.5,519.2 492.2,500.7 498.9,519.2 501.8,518.1 492.2,491.9 				"/>
			</g>
		</g>
	</g>
	<g>
		<g>
			<line class="st13" x1="1286.6" y1="1066.7" x2="717.2" y2="1066.7"/>
			<g>
				<polygon points="1268.9,1057.1 1267.9,1059.9 1286.3,1066.7 1267.9,1073.4 1268.9,1076.2 1295.1,1066.7 				"/>
			</g>
		</g>
	</g>
	<g>
		<g>
			<line class="st13" x1="298.3" y1="1290.5" x2="723.4" y2="799.8"/>
			<g>
				<polygon points="317.2,1283.3 315.7,1280.7 298.5,1290.3 305.5,1271.9 302.7,1270.8 292.8,1296.9 				"/>
			</g>
		</g>
	</g>
	<path class="st14" d="M1029,1067.7H495.8c-3,0-5.4-2.4-5.4-5.4V801.9c0-3,2.4-5.4,5.4-5.4H1029c3,0,5.4,2.4,5.4,5.4v260.5
		C1034.4,1065.3,1031.9,1067.7,1029,1067.7z M499.3,1058.9h526.2V805.3H499.3V1058.9z"/>
	<g>
		<path d="M456.3,507.7l-2.5,12.4c-0.3,1.6-0.5,2.6-0.5,3.1c0,0.5,0.1,1,0.3,1.5c-1.7,0.9-3.2,1.3-4.6,1.3c-0.9,0-1.3-0.4-1.3-1.1
			c0-0.4,0.2-1.4,0.5-3.1l2.8-14.1c-1-4.6-2.6-8.8-4.6-12.6c-2.1-3.8-4.2-6.4-6.3-7.7c1.8-1.2,3.1-1.8,4-1.8c3.2,0,7,6.6,11.3,19.7
			c3.3-2.9,6.2-5.9,8.7-9s3.7-5.3,3.7-6.5c0-0.7-0.3-1.3-0.8-1.8c1.4-0.6,2.5-1,3.4-1c1.4,0,2.1,0.7,2.1,2.2c0,1.6-1.7,4.3-5,8.1
			C464.1,501.2,460.4,504.6,456.3,507.7z"/>
	</g>
	<g>
		<path d="M465.8,866.6c0,5.1-1.3,9.2-3.9,12.1c-2.6,2.9-6.2,4.4-10.7,4.4c-2.6,0-4.8-0.8-6.6-2.4c0,1.4-0.1,2.4-0.4,3
			c-0.4,1-1.1,1.6-2.2,1.6c-1.6,0-2.4-1-2.4-3c0,0,0-0.9,0.1-2.7c0.1-2.1,0.2-4.3,0.2-6.6c0.1-3.4,0.1-6.9,0.1-10.8
			c0-5.7-0.2-9.9-0.5-12.7c-0.1-1-0.3-2.2-0.6-3.5c-0.2-1.1-0.3-1.8-0.3-2c0-0.5,0.2-1,0.7-1.4s1-0.6,1.7-0.6c1.4,0,2.3,1,2.8,3.1
			c0.4,1.4,0.7,4.7,1,9.8c2.7-2,5.5-2.9,8.5-2.9c3.8,0,6.9,1.3,9.1,3.9C464.7,858.4,465.8,862,465.8,866.6z M460.8,866.7
			c0-3.2-0.7-5.7-2.2-7.6s-3.4-2.8-5.9-2.8c-3.5,0-6.1,1.4-7.8,4.1v3.9c0,1.8,0,3.8,0,5.9s0,3.3,0,3.5v0c1.4,3.1,3.6,4.7,6.7,4.7
			c2.7,0,4.9-1.1,6.7-3.2C459.9,873.1,460.8,870.3,460.8,866.7z"/>
	</g>
	<g>
		<path d="M1001.6,1101.9c0,4.6-0.7,9.4-2,14.4c-0.7,2.5-1.7,3.8-3,3.8c-1.4,0-2-0.8-2-2.3c0-0.4,0-0.6,0.1-0.8
			c-1.7,0.9-3.5,1.4-5.3,1.4c-3.2,0-5.7-0.9-7.6-2.7c-1.8-1.8-2.7-4.4-2.7-7.6c0-3.3,1-6,2.9-7.9c2-1.9,4.6-2.9,7.8-2.9
			c2.8,0,5.2,0.9,7.1,2.8c-0.3-6.6-2.8-9.9-7.3-9.9c-1,0-2.1,0.3-3.3,0.9c-1.2,0.6-1.9,0.9-2.3,0.9c-0.6,0-1.1-0.2-1.5-0.7
			c-0.5-0.5-0.7-1-0.7-1.6c0-1,0.7-1.9,2.2-2.8c1.6-0.9,3.4-1.4,5.6-1.4C997.6,1085.4,1001.6,1090.9,1001.6,1101.9z M996.5,1107.8
			c0-4.2-2-6.4-6-6.4c-4.4,0-6.6,2.1-6.6,6.3c0,4.2,2.2,6.4,6.5,6.4c1.9,0,3.4-0.6,4.4-1.7C996,1111.3,996.5,1109.7,996.5,1107.8z"
			/>
	</g>
	<g>
		<g>
			<path d="M1294.8,1115.4l-0.7,0.8c-5.7,6.1-8.6,11.6-8.9,16.4l-1.4-0.9c-1.7-1.1-2.6-2-2.6-2.9c0-1.2,1.1-3.3,3.3-6.2
				c2.2-2.9,4.8-5.7,7.7-8.3l1.4-1.3l-0.7-1.1c-1.2-1.9-2.4-4.6-3.6-7.9c-1.2-3.3-1.9-5.6-1.9-6.7c0-1.6,1.1-2.8,3.2-3.5l1.2-0.4
				c0.1,1.6,0.8,4,1.9,7.3c1.2,3.3,2.4,6.1,3.6,8.3l0.5,0.9l0.8-0.6c2.3-1.7,4.1-3.9,5.6-6.4s2.2-4.8,2.2-6.9c0-0.4-0.1-0.9-0.2-1.3
				l0.7-0.4c1.1-0.6,2.1-0.9,3.1-0.9c1,0,1.5,0.5,1.5,1.6c0,2.1-1.1,4.7-3.3,7.8c-2.2,3.1-5.1,6-8.5,8.6l-0.8,0.6l0.5,1
				c1.6,3.2,3.8,6.3,6.4,9.5c1.7,2,3,3.3,4.1,4c1.1,0.7,2.4,1,3.9,1c0.6,0,1.3-0.2,2.1-0.5c-2,3.3-4,4.9-6,4.9c-2,0-4.5-1.7-7.5-5.1
				c-1-1.1-2.3-2.9-3.9-5.3c-1.6-2.4-2.7-4.2-3.2-5.3L1294.8,1115.4z"/>
		</g>
	</g>
	<g>
		<path d="M301.6,1338.5c2.1-0.1,4-0.2,6-0.2c7.7,0,12.8,0.6,15.5,1.9c1.3,0.6,1.9,2.1,1.9,4.4c0,0.4,0,0.9-0.1,1.7
			c-2.1-1.3-4.6-2.2-7.4-2.7c-2.8-0.5-6.5-0.8-11.2-0.8c-2,0-3.9,0.1-5.9,0.3l-0.9,0.1l-1.6,0.2c-1.4,0-2.2-0.6-2.2-1.7
			c0-0.4,0.2-1.2,0.5-2.7c5.4-7.2,13.6-16.4,24.5-27.7c0.4-0.4,1.1-1.2,2.4-2.5c-4.8,0.3-8.4,0.6-10.8,0.7c-2.7,0.1-4.5,0.2-5.2,0.2
			c-3.7,0-5.6-1.3-5.6-3.9c0-0.3,0-1.1,0.1-2.3c1.5,1.9,5.3,2.9,11.3,2.9h3.2c4.9,0,8.8-0.3,11.9-0.9c-0.3,1.9-0.6,3.2-0.9,3.9
			c-0.3,0.7-1,1.6-2.1,2.7c-2.6,2.6-6.7,7.1-12.4,13.6C306.7,1332.1,303.1,1336.4,301.6,1338.5z"/>
	</g>
</g>
</svg>
