<?xml version="1.0" encoding="utf-8"?>
<!-- Generator: Adobe Illustrator 21.0.0, SVG Export Plug-In . SVG Version: 6.00 Build 0)  -->
<svg version="1.1" id="Layer_1" xmlns="http://www.w3.org/2000/svg" xmlns:xlink="http://www.w3.org/1999/xlink" x="0px" y="0px"
	 viewBox="0 0 1644 1506" style="enable-background:new 0 0 1644 1506;" xml:space="preserve">
<style type="text/css">
	.st0{display:none;}
	.st1{display:inline;}
	.st2{fill:none;stroke:#000000;stroke-width:7;stroke-miterlimit:10;}
	.st3{fill:none;stroke:#000000;stroke-width:7;stroke-miterlimit:10;stroke-dasharray:11.9387,11.9387;}
	.st4{fill:#D6D7D8;}
	.st5{fill:#336699;}
	.st6{fill:#666666;}
	.st7{fill:#999999;}
	.st8{fill:none;stroke:#336699;stroke-width:7;stroke-miterlimit:10;}
	.st9{fill:none;stroke:#000000;stroke-width:7;stroke-miterlimit:10;stroke-dasharray:12;}
	.st10{fill:none;stroke:#D6D7D8;stroke-miterlimit:10;}
	.st11{fill:#FFFFFF;}
	.st12{fill:#FE8081;stroke:#000000;stroke-width:2;stroke-miterlimit:10;}
	.st13{fill:none;stroke:#000000;stroke-width:3;stroke-miterlimit:10;}
	.st14{fill:#FF0080;stroke:#000000;stroke-miterlimit:10;}
	.st15{opacity:0.22;}
	.st16{fill:none;stroke:#000000;stroke-width:5;stroke-miterlimit:10;}
	.st17{fill:#8C8C8C;stroke:#000000;stroke-width:1.5;stroke-miterlimit:10;}
	.st18{fill:none;stroke:#51B6F1;stroke-width:5;stroke-miterlimit:10;}
	.st19{fill:#51B6F1;}
	.st20{fill:none;stroke:#C9322A;stroke-width:5;stroke-miterlimit:10;}
	.st21{fill:#C9322A;}
	.st22{fill:none;stroke:#030303;stroke-width:3;stroke-miterlimit:10;}
	.st23{fill:none;stroke:#56B971;stroke-width:5;stroke-miterlimit:10;}
	.st24{fill:#56B971;}
	.st25{fill:none;stroke:#000000;stroke-width:0.75;stroke-miterlimit:10;}
	.st26{fill:#041C93;}
	.st27{fill:#4395E6;}
	.st28{fill:#C25829;}
	.st29{fill:#D64370;}
	.st30{fill:#C10E0E;}
	.st31{fill:#FDFDFF;}
	.st32{fill:none;stroke:#000000;stroke-width:1.5;stroke-miterlimit:10;}
	.st33{fill:#EFA973;}
	.st34{fill:#0C0D0E;}
	.st35{fill:url(#SVGID_1_);}
	.st36{fill:#020202;}
	.st37{fill:#052C50;}
	.st38{fill:url(#SVGID_2_);}
	.st39{fill:url(#SVGID_3_);}
	.st40{fill:url(#SVGID_4_);}
	.st41{fill:url(#SVGID_5_);}
	.st42{fill:url(#SVGID_6_);}
	.st43{fill:url(#SVGID_7_);}
	.st44{fill:#9AFFFF;}
	.st45{fill:#CCFFFF;}
	.st46{fill:#A4D7FF;}
	.st47{fill:#67CDCD;}
	.st48{fill:#9ACDFF;}
	.st49{fill:#C80000;}
	.st50{fill:none;stroke:#000000;stroke-width:2;stroke-miterlimit:10;}
	.st51{fill:none;}
	.st52{opacity:0.5;fill:url(#SVGID_8_);}
	.st53{opacity:0.37;fill:url(#SVGID_9_);}
	.st54{opacity:0.7;fill:url(#SVGID_10_);}
	.st55{opacity:0.7;fill:url(#SVGID_11_);}
	.st56{fill:#AAD5FF;}
	.st57{opacity:0.25;fill:#AAC0D5;}
	.st58{opacity:0.7;fill:url(#SVGID_12_);}
	.st59{fill:#231F20;}
	.st60{opacity:0.94;}
	.st61{clip-path:url(#SVGID_14_);}
	.st62{fill:#EC1C24;}
	.st63{opacity:0.9;}
	.st64{fill:url(#SVGID_15_);}
	.st65{clip-path:url(#SVGID_17_);}
	.st66{clip-path:url(#SVGID_19_);}
	.st67{clip-path:url(#SVGID_23_);}
	.st68{fill:url(#SVGID_24_);}
	.st69{fill:url(#SVGID_25_);}
	.st70{fill:url(#SVGID_26_);}
	.st71{fill:url(#SVGID_27_);}
	.st72{fill:url(#SVGID_28_);}
	.st73{fill:url(#SVGID_29_);}
	.st74{fill:url(#SVGID_30_);}
	.st75{fill:url(#SVGID_31_);}
	.st76{fill:url(#SVGID_32_);}
	.st77{fill:url(#SVGID_33_);}
	.st78{fill:url(#SVGID_34_);}
	.st79{fill:url(#SVGID_35_);}
	.st80{fill:url(#SVGID_36_);}
	.st81{fill:url(#SVGID_37_);}
	.st82{fill:url(#SVGID_38_);}
	.st83{fill:url(#SVGID_39_);}
	.st84{fill:url(#SVGID_40_);}
	.st85{fill:url(#SVGID_41_);}
	.st86{fill:url(#SVGID_42_);}
	.st87{fill:url(#SVGID_43_);}
	.st88{fill:url(#SVGID_44_);}
	.st89{fill:url(#SVGID_45_);}
	.st90{fill:url(#SVGID_46_);}
	.st91{fill:url(#SVGID_47_);}
</style>
<g class="st0">
	<g class="st1">
		<polyline class="st2" points="1098.7,311.5 1104.6,310.5 1102.8,312.3 1100.3,314.6 		"/>
		<path class="st3" d="M1091.7,322.9L855.4,551.5c-5.4,5.2-13.3,7-20.4,4.7L471.8,437.4c-4.5-1.5-5.5-7.3-1.8-10.3l622.9-114.6"/>
	</g>
</g>
<rect y="99" width="1644" height="126"/>
<g>
	<g>
		<path class="st11" d="M379.2,139l-2.1,17.3h19l-0.9,6.9h-18.9l-2.2,17.8h23.8l-0.9,7.1h-32.7l7-56.2h32.7L403,139H379.2z"/>
		<path class="st11" d="M411.3,188l7.1-57.7h8.4l-7.1,57.7H411.3z"/>
		<path class="st11" d="M468.4,180.7c-1.4,1.4-2.7,2.6-4,3.6c-1.3,1-2.7,1.8-4,2.5c-1.4,0.7-2.8,1.1-4.3,1.4
			c-1.5,0.3-3.1,0.5-4.9,0.5c-2.3,0-4.4-0.4-6.3-1.2s-3.5-1.9-4.8-3.3c-1.3-1.4-2.3-3.1-3.1-5.1c-0.7-2-1.1-4.3-1.1-6.8
			c0-2.1,0.2-4.1,0.7-6.1c0.4-2,1.1-3.9,2-5.8c0.9-1.8,1.9-3.5,3.1-5.1c1.2-1.5,2.6-2.9,4.2-4c1.6-1.1,3.3-2,5.2-2.6
			c1.9-0.6,3.9-1,6-1c2.1,0,3.9,0.3,5.4,0.9c1.5,0.6,2.8,1.3,3.8,2.3c1,0.9,1.8,1.9,2.3,3.1c0.5,1.1,0.7,2.2,0.7,3.3
			c0,1.7-0.4,3.3-1.1,4.8c-0.7,1.5-2,2.8-3.9,3.9c-1.9,1.2-4.4,2.2-7.7,3s-7.4,1.5-12.5,2.1c0,0.2,0,0.3,0,0.5s0,0.3,0,0.5
			c0,3.3,0.7,5.8,2.2,7.5c1.4,1.7,3.6,2.5,6.5,2.5c1.8,0,3.3-0.2,4.5-0.7c1.2-0.5,2.2-1,3.1-1.6c0.9-0.6,1.6-1.1,2.2-1.6
			c0.6-0.5,1.3-0.7,2-0.7c0.6,0,1.1,0.3,1.5,0.8L468.4,180.7z M456.6,153.6c-1.5,0-2.8,0.3-4.1,0.9c-1.2,0.6-2.4,1.4-3.3,2.5
			c-1,1.1-1.8,2.3-2.6,3.8c-0.7,1.5-1.3,3-1.7,4.8c3.6-0.5,6.5-1,8.7-1.6c2.2-0.6,3.9-1.2,5.1-1.9c1.2-0.7,2-1.4,2.4-2.2
			c0.4-0.8,0.6-1.6,0.6-2.4c0-0.4-0.1-0.9-0.3-1.3c-0.2-0.5-0.5-0.9-0.9-1.2c-0.4-0.4-0.9-0.7-1.6-0.9
			C458.3,153.7,457.5,153.6,456.6,153.6z"/>
		<path class="st11" d="M510.8,180.9c-1.3,1.5-2.6,2.7-3.9,3.7c-1.2,1-2.5,1.8-3.7,2.4c-1.2,0.6-2.5,1-3.9,1.3
			c-1.4,0.2-2.8,0.4-4.4,0.4c-2.3,0-4.4-0.4-6.2-1.2c-1.8-0.8-3.3-1.9-4.6-3.4c-1.2-1.4-2.2-3.2-2.8-5.2c-0.7-2-1-4.3-1-6.7
			c0-2.1,0.2-4.2,0.7-6.3c0.5-2.1,1.1-4,2-5.8c0.9-1.8,1.9-3.5,3.2-5c1.2-1.5,2.6-2.8,4.2-3.9c1.5-1.1,3.2-1.9,5-2.6
			c1.8-0.6,3.7-0.9,5.8-0.9c2.7,0,4.9,0.5,6.8,1.4c1.8,0.9,3.4,2.3,4.8,4.1l-2.7,3.2c-0.2,0.2-0.4,0.4-0.7,0.6
			c-0.3,0.2-0.6,0.3-0.9,0.3c-0.4,0-0.8-0.1-1.1-0.4c-0.4-0.3-0.8-0.6-1.3-1c-0.5-0.4-1.2-0.7-2-1s-1.8-0.4-3-0.4
			c-1.7,0-3.2,0.4-4.7,1.3c-1.5,0.9-2.8,2.1-3.9,3.7c-1.1,1.6-2,3.5-2.7,5.6s-1,4.6-1,7.1c0,3.1,0.7,5.5,2.1,7.2
			c1.4,1.7,3.3,2.6,5.9,2.6c1.6,0,3-0.2,4.1-0.7c1.1-0.5,2-1,2.7-1.5c0.7-0.5,1.4-1.1,2-1.5c0.6-0.5,1.1-0.7,1.7-0.7
			c0.6,0,1.1,0.3,1.5,0.8L510.8,180.9z"/>
		<path class="st11" d="M525.6,180.2c0-0.2,0-0.4,0-0.6c0-0.2,0-0.6,0.1-1.1c0-0.5,0.1-1.1,0.2-1.9s0.2-1.8,0.4-3l2.3-18.8h-4.1
			c-0.4,0-0.8-0.1-1.1-0.4c-0.3-0.3-0.4-0.7-0.3-1.3l0.4-3.4l6.1-0.9l3.2-11.5c0.2-0.4,0.4-0.8,0.7-1.1c0.3-0.3,0.7-0.4,1.2-0.4h4.5
			l-1.7,13.1h10.1l-0.7,6h-10.2l-2.2,18.3c-0.1,1.1-0.2,1.9-0.3,2.6c-0.1,0.6-0.1,1.1-0.2,1.5c0,0.4-0.1,0.6-0.1,0.8
			c0,0.1,0,0.3,0,0.3c0,1.1,0.3,2,0.8,2.6c0.6,0.6,1.3,0.9,2.3,0.9c0.6,0,1.2-0.1,1.6-0.3c0.4-0.2,0.8-0.4,1.2-0.5
			c0.3-0.2,0.6-0.4,0.9-0.5s0.5-0.3,0.7-0.3c0.3,0,0.5,0.1,0.6,0.2s0.3,0.3,0.4,0.6l1.8,4.1c-1.4,1.1-2.9,2-4.6,2.6
			c-1.7,0.6-3.4,0.9-5.1,0.9c-2.7,0-4.8-0.7-6.4-2.2C526.6,185,525.7,182.9,525.6,180.2z"/>
		<path class="st11" d="M568.7,158.5c1-2.1,2.1-3.9,3.3-5.4c1.2-1.5,2.4-2.7,3.7-3.5c1.3-0.9,2.6-1.4,4-1.5c1.4-0.2,2.8,0.1,4.2,0.7
			l-1.5,8c-3.3-1.3-6.3-0.9-8.8,1.3c-2.5,2.2-4.5,6.3-6,12.3l-2.1,17.8h-8.3l4.8-39.9h4.3c0.9,0,1.6,0.2,2.1,0.7
			c0.5,0.5,0.7,1.2,0.7,2.1L568.7,158.5z"/>
		<path class="st11" d="M605.1,188.6c-2.2,0-4.2-0.4-6.1-1.1s-3.5-1.8-4.8-3.2c-1.4-1.4-2.4-3.2-3.2-5.2c-0.8-2.1-1.1-4.4-1.1-7
			c0-3.4,0.5-6.6,1.6-9.6c1.1-3,2.6-5.5,4.5-7.7c1.9-2.2,4.1-3.9,6.6-5.2c2.5-1.3,5.2-1.9,8.1-1.9c2.2,0,4.2,0.4,6.1,1.1
			c1.9,0.7,3.5,1.8,4.8,3.2c1.3,1.4,2.4,3.2,3.2,5.2c0.8,2.1,1.1,4.4,1.1,7c0,2.2-0.3,4.4-0.7,6.5c-0.5,2.1-1.2,4-2.1,5.8
			c-0.9,1.8-2,3.5-3.3,4.9c-1.3,1.5-2.7,2.8-4.2,3.8c-1.5,1.1-3.2,1.9-5,2.5C608.9,188.3,607,188.6,605.1,188.6z M605.9,182.1
			c1.8,0,3.4-0.5,4.8-1.5c1.4-1,2.7-2.3,3.7-3.9c1-1.6,1.8-3.5,2.3-5.7c0.6-2.1,0.8-4.4,0.8-6.7c0-3.4-0.6-6-1.9-7.6
			c-1.3-1.7-3.2-2.5-5.7-2.5c-1.8,0-3.4,0.5-4.8,1.4c-1.4,1-2.6,2.3-3.6,3.9c-1,1.6-1.8,3.5-2.3,5.7c-0.6,2.2-0.8,4.4-0.8,6.8
			C598.4,178.7,600.9,182.1,605.9,182.1z"/>
		<path class="st11" d="M637.2,188l4.8-39.9h4.3c0.9,0,1.6,0.2,2.1,0.7c0.5,0.5,0.7,1.2,0.7,2.1l-0.4,5.6c1.9-3,3.9-5.2,6.2-6.7
			c2.2-1.5,4.6-2.2,7-2.2c2.6,0,4.5,0.9,5.9,2.6c1.4,1.7,2.1,4.2,2.2,7.5c1.9-3.5,4.1-6,6.5-7.6c2.4-1.6,5-2.4,7.7-2.4
			c3.4,0,5.9,1.3,7.4,3.9c1.5,2.6,2,6.3,1.5,11.2l-3,25.3h-8.3l3-25.3c0.2-1.4,0.3-2.6,0.2-3.6s-0.2-1.9-0.5-2.5
			c-0.3-0.7-0.7-1.2-1.2-1.5c-0.5-0.3-1.2-0.5-2.1-0.5c-1.1,0-2.1,0.3-3.1,0.8c-1,0.5-2,1.3-3,2.4s-1.8,2.3-2.6,3.8
			c-0.8,1.5-1.5,3.2-2.2,5.1l-2.5,21.3h-8.3l3-25.3c0.2-1.4,0.3-2.6,0.2-3.6c0-1-0.2-1.9-0.4-2.5c-0.3-0.7-0.7-1.2-1.2-1.5
			c-0.5-0.3-1.2-0.5-2.1-0.5c-1.2,0-2.3,0.3-3.3,0.9s-2,1.4-3,2.5c-0.9,1.1-1.8,2.4-2.6,4c-0.8,1.6-1.5,3.3-2.2,5.3l-2.5,20.7H637.2
			z"/>
		<path class="st11" d="M730.3,178.7c-0.9,1.5-1.9,2.9-2.9,4.1c-1,1.2-2.1,2.2-3.3,3.1c-1.2,0.9-2.4,1.5-3.7,2
			c-1.3,0.5-2.6,0.7-4,0.7c-1.6,0-3-0.3-4.3-0.9c-1.3-0.6-2.4-1.5-3.4-2.7s-1.7-2.7-2.2-4.4c-0.5-1.8-0.8-3.8-0.8-6.1
			c0-2.4,0.3-4.7,0.9-6.9c0.6-2.2,1.5-4.4,2.6-6.4c1.1-2,2.4-3.8,4-5.5c1.5-1.7,3.3-3.1,5.2-4.3c1.9-1.2,4-2.1,6.2-2.8
			c2.2-0.7,4.6-1,7-1c1.8,0,3.5,0.1,5.2,0.4c1.7,0.3,3.4,0.7,5.1,1.4L737,188h-4.5c-1.1,0-1.8-0.3-2.2-0.8s-0.6-1.2-0.6-2
			L730.3,178.7z M733,153.9c-0.4-0.1-0.9-0.1-1.3-0.1c-0.4,0-0.9,0-1.3,0c-2.3,0-4.4,0.5-6.4,1.6c-2,1-3.7,2.4-5.2,4.2
			c-1.5,1.8-2.6,3.8-3.4,6.1c-0.8,2.3-1.3,4.8-1.3,7.4c0,3,0.5,5.2,1.4,6.6c1,1.4,2.3,2.1,4.1,2.1c1.2,0,2.3-0.4,3.5-1.2
			c1.1-0.8,2.2-1.8,3.2-3.2c1-1.3,2-2.9,2.8-4.7c0.9-1.8,1.6-3.8,2.2-5.9L733,153.9z"/>
		<path class="st11" d="M790.6,149.6l-0.4,2.8c-0.2,1.1-0.7,1.9-1.8,2.2l-4.5,1c0.2,0.6,0.3,1.2,0.4,1.9c0.1,0.6,0.1,1.3,0.1,2
			c0,1.2-0.1,2.4-0.4,3.4c-0.3,1-0.6,1.9-1.1,2.8c-0.4,0.8-0.9,1.6-1.4,2.4c-0.5,0.8-0.9,1.5-1.3,2.3c-0.4,0.8-0.7,1.5-1,2.4
			s-0.4,1.7-0.4,2.7c0,1.1,0.2,2,0.7,2.9c0.5,0.9,1,1.8,1.6,2.8c0.6,1,1.1,2,1.6,3.1c0.5,1.1,0.7,2.4,0.7,3.8c0,1.9-0.5,3.7-1.4,5.5
			c-0.9,1.7-2.1,3.2-3.8,4.5c-1.6,1.3-3.6,2.3-6,3.1c-2.4,0.8-5,1.2-8,1.2c-2.4,0-4.6-0.2-6.5-0.7c-1.9-0.5-3.6-1.2-5-2.1
			c-1.4-0.9-2.4-1.9-3.2-3.2c-0.7-1.2-1.1-2.6-1.1-4.1c0-1.7,0.4-3.3,1.1-4.6c0.7-1.3,1.8-2.4,3-3.4c1.3-0.9,2.7-1.7,4.4-2.2
			c1.7-0.6,3.4-1,5.2-1.2c1.8-0.3,3.7-0.4,5.5-0.3c1.9,0,3.6,0.2,5.3,0.4c-0.2-0.4-0.3-0.9-0.4-1.4c-0.1-0.5-0.2-1-0.2-1.5
			c0-0.8,0.1-1.6,0.3-2.4c0.2-0.8,0.6-1.8,1.1-2.8c-1,0.7-2.1,1.2-3.4,1.6c-1.2,0.4-2.7,0.5-4.4,0.5c-1.5,0-3-0.2-4.3-0.7
			c-1.4-0.5-2.6-1.2-3.6-2.2c-1-1-1.8-2.2-2.4-3.7c-0.6-1.5-0.9-3.2-0.9-5.2c0-1.9,0.4-3.8,1.1-5.6c0.7-1.8,1.8-3.5,3.2-4.9
			c1.4-1.4,3.1-2.6,5.2-3.5c2.1-0.9,4.4-1.3,7.1-1.3c1.5,0,2.9,0.2,4.2,0.5c1.3,0.3,2.5,0.8,3.6,1.5H790.6z M775.8,188.5
			c0-1-0.1-1.9-0.4-2.7c-3.3-0.5-6.1-0.8-8.5-0.7c-2.4,0.1-4.3,0.4-5.8,1c-1.5,0.5-2.6,1.3-3.3,2.1c-0.7,0.9-1.1,1.8-1.1,2.8
			c0,1.7,0.7,3,2.1,3.9c1.4,0.9,3.5,1.3,6.3,1.3c1.6,0,3.1-0.2,4.4-0.6c1.3-0.4,2.4-1,3.4-1.7c0.9-0.7,1.7-1.5,2.2-2.5
			C775.6,190.6,775.8,189.6,775.8,188.5z M768.8,169.7c1.3,0,2.4-0.3,3.4-0.9c1-0.6,1.8-1.3,2.5-2.3s1.2-2,1.5-3.2
			c0.4-1.2,0.5-2.4,0.6-3.6c0-2.1-0.5-3.7-1.6-4.8c-1.1-1.1-2.5-1.6-4.4-1.6c-1.3,0-2.4,0.3-3.4,0.8c-1,0.5-1.8,1.2-2.5,2.1
			c-0.7,0.9-1.2,1.9-1.5,3.1c-0.3,1.2-0.5,2.4-0.5,3.6c0,2.1,0.5,3.8,1.5,4.9C765.4,169.1,766.9,169.7,768.8,169.7z"/>
		<path class="st11" d="M809.8,157.3c2.1-3.2,4.4-5.6,7-7.2c2.6-1.6,5.2-2.4,8-2.4c1.7,0,3.2,0.3,4.5,1s2.4,1.6,3.2,2.9
			s1.4,2.9,1.7,4.7c0.3,1.9,0.3,4,0,6.4l-3,25.3h-8.4l3-25.3c0.4-2.8,0.2-4.9-0.5-6.2c-0.7-1.3-2-1.9-3.8-1.9c-1.2,0-2.3,0.3-3.6,1
			c-1.2,0.7-2.4,1.6-3.5,2.8c-1.1,1.2-2.2,2.6-3.1,4.3c-1,1.7-1.8,3.5-2.4,5.6l-2.2,19.8h-8.4l4.8-39.9h4.3c0.9,0,1.6,0.2,2.1,0.7
			c0.5,0.5,0.7,1.2,0.7,2.1L809.8,157.3z"/>
		<path class="st11" d="M879.4,180.7c-1.4,1.4-2.7,2.6-4,3.6c-1.3,1-2.7,1.8-4,2.5c-1.4,0.7-2.8,1.1-4.3,1.4
			c-1.5,0.3-3.1,0.5-4.9,0.5c-2.3,0-4.4-0.4-6.3-1.2s-3.5-1.9-4.8-3.3c-1.3-1.4-2.3-3.1-3.1-5.1s-1.1-4.3-1.1-6.8
			c0-2.1,0.2-4.1,0.7-6.1c0.4-2,1.1-3.9,2-5.8c0.9-1.8,1.9-3.5,3.1-5.1c1.2-1.5,2.6-2.9,4.2-4c1.6-1.1,3.3-2,5.2-2.6s3.9-1,6-1
			c2.1,0,3.9,0.3,5.4,0.9c1.5,0.6,2.8,1.3,3.8,2.3c1,0.9,1.8,1.9,2.3,3.1s0.7,2.2,0.7,3.3c0,1.7-0.4,3.3-1.1,4.8
			c-0.7,1.5-2,2.8-3.9,3.9c-1.9,1.2-4.4,2.2-7.7,3c-3.2,0.9-7.4,1.5-12.5,2.1c0,0.2,0,0.3,0,0.5s0,0.3,0,0.5c0,3.3,0.7,5.8,2.2,7.5
			c1.4,1.7,3.6,2.5,6.5,2.5c1.8,0,3.3-0.2,4.5-0.7c1.2-0.5,2.2-1,3.1-1.6c0.9-0.6,1.6-1.1,2.2-1.6c0.6-0.5,1.3-0.7,2-0.7
			c0.6,0,1.1,0.3,1.5,0.8L879.4,180.7z M867.6,153.6c-1.5,0-2.8,0.3-4.1,0.9c-1.2,0.6-2.4,1.4-3.3,2.5c-1,1.1-1.8,2.3-2.6,3.8
			c-0.7,1.5-1.3,3-1.7,4.8c3.6-0.5,6.5-1,8.7-1.6s3.9-1.2,5.1-1.9c1.2-0.7,2-1.4,2.4-2.2c0.4-0.8,0.6-1.6,0.6-2.4
			c0-0.4-0.1-0.9-0.3-1.3c-0.2-0.5-0.5-0.9-0.9-1.2c-0.4-0.4-0.9-0.7-1.6-0.9S868.5,153.6,867.6,153.6z"/>
		<path class="st11" d="M931.5,154.7l-4.1,33.3h-8.2l4.1-33.3h-17.7l-2.3,18.4c-0.1,1.1-0.2,1.9-0.3,2.6c-0.1,0.6-0.1,1.1-0.2,1.5
			c0,0.4-0.1,0.6-0.1,0.8c0,0.1,0,0.3,0,0.3c0,1.1,0.3,2,0.8,2.6c0.6,0.6,1.3,0.9,2.3,0.9c0.6,0,1.1-0.1,1.6-0.3
			c0.5-0.2,0.9-0.4,1.2-0.5s0.6-0.4,0.9-0.5c0.2-0.2,0.5-0.3,0.7-0.3c0.3,0,0.5,0.1,0.6,0.2s0.3,0.3,0.4,0.6l1.8,4.1
			c-1.4,1.1-2.9,2-4.6,2.6c-1.7,0.6-3.4,0.9-5.1,0.9c-2.7,0-4.9-0.7-6.4-2.2c-1.6-1.5-2.4-3.6-2.5-6.3c0-0.2,0-0.4,0-0.6
			c0-0.2,0-0.6,0.1-1.1c0-0.5,0.1-1.1,0.2-1.9c0.1-0.8,0.2-1.8,0.4-3l2.4-18.9h-4c-0.4,0-0.8-0.1-1.1-0.4c-0.3-0.3-0.4-0.7-0.3-1.3
			l0.4-3.2l6.1-0.9l3.1-11.6c0.2-0.4,0.4-0.8,0.7-1.1c0.3-0.3,0.7-0.4,1.2-0.4h4.5l-1.7,13.1h25.8L931.5,154.7z M935.5,136.2
			c0,0.8-0.2,1.5-0.5,2.1c-0.3,0.7-0.7,1.3-1.3,1.8s-1.1,0.9-1.8,1.2c-0.7,0.3-1.3,0.4-2,0.4s-1.4-0.1-2-0.4
			c-0.6-0.3-1.2-0.7-1.7-1.2c-0.5-0.5-0.9-1.1-1.2-1.8c-0.3-0.7-0.5-1.4-0.5-2.1c0-0.8,0.2-1.5,0.5-2.2c0.3-0.7,0.7-1.3,1.2-1.8
			c0.5-0.5,1.1-0.9,1.7-1.2s1.3-0.4,2-0.4c0.7,0,1.4,0.2,2.1,0.4s1.3,0.7,1.8,1.2c0.5,0.5,0.9,1.1,1.2,1.8
			C935.4,134.7,935.5,135.4,935.5,136.2z"/>
		<path class="st11" d="M974.4,180.9c-1.3,1.5-2.6,2.7-3.9,3.7c-1.2,1-2.5,1.8-3.7,2.4c-1.2,0.6-2.5,1-3.9,1.3
			c-1.4,0.2-2.8,0.4-4.4,0.4c-2.3,0-4.4-0.4-6.2-1.2c-1.8-0.8-3.3-1.9-4.6-3.4c-1.2-1.4-2.2-3.2-2.8-5.2c-0.7-2-1-4.3-1-6.7
			c0-2.1,0.2-4.2,0.7-6.3c0.5-2.1,1.1-4,2-5.8s1.9-3.5,3.2-5s2.6-2.8,4.2-3.9c1.5-1.1,3.2-1.9,5-2.6s3.7-0.9,5.8-0.9
			c2.7,0,4.9,0.5,6.8,1.4c1.8,0.9,3.4,2.3,4.8,4.1l-2.7,3.2c-0.2,0.2-0.4,0.4-0.7,0.6c-0.3,0.2-0.6,0.3-0.9,0.3
			c-0.4,0-0.8-0.1-1.1-0.4c-0.4-0.3-0.8-0.6-1.3-1c-0.5-0.4-1.2-0.7-2-1s-1.8-0.4-3-0.4c-1.7,0-3.2,0.4-4.7,1.3
			c-1.5,0.9-2.8,2.1-3.9,3.7c-1.1,1.6-2,3.5-2.7,5.6c-0.7,2.2-1,4.6-1,7.1c0,3.1,0.7,5.5,2.1,7.2c1.4,1.7,3.3,2.6,5.9,2.6
			c1.6,0,3-0.2,4.1-0.7c1.1-0.5,2-1,2.7-1.5s1.4-1.1,2-1.5c0.6-0.5,1.1-0.7,1.7-0.7c0.6,0,1.1,0.3,1.5,0.8L974.4,180.9z"/>
		<path class="st11" d="M1086.5,131.9l-23.2,56.2h-8l-7-40.8c-0.1-0.5-0.2-1-0.2-1.5c-0.1-0.5-0.1-1.1-0.2-1.7
			c-0.2,0.6-0.4,1.2-0.6,1.7c-0.2,0.5-0.4,1.1-0.6,1.5l-17.1,40.8h-8l-9.3-56.2h7c0.8,0,1.4,0.2,1.9,0.6c0.5,0.4,0.7,0.9,0.8,1.5
			l5.5,36.8c0.1,0.8,0.2,1.6,0.2,2.5c0.1,0.9,0.1,1.8,0.2,2.8c0.3-1,0.6-1.9,0.9-2.8c0.3-0.9,0.7-1.7,1-2.5l15.4-36.8
			c0.2-0.5,0.6-1,1.2-1.4c0.6-0.4,1.2-0.6,2-0.6h2c0.8,0,1.4,0.2,1.8,0.6c0.5,0.4,0.8,0.9,0.9,1.5l6.3,36.8c0.1,0.8,0.2,1.6,0.4,2.4
			c0.1,0.9,0.2,1.8,0.2,2.7c0.3-0.9,0.6-1.8,0.8-2.7c0.3-0.9,0.5-1.7,0.8-2.4l14.6-36.8c0.2-0.5,0.6-1,1.2-1.4s1.3-0.6,2.1-0.6
			H1086.5z"/>
		<path class="st11" d="M1111.7,178.7c-0.9,1.5-1.9,2.9-2.9,4.1c-1,1.2-2.1,2.2-3.3,3.1s-2.4,1.5-3.7,2c-1.3,0.5-2.6,0.7-4,0.7
			c-1.6,0-3-0.3-4.3-0.9c-1.3-0.6-2.4-1.5-3.4-2.7c-0.9-1.2-1.7-2.7-2.2-4.4c-0.5-1.8-0.8-3.8-0.8-6.1c0-2.4,0.3-4.7,0.9-6.9
			c0.6-2.2,1.5-4.4,2.6-6.4c1.1-2,2.4-3.8,4-5.5c1.5-1.7,3.3-3.1,5.2-4.3c1.9-1.2,4-2.1,6.2-2.8s4.6-1,7-1c1.8,0,3.5,0.1,5.2,0.4
			c1.7,0.3,3.4,0.7,5.1,1.4l-4.8,38.5h-4.5c-1.1,0-1.8-0.3-2.2-0.8c-0.4-0.5-0.6-1.2-0.6-2L1111.7,178.7z M1114.4,153.9
			c-0.4-0.1-0.9-0.1-1.3-0.1c-0.4,0-0.9,0-1.3,0c-2.3,0-4.4,0.5-6.4,1.6c-2,1-3.7,2.4-5.2,4.2s-2.6,3.8-3.4,6.1
			c-0.8,2.3-1.3,4.8-1.3,7.4c0,3,0.5,5.2,1.4,6.6c1,1.4,2.3,2.1,4.1,2.1c1.2,0,2.3-0.4,3.5-1.2c1.1-0.8,2.2-1.8,3.2-3.2
			c1-1.3,2-2.9,2.8-4.7c0.9-1.8,1.6-3.8,2.2-5.9L1114.4,153.9z"/>
		<path class="st11" d="M1172.3,148.2l-19.9,39.8h-7.1l-10.2-39.8h6.9c0.6,0,1.1,0.2,1.5,0.5s0.6,0.7,0.7,1.2l5,23.2
			c0.2,1.2,0.4,2.3,0.5,3.4c0.1,1.1,0.2,2.3,0.3,3.4c0.4-1.1,0.7-2.2,1.1-3.4c0.4-1.1,0.8-2.3,1.3-3.5l10.9-23.2
			c0.2-0.5,0.5-0.9,1-1.2c0.4-0.3,0.9-0.5,1.4-0.5H1172.3z"/>
		<path class="st11" d="M1210.6,180.7c-1.4,1.4-2.7,2.6-4,3.6c-1.3,1-2.7,1.8-4,2.5c-1.4,0.7-2.8,1.1-4.3,1.4
			c-1.5,0.3-3.1,0.5-4.9,0.5c-2.3,0-4.4-0.4-6.3-1.2s-3.5-1.9-4.8-3.3c-1.3-1.4-2.3-3.1-3.1-5.1s-1.1-4.3-1.1-6.8
			c0-2.1,0.2-4.1,0.7-6.1c0.4-2,1.1-3.9,2-5.8c0.9-1.8,1.9-3.5,3.1-5.1c1.2-1.5,2.6-2.9,4.2-4c1.6-1.1,3.3-2,5.2-2.6s3.9-1,6-1
			c2.1,0,3.9,0.3,5.4,0.9c1.5,0.6,2.8,1.3,3.8,2.3c1,0.9,1.8,1.9,2.3,3.1s0.7,2.2,0.7,3.3c0,1.7-0.4,3.3-1.1,4.8
			c-0.7,1.5-2,2.8-3.9,3.9c-1.9,1.2-4.4,2.2-7.7,3c-3.2,0.9-7.4,1.5-12.5,2.1c0,0.2,0,0.3,0,0.5s0,0.3,0,0.5c0,3.3,0.7,5.8,2.2,7.5
			c1.4,1.7,3.6,2.5,6.5,2.5c1.8,0,3.3-0.2,4.5-0.7c1.2-0.5,2.2-1,3.1-1.6c0.9-0.6,1.6-1.1,2.2-1.6c0.6-0.5,1.3-0.7,2-0.7
			c0.6,0,1.1,0.3,1.5,0.8L1210.6,180.7z M1198.8,153.6c-1.5,0-2.8,0.3-4.1,0.9c-1.2,0.6-2.4,1.4-3.3,2.5c-1,1.1-1.8,2.3-2.6,3.8
			c-0.7,1.5-1.3,3-1.7,4.8c3.6-0.5,6.5-1,8.7-1.6s3.9-1.2,5.1-1.9c1.2-0.7,2-1.4,2.4-2.2c0.4-0.8,0.6-1.6,0.6-2.4
			c0-0.4-0.1-0.9-0.3-1.3c-0.2-0.5-0.5-0.9-0.9-1.2c-0.4-0.4-0.9-0.7-1.6-0.9S1199.7,153.6,1198.8,153.6z"/>
	</g>
</g>
<g>
	<linearGradient id="SVGID_1_" gradientUnits="userSpaceOnUse" x1="246.8856" y1="966.1694" x2="418.4021" y2="966.1694">
		<stop  offset="0.3102" style="stop-color:#0DB0EF"/>
		<stop  offset="0.9692" style="stop-color:#0088FF"/>
	</linearGradient>
	<path class="st35" d="M415.4,954.1c-9.4-14-40.2-16.3-94.1-7.3c-30.8,5.2-60.3,12.7-71.1,15.6c-2.4,0.6-3.8,3.1-3.1,5.5l0,0.1
		c0.6,2.3,3,3.6,5.2,3c55.2-15.1,142.9-30.9,155.7-11.9c3.8,5.6-0.3,14.5-5.6,22.5l4.1,9.5C418.5,975.1,421.4,963,415.4,954.1z"/>
	<polygon class="st36" points="219.4,1073.8 211.8,1056.7 238.8,1060.9 412.1,983.6 401.1,706 380.4,706 403.9,674.3 428.6,706 
		408.1,706 420.9,983.2 1432.5,1104.3 1434,1095.1 1471,1110.7 1429,1120.2 1429.6,1109.8 418.1,989.3 253.1,1062.5 274.4,1067 	"/>
	<path class="st37" d="M947.2,825.5l302.9,23.3l0.6-18.2l43.5,25.3l-45.8,19.7l1.2-15.5l-302.7-24.5c-1.3-0.1-2.2-1.2-2.2-2.4v-5.1
		C944.6,826.5,945.8,825.4,947.2,825.5z"/>
	<g>
		<path class="st37" d="M895.7,772l-0.5,7.4l10.1,0.6l-0.3,5.4l-10.1-0.6l-0.5,7.6l13.2,0.8l-0.3,5.7l-20.6-1.3l2-31.7l20.6,1.3
			l-0.3,5.7L895.7,772z"/>
		<path class="st37" d="M923.4,767.2l-2,32.6l-6.8-0.4l2-32.6L923.4,767.2z"/>
		<path class="st37" d="M935.8,790.5c0.1,1.9,0.6,3.3,1.5,4.2c0.9,0.9,2.1,1.4,3.5,1.5c0.8,0,1.5,0,2.1-0.2c0.6-0.2,1.1-0.3,1.6-0.5
			s0.9-0.4,1.3-0.6c0.4-0.2,0.8-0.2,1.2-0.2c0.5,0,0.9,0.3,1.2,0.7l1.8,2.5c-0.8,0.8-1.6,1.4-2.4,1.8c-0.8,0.5-1.7,0.8-2.6,1
			c-0.9,0.2-1.7,0.4-2.6,0.4c-0.9,0.1-1.7,0.1-2.5,0c-1.6-0.1-3.1-0.4-4.4-1c-1.4-0.6-2.5-1.4-3.5-2.5c-1-1.1-1.7-2.4-2.3-3.9
			s-0.7-3.3-0.6-5.3c0.1-1.5,0.4-2.9,1-4.2c0.6-1.3,1.4-2.5,2.5-3.4c1-1,2.3-1.7,3.7-2.2c1.4-0.5,3-0.7,4.7-0.6
			c1.5,0.1,2.9,0.4,4.1,1c1.2,0.5,2.3,1.3,3.1,2.2c0.8,0.9,1.5,2.1,1.9,3.4c0.4,1.3,0.6,2.8,0.5,4.4c0,0.5-0.1,0.9-0.1,1.2
			c-0.1,0.3-0.2,0.6-0.3,0.7c-0.1,0.2-0.3,0.3-0.5,0.4c-0.2,0.1-0.5,0.1-0.8,0.1L935.8,790.5z M944.6,787.2c0-0.5,0-1.1-0.1-1.6
			c-0.1-0.5-0.3-1-0.6-1.4c-0.3-0.4-0.7-0.8-1.2-1c-0.5-0.3-1.1-0.4-1.8-0.5c-1.3-0.1-2.3,0.2-3.1,0.9c-0.8,0.7-1.3,1.7-1.6,3.1
			L944.6,787.2z"/>
		<path class="st37" d="M974.7,785.8c-0.2,0.2-0.4,0.4-0.6,0.6c-0.2,0.1-0.5,0.2-0.8,0.2c-0.3,0-0.6-0.1-0.9-0.3
			c-0.3-0.2-0.6-0.4-0.9-0.6s-0.7-0.4-1.2-0.6s-1-0.3-1.7-0.3c-0.8-0.1-1.6,0.1-2.2,0.3c-0.6,0.3-1.2,0.7-1.6,1.2s-0.8,1.2-1,2
			c-0.2,0.8-0.4,1.7-0.5,2.8c-0.1,2.2,0.2,3.8,1,5.1c0.8,1.2,1.9,1.9,3.4,2c0.8,0,1.4,0,1.9-0.2c0.5-0.2,0.9-0.4,1.2-0.6
			c0.3-0.2,0.6-0.4,0.9-0.6c0.3-0.2,0.6-0.3,1-0.2c0.5,0,0.9,0.3,1.2,0.7l1.8,2.5c-0.8,0.8-1.5,1.4-2.3,1.8s-1.6,0.8-2.5,1
			c-0.8,0.2-1.7,0.4-2.5,0.4c-0.8,0.1-1.6,0.1-2.4,0c-1.4-0.1-2.7-0.4-3.9-1c-1.2-0.6-2.3-1.4-3.2-2.5c-0.9-1.1-1.6-2.3-2.1-3.8
			c-0.5-1.5-0.7-3.2-0.5-5c0.1-1.6,0.4-3.1,1-4.5c0.6-1.4,1.4-2.6,2.4-3.5s2.3-1.7,3.7-2.2c1.5-0.5,3.1-0.7,5-0.6
			c1.8,0.1,3.3,0.5,4.7,1.1c1.3,0.6,2.5,1.5,3.5,2.7L974.7,785.8z"/>
		<path class="st37" d="M989.9,804.3c-1.1-0.1-2-0.3-2.8-0.6c-0.8-0.4-1.5-0.8-2-1.5c-0.5-0.6-0.9-1.3-1.2-2.2
			c-0.2-0.8-0.3-1.7-0.3-2.7l0.7-11.7l-1.9-0.1c-0.4,0-0.6-0.2-0.9-0.4s-0.3-0.6-0.3-1l0.2-2.6l3.7-0.5l1.7-5.4c0.2-0.7,0.7-1,1.6-1
			l3.6,0.2l-0.4,6.6l5.7,0.3l-0.3,4.6l-5.7-0.3l-0.7,11.2c0,0.5,0.1,1,0.3,1.3c0.2,0.4,0.6,0.5,1.1,0.6c0.2,0,0.5,0,0.6,0
			c0.2,0,0.3-0.1,0.5-0.1c0.1-0.1,0.3-0.1,0.4-0.2s0.2-0.1,0.4-0.1c0.2,0,0.4,0.1,0.5,0.2s0.2,0.3,0.4,0.5l1.9,3.3
			c-0.9,0.6-1.9,1-3.1,1.3C992.3,804.3,991.1,804.4,989.9,804.3z"/>
		<path class="st37" d="M1009.8,786.1c0.8-1.2,1.6-2.1,2.6-2.7c1-0.6,2-0.9,3.2-0.9c1,0.1,1.8,0.4,2.5,0.9l-0.7,4.9
			c-0.1,0.3-0.2,0.5-0.4,0.6s-0.4,0.1-0.7,0.1c-0.1,0-0.3,0-0.5,0c-0.2,0-0.4-0.1-0.6-0.1s-0.4-0.1-0.6-0.1c-0.2,0-0.4-0.1-0.6-0.1
			c-1-0.1-1.8,0.2-2.4,0.6c-0.6,0.5-1.2,1.2-1.6,2.1l-0.8,13.7l-6.8-0.4l1.4-22.6l4,0.2c0.3,0,0.6,0.1,0.8,0.1
			c0.2,0.1,0.4,0.2,0.6,0.3c0.1,0.1,0.3,0.3,0.3,0.5s0.1,0.5,0.2,0.8L1009.8,786.1z"/>
		<path class="st37" d="M1034.1,783.7c1.7,0.1,3.3,0.5,4.7,1.1c1.4,0.6,2.6,1.5,3.5,2.5c1,1.1,1.7,2.3,2.2,3.8
			c0.5,1.5,0.7,3.1,0.5,4.9c-0.1,1.8-0.5,3.4-1.1,4.8c-0.7,1.4-1.5,2.6-2.6,3.5c-1.1,0.9-2.3,1.6-3.8,2.1c-1.5,0.5-3,0.6-4.8,0.5
			c-1.7-0.1-3.3-0.5-4.7-1.1c-1.4-0.6-2.6-1.5-3.6-2.6s-1.7-2.3-2.2-3.8c-0.5-1.5-0.7-3.1-0.5-4.9c0.1-1.8,0.5-3.4,1.1-4.8
			c0.7-1.4,1.5-2.6,2.6-3.5c1.1-0.9,2.4-1.6,3.8-2.1S1032.4,783.6,1034.1,783.7z M1033,802c1.6,0.1,2.8-0.4,3.6-1.4
			c0.8-1.1,1.3-2.7,1.4-4.9c0.1-2.2-0.1-3.9-0.8-5.1c-0.7-1.1-1.8-1.7-3.4-1.8c-1.6-0.1-2.8,0.4-3.6,1.4c-0.8,1-1.3,2.7-1.4,4.9
			c-0.1,2.2,0.1,3.9,0.8,5.1C1030.2,801.2,1031.4,801.9,1033,802z"/>
		<path class="st37" d="M1051.3,807.8l1.4-22.6l4.2,0.3c0.9,0.1,1.4,0.5,1.6,1.2l0.3,1.2c0.4-0.4,0.8-0.7,1.3-1
			c0.4-0.3,0.9-0.6,1.4-0.8c0.5-0.2,1-0.4,1.6-0.5c0.6-0.1,1.2-0.1,1.8-0.1c1.4,0.1,2.5,0.5,3.4,1.3c0.9,0.8,1.5,1.7,1.9,2.9
			c0.4-0.7,0.9-1.2,1.5-1.7c0.6-0.5,1.2-0.8,1.9-1.1c0.7-0.3,1.3-0.4,2.1-0.5c0.7-0.1,1.4-0.1,2.1-0.1c1.3,0.1,2.4,0.3,3.4,0.8
			c1,0.4,1.8,1.1,2.4,1.8c0.6,0.8,1.1,1.7,1.4,2.8c0.3,1.1,0.4,2.3,0.3,3.7l-0.9,14.3l-6.8-0.4l0.9-14.3c0.1-2.3-0.8-3.6-2.8-3.7
			c-0.9-0.1-1.7,0.2-2.4,0.8c-0.6,0.6-1,1.4-1.1,2.5l-0.9,14.3l-6.8-0.4l0.9-14.3c0.1-1.3-0.1-2.2-0.6-2.8c-0.5-0.6-1.2-0.9-2.2-0.9
			c-0.6,0-1.2,0.1-1.8,0.3c-0.6,0.2-1.1,0.6-1.6,1l-1,16.3L1051.3,807.8z"/>
		<path class="st37" d="M1093,790.8c1.5-1.1,3-1.9,4.7-2.4s3.5-0.7,5.5-0.5c1.4,0.1,2.6,0.4,3.7,0.9c1.1,0.5,2,1.2,2.7,2
			c0.7,0.8,1.3,1.8,1.6,2.9c0.3,1.1,0.5,2.3,0.4,3.6l-0.9,14.1l-3.1-0.2c-0.6,0-1.1-0.2-1.4-0.4c-0.3-0.2-0.6-0.6-0.8-1.1l-0.4-1.3
			c-0.6,0.4-1.2,0.8-1.7,1.2c-0.5,0.3-1.1,0.6-1.7,0.8c-0.6,0.2-1.2,0.4-1.8,0.5c-0.6,0.1-1.4,0.1-2.1,0.1c-1-0.1-2-0.3-2.8-0.6
			c-0.8-0.3-1.5-0.8-2.1-1.3c-0.6-0.6-1-1.2-1.3-2c-0.3-0.8-0.4-1.7-0.3-2.7c0-0.8,0.3-1.6,0.8-2.4c0.5-0.8,1.2-1.5,2.3-2.2
			c1.1-0.6,2.5-1.1,4.2-1.5c1.7-0.4,3.9-0.5,6.5-0.4l0.1-1c0.1-1.3-0.1-2.3-0.6-2.9s-1.3-1-2.3-1c-0.8,0-1.5,0-2,0.1
			c-0.5,0.1-1,0.3-1.4,0.5c-0.4,0.2-0.8,0.4-1.2,0.5c-0.4,0.1-0.9,0.2-1.4,0.2c-0.5,0-0.9-0.2-1.2-0.4s-0.6-0.5-0.7-0.9L1093,790.8z
			 M1104.6,801.8c-1.4,0-2.5,0-3.4,0.1c-0.9,0.1-1.6,0.3-2.1,0.5c-0.5,0.2-0.9,0.5-1.1,0.8c-0.2,0.3-0.3,0.7-0.4,1.1
			c0,0.8,0.1,1.3,0.5,1.7c0.4,0.3,1,0.5,1.8,0.6c0.9,0.1,1.7-0.1,2.3-0.3c0.7-0.3,1.4-0.7,2.1-1.4L1104.6,801.8z"/>
		<path class="st37" d="M1140.6,791.3l-0.2,2.5c0,0.4-0.1,0.7-0.4,0.9c-0.2,0.2-0.6,0.3-1.1,0.4l-1.7,0.3c0.1,0.3,0.1,0.7,0.1,1
			s0,0.7,0,1c-0.1,1.1-0.4,2.1-0.9,3c-0.5,0.9-1.2,1.6-2.1,2.2c-0.9,0.6-1.9,1-3,1.3c-1.1,0.3-2.4,0.4-3.7,0.3c-0.4,0-0.7-0.1-1-0.1
			c-0.3,0-0.7-0.1-1-0.2c-0.5,0.3-0.8,0.6-0.8,1c0,0.4,0.2,0.7,0.6,0.9c0.4,0.2,0.9,0.3,1.6,0.4c0.7,0.1,1.4,0.2,2.3,0.3
			c0.9,0.1,1.7,0.2,2.6,0.3c0.9,0.1,1.8,0.3,2.6,0.6c0.8,0.2,1.6,0.6,2.2,1.1c0.6,0.5,1.2,1.1,1.5,1.8c0.4,0.7,0.5,1.6,0.4,2.7
			c-0.1,1-0.4,2-0.9,2.9c-0.6,0.9-1.3,1.8-2.4,2.5c-1,0.7-2.2,1.2-3.7,1.6c-1.4,0.4-3.1,0.5-4.9,0.4c-1.8-0.1-3.3-0.4-4.6-0.8
			c-1.3-0.4-2.3-0.9-3.2-1.5s-1.4-1.3-1.8-2c-0.4-0.7-0.5-1.5-0.5-2.3c0.1-1,0.4-1.8,1-2.4c0.6-0.6,1.5-1.1,2.6-1.5
			c-0.5-0.4-1-0.8-1.2-1.4c-0.3-0.5-0.4-1.2-0.4-2.1c0-0.3,0.1-0.7,0.2-1c0.1-0.4,0.3-0.7,0.6-1.1c0.3-0.3,0.6-0.7,1-1
			c0.4-0.3,0.9-0.6,1.4-0.8c-1.1-0.7-2-1.6-2.7-2.6s-0.9-2.3-0.8-3.6c0.1-1.1,0.4-2.1,0.9-3c0.5-0.9,1.2-1.6,2.1-2.2
			c0.9-0.6,1.9-1,3.1-1.3c1.2-0.3,2.4-0.4,3.7-0.3c1.9,0.1,3.6,0.6,5.1,1.4L1140.6,791.3z M1132.5,813.6c0-0.5-0.2-0.9-0.7-1.2
			c-0.5-0.3-1.1-0.5-1.9-0.6c-0.8-0.1-1.6-0.3-2.6-0.3c-1-0.1-1.9-0.2-2.9-0.3c-0.4,0.3-0.8,0.6-1.1,0.9s-0.5,0.7-0.5,1.2
			c0,0.3,0,0.6,0.2,0.9c0.1,0.3,0.4,0.5,0.7,0.7c0.3,0.2,0.8,0.4,1.4,0.5s1.3,0.2,2.2,0.3c1,0.1,1.8,0.1,2.4,0
			c0.6-0.1,1.1-0.2,1.5-0.4c0.4-0.2,0.7-0.4,0.8-0.7C1132.4,814.2,1132.5,813.9,1132.5,813.6z M1128.1,800c1.1,0.1,2-0.2,2.5-0.7
			c0.5-0.5,0.8-1.2,0.9-2.1c0.1-0.9-0.2-1.6-0.6-2.2c-0.5-0.6-1.3-0.9-2.4-0.9s-2,0.1-2.5,0.6s-0.8,1.2-0.9,2.1c0,0.4,0,0.8,0.1,1.2
			c0.1,0.4,0.3,0.7,0.5,1c0.2,0.3,0.6,0.5,1,0.7C1127,799.8,1127.5,799.9,1128.1,800z"/>
		<path class="st37" d="M1153.3,793.8c0.5-0.4,0.9-0.7,1.4-1c0.5-0.3,1-0.6,1.6-0.8s1.1-0.4,1.8-0.5c0.6-0.1,1.3-0.1,2-0.1
			c1.2,0.1,2.3,0.4,3.3,0.8c0.9,0.5,1.7,1.1,2.3,1.9c0.6,0.8,1.1,1.7,1.3,2.8c0.3,1.1,0.4,2.2,0.3,3.5l-0.9,14.3l-6.8-0.4l0.9-14.3
			c0.1-1.1-0.1-2-0.6-2.6c-0.5-0.6-1.2-1-2.2-1.1c-0.7,0-1.5,0.1-2.1,0.3c-0.7,0.3-1.3,0.7-2,1.2l-1,16.1l-6.8-0.4l1.4-22.6l4.2,0.3
			c0.9,0.1,1.4,0.5,1.6,1.2L1153.3,793.8z"/>
		<path class="st37" d="M1180.6,805.6c0.1,1.9,0.6,3.3,1.5,4.2c0.9,0.9,2.1,1.4,3.5,1.5c0.8,0,1.5,0,2.1-0.2
			c0.6-0.2,1.1-0.3,1.6-0.5s0.9-0.4,1.3-0.6c0.4-0.2,0.8-0.2,1.2-0.2c0.5,0,0.9,0.3,1.2,0.7l1.8,2.5c-0.8,0.8-1.6,1.4-2.4,1.8
			c-0.8,0.5-1.7,0.8-2.6,1c-0.9,0.2-1.7,0.4-2.6,0.4c-0.9,0.1-1.7,0.1-2.5,0c-1.6-0.1-3.1-0.4-4.4-1c-1.4-0.6-2.5-1.4-3.5-2.5
			c-1-1.1-1.7-2.4-2.3-3.9c-0.5-1.5-0.7-3.3-0.6-5.3c0.1-1.5,0.4-2.9,1-4.2c0.6-1.3,1.4-2.5,2.5-3.4c1-1,2.3-1.7,3.7-2.2
			c1.4-0.5,3-0.7,4.8-0.6c1.5,0.1,2.9,0.4,4.1,1c1.2,0.5,2.3,1.3,3.1,2.2c0.8,0.9,1.5,2.1,1.9,3.4c0.4,1.3,0.6,2.8,0.5,4.4
			c0,0.5-0.1,0.9-0.1,1.2c-0.1,0.3-0.2,0.6-0.3,0.7c-0.1,0.2-0.3,0.3-0.5,0.4c-0.2,0.1-0.5,0.1-0.8,0.1L1180.6,805.6z M1189.4,802.2
			c0-0.5,0-1.1-0.1-1.6c-0.1-0.5-0.3-1-0.6-1.4c-0.3-0.4-0.7-0.8-1.2-1c-0.5-0.3-1.1-0.4-1.8-0.5c-1.3-0.1-2.3,0.2-3.1,0.9
			c-0.8,0.7-1.3,1.7-1.6,3.1L1189.4,802.2z"/>
		<path class="st37" d="M1226,818.5l-6.8-0.4l1.1-17.9l-9.5-0.6l-0.7,11.2c0,0.5,0.1,1,0.3,1.3c0.2,0.4,0.6,0.6,1.1,0.6
			c0.2,0,0.5,0,0.6,0c0.2,0,0.3-0.1,0.5-0.1c0.1-0.1,0.3-0.1,0.4-0.2c0.1,0,0.2-0.1,0.4-0.1c0.2,0,0.4,0.1,0.5,0.2s0.2,0.3,0.4,0.5
			l1.9,3.3c-0.9,0.6-1.9,1-3.1,1.3c-1.1,0.3-2.3,0.4-3.4,0.3c-1.1-0.1-2-0.3-2.8-0.6c-0.8-0.4-1.5-0.8-2-1.5
			c-0.5-0.6-0.9-1.3-1.2-2.2c-0.2-0.8-0.3-1.7-0.3-2.7l0.7-11.7l-1.9-0.1c-0.4,0-0.6-0.2-0.9-0.4c-0.2-0.2-0.3-0.6-0.3-1l0.2-2.6
			l3.7-0.5l1.7-5.4c0.2-0.7,0.7-1,1.6-1l3.6,0.2l-0.4,6.6l16.4,1L1226,818.5z M1228.7,789.8c0,0.5-0.2,1-0.4,1.5
			c-0.2,0.5-0.6,0.9-1,1.2c-0.4,0.3-0.9,0.6-1.4,0.8c-0.5,0.2-1.1,0.2-1.6,0.2c-0.6,0-1.1-0.2-1.5-0.4c-0.5-0.2-0.9-0.5-1.2-0.9
			c-0.4-0.4-0.6-0.8-0.8-1.3c-0.2-0.5-0.3-1-0.2-1.5s0.2-1,0.4-1.5s0.6-0.9,1-1.2c0.4-0.3,0.8-0.6,1.3-0.8c0.5-0.2,1-0.3,1.6-0.2
			c0.6,0,1.1,0.2,1.6,0.4c0.5,0.2,0.9,0.6,1.3,0.9c0.4,0.4,0.6,0.8,0.8,1.3C1228.6,788.7,1228.7,789.3,1228.7,789.8z"/>
		<path class="st37" d="M1252.1,802.8c-0.2,0.2-0.4,0.4-0.6,0.6c-0.2,0.1-0.5,0.2-0.8,0.2c-0.3,0-0.6-0.1-0.9-0.3
			c-0.3-0.2-0.6-0.4-0.9-0.6s-0.7-0.4-1.2-0.6s-1-0.3-1.7-0.3c-0.8-0.1-1.6,0.1-2.2,0.3c-0.6,0.3-1.2,0.7-1.6,1.2s-0.8,1.2-1,2
			c-0.2,0.8-0.4,1.7-0.5,2.8c-0.1,2.2,0.2,3.8,1,5.1c0.8,1.2,1.9,1.9,3.4,2c0.8,0,1.4,0,1.9-0.2c0.5-0.2,0.9-0.4,1.2-0.6
			c0.3-0.2,0.6-0.4,0.9-0.6c0.3-0.2,0.6-0.3,1-0.2c0.5,0,0.9,0.3,1.2,0.7l1.8,2.5c-0.8,0.8-1.5,1.4-2.3,1.8s-1.6,0.8-2.5,1
			c-0.8,0.2-1.7,0.4-2.5,0.4c-0.8,0.1-1.6,0.1-2.4,0c-1.4-0.1-2.7-0.4-3.9-1c-1.2-0.6-2.3-1.4-3.2-2.5c-0.9-1.1-1.6-2.3-2.1-3.8
			c-0.5-1.5-0.7-3.2-0.5-5c0.1-1.6,0.4-3.1,1-4.5c0.6-1.4,1.4-2.6,2.4-3.5s2.3-1.7,3.7-2.2c1.5-0.5,3.1-0.7,5-0.6
			c1.8,0.1,3.3,0.5,4.7,1.1c1.3,0.6,2.5,1.5,3.5,2.7L1252.1,802.8z"/>
		<path class="st37" d="M1319.4,792.4l-11.8,31.1l-6.7-0.4l-4.8-20c-0.1-0.3-0.2-0.7-0.3-1c-0.1-0.4-0.2-0.8-0.2-1.2
			c-0.1,0.4-0.3,0.8-0.4,1.1c-0.1,0.4-0.3,0.7-0.4,1l-7.3,19.3l-6.7-0.4l-7.9-32.3l6.2,0.4c0.6,0,1.2,0.2,1.6,0.5
			c0.4,0.3,0.7,0.7,0.8,1.2l3.4,16.8c0.1,0.5,0.2,1.1,0.3,1.7c0.1,0.6,0.2,1.3,0.3,2c0.3-1.3,0.7-2.5,1.2-3.6l6.2-16.2
			c0.2-0.4,0.5-0.7,0.9-1c0.5-0.3,1-0.4,1.6-0.4l2.2,0.1c0.6,0,1.2,0.2,1.5,0.5s0.7,0.7,0.8,1.2l4.1,16.9c0.3,1,0.6,2.2,0.8,3.5
			c0.2-0.6,0.3-1.3,0.5-1.8c0.2-0.6,0.3-1.1,0.5-1.6l5.4-16.3c0.1-0.4,0.4-0.8,0.9-1.1c0.5-0.3,1-0.4,1.6-0.4L1319.4,792.4z"/>
		<path class="st37" d="M1321.1,804.8c1.5-1.1,3-1.9,4.7-2.4c1.7-0.5,3.5-0.7,5.5-0.5c1.4,0.1,2.6,0.4,3.7,0.9c1.1,0.5,2,1.2,2.7,2
			c0.7,0.8,1.3,1.8,1.6,2.9c0.3,1.1,0.5,2.3,0.4,3.6l-0.9,14.1l-3.1-0.2c-0.6,0-1.1-0.2-1.4-0.4c-0.3-0.2-0.6-0.6-0.8-1.1l-0.4-1.3
			c-0.6,0.4-1.2,0.8-1.7,1.2c-0.5,0.3-1.1,0.6-1.7,0.8c-0.6,0.2-1.2,0.4-1.8,0.5s-1.4,0.1-2.1,0.1c-1-0.1-2-0.3-2.8-0.6
			c-0.8-0.3-1.5-0.8-2.1-1.3c-0.6-0.6-1-1.2-1.3-2c-0.3-0.8-0.4-1.7-0.3-2.7c0-0.8,0.3-1.6,0.8-2.4c0.5-0.8,1.2-1.5,2.3-2.2
			c1.1-0.6,2.5-1.1,4.2-1.5c1.7-0.4,3.9-0.5,6.5-0.4l0.1-1c0.1-1.3-0.1-2.3-0.6-2.9c-0.5-0.6-1.3-1-2.3-1c-0.8,0-1.5,0-2,0.1
			c-0.5,0.1-1,0.3-1.4,0.5c-0.4,0.2-0.8,0.4-1.2,0.5c-0.4,0.1-0.9,0.2-1.4,0.2c-0.5,0-0.9-0.2-1.2-0.4c-0.3-0.3-0.6-0.5-0.7-0.9
			L1321.1,804.8z M1332.8,815.9c-1.4,0-2.5,0-3.4,0.1s-1.6,0.3-2.1,0.5c-0.5,0.2-0.9,0.5-1.1,0.8c-0.2,0.3-0.3,0.7-0.4,1.1
			c0,0.8,0.1,1.3,0.5,1.7c0.4,0.3,1,0.5,1.8,0.6c0.9,0.1,1.7-0.1,2.3-0.3c0.7-0.3,1.4-0.7,2.1-1.4L1332.8,815.9z"/>
		<path class="st37" d="M1369.6,804.7l-10.2,22l-6.2-0.4l-7.5-23.1l5.7,0.3c0.5,0,0.9,0.2,1.2,0.4c0.3,0.2,0.5,0.5,0.6,0.9l2.5,10.3
			c0.2,0.8,0.4,1.7,0.6,2.5c0.2,0.8,0.3,1.6,0.4,2.4c0.4-1.5,1-3.1,1.6-4.7l3.9-9.9c0.1-0.3,0.4-0.6,0.7-0.8
			c0.3-0.2,0.7-0.3,1.2-0.3L1369.6,804.7z"/>
		<path class="st37" d="M1379.5,817.8c0.1,1.9,0.6,3.3,1.5,4.2c0.9,0.9,2.1,1.4,3.5,1.5c0.8,0,1.5,0,2.1-0.2
			c0.6-0.2,1.1-0.3,1.6-0.5c0.5-0.2,0.9-0.4,1.3-0.6c0.4-0.2,0.8-0.2,1.2-0.2c0.5,0,0.9,0.3,1.2,0.7l1.8,2.5
			c-0.8,0.8-1.6,1.4-2.4,1.8c-0.8,0.5-1.7,0.8-2.6,1c-0.9,0.2-1.7,0.4-2.6,0.4c-0.9,0.1-1.7,0.1-2.5,0c-1.6-0.1-3.1-0.4-4.4-1
			c-1.4-0.6-2.5-1.4-3.5-2.5c-1-1.1-1.7-2.4-2.3-3.9c-0.5-1.5-0.7-3.3-0.6-5.3c0.1-1.5,0.4-2.9,1-4.2c0.6-1.3,1.4-2.5,2.5-3.4
			c1-1,2.3-1.7,3.7-2.2c1.4-0.5,3-0.7,4.8-0.6c1.5,0.1,2.9,0.4,4.1,1c1.2,0.5,2.3,1.3,3.1,2.2s1.5,2.1,1.9,3.4s0.6,2.8,0.5,4.4
			c0,0.5-0.1,0.9-0.1,1.2c-0.1,0.3-0.2,0.6-0.3,0.7c-0.1,0.2-0.3,0.3-0.5,0.4c-0.2,0.1-0.5,0.1-0.8,0.1L1379.5,817.8z M1388.3,814.4
			c0-0.5,0-1.1-0.1-1.6c-0.1-0.5-0.3-1-0.6-1.4c-0.3-0.4-0.7-0.8-1.2-1c-0.5-0.3-1.1-0.4-1.8-0.5c-1.3-0.1-2.3,0.2-3.1,0.9
			c-0.8,0.7-1.3,1.7-1.6,3.1L1388.3,814.4z"/>
	</g>
	<linearGradient id="SVGID_2_" gradientUnits="userSpaceOnUse" x1="942.7769" y1="1043.1035" x2="1159.5792" y2="1043.1035">
		<stop  offset="0.3102" style="stop-color:#0DB0EF"/>
		<stop  offset="0.9692" style="stop-color:#0088FF"/>
	</linearGradient>
	<path class="st38" d="M1112.9,1023.3c-53.5-23.9-116.7-3-170.1,22.7l3.1,8.3c51.7-25,113-45.5,163.4-22.9
		c20.1,9,33.4,24.7,43.9,42.1l6.3-6.5C1148.7,1049.5,1134.4,1032.9,1112.9,1023.3z"/>
	<linearGradient id="SVGID_3_" gradientUnits="userSpaceOnUse" x1="567.2164" y1="999.8305" x2="760.2383" y2="999.8305">
		<stop  offset="0.3102" style="stop-color:#0DB0EF"/>
		<stop  offset="0.9692" style="stop-color:#0088FF"/>
	</linearGradient>
	<path class="st39" d="M743.4,985.8c-37-29.2-149.3,7.5-172.9,16.2l-3.3,10.6c0.6-0.2,1.2-0.3,1.7-0.5l0.5-0.2
		c1.2-0.5,131.7-48.2,168.5-19.2c8.1,6.4,14.1,17.9,12.7,32.3l9.3-0.3C761.7,1007.3,753.9,994.1,743.4,985.8z"/>
	<linearGradient id="SVGID_4_" gradientUnits="userSpaceOnUse" x1="818.2974" y1="841.6454" x2="818.2974" y2="1234.4243">
		<stop  offset="0.3102" style="stop-color:#FF2A2A"/>
		<stop  offset="0.9692" style="stop-color:#9B0000"/>
	</linearGradient>
	<path class="st40" d="M1269.7,1234.4c-2.8,0-5.5-0.2-8.3-0.7c-27-4.3-46.1-28-58.2-45.5c-12-17.4-22.5-37.6-32.2-61.7
		c-8.9-22.2-16.2-45.2-23.2-67.5c-8.8-27.8-18-56.6-30.1-83.6c-12.5-27.7-27.9-58.2-53.6-69.3c-35.6-15.4-64.1,25-74.6,43.1
		c-16.6,28.3-27.7,59.9-38.4,90.5c-5.2,14.8-10.6,30.1-16.5,44.9l-1.4,3.5c-10.6,26.7-32.7,82.1-65.3,94.4
		c-10.2,3.8-20.6,3.1-30.8-2.1c-18.9-9.7-30.9-35.4-40.6-56.1c-2.2-4.7-4.2-9.1-6.2-12.9c-11.4-22.2-22.7-46.8-35.8-77.5
		c-3.5-8.2-7-16.7-10.4-24.9c-11-26.5-22.3-53.9-35.8-78.9c-10.2-18.9-29.1-54.1-55.1-54.9c-0.4,0-0.7,0-1.1,0
		c-31.9,0-45.3,42.2-54.3,70.2c-1,3.2-2,6.2-2.9,8.9c-4.6,13.9-9.1,28.2-13.4,42.1c-7.8,25.1-15.8,51.1-25.4,75.5l-0.5,1.2
		c-7.8,19.8-25.4,64.4-54.8,64.4c-2.2,0-4.5-0.3-6.9-0.8c-12-2.7-22.2-13.5-27-22.9l-43-85.3c-10.4-20.5-19.4-42.2-28.1-63.1
		c-10.4-25-21.2-50.8-34.3-74.7c-7.6-13.9-19-34.9-35.2-39.4c-6.8-1.9-13.1-1-19.3,2.7c-27,16.4-41.5,80.7-47.1,107.5
		c-0.5,2.4-2.8,3.9-5.2,3.5l0,0l0,0c-2.4-0.5-3.9-2.9-3.4-5.3c8.8-41.7,23.5-96.4,51.2-113.2c8.3-5,17.1-6.3,26.3-3.7
		c19.7,5.6,32.3,28.5,40.6,43.7c13.2,24.3,24.1,50.3,34.7,75.5c8.7,20.8,17.6,42.2,27.9,62.5l43,85.3c3.8,7.6,12.3,16.3,21,18.3
		c26.2,6,43.9-39.1,51.5-58.3l0.5-1.2c9.5-24.1,17.5-49.9,25.2-74.9c4.3-13.9,8.8-28.3,13.4-42.3c0.9-2.7,1.9-5.7,2.9-8.8
		c9.9-30.9,24.8-77.5,64.1-76.3c31.1,0.9,51.6,39,62.6,59.5c13.7,25.4,25.1,53,36.2,79.7c3.4,8.2,6.9,16.6,10.4,24.8
		c13,30.5,24.3,54.9,35.5,76.9c2,4,4.1,8.4,6.3,13.2c9.1,19.5,20.5,43.7,36.6,52c8.1,4.1,15.8,4.7,23.7,1.7
		c29-10.9,50.9-65.9,60.2-89.4l1.4-3.6c5.9-14.6,11.2-29.8,16.4-44.5c10.9-31,22.1-63,39.1-92.1c11.8-20.1,43.7-64.9,85.8-46.7
		c31,13.4,48,51.2,58.2,73.7c12.4,27.5,21.6,56.5,30.5,84.6c7,22.2,14.3,45.1,23,66.9c9.4,23.5,19.6,43.1,31.2,60
		c11.1,16.1,28.7,38,52.3,41.8c21.9,3.5,43.7-9.8,66.7-40.6c19.4-26,34.1-58.9,47.5-90.8c0.9-2.2,3.5-3.3,5.8-2.4l0,0
		c2.2,0.9,3.3,3.5,2.4,5.8c-13.6,32.4-28.6,65.9-48.5,92.7C1314.2,1219.7,1292.3,1234.4,1269.7,1234.4z"/>
	<linearGradient id="SVGID_5_" gradientUnits="userSpaceOnUse" x1="382.1663" y1="1013.3278" x2="570.5196" y2="1013.3278">
		<stop  offset="0.3102" style="stop-color:#0DB0EF"/>
		<stop  offset="0.9692" style="stop-color:#0088FF"/>
	</linearGradient>
	<path class="st41" d="M566.2,1003.7c-135.4,40.1-166.8,35.5-173.4,25c-6.7-10.6,6.8-29.7,12.5-36.2l0.2-0.2c0.3-0.4,0.7-0.9,1-1.3
		l-4.1-9.5c-1.2,1.8-2.5,3.6-3.8,5.3c-2,2.3-24.7,28.7-13.3,46.7c14.3,22.6,73.8,11.1,181.9-20.8l3.3-10.6
		C568.4,1002.8,566.9,1003.4,566.2,1003.7z"/>
	<linearGradient id="SVGID_6_" gradientUnits="userSpaceOnUse" x1="749.9355" y1="1060.8213" x2="945.9084" y2="1060.8213">
		<stop  offset="0.3102" style="stop-color:#0DB0EF"/>
		<stop  offset="0.9692" style="stop-color:#0088FF"/>
	</linearGradient>
	<path class="st42" d="M941.1,1046.8c-101.9,49.4-140.7,46.1-161.3,31.8c-5.2-3.7-9.6-8.4-12.9-13.9c-2.8-4.7-4.9-9.9-6.2-15.2
		c-1-4.2-1.7-8.5-1.9-12.8c-0.1-2.5-0.2-5.2,0.2-7.7c0.1-0.4,0.7-4.3,0.9-4.3l-9.3,0.3c-0.1,1.2-0.3,2.5-0.5,3.8l0,0.3
		c-0.2,1.5-3.5,37,24.6,56.7c32.7,22.9,85.3,10.2,170.3-31c0.3-0.2,0.6-0.3,0.9-0.5l-3.1-8.3
		C942.2,1046.2,941.7,1046.5,941.1,1046.8z"/>
	<linearGradient id="SVGID_7_" gradientUnits="userSpaceOnUse" x1="1153.251" y1="1109.6411" x2="1386.8562" y2="1109.6411">
		<stop  offset="0" style="stop-color:#0088FF"/>
		<stop  offset="0.6999" style="stop-color:#0DB0EF"/>
	</linearGradient>
	<path class="st43" d="M1386.2,1096.7c-1.3-2.1-4-2.7-6-1.4c-27.7,17-75.6,43.5-111.5,47.5c-19.3,2.2-39.2-0.2-56.8-8.6
		c-8.7-4.1-17-9.5-23.8-16.3c-7.3-7.2-11.7-16-15.5-25.3c-1.8-4.2-3.5-8.5-5.5-12.6c-0.7-1.5-7.7-12.8-7.5-13.1l-6.3,6.5
		c-0.2,0.2,4.3,7.5,4.8,8.3c1.6,3,3.1,6.1,4.5,9.2c2.8,6.2,5.2,12.6,8.4,18.6c9.8,18.4,28.3,30.5,47.7,36.9c6.9,2.3,14,3.9,21.2,4.8
		c5.1,0.7,10.1,1,15.2,1c4.8,0,9.7-0.3,14.6-0.8c37.5-4.3,86.8-31.4,115.1-48.8C1386.8,1101.5,1387.5,1098.7,1386.2,1096.7z"/>
	<g>
		<path d="M380.7,641.2l-24.4,57c-0.4,0.9-0.9,1.6-1.5,2c-0.6,0.4-1.5,0.6-2.8,0.6h-10.2l8.8-18.3l-18.2-41.3h12.1
			c1.1,0,1.9,0.2,2.4,0.7s1,1,1.3,1.7l7.5,19.5c0.7,1.8,1.3,3.6,1.7,5.5c0.3-0.9,0.6-1.9,1-2.8c0.3-0.9,0.7-1.8,1-2.7l6.8-19.4
			c0.3-0.7,0.7-1.2,1.4-1.7c0.7-0.5,1.4-0.7,2.2-0.7H380.7z"/>
	</g>
	<g>
		<path d="M194.2,1065.3c0,0.9-0.2,1.8-0.5,2.7c-0.3,0.9-0.7,1.6-1.3,2.1l-19.1,24.9h20.4v10h-36.1v-5.5c0-0.6,0.1-1.3,0.4-2.1
			c0.3-0.8,0.7-1.6,1.3-2.4l19.3-25.3h-19.8v-10h35.3V1065.3z"/>
	</g>
	<g>
		<path d="M1535.3,1128.3h-13.1c-1,0-1.8-0.2-2.4-0.7c-0.6-0.5-1.1-1-1.4-1.7l-8.2-13.9c-0.1,0.5-0.3,1-0.5,1.4
			c-0.2,0.4-0.4,0.8-0.7,1.2l-6.7,11.3c-0.4,0.6-0.9,1.1-1.5,1.6s-1.3,0.7-2.2,0.7h-12.2l15.3-23.4l-14.7-21.9h13.1
			c1,0,1.7,0.1,2.1,0.4c0.5,0.2,0.9,0.7,1.2,1.2l8.2,13.4c0.2-0.5,0.4-1,0.7-1.5c0.3-0.5,0.6-1,0.9-1.5l5.8-10.1
			c0.4-0.6,0.8-1.1,1.3-1.4c0.5-0.3,1-0.4,1.7-0.4h12.5l-14.7,21.2L1535.3,1128.3z"/>
	</g>
</g>
</svg>
