<?xml version="1.0" encoding="utf-8"?>
<!-- Generator: Adobe Illustrator 21.0.0, SVG Export Plug-In . SVG Version: 6.00 Build 0)  -->
<svg version="1.1" id="Layer_1" xmlns="http://www.w3.org/2000/svg" xmlns:xlink="http://www.w3.org/1999/xlink" x="0px" y="0px"
	 viewBox="0 0 1644 1506" style="enable-background:new 0 0 1644 1506;" xml:space="preserve">
<style type="text/css">
	.st0{display:none;}
	.st1{display:inline;}
	.st2{fill:none;stroke:#000000;stroke-width:7;stroke-miterlimit:10;}
	.st3{fill:none;stroke:#000000;stroke-width:7;stroke-miterlimit:10;stroke-dasharray:11.9387,11.9387;}
	.st4{fill:#D6D7D8;}
	.st5{fill:#336699;}
	.st6{fill:#666666;}
	.st7{fill:#999999;}
	.st8{fill:none;stroke:#336699;stroke-width:7;stroke-miterlimit:10;}
	.st9{fill:none;stroke:#000000;stroke-width:7;stroke-miterlimit:10;stroke-dasharray:12;}
	.st10{fill:none;stroke:#D6D7D8;stroke-miterlimit:10;}
	.st11{fill:#FFFFFF;}
	.st12{fill:#FE8081;stroke:#000000;stroke-width:2;stroke-miterlimit:10;}
	.st13{fill:none;stroke:#000000;stroke-width:3;stroke-miterlimit:10;}
	.st14{fill:#FF0080;stroke:#000000;stroke-miterlimit:10;}
	.st15{opacity:0.22;}
	.st16{fill:none;stroke:#000000;stroke-width:5;stroke-miterlimit:10;}
	.st17{fill:#8C8C8C;stroke:#000000;stroke-width:1.5;stroke-miterlimit:10;}
	.st18{fill:none;stroke:#51B6F1;stroke-width:5;stroke-miterlimit:10;}
	.st19{fill:#51B6F1;}
	.st20{fill:none;stroke:#C9322A;stroke-width:5;stroke-miterlimit:10;}
	.st21{fill:#C9322A;}
	.st22{fill:none;stroke:#030303;stroke-width:3;stroke-miterlimit:10;}
	.st23{fill:none;stroke:#56B971;stroke-width:5;stroke-miterlimit:10;}
	.st24{fill:#56B971;}
	.st25{fill:none;stroke:#000000;stroke-width:0.75;stroke-miterlimit:10;}
	.st26{fill:#041C93;}
	.st27{fill:#4395E6;}
	.st28{fill:#C25829;}
	.st29{fill:#D64370;}
	.st30{fill:#C10E0E;}
	.st31{fill:#FDFDFF;}
	.st32{fill:none;stroke:#000000;stroke-width:1.5;stroke-miterlimit:10;}
	.st33{fill:#EFA973;}
	.st34{fill:#0C0D0E;}
	.st35{fill:url(#SVGID_1_);}
	.st36{fill:#020202;}
	.st37{fill:#052C50;}
	.st38{fill:url(#SVGID_2_);}
	.st39{fill:url(#SVGID_3_);}
	.st40{fill:url(#SVGID_4_);}
	.st41{fill:url(#SVGID_5_);}
	.st42{fill:url(#SVGID_6_);}
	.st43{fill:url(#SVGID_7_);}
	.st44{fill:#9AFFFF;}
	.st45{fill:#CCFFFF;}
	.st46{fill:#A4D7FF;}
	.st47{fill:#67CDCD;}
	.st48{fill:#9ACDFF;}
	.st49{fill:#C80000;}
	.st50{fill:none;stroke:#000000;stroke-width:2;stroke-miterlimit:10;}
	.st51{fill:none;}
	.st52{opacity:0.5;fill:url(#SVGID_8_);}
	.st53{opacity:0.37;fill:url(#SVGID_9_);}
	.st54{opacity:0.7;fill:url(#SVGID_10_);}
	.st55{opacity:0.7;fill:url(#SVGID_11_);}
	.st56{fill:#AAD5FF;}
	.st57{opacity:0.25;fill:#AAC0D5;}
	.st58{opacity:0.7;fill:url(#SVGID_12_);}
	.st59{fill:#231F20;}
	.st60{opacity:0.94;}
	.st61{clip-path:url(#SVGID_14_);}
	.st62{fill:#EC1C24;}
	.st63{opacity:0.9;}
	.st64{fill:url(#SVGID_15_);}
	.st65{clip-path:url(#SVGID_17_);}
	.st66{clip-path:url(#SVGID_19_);}
	.st67{clip-path:url(#SVGID_23_);}
	.st68{fill:url(#SVGID_24_);}
	.st69{fill:url(#SVGID_25_);}
	.st70{fill:url(#SVGID_26_);}
	.st71{fill:url(#SVGID_27_);}
	.st72{fill:url(#SVGID_28_);}
	.st73{fill:url(#SVGID_29_);}
	.st74{fill:url(#SVGID_30_);}
	.st75{fill:url(#SVGID_31_);}
	.st76{fill:url(#SVGID_32_);}
	.st77{fill:url(#SVGID_33_);}
	.st78{fill:url(#SVGID_34_);}
	.st79{fill:url(#SVGID_35_);}
	.st80{fill:url(#SVGID_36_);}
	.st81{fill:url(#SVGID_37_);}
	.st82{fill:url(#SVGID_38_);}
	.st83{fill:url(#SVGID_39_);}
	.st84{fill:url(#SVGID_40_);}
	.st85{fill:url(#SVGID_41_);}
	.st86{fill:url(#SVGID_42_);}
	.st87{fill:url(#SVGID_43_);}
	.st88{fill:url(#SVGID_44_);}
	.st89{fill:url(#SVGID_45_);}
	.st90{fill:url(#SVGID_46_);}
	.st91{fill:url(#SVGID_47_);}
</style>
<g>
	<rect y="99" width="1644" height="126"/>
	<g>
		<g>
			<path class="st11" d="M84.9,147h21.5l-1.5,8.3h-1.2c0.1-0.8,0.1-1.4,0.1-1.9c0-1.8-0.4-3.1-1.3-3.9c-0.9-0.8-2.2-1.2-3.9-1.2
				h-4.4c-0.5,0-0.9,0.1-1.1,0.3c-0.2,0.2-0.4,0.5-0.5,1l-2.4,9.3h2.5c1.5,0,2.8-0.4,3.7-1.1c0.9-0.7,1.7-1.9,2.2-3.7h1.3L96.7,166
				h-1.3c0.2-0.9,0.4-1.7,0.4-2.4c0-1.1-0.3-2-0.9-2.6s-1.4-0.9-2.3-0.9h-2.8l-2.6,10.2c0,0.1,0,0.2,0,0.3c0,0.3,0.1,0.5,0.3,0.7
				c0.3,0.2,0.8,0.3,1.3,0.3h2.9l-0.3,1.3h-12l0.3-1.3h1.7c0.7,0,1.2-0.1,1.5-0.4s0.6-0.8,0.8-1.7l5.2-19.5c0.1-0.3,0.1-0.6,0.1-0.8
				c0-0.3-0.1-0.5-0.3-0.7c-0.2-0.1-0.7-0.2-1.4-0.2h-2.5L84.9,147z"/>
			<path class="st11" d="M112.9,147h11.8l-0.3,1.3h-1.8c-0.6,0-1.1,0.1-1.4,0.4c-0.3,0.3-0.6,0.7-0.7,1.3l-5.4,19.8
				c0,0.2-0.1,0.5-0.1,0.8c0,0.4,0.1,0.7,0.4,0.9s0.8,0.3,1.5,0.3h2.2l-0.3,1.3h-12l0.3-1.3h1.7c1.4,0,2.2-0.5,2.4-1.4l5.4-20.5
				c0-0.2,0.1-0.3,0.1-0.4c0-0.3-0.1-0.6-0.4-0.7s-0.7-0.3-1.3-0.3h-2.6L112.9,147z"/>
			<path class="st11" d="M149.5,149.1l1.5-1.8h1.2l-1.5,9.2h-1.2c-0.1-2.9-0.7-5.1-2-6.6s-2.9-2.3-4.9-2.3c-1.9,0-3.7,0.8-5.4,2.3
				s-3.1,3.9-4.1,7.2c-0.9,2.7-1.3,5.3-1.3,7.6c0,2.4,0.6,4.3,1.7,5.6s2.7,1.9,4.6,1.9c1.1,0,2.1-0.2,2.9-0.5s1.6-0.9,2.2-1.7
				s1.1-1.5,1.3-2.2l1-3.7l0.2-0.5l0-0.3c0-0.3-0.1-0.6-0.4-0.7s-0.6-0.3-1.2-0.3h-1.8l0.3-1.3h9.5l-0.1,1.3h-1
				c-0.9,0-1.5,0.4-1.8,1.3L147,173h-1.1l-0.2-3c-1.3,1.2-2.6,2.1-4,2.7s-2.7,0.8-4.3,0.8c-2.8,0-5.1-0.9-7-2.8s-2.7-4.4-2.7-7.5
				c0-2.8,0.8-5.6,2.3-8.3s3.4-4.8,5.7-6.3s4.7-2.3,7.2-2.3c1.3,0,2.4,0.2,3.4,0.6S148.4,148.1,149.5,149.1z"/>
			<path class="st11" d="M162.4,147H174l-0.3,1.3h-2.2c-0.4,0-0.8,0.1-1.1,0.4s-0.5,0.6-0.6,1l-3.8,14.3c-0.2,0.8-0.3,1.7-0.3,2.5
				c0,1.7,0.5,3.1,1.5,4.1s2.3,1.5,4.1,1.5c2.1,0,3.8-0.6,5-1.8c1.6-1.5,2.8-3.8,3.6-6.8l2.9-10.9c0.1-0.6,0.2-1,0.2-1.4
				c0-0.9-0.3-1.5-0.8-2s-1.2-0.7-2.1-0.7h-0.8l0.3-1.3h9.4l-0.3,1.3c-1.1,0-2,0.3-2.6,0.8c-0.7,0.6-1.2,1.5-1.5,2.6l-3.3,12.1
				c-0.6,2.3-1.4,4.2-2.4,5.6c-1,1.4-2.1,2.4-3.5,3.1c-1.4,0.7-3,1-5,1c-2.8,0-4.9-0.6-6.3-1.9c-1.4-1.2-2.1-3-2.1-5.1
				c0-1.3,0.2-2.8,0.6-4.4l3.3-12.3c0-0.2,0.1-0.4,0.1-0.6c0-0.3-0.1-0.5-0.3-0.6s-0.6-0.2-1-0.2h-2.5L162.4,147z"/>
			<path class="st11" d="M195.2,147h12.1c3,0,5.2,0.6,6.5,1.7s2.1,2.6,2.1,4.4c0,1.4-0.4,2.6-1.2,3.5c-0.8,0.9-2,1.7-3.5,2.2
				c-1.1,0.4-2.7,0.7-5,0.9c1.3,0.4,2.2,0.9,2.8,1.4c0.6,0.6,1,1.3,1.3,2.1c0.2,0.6,0.3,2.2,0.3,4.8c0,1.5,0.1,2.4,0.3,2.7
				c0.2,0.4,0.4,0.5,0.8,0.5c0.9,0,1.7-1,2.5-3.1l0.9,0.3c-1.1,3.2-2.8,4.8-5.1,4.8c-1,0-1.9-0.4-2.5-1.1s-1-1.8-1-3.2
				c0-0.8,0.1-1.6,0.2-2.6c0.2-1.2,0.3-2,0.3-2.5c0-1.3-0.3-2.3-1-2.9c-0.7-0.6-1.8-0.9-3.4-0.9h-2.5l-2.7,10.2c0,0.1,0,0.2,0,0.3
				c0,0.3,0.1,0.6,0.3,0.7c0.3,0.2,0.8,0.3,1.3,0.3h2.6l-0.3,1.3h-11.9l0.3-1.3h2.1c0.9,0,1.5-0.4,1.7-1.3l5.5-20.6
				c0-0.1,0.1-0.3,0.1-0.4c0-0.3-0.1-0.6-0.4-0.8s-0.8-0.3-1.4-0.3h-2.6L195.2,147z M200.6,158.9h3.5c1.9,0,3.4-0.3,4.5-0.8
				c1.1-0.5,1.9-1.2,2.4-2.1c0.7-1.2,1-2.5,1-3.8c0-1.3-0.4-2.2-1.3-2.9c-0.9-0.7-2.3-1-4.4-1c-1.3,0-2.1,0.1-2.5,0.3
				c-0.4,0.2-0.7,0.6-0.8,1.1L200.6,158.9z"/>
			<path class="st11" d="M225.9,147h20.8l-2,8.4h-1.2c0.2-1.1,0.3-2,0.3-2.7c0-1.5-0.4-2.6-1.2-3.3c-0.8-0.7-2.1-1.1-3.8-1.1h-3.6
				c-0.5,0-0.9,0.1-1.1,0.4c-0.3,0.3-0.5,0.8-0.7,1.6l-2.3,8.6h1.8c2.8,0,4.7-1.5,5.6-4.6h1.3l-3.1,11.8h-1.3
				c0.2-1.1,0.4-1.9,0.4-2.4c0-1.1-0.3-2-0.9-2.6c-0.6-0.6-1.4-0.9-2.5-0.9h-1.6l-2.6,9.8c-0.1,0.2-0.1,0.4-0.1,0.6
				c0,0.3,0.1,0.6,0.3,0.7c0.3,0.2,0.6,0.3,1.1,0.3h4.1c2.1,0,4-0.6,5.6-1.8s2.9-3.2,4.1-5.9h1.3l-2.8,9h-21.2l0.2-1.3h1.4
				c1.2,0,1.9-0.4,2.2-1.3l5.4-20.4c0.1-0.2,0.1-0.4,0.1-0.6c0-0.3-0.1-0.6-0.4-0.8s-0.8-0.3-1.5-0.3h-2.2L225.9,147z"/>
			<path class="st11" d="M278.9,148.1h1l-5.7,21.9c0,0.1-0.1,0.3-0.1,0.4c0,0.4,0.1,0.7,0.4,0.9c0.3,0.2,0.7,0.3,1.3,0.3h2.3
				l-0.4,1.3h-11.3l0.4-1.3h1.2c1.8,0,2.9-0.6,3.2-1.9l4.4-16.5c0-0.1,0-0.3,0-0.4c0-0.4-0.2-0.6-0.5-0.9s-0.9-0.3-1.6-0.3h-2.1
				l0.3-1.3c1.6-0.1,2.9-0.4,4-0.7C276.9,149.3,277.9,148.8,278.9,148.1z"/>
			<path class="st11" d="M290.7,169.2c0.6,0,1.1,0.2,1.5,0.6s0.6,0.9,0.6,1.5c0,0.6-0.2,1.1-0.6,1.5s-0.9,0.6-1.5,0.6
				c-0.6,0-1.1-0.2-1.5-0.6s-0.6-0.9-0.6-1.5c0-0.6,0.2-1.1,0.6-1.5S290.1,169.2,290.7,169.2z"/>
			<path class="st11" d="M316.1,148.1h1l-5.7,21.9c0,0.1-0.1,0.3-0.1,0.4c0,0.4,0.1,0.7,0.4,0.9c0.3,0.2,0.7,0.3,1.3,0.3h2.3
				L315,173h-11.3l0.4-1.3h1.2c1.8,0,2.9-0.6,3.2-1.9l4.4-16.5c0-0.1,0-0.3,0-0.4c0-0.4-0.2-0.6-0.5-0.9s-0.9-0.3-1.6-0.3h-2.1
				l0.3-1.3c1.6-0.1,2.9-0.4,4-0.7C314.1,149.3,315.2,148.8,316.1,148.1z"/>
			<path class="st11" d="M343.4,147h11.8c3.3,0,5.8,0.9,7.7,2.7s2.7,4.4,2.7,7.7c0,2.2-0.4,4.3-1.2,6.3s-1.8,3.7-3,4.9
				c-1.2,1.3-2.8,2.3-4.7,3.1c-2,0.8-3.9,1.2-5.9,1.2h-13.3l0.4-1.3h1.4c0.8,0,1.4-0.1,1.7-0.4s0.6-0.7,0.8-1.4l5.3-20.1
				c0-0.1,0-0.3,0-0.4c0-0.3-0.1-0.6-0.4-0.7s-0.8-0.3-1.6-0.3H343L343.4,147z M350.1,171.7c1.7,0,3.2-0.3,4.5-0.9
				c1.3-0.6,2.4-1.6,3.4-2.9s1.8-3,2.4-5.2c0.8-2.8,1.2-5.3,1.2-7.4c0-2.7-0.7-4.6-2.2-5.7c-1.1-0.8-2.8-1.2-5.3-1.2
				c-1.4,0-2.3,0.1-2.6,0.3c-0.3,0.2-0.5,0.6-0.8,1.4l-5.3,20.1c-0.1,0.2-0.1,0.5-0.1,0.7c0,0.3,0.1,0.5,0.3,0.7
				c0.2,0.2,0.6,0.3,1,0.3H350.1z"/>
			<path class="st11" d="M375.2,147H396l-2,8.4h-1.2c0.2-1.1,0.3-2,0.3-2.7c0-1.5-0.4-2.6-1.2-3.3c-0.8-0.7-2.1-1.1-3.8-1.1h-3.6
				c-0.5,0-0.9,0.1-1.1,0.4c-0.3,0.3-0.5,0.8-0.7,1.6l-2.3,8.6h1.8c2.8,0,4.7-1.5,5.6-4.6h1.3l-3.1,11.8h-1.3
				c0.2-1.1,0.4-1.9,0.4-2.4c0-1.1-0.3-2-0.9-2.6c-0.6-0.6-1.4-0.9-2.5-0.9h-1.6l-2.6,9.8c-0.1,0.2-0.1,0.4-0.1,0.6
				c0,0.3,0.1,0.6,0.3,0.7c0.3,0.2,0.6,0.3,1.1,0.3h4.1c2.1,0,4-0.6,5.6-1.8c1.6-1.2,2.9-3.2,4.1-5.9h1.3l-2.8,9h-21.2l0.2-1.3h1.4
				c1.2,0,1.9-0.4,2.2-1.3l5.4-20.4c0.1-0.2,0.1-0.4,0.1-0.6c0-0.3-0.1-0.6-0.4-0.8s-0.8-0.3-1.5-0.3h-2.2L375.2,147z"/>
			<path class="st11" d="M404.4,147h10.1c2.5,0,4.5,0.3,5.8,0.8c1.3,0.5,2.4,1.3,3.1,2.3s1.1,2.2,1.1,3.5c0,2.3-0.8,4-2.5,5.4
				c-2.1,1.7-5.2,2.6-9.1,2.6c-0.9,0-2.3-0.1-4.1-0.2l-2.3,8.9c0,0.2-0.1,0.3-0.1,0.5c0,0.3,0.1,0.6,0.4,0.8s0.7,0.3,1.3,0.3h2.2
				l-0.3,1.3h-11.2l0.3-1.3h1.3c1.2,0,1.9-0.4,2.2-1.2l5.5-20.6c0-0.2,0.1-0.3,0.1-0.5c0-0.4-0.1-0.6-0.4-0.8s-0.8-0.3-1.5-0.3h-2
				L404.4,147z M409,159.9c1.3,0.2,2.3,0.2,3.2,0.2c2.7,0,4.7-0.6,6-1.9c1.5-1.4,2.2-3.3,2.2-5.7c0-1.4-0.4-2.5-1.3-3.2
				c-0.9-0.7-2.4-1-4.6-1c-1,0-1.7,0.1-2.1,0.3s-0.6,0.5-0.7,1L409,159.9z"/>
			<path class="st11" d="M432.4,147h11.8l-0.3,1.3h-1.8c-0.6,0-1.1,0.1-1.4,0.4c-0.3,0.3-0.6,0.7-0.7,1.3l-5.4,19.8
				c0,0.2-0.1,0.5-0.1,0.8c0,0.4,0.1,0.7,0.4,0.9s0.8,0.3,1.5,0.3h2.2l-0.3,1.3h-12l0.3-1.3h1.7c1.4,0,2.2-0.5,2.4-1.4l5.4-20.5
				c0-0.2,0.1-0.3,0.1-0.4c0-0.3-0.1-0.6-0.4-0.7s-0.7-0.3-1.3-0.3h-2.6L432.4,147z"/>
			<path class="st11" d="M468.7,149.3l1.8-1.7h1.2l-1.9,9.5h-1.1c0-2-0.2-3.5-0.5-4.6c-0.4-1.6-1.2-2.8-2.2-3.6
				c-1-0.8-2.2-1.3-3.6-1.3c-1.8,0-3.5,0.7-5.1,2.1c-1.6,1.4-2.9,3.7-4,6.7c-0.9,2.7-1.3,5.2-1.3,7.8c0,2.5,0.6,4.5,1.9,5.8
				c1.3,1.4,3,2,5.1,2c1.8,0,3.5-0.6,5-1.7c1.5-1.2,2.7-2.9,3.7-5.3l1.1,0.4c-0.9,2.4-2.2,4.3-3.6,5.5c-1.9,1.6-4.2,2.4-6.9,2.4
				c-3,0-5.5-1-7.5-3s-3-4.5-3-7.6c0-2.9,0.7-5.6,2.1-8.3c1.4-2.7,3.2-4.8,5.4-6.1s4.4-2.1,6.8-2.1c1.2,0,2.3,0.2,3.3,0.7
				C466.5,147.4,467.6,148.2,468.7,149.3z"/>
			<path class="st11" d="M480.8,147h21.5l-2.3,9.5h-1.3c0.3-1.6,0.5-2.9,0.5-3.9c0-1.5-0.3-2.7-1-3.4s-1.8-1.1-3.2-1.1
				c-0.9,0-1.4,0.1-1.7,0.3s-0.6,0.6-0.7,1.3l-5.4,20.5c0,0.1-0.1,0.2-0.1,0.4c0,0.4,0.1,0.6,0.4,0.8c0.3,0.2,0.7,0.3,1.4,0.3h2.7
				l-0.4,1.3h-12.8l0.3-1.3h2.4c0.7,0,1.2-0.1,1.6-0.4s0.6-0.6,0.7-1.1l5.4-20.2c0.1-0.2,0.1-0.5,0.1-0.7c0-0.3-0.1-0.6-0.4-0.8
				c-0.3-0.2-0.7-0.3-1.4-0.3c-1.1,0-2.1,0.3-3,0.8c-1,0.6-1.9,1.5-2.8,2.8c-0.5,0.7-1.4,2.3-2.7,4.8h-1.2L480.8,147z"/>
			<path class="st11" d="M508.6,147h11.8l-0.3,1.3h-1.8c-0.6,0-1.1,0.1-1.4,0.4c-0.3,0.3-0.6,0.7-0.7,1.3l-5.4,19.8
				c0,0.2-0.1,0.5-0.1,0.8c0,0.4,0.1,0.7,0.4,0.9s0.8,0.3,1.5,0.3h2.2l-0.3,1.3h-12l0.3-1.3h1.7c1.4,0,2.2-0.5,2.4-1.4l5.4-20.5
				c0-0.2,0.1-0.3,0.1-0.4c0-0.3-0.1-0.6-0.4-0.7s-0.7-0.3-1.3-0.3h-2.6L508.6,147z"/>
			<path class="st11" d="M538.9,146.3c2.9,0,5.2,1,7.1,2.9s2.8,4.4,2.8,7.5c0,3-0.7,5.8-2.1,8.4s-3.3,4.6-5.8,6.2s-4.9,2.3-7.5,2.3
				c-2.8,0-5.1-1-7-2.9s-2.8-4.4-2.8-7.5c0-3,0.7-5.8,2.2-8.4s3.3-4.7,5.7-6.2S536.3,146.3,538.9,146.3z M539,147.6
				c-1.4,0-2.7,0.3-3.9,1s-2.4,1.8-3.5,3.4s-2.1,3.6-2.8,6.1s-1.1,4.9-1.1,7.3c0,2.3,0.5,4.1,1.5,5.2s2.4,1.8,4.3,1.8
				c1.9,0,3.6-0.6,5.2-1.8s2.9-3.3,4.1-6.2c1.4-3.4,2.1-6.7,2.1-9.9c0-2.2-0.5-3.9-1.6-5.1S540.8,147.6,539,147.6z"/>
			<path class="st11" d="M558.4,147h7.4l9.1,19.9l4-15.3c0.1-0.3,0.1-0.6,0.1-0.9c0-0.8-0.2-1.4-0.7-1.8s-1.2-0.7-2.2-0.7h-0.7
				l0.3-1.3h9.1l-0.3,1.3c-2,0.1-3.3,1.1-3.8,3.1l-5.8,21.6h-1.2l-10.2-22.4l-4.5,16.8c-0.2,0.8-0.3,1.3-0.3,1.7
				c0,0.5,0.1,1,0.4,1.4c0.2,0.4,0.5,0.6,0.9,0.8c0.7,0.3,1.5,0.4,2.2,0.4h0.6l-0.3,1.3h-9.8l0.3-1.3c1.4-0.2,2.3-0.5,2.8-1
				s1-1.6,1.5-3.2l4.7-17.3c0-0.1,0.1-0.2,0.1-0.3c0-0.4-0.2-0.7-0.6-1c-0.6-0.4-1.3-0.5-2.2-0.5h-1L558.4,147z"/>
			<path class="st11" d="M617,146.3c2.9,0,5.2,1,7.1,2.9s2.8,4.4,2.8,7.5c0,3-0.7,5.8-2.1,8.4s-3.3,4.6-5.8,6.2s-4.9,2.3-7.5,2.3
				c-2.8,0-5.1-1-7-2.9s-2.8-4.4-2.8-7.5c0-3,0.7-5.8,2.2-8.4s3.3-4.7,5.7-6.2S614.5,146.3,617,146.3z M617.1,147.6
				c-1.4,0-2.7,0.3-3.9,1s-2.4,1.8-3.5,3.4s-2.1,3.6-2.8,6.1s-1.1,4.9-1.1,7.3c0,2.3,0.5,4.1,1.5,5.2s2.4,1.8,4.3,1.8
				c1.9,0,3.6-0.6,5.2-1.8s2.9-3.3,4.1-6.2c1.4-3.4,2.1-6.7,2.1-9.9c0-2.2-0.5-3.9-1.6-5.1S618.9,147.6,617.1,147.6z"/>
			<path class="st11" d="M636.2,147h21.5l-1.5,8.3h-1.2c0.1-0.8,0.1-1.4,0.1-1.9c0-1.8-0.4-3.1-1.3-3.9c-0.9-0.8-2.2-1.2-3.9-1.2
				h-4.4c-0.5,0-0.9,0.1-1.1,0.3c-0.2,0.2-0.4,0.5-0.5,1l-2.4,9.3h2.5c1.5,0,2.8-0.4,3.7-1.1c0.9-0.7,1.7-1.9,2.2-3.7h1.3L648,166
				h-1.3c0.2-0.9,0.4-1.7,0.4-2.4c0-1.1-0.3-2-0.9-2.6s-1.4-0.9-2.3-0.9H641l-2.6,10.2c0,0.1,0,0.2,0,0.3c0,0.3,0.1,0.5,0.3,0.7
				c0.3,0.2,0.7,0.3,1.3,0.3h2.9l-0.3,1.3h-12l0.3-1.3h1.7c0.7,0,1.2-0.1,1.5-0.4s0.6-0.8,0.8-1.7l5.2-19.5c0.1-0.3,0.1-0.6,0.1-0.8
				c0-0.3-0.1-0.5-0.3-0.7s-0.7-0.2-1.4-0.2h-2.5L636.2,147z"/>
			<path class="st11" d="M696.2,149.1l1.5-1.8h1.2l-1.5,9.2h-1.2c-0.1-2.9-0.7-5.1-2-6.6s-2.9-2.3-4.9-2.3c-1.9,0-3.7,0.8-5.4,2.3
				s-3.1,3.9-4.1,7.2c-0.9,2.7-1.3,5.3-1.3,7.6c0,2.4,0.6,4.3,1.7,5.6s2.7,1.9,4.6,1.9c1.1,0,2.1-0.2,2.9-0.5s1.6-0.9,2.2-1.7
				s1.1-1.5,1.3-2.2l1-3.7l0.2-0.5l0-0.3c0-0.3-0.1-0.6-0.4-0.7s-0.6-0.3-1.2-0.3h-1.8l0.3-1.3h9.5l-0.1,1.3h-1
				c-0.9,0-1.5,0.4-1.8,1.3l-2.5,9.5h-1.1l-0.2-3c-1.3,1.2-2.6,2.1-4,2.7s-2.7,0.8-4.3,0.8c-2.8,0-5.1-0.9-7-2.8s-2.7-4.4-2.7-7.5
				c0-2.8,0.8-5.6,2.3-8.3s3.4-4.8,5.7-6.3s4.7-2.3,7.2-2.3c1.3,0,2.4,0.2,3.4,0.6S695,148.1,696.2,149.1z"/>
			<path class="st11" d="M709,147h11.6l-0.3,1.3H718c-0.4,0-0.8,0.1-1.1,0.4s-0.5,0.6-0.6,1l-3.8,14.3c-0.2,0.8-0.3,1.7-0.3,2.5
				c0,1.7,0.5,3.1,1.5,4.1s2.3,1.5,4.1,1.5c2.1,0,3.8-0.6,5-1.8c1.6-1.5,2.8-3.8,3.6-6.8l2.9-10.9c0.1-0.6,0.2-1,0.2-1.4
				c0-0.9-0.3-1.5-0.8-2s-1.2-0.7-2.1-0.7h-0.8l0.3-1.3h9.4l-0.3,1.3c-1.1,0-2,0.3-2.6,0.8c-0.7,0.6-1.2,1.5-1.5,2.6l-3.3,12.1
				c-0.6,2.3-1.4,4.2-2.4,5.6s-2.1,2.4-3.5,3.1s-3,1-5,1c-2.8,0-4.9-0.6-6.3-1.9c-1.4-1.2-2.1-3-2.1-5.1c0-1.3,0.2-2.8,0.6-4.4
				l3.3-12.3c0-0.2,0.1-0.4,0.1-0.6c0-0.3-0.1-0.5-0.3-0.6s-0.6-0.2-1-0.2h-2.5L709,147z"/>
			<path class="st11" d="M753.1,147h1.4l3.2,22.9c0.1,0.6,0.3,1.1,0.7,1.3c0.4,0.3,1,0.4,1.9,0.4h0.9l-0.4,1.3h-10.5l0.4-1.3h0.9
				c1,0,1.7-0.1,2-0.3s0.5-0.5,0.5-1c0-0.2,0-0.4-0.1-0.6l-0.7-5.3h-9.4l-2.3,3.6c-0.4,0.6-0.6,1.3-0.6,1.9c0,0.5,0.2,0.9,0.6,1.2
				s1,0.4,1.9,0.4h0.9l-0.4,1.3h-9.2l0.4-1.3c0.9-0.1,1.7-0.3,2.4-0.8s1.4-1.2,2.1-2.3L753.1,147z M751.5,152.3l-6.7,10.6h8.2
				L751.5,152.3z"/>
			<path class="st11" d="M786.5,149.2c0.4-0.3,1.1-0.9,1.9-1.6h1.2l-1.9,9h-1.2c0-1.7-0.2-3.1-0.5-4.1c-0.5-1.5-1.2-2.6-2.3-3.4
				s-2.3-1.2-3.8-1.2c-1.7,0-3,0.5-4.1,1.4s-1.6,2.1-1.6,3.5c0,0.7,0.1,1.4,0.4,1.9s0.7,1,1.3,1.4s1.6,0.9,3.3,1.5
				c2.3,0.8,3.8,1.5,4.6,1.8c1.2,0.6,2.1,1.4,2.7,2.4c0.6,1,0.9,2.1,0.9,3.5c0,1.5-0.4,2.9-1.2,4.2c-0.8,1.3-1.9,2.3-3.5,3
				c-1.5,0.8-3.2,1.2-5.1,1.2c-1.4,0-2.6-0.2-3.8-0.7s-2.3-1.2-3.5-2.2l-2.1,1.7H767l1.9-9.3h1.2c0,2.3,0.3,4,0.8,5.2
				s1.4,2.2,2.7,2.9s2.5,1.1,4,1.1c1.9,0,3.4-0.5,4.7-1.6s1.9-2.4,1.9-3.8c0-0.7-0.2-1.4-0.5-2s-0.8-1.1-1.6-1.6
				c-0.5-0.4-1.7-0.9-3.7-1.6c-2.4-0.9-4-1.6-4.7-2.2s-1.4-1.3-1.8-2.1s-0.6-1.9-0.6-3c0-2.2,0.8-4,2.5-5.6s3.7-2.3,6.1-2.3
				C782.1,146.4,784.3,147.3,786.5,149.2z"/>
			<path class="st11" d="M814.1,149.2c0.4-0.3,1.1-0.9,1.9-1.6h1.2l-1.9,9h-1.2c0-1.7-0.2-3.1-0.5-4.1c-0.5-1.5-1.2-2.6-2.3-3.4
				s-2.3-1.2-3.8-1.2c-1.7,0-3,0.5-4.1,1.4s-1.6,2.1-1.6,3.5c0,0.7,0.1,1.4,0.4,1.9s0.7,1,1.3,1.4s1.6,0.9,3.3,1.5
				c2.3,0.8,3.8,1.5,4.6,1.8c1.2,0.6,2.1,1.4,2.7,2.4c0.6,1,0.9,2.1,0.9,3.5c0,1.5-0.4,2.9-1.2,4.2c-0.8,1.3-1.9,2.3-3.5,3
				c-1.5,0.8-3.2,1.2-5.1,1.2c-1.4,0-2.6-0.2-3.8-0.7s-2.3-1.2-3.5-2.2l-2.1,1.7h-1.1l1.9-9.3h1.2c0,2.3,0.3,4,0.8,5.2
				s1.4,2.2,2.7,2.9s2.5,1.1,4,1.1c1.9,0,3.4-0.5,4.7-1.6s1.9-2.4,1.9-3.8c0-0.7-0.2-1.4-0.5-2s-0.8-1.1-1.6-1.6
				c-0.5-0.4-1.7-0.9-3.7-1.6c-2.4-0.9-4-1.6-4.7-2.2s-1.4-1.3-1.8-2.1s-0.6-1.9-0.6-3c0-2.2,0.8-4,2.5-5.6s3.7-2.3,6.1-2.3
				C809.7,146.4,811.9,147.3,814.1,149.2z"/>
			<path class="st11" d="M839.9,147h12.4l-0.3,1.3h-2.2c-0.8,0-1.3,0.1-1.6,0.3s-0.6,0.7-0.7,1.3l-5.3,20c-0.1,0.3-0.1,0.5-0.1,0.7
				c0,0.3,0.1,0.6,0.4,0.8c0.2,0.2,0.6,0.3,1.2,0.3h3.4c1.8,0,3.5-0.6,5-1.7s2.9-3.1,4.3-5.9h1.1l-2.5,8.9h-20l0.2-1.3h1.1
				c1.2,0,1.9-0.5,2.2-1.5l5.4-20.2c0.1-0.2,0.1-0.4,0.1-0.7c0-0.3-0.1-0.6-0.4-0.8s-0.8-0.3-1.5-0.3h-2.3L839.9,147z"/>
			<path class="st11" d="M878.5,147h1.4l3.2,22.9c0.1,0.6,0.3,1.1,0.7,1.3c0.4,0.3,1,0.4,1.9,0.4h0.9l-0.4,1.3h-10.5l0.4-1.3h0.9
				c1,0,1.7-0.1,2-0.3s0.5-0.5,0.5-1c0-0.2,0-0.4-0.1-0.6l-0.7-5.3h-9.4l-2.3,3.6c-0.4,0.6-0.6,1.3-0.6,1.9c0,0.5,0.2,0.9,0.6,1.2
				s1,0.4,1.9,0.4h0.9l-0.4,1.3h-9.2l0.4-1.3c0.9-0.1,1.7-0.3,2.4-0.8s1.4-1.2,2.1-2.3L878.5,147z M876.9,152.3l-6.7,10.6h8.2
				L876.9,152.3z"/>
			<path class="st11" d="M895,147h8.7l-0.3,1.3h-1.1c-0.6,0-1,0.1-1.2,0.3c-0.2,0.2-0.3,0.6-0.3,1.1v0.2l1.4,16.9l7.7-15
				c0-1.7-0.2-2.7-0.4-3c-0.3-0.4-0.9-0.6-1.7-0.6h-1.5l0.3-1.3H917l-0.3,1.3h-1.5c-0.7,0-1.1,0.1-1.5,0.4c-0.3,0.2-0.5,0.5-0.5,0.9
				l0,0.2l1.4,17l8.2-16.1c0.2-0.4,0.3-0.8,0.3-1.1c0-0.4-0.2-0.8-0.5-1s-0.8-0.4-1.3-0.4h-0.7l0.2-1.3h7.1l-0.2,1.3
				c-0.7,0.1-1.3,0.4-1.8,0.7c-0.6,0.6-1.2,1.3-1.7,2.3L913,173.6h-1.2l-1.6-19l-9.7,19h-1.2l-2-23.5c-0.1-0.7-0.2-1.2-0.5-1.4
				s-0.9-0.3-1.8-0.4L895,147z"/>
			<path class="st11" d="M946.8,147h21.5l-1.5,8.3h-1.2c0.1-0.8,0.1-1.4,0.1-1.9c0-1.8-0.4-3.1-1.3-3.9c-0.9-0.8-2.2-1.2-3.9-1.2
				H956c-0.5,0-0.9,0.1-1.1,0.3c-0.2,0.2-0.4,0.5-0.5,1l-2.4,9.3h2.5c1.5,0,2.8-0.4,3.7-1.1s1.7-1.9,2.2-3.7h1.3l-3.2,11.9h-1.3
				c0.2-0.9,0.4-1.7,0.4-2.4c0-1.1-0.3-2-0.9-2.6s-1.4-0.9-2.3-0.9h-2.8l-2.6,10.2c0,0.1,0,0.2,0,0.3c0,0.3,0.1,0.5,0.3,0.7
				c0.3,0.2,0.8,0.3,1.3,0.3h2.9l-0.3,1.3h-12l0.3-1.3h1.7c0.7,0,1.2-0.1,1.5-0.4s0.6-0.8,0.8-1.7l5.2-19.5c0.1-0.3,0.1-0.6,0.1-0.8
				c0-0.3-0.1-0.5-0.3-0.7s-0.7-0.2-1.4-0.2h-2.5L946.8,147z"/>
			<path class="st11" d="M986.8,146.3c2.9,0,5.2,1,7.1,2.9s2.8,4.4,2.8,7.5c0,3-0.7,5.8-2.1,8.4s-3.3,4.6-5.8,6.2s-4.9,2.3-7.5,2.3
				c-2.8,0-5.1-1-7-2.9s-2.8-4.4-2.8-7.5c0-3,0.7-5.8,2.2-8.4s3.3-4.7,5.7-6.2S984.3,146.3,986.8,146.3z M987,147.6
				c-1.4,0-2.7,0.3-3.9,1s-2.4,1.8-3.5,3.4s-2.1,3.6-2.8,6.1s-1.1,4.9-1.1,7.3c0,2.3,0.5,4.1,1.5,5.2s2.4,1.8,4.3,1.8
				c1.9,0,3.6-0.6,5.2-1.8s2.9-3.3,4.1-6.2c1.4-3.4,2.1-6.7,2.1-9.9c0-2.2-0.5-3.9-1.6-5.1S988.7,147.6,987,147.6z"/>
			<path class="st11" d="M1005.9,147h12.1c3,0,5.2,0.6,6.5,1.7s2.1,2.6,2.1,4.4c0,1.4-0.4,2.6-1.2,3.5c-0.8,0.9-2,1.7-3.5,2.2
				c-1.1,0.4-2.7,0.7-5,0.9c1.3,0.4,2.2,0.9,2.8,1.4c0.6,0.6,1,1.3,1.3,2.1c0.2,0.6,0.3,2.2,0.3,4.8c0,1.5,0.1,2.4,0.3,2.7
				c0.2,0.4,0.4,0.5,0.8,0.5c0.9,0,1.7-1,2.5-3.1l0.9,0.3c-1.1,3.2-2.8,4.8-5.1,4.8c-1,0-1.9-0.4-2.5-1.1s-1-1.8-1-3.2
				c0-0.8,0.1-1.6,0.2-2.6c0.2-1.2,0.3-2,0.3-2.5c0-1.3-0.3-2.3-1-2.9s-1.8-0.9-3.4-0.9h-2.5l-2.7,10.2c0,0.1,0,0.2,0,0.3
				c0,0.3,0.1,0.6,0.3,0.7c0.3,0.2,0.8,0.3,1.3,0.3h2.6l-0.3,1.3h-11.9l0.3-1.3h2.1c0.9,0,1.5-0.4,1.7-1.3l5.5-20.6
				c0-0.1,0.1-0.3,0.1-0.4c0-0.3-0.1-0.6-0.4-0.8s-0.8-0.3-1.4-0.3h-2.6L1005.9,147z M1011.3,158.9h3.5c1.9,0,3.4-0.3,4.5-0.8
				s1.9-1.2,2.4-2.1c0.7-1.2,1-2.5,1-3.8c0-1.3-0.4-2.2-1.3-2.9s-2.3-1-4.4-1c-1.3,0-2.1,0.1-2.5,0.3c-0.4,0.2-0.7,0.6-0.8,1.1
				L1011.3,158.9z"/>
			<path class="st11" d="M1050.2,147h20.8l-2,8.4h-1.2c0.2-1.1,0.3-2,0.3-2.7c0-1.5-0.4-2.6-1.2-3.3c-0.8-0.7-2.1-1.1-3.8-1.1h-3.6
				c-0.5,0-0.9,0.1-1.1,0.4c-0.3,0.3-0.5,0.8-0.7,1.6l-2.3,8.6h1.8c2.8,0,4.7-1.5,5.6-4.6h1.3l-3.1,11.8h-1.3
				c0.2-1.1,0.4-1.9,0.4-2.4c0-1.1-0.3-2-0.9-2.6s-1.4-0.9-2.5-0.9h-1.6l-2.6,9.8c-0.1,0.2-0.1,0.4-0.1,0.6c0,0.3,0.1,0.6,0.3,0.7
				c0.3,0.2,0.6,0.3,1.1,0.3h4.1c2.1,0,4-0.6,5.6-1.8s2.9-3.2,4.1-5.9h1.3l-2.8,9h-21.2l0.2-1.3h1.4c1.2,0,1.9-0.4,2.2-1.3l5.4-20.4
				c0.1-0.2,0.1-0.4,0.1-0.6c0-0.3-0.1-0.6-0.4-0.8s-0.8-0.3-1.5-0.3h-2.2L1050.2,147z"/>
			<path class="st11" d="M1079.7,147h12.4l-0.3,1.3h-2.2c-0.8,0-1.3,0.1-1.6,0.3s-0.6,0.7-0.7,1.3l-5.3,20c-0.1,0.3-0.1,0.5-0.1,0.7
				c0,0.3,0.1,0.6,0.3,0.8s0.6,0.3,1.2,0.3h3.4c1.8,0,3.5-0.6,5-1.7s2.9-3.1,4.3-5.9h1.1l-2.5,8.9h-20l0.2-1.3h1.1
				c1.2,0,1.9-0.5,2.2-1.5l5.4-20.2c0.1-0.2,0.1-0.4,0.1-0.7c0-0.3-0.1-0.6-0.4-0.8s-0.8-0.3-1.5-0.3h-2.3L1079.7,147z"/>
			<path class="st11" d="M1107.4,147h20.8l-2,8.4h-1.2c0.2-1.1,0.3-2,0.3-2.7c0-1.5-0.4-2.6-1.2-3.3c-0.8-0.7-2.1-1.1-3.8-1.1h-3.6
				c-0.5,0-0.9,0.1-1.1,0.4c-0.3,0.3-0.5,0.8-0.7,1.6l-2.3,8.6h1.8c2.8,0,4.7-1.5,5.6-4.6h1.3l-3.1,11.8h-1.3
				c0.2-1.1,0.4-1.9,0.4-2.4c0-1.1-0.3-2-0.9-2.6s-1.4-0.9-2.5-0.9h-1.6l-2.6,9.8c-0.1,0.2-0.1,0.4-0.1,0.6c0,0.3,0.1,0.6,0.3,0.7
				c0.3,0.2,0.6,0.3,1.1,0.3h4.1c2.1,0,4-0.6,5.6-1.8c1.6-1.2,2.9-3.2,4.1-5.9h1.3l-2.8,9H1102l0.2-1.3h1.4c1.2,0,1.9-0.4,2.2-1.3
				l5.4-20.4c0.1-0.2,0.1-0.4,0.1-0.6c0-0.3-0.1-0.6-0.4-0.8s-0.8-0.3-1.5-0.3h-2.2L1107.4,147z"/>
			<path class="st11" d="M1155.1,149.3l1.8-1.7h1.2l-1.9,9.5h-1.1c0-2-0.2-3.5-0.5-4.6c-0.4-1.6-1.2-2.8-2.2-3.6
				c-1-0.8-2.2-1.3-3.6-1.3c-1.8,0-3.5,0.7-5.1,2.1c-1.6,1.4-2.9,3.7-4,6.7c-0.9,2.7-1.3,5.2-1.3,7.8c0,2.5,0.6,4.5,1.9,5.8
				s3,2,5.1,2c1.8,0,3.5-0.6,5-1.7c1.5-1.2,2.7-2.9,3.7-5.3l1.1,0.4c-0.9,2.4-2.2,4.3-3.6,5.5c-1.9,1.6-4.2,2.4-6.9,2.4
				c-3,0-5.5-1-7.5-3s-3-4.5-3-7.6c0-2.9,0.7-5.6,2.1-8.3c1.4-2.7,3.2-4.8,5.4-6.1s4.4-2.1,6.8-2.1c1.2,0,2.3,0.2,3.3,0.7
				C1152.9,147.4,1153.9,148.2,1155.1,149.3z"/>
			<path class="st11" d="M1167.2,147h21.5l-2.3,9.5h-1.3c0.3-1.6,0.5-2.9,0.5-3.9c0-1.5-0.3-2.7-1-3.4c-0.7-0.7-1.8-1.1-3.2-1.1
				c-0.9,0-1.4,0.1-1.7,0.3c-0.3,0.2-0.6,0.6-0.7,1.3l-5.4,20.5c0,0.1-0.1,0.2-0.1,0.4c0,0.4,0.1,0.6,0.4,0.8
				c0.3,0.2,0.7,0.3,1.4,0.3h2.7l-0.4,1.3h-12.8l0.3-1.3h2.4c0.7,0,1.2-0.1,1.6-0.4s0.6-0.6,0.7-1.1l5.4-20.2
				c0.1-0.2,0.1-0.5,0.1-0.7c0-0.3-0.1-0.6-0.4-0.8s-0.7-0.3-1.4-0.3c-1.1,0-2.1,0.3-3,0.8c-1,0.6-1.9,1.5-2.8,2.8
				c-0.5,0.7-1.4,2.3-2.7,4.8h-1.2L1167.2,147z"/>
			<path class="st11" d="M1194.5,147h12.1c3,0,5.2,0.6,6.5,1.7s2.1,2.6,2.1,4.4c0,1.4-0.4,2.6-1.2,3.5c-0.8,0.9-2,1.7-3.5,2.2
				c-1.1,0.4-2.7,0.7-5,0.9c1.3,0.4,2.2,0.9,2.8,1.4c0.6,0.6,1,1.3,1.3,2.1c0.2,0.6,0.3,2.2,0.3,4.8c0,1.5,0.1,2.4,0.3,2.7
				c0.2,0.4,0.4,0.5,0.8,0.5c0.9,0,1.7-1,2.5-3.1l0.9,0.3c-1.1,3.2-2.8,4.8-5.1,4.8c-1,0-1.9-0.4-2.5-1.1s-1-1.8-1-3.2
				c0-0.8,0.1-1.6,0.2-2.6c0.2-1.2,0.3-2,0.3-2.5c0-1.3-0.3-2.3-1-2.9s-1.8-0.9-3.4-0.9h-2.5l-2.7,10.2c0,0.1,0,0.2,0,0.3
				c0,0.3,0.1,0.6,0.3,0.7c0.3,0.2,0.8,0.3,1.3,0.3h2.6l-0.3,1.3h-11.9l0.3-1.3h2.1c0.9,0,1.5-0.4,1.7-1.3l5.5-20.6
				c0-0.1,0.1-0.3,0.1-0.4c0-0.3-0.1-0.6-0.4-0.8s-0.8-0.3-1.4-0.3h-2.6L1194.5,147z M1199.8,158.9h3.5c1.9,0,3.4-0.3,4.5-0.8
				c1.1-0.5,1.9-1.2,2.4-2.1c0.7-1.2,1-2.5,1-3.8c0-1.3-0.4-2.2-1.3-2.9c-0.9-0.7-2.3-1-4.4-1c-1.3,0-2.1,0.1-2.5,0.3
				s-0.7,0.6-0.8,1.1L1199.8,158.9z"/>
			<path class="st11" d="M1225.2,147h11.8l-0.3,1.3h-1.8c-0.6,0-1.1,0.1-1.4,0.4c-0.3,0.3-0.6,0.7-0.7,1.3l-5.4,19.8
				c0,0.2-0.1,0.5-0.1,0.8c0,0.4,0.1,0.7,0.4,0.9s0.8,0.3,1.5,0.3h2.2l-0.3,1.3h-12l0.3-1.3h1.7c1.4,0,2.2-0.5,2.4-1.4l5.4-20.5
				c0-0.2,0.1-0.3,0.1-0.4c0-0.3-0.1-0.6-0.4-0.7s-0.7-0.3-1.3-0.3h-2.6L1225.2,147z"/>
			<path class="st11" d="M1261.5,149.3l1.8-1.7h1.2l-1.9,9.5h-1.1c0-2-0.2-3.5-0.5-4.6c-0.4-1.6-1.2-2.8-2.2-3.6
				c-1-0.8-2.2-1.3-3.6-1.3c-1.8,0-3.5,0.7-5.1,2.1c-1.6,1.4-2.9,3.7-4,6.7c-0.9,2.7-1.3,5.2-1.3,7.8c0,2.5,0.6,4.5,1.9,5.8
				s3,2,5.1,2c1.8,0,3.5-0.6,5-1.7c1.5-1.2,2.7-2.9,3.7-5.3l1.1,0.4c-0.9,2.4-2.2,4.3-3.6,5.5c-1.9,1.6-4.2,2.4-6.9,2.4
				c-3,0-5.5-1-7.5-3s-3-4.5-3-7.6c0-2.9,0.7-5.6,2.1-8.3c1.4-2.7,3.2-4.8,5.4-6.1s4.4-2.1,6.8-2.1c1.2,0,2.3,0.2,3.3,0.7
				C1259.3,147.4,1260.3,148.2,1261.5,149.3z"/>
			<path class="st11" d="M1286.3,147h21.5l-1.5,8.3h-1.2c0.1-0.8,0.1-1.4,0.1-1.9c0-1.8-0.4-3.1-1.3-3.9c-0.9-0.8-2.2-1.2-3.9-1.2
				h-4.4c-0.5,0-0.9,0.1-1.1,0.3c-0.2,0.2-0.4,0.5-0.5,1l-2.4,9.3h2.5c1.5,0,2.8-0.4,3.7-1.1s1.7-1.9,2.2-3.7h1.3l-3.2,11.9h-1.3
				c0.2-0.9,0.4-1.7,0.4-2.4c0-1.1-0.3-2-0.9-2.6s-1.4-0.9-2.3-0.9h-2.8l-2.6,10.2c0,0.1,0,0.2,0,0.3c0,0.3,0.1,0.5,0.3,0.7
				c0.3,0.2,0.8,0.3,1.3,0.3h2.9l-0.3,1.3h-12l0.3-1.3h1.7c0.7,0,1.2-0.1,1.5-0.4s0.6-0.8,0.8-1.7l5.2-19.5c0.1-0.3,0.1-0.6,0.1-0.8
				c0-0.3-0.1-0.5-0.3-0.7s-0.7-0.2-1.4-0.2h-2.5L1286.3,147z"/>
			<path class="st11" d="M1314.3,147h11.8l-0.3,1.3h-1.8c-0.6,0-1.1,0.1-1.4,0.4c-0.3,0.3-0.6,0.7-0.7,1.3l-5.4,19.8
				c0,0.2-0.1,0.5-0.1,0.8c0,0.4,0.1,0.7,0.4,0.9s0.8,0.3,1.5,0.3h2.2l-0.3,1.3h-12l0.3-1.3h1.7c1.4,0,2.2-0.5,2.4-1.4l5.4-20.5
				c0-0.2,0.1-0.3,0.1-0.4c0-0.3-0.1-0.6-0.4-0.7s-0.7-0.3-1.3-0.3h-2.6L1314.3,147z"/>
			<path class="st11" d="M1332.5,147h20.8l-2,8.4h-1.2c0.2-1.1,0.3-2,0.3-2.7c0-1.5-0.4-2.6-1.2-3.3c-0.8-0.7-2.1-1.1-3.8-1.1h-3.6
				c-0.5,0-0.9,0.1-1.1,0.4c-0.3,0.3-0.5,0.8-0.7,1.6l-2.3,8.6h1.8c2.8,0,4.7-1.5,5.6-4.6h1.3l-3.1,11.8h-1.3
				c0.2-1.1,0.4-1.9,0.4-2.4c0-1.1-0.3-2-0.9-2.6s-1.4-0.9-2.5-0.9h-1.6l-2.6,9.8c-0.1,0.2-0.1,0.4-0.1,0.6c0,0.3,0.1,0.6,0.3,0.7
				c0.3,0.2,0.6,0.3,1.1,0.3h4.1c2.1,0,4-0.6,5.6-1.8c1.6-1.2,2.9-3.2,4.1-5.9h1.3l-2.8,9h-21.2l0.2-1.3h1.4c1.2,0,1.9-0.4,2.2-1.3
				l5.4-20.4c0.1-0.2,0.1-0.4,0.1-0.6c0-0.3-0.1-0.6-0.4-0.8s-0.8-0.3-1.5-0.3h-2.2L1332.5,147z"/>
			<path class="st11" d="M1362,147h12.4l-0.3,1.3h-2.2c-0.8,0-1.3,0.1-1.6,0.3s-0.6,0.7-0.7,1.3l-5.3,20c-0.1,0.3-0.1,0.5-0.1,0.7
				c0,0.3,0.1,0.6,0.3,0.8s0.6,0.3,1.2,0.3h3.4c1.8,0,3.5-0.6,5-1.7s2.9-3.1,4.3-5.9h1.1l-2.5,8.9h-20l0.2-1.3h1.1
				c1.2,0,1.9-0.5,2.2-1.5l5.4-20.2c0.1-0.2,0.1-0.4,0.1-0.7c0-0.3-0.1-0.6-0.4-0.8s-0.8-0.3-1.5-0.3h-2.3L1362,147z"/>
			<path class="st11" d="M1389.5,147h11.8c3.3,0,5.8,0.9,7.7,2.7s2.7,4.4,2.7,7.7c0,2.2-0.4,4.3-1.2,6.3s-1.8,3.7-3,4.9
				c-1.2,1.3-2.8,2.3-4.7,3.1s-3.9,1.2-5.9,1.2h-13.3l0.4-1.3h1.4c0.8,0,1.4-0.1,1.7-0.4s0.6-0.7,0.8-1.4l5.3-20.1
				c0-0.1,0-0.3,0-0.4c0-0.3-0.1-0.6-0.4-0.7s-0.8-0.3-1.6-0.3h-1.9L1389.5,147z M1396.2,171.7c1.7,0,3.2-0.3,4.5-0.9
				s2.4-1.6,3.4-2.9s1.8-3,2.4-5.2c0.8-2.8,1.2-5.3,1.2-7.4c0-2.7-0.7-4.6-2.2-5.7c-1.1-0.8-2.8-1.2-5.3-1.2c-1.4,0-2.3,0.1-2.6,0.3
				c-0.3,0.2-0.5,0.6-0.8,1.4l-5.3,20.1c-0.1,0.2-0.1,0.5-0.1,0.7c0,0.3,0.1,0.5,0.3,0.7s0.6,0.3,1,0.3H1396.2z"/>
			<path class="st11" d="M1434.8,147h12.4l-0.3,1.3h-2.2c-0.8,0-1.3,0.1-1.6,0.3c-0.3,0.2-0.6,0.7-0.7,1.3l-5.3,20
				c-0.1,0.3-0.1,0.5-0.1,0.7c0,0.3,0.1,0.6,0.4,0.8s0.6,0.3,1.2,0.3h3.4c1.8,0,3.5-0.6,5-1.7c1.5-1.1,2.9-3.1,4.3-5.9h1.1l-2.5,8.9
				h-20l0.2-1.3h1.1c1.2,0,1.9-0.5,2.2-1.5l5.4-20.2c0.1-0.2,0.1-0.4,0.1-0.7c0-0.3-0.1-0.6-0.4-0.8s-0.8-0.3-1.5-0.3h-2.3
				L1434.8,147z"/>
			<path class="st11" d="M1462.6,147h11.8l-0.3,1.3h-1.8c-0.6,0-1.1,0.1-1.4,0.4c-0.3,0.3-0.6,0.7-0.7,1.3l-5.4,19.8
				c0,0.2-0.1,0.5-0.1,0.8c0,0.4,0.1,0.7,0.4,0.9s0.8,0.3,1.5,0.3h2.2l-0.3,1.3h-12l0.3-1.3h1.7c1.4,0,2.2-0.5,2.4-1.4l5.4-20.5
				c0-0.2,0.1-0.3,0.1-0.4c0-0.3-0.1-0.6-0.4-0.7s-0.7-0.3-1.3-0.3h-2.6L1462.6,147z"/>
			<path class="st11" d="M1480.9,147h7.4l9.1,19.9l4-15.3c0.1-0.3,0.1-0.6,0.1-0.9c0-0.8-0.2-1.4-0.7-1.8s-1.2-0.7-2.2-0.7h-0.7
				l0.3-1.3h9.1l-0.3,1.3c-2,0.1-3.3,1.1-3.8,3.1l-5.8,21.6h-1.2l-10.2-22.4l-4.5,16.8c-0.2,0.8-0.3,1.3-0.3,1.7
				c0,0.5,0.1,1,0.4,1.4s0.5,0.6,0.9,0.8c0.7,0.3,1.5,0.4,2.2,0.4h0.6l-0.3,1.3h-9.8l0.3-1.3c1.4-0.2,2.3-0.5,2.8-1s1-1.6,1.5-3.2
				l4.7-17.3c0-0.1,0.1-0.2,0.1-0.3c0-0.4-0.2-0.7-0.6-1c-0.6-0.4-1.3-0.5-2.2-0.5h-1L1480.9,147z"/>
			<path class="st11" d="M1513.7,147h20.8l-2,8.4h-1.2c0.2-1.1,0.3-2,0.3-2.7c0-1.5-0.4-2.6-1.2-3.3c-0.8-0.7-2.1-1.1-3.8-1.1h-3.6
				c-0.5,0-0.9,0.1-1.1,0.4c-0.3,0.3-0.5,0.8-0.7,1.6l-2.3,8.6h1.8c2.8,0,4.7-1.5,5.6-4.6h1.3l-3.1,11.8h-1.3
				c0.2-1.1,0.4-1.9,0.4-2.4c0-1.1-0.3-2-0.9-2.6s-1.4-0.9-2.5-0.9h-1.6l-2.6,9.8c-0.1,0.2-0.1,0.4-0.1,0.6c0,0.3,0.1,0.6,0.3,0.7
				c0.3,0.2,0.6,0.3,1.1,0.3h4.1c2.1,0,4-0.6,5.6-1.8c1.6-1.2,2.9-3.2,4.1-5.9h1.3l-2.8,9h-21.2l0.2-1.3h1.4c1.2,0,1.9-0.4,2.2-1.3
				l5.4-20.4c0.1-0.2,0.1-0.4,0.1-0.6c0-0.3-0.1-0.6-0.4-0.8s-0.8-0.3-1.5-0.3h-2.2L1513.7,147z"/>
			<path class="st11" d="M1558.6,149.2c0.4-0.3,1.1-0.9,1.9-1.6h1.2l-1.9,9h-1.2c0-1.7-0.2-3.1-0.5-4.1c-0.5-1.5-1.2-2.6-2.3-3.4
				s-2.3-1.2-3.8-1.2c-1.7,0-3,0.5-4.1,1.4s-1.6,2.1-1.6,3.5c0,0.7,0.1,1.4,0.4,1.9s0.7,1,1.3,1.4s1.6,0.9,3.3,1.5
				c2.3,0.8,3.8,1.5,4.6,1.8c1.2,0.6,2.1,1.4,2.7,2.4c0.6,1,0.9,2.1,0.9,3.5c0,1.5-0.4,2.9-1.2,4.2c-0.8,1.3-1.9,2.3-3.5,3
				c-1.5,0.8-3.2,1.2-5.1,1.2c-1.4,0-2.6-0.2-3.8-0.7s-2.3-1.2-3.5-2.2l-2.1,1.7h-1.1l1.9-9.3h1.2c0,2.3,0.3,4,0.8,5.2
				s1.4,2.2,2.7,2.9s2.5,1.1,4,1.1c1.9,0,3.4-0.5,4.7-1.6s1.9-2.4,1.9-3.8c0-0.7-0.2-1.4-0.5-2s-0.8-1.1-1.6-1.6
				c-0.5-0.4-1.7-0.9-3.7-1.6c-2.4-0.9-4-1.6-4.7-2.2s-1.4-1.3-1.8-2.1s-0.6-1.9-0.6-3c0-2.2,0.8-4,2.5-5.6s3.7-2.3,6.1-2.3
				C1554.2,146.4,1556.4,147.3,1558.6,149.2z"/>
		</g>
	</g>
	<g class="st15">
		<path class="st13" d="M255.7,848.6c0,0,269.3-162.4,546.2-208.8"/>
		<path class="st13" d="M243.2,933.7c0,0,324.2-226.8,748.2-283.5"/>
		<path class="st13" d="M293.1,1008.5c0,0,349.2-281,850.4-314.5"/>
		<path class="st13" d="M358,1075.5c0,0,349.2-291.3,890.3-324.8"/>
		<path class="st13" d="M460.2,1137.3c0,0,359.1-286.1,862.9-317"/>
		<path class="st13" d="M589.9,1194c0,0,324.2-247.4,773.1-281"/>
		<path class="st13" d="M767,1232.7c0,0,222-154.7,588.6-206.2"/>
		<path class="st13" d="M243.2,884.7c0,0,281.8,92.8,431.5,329.9"/>
		<path class="st13" d="M293.1,794.5c0,0,331,83.6,581.1,449.1"/>
		<path class="st13" d="M360.5,737.8c0,0,361.6,46.4,655.9,497.5"/>
		<path class="st13" d="M450.2,688.8c0,0,351.6,23.2,695.8,523.3"/>
		<path class="st13" d="M649.8,645c0,0,374.1,177.9,591.1,515.5"/>
		<path class="st13" d="M786.9,639.9c0,0,389.1,195.9,533.7,453.7"/>
		<path class="st13" d="M931.6,645c0,0,264.4,113.4,431.5,337.7"/>
	</g>
	<path class="st13" d="M480.2,674.9c0,0-82.1-28.7-38.1-53.4c0,0,29.4-14.7-58.1-26"/>
	<path class="st16" d="M241.8,917.8c-9.2-104.5,110.5-186.7,191-221.3c87.6-37.7,183.2-49.8,277.7-54.7c89.7-4.6,180-4.6,269.1,8.4
		c80.6,11.7,160.3,34.2,231.7,74c92.3,51.5,156.4,137.8,152.2,248.2c-9.3,245.5-352.7,282.6-527.6,267.7
		c-80.9-6.9-160.9-23.7-238.8-47.2c-82.9-25-165.3-59.3-234.9-113.1C313.3,1042,247.8,985.7,241.8,917.8z"/>
	<polygon class="st17" points="886,913 992,878 1081,962 973,997 	"/>
	<g>
		<path d="M371.6,578.7l2.1-2h1.4l-2.2,11h-1.3c0-2.3-0.2-4.1-0.6-5.3c-0.5-1.8-1.3-3.2-2.5-4.2c-1.1-1-2.6-1.5-4.2-1.5
			c-2.1,0-4,0.8-5.9,2.5c-1.9,1.6-3.4,4.2-4.6,7.8c-1,3.1-1.5,6.1-1.5,9c0,2.9,0.7,5.2,2.2,6.8c1.5,1.6,3.4,2.4,5.9,2.4
			c2.1,0,4.1-0.7,5.9-2c1.8-1.3,3.2-3.4,4.3-6.1l1.3,0.5c-1.1,2.8-2.5,5-4.2,6.4c-2.2,1.9-4.9,2.8-8.1,2.8c-3.5,0-6.4-1.2-8.7-3.5
			c-2.3-2.3-3.4-5.3-3.4-8.8c0-3.3,0.8-6.6,2.5-9.7s3.7-5.5,6.2-7.1c2.5-1.6,5.1-2.4,8-2.4c1.4,0,2.6,0.3,3.8,0.8
			C369,576.6,370.3,577.5,371.6,578.7z"/>
	</g>
	<g>
		<path d="M851.5,1084.4l-10,46.8c-0.3,1.3-0.4,2.5-0.4,3.4c0,0.6,0.1,1,0.3,1.3c0.2,0.3,0.5,0.5,0.9,0.5c1.6,0,3.8-3.1,6.5-9.4
			l1.6,1c-1.7,4.4-3.4,7.6-5,9.4c-1.6,1.9-3.1,2.8-4.4,2.8c-1.2,0-2.1-0.6-2.7-1.7c-0.6-1.1-1-2.8-1.1-5.1c-2.5,4.5-5.4,6.8-8.5,6.8
			c-1.6,0-3-0.5-4.4-1.6c-1.4-1.1-2.5-2.6-3.2-4.7c-0.8-2-1.2-4.3-1.2-6.7c0-3.8,0.8-7.6,2.3-11.5c1.5-3.9,3.4-6.8,5.5-8.8
			c2.2-2,4.4-3,6.6-3c1.5,0,2.9,0.5,4.1,1.5s2.3,2.6,3.2,4.6l4.1-19.4c0.1-0.3,0.1-0.5,0.1-0.7c0-0.6-0.2-1.2-0.6-1.5
			c-0.4-0.4-1-0.6-1.8-0.6h-2.8l0.5-2.7L851.5,1084.4z M835,1107c-1.7,0-3.3,1-4.9,3c-1.6,2-2.9,5.3-4,9.9c-0.8,3.5-1.2,6.5-1.2,9
			c0,2.5,0.5,4.4,1.4,5.9c0.9,1.4,2.1,2.2,3.5,2.2c1.6,0,3.2-1,4.9-3.1c1.6-2.1,2.9-5.2,4-9.3c1-4.2,1.5-7.5,1.5-9.9
			c0-2.3-0.5-4.2-1.4-5.5C837.7,1107.7,836.5,1107,835,1107z"/>
		<path d="M871.4,1133.4c-1.1,2.2-2.4,3.9-3.8,5.1c-1.4,1.1-2.9,1.7-4.3,1.7c-2.7,0-5-1.3-6.9-4s-2.8-6-2.8-10.1
			c0-3.7,0.7-7.3,2.2-10.9c1.5-3.5,3.4-6.3,5.7-8.4s4.5-3.1,6.7-3.1c1.8,0,3.3,0.7,4.7,2.1s2.3,3.2,2.7,5.5l1.6-6.5l4.3-0.7l-6,27.8
			c-0.2,0.8-0.2,1.5-0.2,2.3c0,0.7,0.1,1.2,0.3,1.6c0.2,0.4,0.5,0.5,0.8,0.5c0.5,0,1.2-0.5,1.9-1.5c1.4-1.9,2.6-4.5,3.8-7.7l1.6,1
			c-2.9,8-5.8,12-8.8,12c-1,0-1.8-0.5-2.4-1.5c-0.6-1-1-2.3-1-3.8L871.4,1133.4z M868.5,1106.8c-1.4,0-2.9,0.8-4.4,2.3
			c-1.5,1.5-2.8,4.1-3.9,7.7c-1.1,3.6-1.7,7.3-1.7,11.1c0,3,0.5,5.3,1.4,6.7c0.9,1.4,2.3,2.2,4,2.2c1.5,0,3-0.7,4.3-2.2
			c1.3-1.4,2.6-4.3,3.9-8.5c1.3-4.2,1.9-7.9,1.9-11.2c0-2.3-0.6-4.3-1.7-5.9C871.3,1107.5,870,1106.8,868.5,1106.8z"/>
	</g>
	<g>
		<path d="M988.7,1300.3l-10,46.8c-0.3,1.3-0.4,2.5-0.4,3.4c0,0.6,0.1,1,0.3,1.3c0.2,0.3,0.5,0.5,0.9,0.5c1.6,0,3.8-3.1,6.5-9.4
			l1.6,1c-1.7,4.4-3.4,7.6-5,9.4c-1.6,1.9-3.1,2.8-4.4,2.8c-1.2,0-2.1-0.6-2.7-1.7c-0.6-1.1-1-2.8-1.1-5.1c-2.5,4.5-5.4,6.8-8.5,6.8
			c-1.6,0-3-0.5-4.4-1.6c-1.4-1.1-2.5-2.6-3.2-4.7c-0.8-2-1.2-4.3-1.2-6.7c0-3.8,0.8-7.6,2.3-11.5c1.5-3.9,3.4-6.8,5.5-8.8
			c2.2-2,4.4-3,6.6-3c1.5,0,2.9,0.5,4.1,1.5s2.3,2.6,3.2,4.6l4.1-19.4c0.1-0.3,0.1-0.5,0.1-0.7c0-0.6-0.2-1.2-0.6-1.5
			c-0.4-0.4-1-0.6-1.8-0.6h-2.8l0.5-2.7L988.7,1300.3z M972.1,1322.9c-1.7,0-3.3,1-4.9,3c-1.6,2-2.9,5.3-4,9.9
			c-0.8,3.5-1.2,6.5-1.2,9c0,2.5,0.5,4.4,1.4,5.9c0.9,1.4,2.1,2.2,3.5,2.2c1.6,0,3.2-1,4.9-3.1c1.6-2.1,2.9-5.2,4-9.3
			c1-4.2,1.5-7.5,1.5-9.9c0-2.3-0.5-4.2-1.4-5.5C974.9,1323.6,973.6,1322.9,972.1,1322.9z"/>
		<path d="M1000.5,1309h4.5l-2.4,11.8h5l-0.7,3.1h-4.8l-4.5,22.5c-0.3,1.3-0.4,2.4-0.4,3.3c0,0.9,0.1,1.6,0.4,2.1
			c0.3,0.5,0.6,0.7,1.1,0.7c1.9,0,4.1-3.2,6.8-9.5l1.5,1.1c-3.1,7.9-6.4,11.9-10,11.9c-1.3,0-2.4-0.5-3.1-1.6
			c-0.8-1.1-1.1-2.5-1.1-4.2c0-1.5,0.2-3,0.5-4.7l4.3-21.7h-4.6l0.7-3.1h4.6L1000.5,1309z"/>
	</g>
	<g>
		<path d="M545.1,1246.8l31.2,9.3l-8,15.8l-1.9-0.6c1-2.2,1.7-3.9,2.1-5.3c0.9-2.9,0.9-5.3,0.2-7c-0.8-1.8-2.5-3-5.1-3.8l-5.4-1.6
			c-0.7-0.2-1.4-0.1-1.9,0.2c-0.5,0.4-1.2,1.4-2.1,2.9l-8.5,16.1l2.8,0.8c4.2,1.3,7.9-1,11.1-6.7l1.9,0.6l-11.7,22l-1.9-0.6
			c1-2,1.7-3.6,2-4.6c0.7-2.3,0.8-4.1,0.2-5.6c-0.5-1.4-1.6-2.4-3.2-2.9l-2.4-0.7l-9.7,18.4c-0.2,0.4-0.4,0.7-0.5,1.1
			c-0.2,0.7-0.2,1.2,0,1.6c0.3,0.6,0.7,1,1.4,1.1l6.2,1.9c3.2,1,6.3,0.6,9.4-1.1c3.1-1.7,6.3-5,9.6-10l1.9,0.6l-9.5,16.7l-31.7-9.5
			l1-2.6l2.1,0.6c1.8,0.5,3.1,0,4-1.6l20.2-38.1c0.2-0.4,0.4-0.8,0.5-1.2c0.2-0.7,0.1-1.2-0.2-1.7c-0.3-0.5-1-0.9-2.1-1.3l-3.2-1
			L545.1,1246.8z"/>
		<path d="M573.1,1303.3c0.9,0.3,1.5,0.9,1.9,1.9c0.4,1,0.4,2.1,0,3.3c-0.4,1.2-1,2.1-1.9,2.8c-0.9,0.7-1.8,0.8-2.6,0.6
			c-0.9-0.3-1.5-0.9-1.9-1.9s-0.4-2.1,0-3.4c0.4-1.2,1-2.1,1.8-2.8S572.2,1303,573.1,1303.3z"/>
		<path d="M633.4,1272.5l-23,41.9c-0.7,1.2-1.1,2.3-1.4,3.2c-0.2,0.5-0.2,1,0,1.4c0.1,0.4,0.4,0.6,0.8,0.7c1.6,0.5,4.5-1.9,8.9-7.2
			l1.2,1.4c-2.9,3.8-5.4,6.3-7.5,7.6c-2.1,1.3-3.8,1.8-5,1.4c-1.1-0.3-1.9-1.1-2.1-2.4c-0.3-1.3-0.1-3,0.4-5.2
			c-3.7,3.6-7.1,5-10.1,4.1c-1.5-0.4-2.7-1.4-3.7-2.8c-1-1.4-1.6-3.2-1.8-5.4c-0.2-2.1,0.1-4.4,0.8-6.8c1.1-3.6,2.9-7.1,5.5-10.3
			c2.6-3.3,5.2-5.6,7.8-6.8c2.7-1.3,5.1-1.6,7.2-1c1.5,0.4,2.6,1.3,3.5,2.6c0.9,1.3,1.5,3.1,1.7,5.3l9.4-17.4
			c0.1-0.2,0.2-0.5,0.3-0.7c0.2-0.6,0.2-1.2-0.1-1.6c-0.3-0.5-0.8-0.8-1.5-1.1l-2.7-0.8l1.3-2.5L633.4,1272.5z M611.1,1289.4
			c-1.6-0.5-3.5,0-5.6,1.5c-2.1,1.5-4.3,4.2-6.7,8.4c-1.8,3.1-3,5.9-3.8,8.2c-0.7,2.4-0.8,4.4-0.4,6c0.5,1.6,1.4,2.7,2.7,3.1
			c1.6,0.5,3.4-0.1,5.5-1.6c2.1-1.5,4.3-4.1,6.5-7.8c2.2-3.7,3.6-6.7,4.3-9c0.7-2.2,0.7-4.1,0.2-5.7
			C613.5,1290.8,612.6,1289.8,611.1,1289.4z"/>
		<path d="M647.6,1285.9l4.3,1.3l-5.7,10.6l4.8,1.4l-1.6,2.7l-4.6-1.4l-10.8,20.3c-0.6,1.1-1.1,2.2-1.3,3.1
			c-0.3,0.9-0.3,1.6-0.2,2.1c0.1,0.5,0.4,0.9,0.8,1c1.8,0.5,4.8-1.8,9.2-7.1l1.1,1.5c-5.3,6.7-9.6,9.6-13,8.5
			c-1.3-0.4-2.1-1.2-2.5-2.5c-0.4-1.3-0.4-2.7,0.1-4.4c0.4-1.4,1-2.9,1.8-4.3l10.4-19.5l-4.4-1.3l1.5-2.7l4.4,1.3L647.6,1285.9z"/>
	</g>
	<g>
		<path d="M993.9,777.3c4,0,7.3,1.5,9.9,4.6c3.3,3.8,4.9,9.5,4.9,17.3c0,7.2-1.4,12.6-4.3,16.4c-2.8,3.7-6.3,5.6-10.3,5.6
			c-3.9,0-7.1-1.6-9.7-4.7c-3.2-4-4.9-9.7-4.9-17.1c0-7.1,1.5-12.8,4.6-17C986.6,779,989.8,777.3,993.9,777.3z M994.1,779.5
			c-2.7,0-4.8,1.3-6.3,3.9s-2.3,7.9-2.3,16c0,7.9,0.8,13.2,2.3,15.8c1.6,2.6,3.6,4,6.3,4c2.6,0,4.7-1.2,6.1-3.7
			c1.7-2.9,2.5-8.2,2.5-15.9c0-8-0.8-13.3-2.4-16S996.7,779.5,994.1,779.5z"/>
	</g>
	<path class="st13" d="M972.2,846.5c0,0,24.8-6.6,33.1,24.6"/>
	<g>
		<g>
			<line class="st18" x1="986.7" y1="937.5" x2="909" y2="500.7"/>
			<g>
				<path class="st19" d="M905.9,482.9c4.6,7.8,11.8,17.3,18.5,22.7l-15-2.6l-13.1,7.6C900.8,503.2,904.2,491.8,905.9,482.9z"/>
			</g>
		</g>
	</g>
	<g>
		<g>
			<line class="st20" x1="986.4" y1="940.5" x2="1078.6" y2="623.7"/>
			<g>
				<path class="st21" d="M1083.7,606.3c0.7,9.1,2.9,20.7,6.5,28.6l-12.3-8.9l-15.1,1C1070.2,622.2,1078.3,613.6,1083.7,606.3z"/>
			</g>
		</g>
	</g>
	<path class="st22" d="M976.5,940.5c0,0-445.3,126.1-166.2,161.6"/>
	<g>
		<g>
			<path class="st16" d="M923.7,1276.8c0,0,43.2,5.3,102.9-7.4"/>
			<g>
				<path d="M1044.2,1265.2c-7.6,5-16.6,12.7-21.7,19.7l1.8-15.1l-8.3-12.7C1023.7,1261.2,1035.2,1264.1,1044.2,1265.2z"/>
			</g>
		</g>
	</g>
	<g>
		<g>
			<path class="st23" d="M738.4,1266.1c0,0-144.4-11.7-281.1-81.8"/>
			<g>
				<path class="st24" d="M441.4,1175.8c9,1.2,20.9,1.3,29.3-0.7l-11.2,10.2l-2.1,15C454.3,1192.3,447.4,1182.6,441.4,1175.8z"/>
			</g>
		</g>
	</g>
	<g>
		<g>
			<path d="M863.9,399.8l7.5-0.3v26.2c0,1,0.2,1.7,0.6,2.2c0.4,0.4,1,0.7,1.7,0.7h1.3v1.5h-6.5l-0.5-3.9c-0.8,1.4-1.7,2.4-2.7,3.1
				c-1,0.7-2.2,1.1-3.5,1.1c-2.2,0-4-0.9-5.6-2.7c-1.5-1.8-2.3-4.2-2.3-7.2c0-3.2,1-5.8,2.9-7.8c1.5-1.5,3.3-2.3,5.3-2.3
				c1.2,0,2.3,0.3,3.3,0.9c1,0.6,1.8,1.5,2.5,2.8v-10.8c0-0.6-0.2-1-0.7-1.4s-1.1-0.5-2.1-0.5h-1.4V399.8z M862.7,412
				c-1.5,0-2.6,0.6-3.5,1.8c-0.9,1.2-1.3,3.3-1.3,6.1c0,3.1,0.4,5.3,1.3,6.6c0.9,1.3,2,1.9,3.4,1.9c1.5,0,2.8-0.7,3.8-2.1
				s1.6-3.5,1.6-6.2c0-2.6-0.6-4.6-1.7-6.1C865.3,412.6,864.1,412,862.7,412z"/>
			<path d="M877.6,399.8h15.7c3.1,0,5.5,0.7,7.1,2c1.6,1.4,2.5,3.1,2.5,5.1c0,1.7-0.6,3.2-1.7,4.4c-1.1,1.2-2.9,2.1-5.2,2.8
				c2.8,0.6,5,1.5,6.4,2.8c1.4,1.3,2.1,2.9,2.1,4.9c0,1.5-0.4,2.8-1.2,4c-0.8,1.2-2.2,2.1-4,2.9s-4,1.2-6.4,1.2h-15.3v-1.5h2.5
				c0.7,0,1.3-0.1,1.6-0.4c0.3-0.2,0.5-0.5,0.5-0.8v-24.2c0-0.6-0.2-1-0.5-1.3c-0.3-0.3-0.8-0.4-1.5-0.4h-2.7V399.8z M886.7,413.7
				h5.7c1.8,0,3.2-0.5,4.2-1.5c1-1,1.6-2.7,1.6-5.1c0-1.5-0.2-2.6-0.7-3.4c-0.5-0.8-1.2-1.4-2.2-1.8c-0.9-0.4-2.6-0.6-4.9-0.6
				c-1.6,0-2.7,0.1-3.1,0.4c-0.4,0.2-0.6,0.7-0.6,1.3V413.7z M886.7,415.2v11.6c0,0.5,0.2,1,0.5,1.2c0.3,0.3,0.9,0.4,1.7,0.4h3.7
				c2.4,0,4.2-0.5,5.4-1.6s1.7-2.7,1.7-5c0-2.1-0.6-3.7-1.8-4.9c-1.2-1.2-2.9-1.8-5-1.8H886.7z"/>
		</g>
		<g>
			<path d="M870.8,449.7l7.5-0.3v26.2c0,1,0.2,1.7,0.6,2.2c0.4,0.4,1,0.7,1.7,0.7h1.3v1.5h-6.5l-0.5-3.9c-0.8,1.4-1.7,2.4-2.7,3.1
				c-1,0.7-2.2,1.1-3.5,1.1c-2.2,0-4-0.9-5.6-2.7c-1.5-1.8-2.3-4.2-2.3-7.2c0-3.2,1-5.8,2.9-7.8c1.5-1.5,3.3-2.3,5.3-2.3
				c1.2,0,2.3,0.3,3.3,0.9c1,0.6,1.8,1.5,2.5,2.8v-10.8c0-0.6-0.2-1-0.7-1.4s-1.1-0.5-2.1-0.5h-1.4V449.7z M869.6,461.9
				c-1.5,0-2.6,0.6-3.5,1.8c-0.9,1.2-1.3,3.3-1.3,6.1c0,3.1,0.4,5.3,1.3,6.6c0.9,1.3,2,1.9,3.4,1.9c1.5,0,2.8-0.7,3.8-2.1
				s1.6-3.5,1.6-6.2c0-2.6-0.6-4.6-1.7-6.1C872.3,462.5,871.1,461.9,869.6,461.9z"/>
			<path d="M889,453h1.4v7.8h6.2v1.9h-6.2v12.3c0,1.1,0.3,1.9,0.8,2.4c0.5,0.6,1.1,0.8,1.9,0.8c0.9,0,1.7-0.4,2.4-1.3s1-2.3,1.1-4.2
				h1.4c-0.1,2.5-0.7,4.4-1.7,5.7c-1.1,1.2-2.5,1.8-4.2,1.8c-1.6,0-2.8-0.4-3.7-1.3c-0.9-0.9-1.3-2-1.3-3.4v-12.8h-3.3v-1.4
				c1.5-0.3,2.7-0.9,3.5-1.9C888.3,457.8,888.9,455.7,889,453z"/>
		</g>
		<rect x="845.9" y="438" width="65.7" height="1.9"/>
	</g>
	<g>
		<g>
			<path d="M1103.9,568.6l-2.6,9.9c4.5-6.6,8.7-9.9,12.6-9.9c1.5,0,2.7,0.5,3.7,1.5s1.4,2.4,1.4,4.2c0,1.5-0.3,3.2-1,5.3l-2.7,10.3
				l-0.6,2.6c-0.1,0.6-0.2,1.1-0.2,1.5c0,0.4,0.1,0.8,0.4,1.1c0.3,0.3,0.5,0.5,0.9,0.5c0.9,0,2.1-0.7,3.5-2c1.4-1.3,2.7-3.4,3.8-6.1
				l2,0.6c-1.4,3.3-3.1,5.9-5.1,7.6c-2,1.7-4,2.6-5.7,2.6c-1.2,0-2.3-0.4-3.1-1.3s-1.2-2-1.2-3.4c0-1.2,0.2-2.5,0.6-3.9l2.9-11.1
				c0.4-1.2,0.6-2.4,0.6-3.6c0-1-0.2-1.7-0.6-2.3c-0.4-0.6-0.9-0.9-1.5-0.9c-1.3,0-3.4,1.5-6.4,4.5c-2.9,3-5.2,7.1-6.7,12.3
				l-2.1,9.1l-5,0.2l6.3-23.7c0.1-0.4,0.2-0.7,0.2-1.1c0-0.6-0.2-1.1-0.6-1.4c-0.5-0.4-1.3-0.6-2.2-0.6h-2.7l0.6-2L1103.9,568.6z"/>
		</g>
	</g>
	<polyline class="st25" points="1096.1,564.3 1106.2,552.5 1116.3,564.3 	"/>
</g>
</svg>
